<?xml version="1.0" ?><svg data-name="Слой 1" id="Слой_1" viewBox="0 0 96 96" xmlns="http://www.w3.org/2000/svg"><defs><style>
      .cls-1 {
        fill: #1048c9;
      }

      .cls-2 {
        fill: #1769ff;
      }

      .cls-3 {
        fill: none;
        stroke: #fff;
        stroke-linecap: round;
        stroke-linejoin: round;
        stroke-width: 3px;
      }

      .cls-4 {
        fill: #fff;
      }
    </style></defs><title/><path class="cls-1" d="M92,48v.13A44,44,0,1,1,47.87,4H48c1.06,0,2.11,0,3.16.12a42.89,42.89,0,0,1,5.12.67,43.39,43.39,0,0,1,8.1,2.37A44.13,44.13,0,0,1,88.79,31.47a43.22,43.22,0,0,1,2.43,8.24h0a44,44,0,0,1,.67,5.17C92,45.92,92,47,92,48Z"/><path class="cls-2" d="M91,44.5v.12A39.53,39.53,0,1,1,51.38,5h.12c1,0,1.89,0,2.84.11a38.38,38.38,0,0,1,4.59.6,39.33,39.33,0,0,1,5.45,1.45A44.13,44.13,0,0,1,88.79,31.47a38.33,38.33,0,0,1,1.51,5.59h0a39.22,39.22,0,0,1,.6,4.64C91,42.63,91,43.57,91,44.5Z"/><path class="cls-3" d="M74.66,21.93a36.47,36.47,0,0,1,3,3.52"/><path class="cls-3" d="M58,12a38.11,38.11,0,0,1,11.78,5.76"/><g><path class="cls-4" d="M44.56,46.88a6.09,6.09,0,0,0,3.38-5.79c0-4.59-4-5.88-9.12-5.88H27.76V60.77H38.82s10.3.79,10.3-7.3C49.12,49.27,46.79,47.57,44.56,46.88Zm-5.74-7.29s3.65-.35,3.65,3.21A2.74,2.74,0,0,1,40,45.53H33.35V39.59Zm0,16.8H33.35v-7H40a3.51,3.51,0,0,1,3.44,3.7C43.47,56.71,38.82,56.39,38.82,56.39Z"/><path class="cls-4" d="M59.12,56.94c-4.29,0-4.21-4.7-4.21-4.7H68.24c0-6.18-2.59-10.94-9.12-10.94s-9.27,5.59-9.27,9.35,1.47,10.14,9.27,10.14,8.79-6.23,8.79-6.23H63.47S62.81,56.94,59.12,56.94ZM59,45.14a4,4,0,0,1,4.11,3.91H54.91A4,4,0,0,1,59,45.14Z"/><rect class="cls-4" height="2.91" width="10.32" x="54" y="36.47"/></g></svg>