<svg width="652" height="470" viewBox="0 0 652 470" fill="none" xmlns="http://www.w3.org/2000/svg">
<g filter="url(#filter0_d)">
<rect x="4.98145" y="130.361" width="581.302" height="339.603" rx="16" transform="rotate(-12.9592 4.98145 130.361)" fill="#F94144"/>
<rect x="36.8857" y="269.003" width="581.302" height="151.444" transform="rotate(-12.9592 36.8857 269.003)" fill="white"/>
<path d="M162.543 334.877C162.665 335.404 162.635 335.924 162.453 336.436C162.262 336.908 162.293 337.414 162.546 337.954C162.449 338.276 162.277 338.551 162.03 338.778C161.824 338.997 161.813 339.32 161.997 339.748C161.247 340.391 160.586 341.142 160.014 342C159.473 342.809 158.867 343.611 158.195 344.407C157.792 344.885 157.426 345.247 157.098 345.493C156.801 345.69 156.442 345.986 156.02 346.383L154.721 347.707C154.115 348.232 153.489 348.761 152.842 349.294C152.236 349.819 151.714 350.43 151.276 351.13C150.433 351.367 149.611 351.791 148.811 352.402C148.021 353.055 147.257 353.637 146.519 354.148C146.223 354.345 145.916 354.501 145.601 354.616C145.295 354.772 144.998 354.969 144.71 355.206L143.834 355.857C143.331 356.272 142.726 356.71 142.02 357.172C141.324 357.674 140.671 357.995 140.062 358.136C139.734 358.382 139.494 358.736 139.344 359.199C138.107 359.954 136.806 360.616 135.441 361.187C134.076 361.758 132.784 362.461 131.565 363.297C131.165 363.603 130.759 363.975 130.347 364.412C129.984 364.88 129.534 365.154 128.997 365.235C128.922 365.466 128.897 365.729 128.921 366.022C128.946 366.316 128.951 366.614 128.935 366.917L128.752 366.959C128.59 366.996 128.49 366.934 128.453 366.771C128.456 366.6 128.376 366.533 128.214 366.57C128.092 366.598 128.015 366.637 127.984 366.687C127.484 366.93 127 367.148 126.532 367.342C126.104 367.526 125.605 367.683 125.037 367.814C124.712 367.889 124.175 367.97 123.425 368.057C122.716 368.134 122.185 368.15 121.832 368.103C121.561 368.037 121.306 367.86 121.069 367.573C120.832 367.285 120.59 366.977 120.344 366.649C120.138 366.312 119.927 365.954 119.712 365.576C119.547 365.229 119.395 364.944 119.258 364.719C119.277 364.244 119.396 363.832 119.615 363.482C119.834 363.132 119.973 362.716 120.032 362.232C120.389 362.107 120.74 361.962 121.087 361.797C121.434 361.631 121.794 361.527 122.169 361.483C123.344 360.828 124.518 360.173 125.693 359.518C126.918 358.894 128.117 358.255 129.292 357.6C130.467 356.945 131.612 356.253 132.727 355.526C133.843 354.799 134.894 353.98 135.881 353.069L137.16 352.775C137.798 352.2 138.531 351.668 139.359 351.179C140.186 350.689 140.81 350.054 141.229 349.273C142.503 348.681 143.816 347.972 145.165 347.149C146.515 346.325 147.555 345.273 148.287 343.993C148.877 343.772 149.373 343.508 149.773 343.203C150.163 342.856 150.533 342.514 150.883 342.177L151.919 341.105C152.26 340.727 152.676 340.397 153.166 340.113C153.416 339.713 153.641 339.298 153.841 338.867C154.042 338.436 154.317 338.052 154.667 337.715C154.395 337.094 153.958 336.681 153.356 336.478C152.753 336.274 152.197 335.996 151.689 335.643L150.349 335.951C149.143 335.544 147.894 335.319 146.601 335.274C145.34 335.18 144.073 335.065 142.802 334.93C142.712 334.908 142.606 334.911 142.484 334.939C142.2 335.005 142.04 335.148 142.006 335.37C142.012 335.582 141.868 335.701 141.575 335.726C141.153 335.566 140.735 335.513 140.319 335.566C139.894 335.578 139.459 335.635 139.012 335.738C138.444 335.869 137.884 336.04 137.335 336.252C136.816 336.414 136.273 336.561 135.704 336.692C135.42 336.757 135.131 336.802 134.837 336.827C134.544 336.852 134.236 336.816 133.915 336.719L133.123 336.901C132.27 337.097 131.427 337.334 130.593 337.611C129.79 337.839 128.982 338.046 128.17 338.233C127.724 338.336 127.297 338.434 126.891 338.527C126.476 338.58 126.056 338.613 125.631 338.625C124.872 339.227 124.024 339.722 123.086 340.108C122.149 340.495 121.162 340.85 120.125 341.175C119.129 341.489 118.132 341.804 117.136 342.119C116.13 342.393 115.179 342.719 114.282 343.096C114.029 343.112 113.781 343.147 113.537 343.204C113.325 343.21 113.117 343.236 112.914 343.283C112.711 343.33 112.493 343.401 112.258 343.498C112.055 343.545 111.857 343.612 111.663 343.699C111.005 343.252 110.261 342.995 109.434 342.929C108.638 342.813 107.865 342.799 107.115 342.886C106.388 342.326 105.803 341.734 105.359 341.109C104.948 340.434 104.598 339.66 104.312 338.785L104.555 338.729C104.839 338.664 104.928 338.493 104.822 338.218C104.757 337.934 104.803 337.667 104.959 337.417C105.106 337.127 105.332 336.904 105.639 336.748C105.976 336.542 106.293 336.341 106.59 336.144C106.887 335.948 107.158 335.736 107.405 335.508C107.683 335.23 107.857 334.869 107.926 334.426L108.718 334.244C108.88 334.206 109.047 334.189 109.219 334.192C109.422 334.146 109.599 334.169 109.748 334.263C109.873 334.063 110.044 333.874 110.259 333.697C110.475 333.519 110.67 333.345 110.845 333.177C111.061 332.999 111.231 332.81 111.356 332.61C111.481 332.411 111.527 332.144 111.493 331.809C111.561 331.922 111.677 331.959 111.839 331.922C112.002 331.885 112.134 331.811 112.238 331.702C112.381 331.584 112.559 331.521 112.772 331.515C112.844 330.9 113.119 330.516 113.597 330.363C114.075 330.21 114.489 329.966 114.839 329.628C115.086 329.401 115.307 329.157 115.504 328.898C115.692 328.598 115.904 328.314 116.142 328.046L119.152 324.403L123.774 318.85C125.315 316.999 126.92 315.24 128.589 313.574C128.614 313.311 128.693 313.1 128.828 312.941C128.962 312.782 129.097 312.623 129.231 312.464C129.356 312.264 129.44 312.073 129.484 311.892C129.569 311.702 129.553 311.449 129.438 311.133C129.978 310.881 130.353 310.559 130.563 310.169C130.813 309.769 131.018 309.359 131.177 308.937C131.327 308.475 131.482 308.033 131.642 307.612C131.833 307.141 132.128 306.752 132.528 306.446C132.459 306.334 132.397 306.156 132.341 305.912C132.266 305.587 132.212 305.258 132.178 304.923C132.184 304.58 132.281 304.258 132.469 303.959C131.907 303.19 131.137 302.726 130.16 302.566C129.173 302.365 128.241 302.216 127.364 302.119L127.181 302.161C126.978 302.208 126.879 302.337 126.885 302.55C126.923 302.712 126.849 302.857 126.665 302.985C125.978 302.972 125.228 303.059 124.416 303.246C123.604 303.433 122.806 303.681 122.022 303.99C121.279 304.289 120.491 304.491 119.661 304.597C119.576 304.788 119.471 304.983 119.346 305.182C119.262 305.373 119.132 305.552 118.957 305.721C118.114 305.958 117.289 306.276 116.483 306.675L114.065 307.873L112.734 308.5C112.55 308.628 112.441 308.802 112.406 309.024C112.372 309.246 112.362 309.483 112.378 309.736C112.125 309.752 111.939 309.688 111.82 309.544C111.742 309.391 111.572 309.302 111.31 309.276C110.507 310.06 109.599 310.76 108.587 311.378C107.615 311.987 106.792 312.775 106.117 313.742C105.758 313.483 105.314 313.414 104.786 313.535C104.34 313.638 103.885 313.892 103.423 314.298C102.96 314.704 102.719 315.144 102.7 315.619C102.276 315.631 101.962 315.66 101.759 315.707C101.312 315.81 100.954 316.021 100.685 316.339C100.457 316.648 100.238 316.998 100.029 317.388C99.8102 317.738 99.571 318.092 99.3116 318.451C99.0522 318.81 98.6835 319.066 98.2056 319.218C98.2523 319.421 98.3037 319.645 98.3597 319.888C98.4471 320.082 98.5188 320.301 98.5748 320.544C98.9953 322.372 99.3143 324.222 99.5317 326.096C99.7398 327.93 100.054 329.76 100.475 331.587C100.568 331.993 100.682 332.395 100.816 332.791C100.941 333.147 101.054 333.549 101.157 333.995C101.185 334.117 101.144 334.405 101.035 334.857C100.966 335.301 100.914 335.633 100.88 335.855C101.145 336.264 101.308 336.697 101.371 337.153C101.473 337.6 101.673 338.003 101.969 338.362C101.679 338.771 101.599 339.26 101.73 339.828C101.786 340.072 101.842 340.315 101.898 340.559C101.995 340.793 102.071 341.032 102.127 341.276L102.295 342.007C102.36 342.847 102.471 343.698 102.626 344.56C102.772 345.381 102.939 346.198 103.126 347.01C103.21 347.376 103.355 348.005 103.56 348.899C103.797 349.742 104.082 350.702 104.416 351.78C104.74 352.817 105.114 353.885 105.538 354.985C105.962 356.085 106.408 357.094 106.876 358.012C107.375 358.881 107.898 359.573 108.444 360.088C108.99 360.604 109.548 360.796 110.116 360.666C110.238 360.637 110.375 360.584 110.529 360.507C110.722 360.419 110.8 360.294 110.763 360.132C110.726 359.969 110.652 359.837 110.543 359.734C110.474 359.621 110.421 359.484 110.384 359.321L110.417 359.185C110.779 359.273 111.148 359.295 111.522 359.252C111.938 359.199 112.353 359.146 112.769 359.093C113.184 359.04 113.584 359.012 113.968 359.01C114.361 359.047 114.738 359.196 115.097 359.455C115.009 359.818 115.007 360.181 115.091 360.547C115.203 361.034 115.428 361.453 115.765 361.803C116.112 362.193 116.377 362.603 116.561 363.031C115.845 363.452 115.195 363.879 114.611 364.313C114.077 364.778 113.533 365.202 112.98 365.586C112.436 366.01 111.843 366.404 111.199 366.766C110.565 367.168 109.811 367.513 108.936 367.799C108.283 367.565 107.721 367.352 107.25 367.161C106.778 366.97 106.188 366.914 105.479 366.992C104.096 365.813 102.854 364.41 101.753 362.782C100.661 361.195 99.6922 359.494 98.847 357.679C98.0424 355.855 97.3393 354.007 96.7377 352.136C96.1673 350.215 95.6859 348.402 95.2935 346.696C94.8637 344.828 94.4994 342.967 94.2008 341.112C93.9334 339.206 93.7066 337.292 93.5204 335.368C93.4708 334.781 93.4212 334.194 93.3715 333.606C93.3126 332.979 93.2583 332.371 93.2087 331.784C93.2432 331.562 93.2527 331.325 93.2373 331.072C93.2531 330.769 93.2376 330.516 93.1909 330.313C93.032 329.623 92.8529 328.937 92.6534 328.256C92.454 327.575 92.2795 326.91 92.13 326.26C91.8964 325.245 91.719 324.196 91.5979 323.112C91.5918 322.9 91.592 322.622 91.5984 322.278C91.6455 321.925 91.641 321.627 91.5849 321.383C91.5102 321.058 91.3776 320.854 91.1871 320.769C90.9966 320.685 90.8078 320.515 90.6206 320.258C90.649 319.824 90.6617 319.415 90.6588 319.031C90.6466 318.606 90.5938 318.191 90.5003 317.785C90.3228 317.013 90.0265 316.376 89.6114 315.873C89.5715 314.771 89.6378 313.665 89.8102 312.556C89.9827 311.448 90.5157 310.513 91.4094 309.751C92.2309 309.605 93.0617 309.499 93.9018 309.434C94.7825 309.36 95.5929 309.537 96.3328 309.965C96.5796 309.737 96.8811 309.561 97.2372 309.436L98.3664 309.048C98.7631 308.914 99.1146 308.769 99.4207 308.613C99.7175 308.417 99.9504 308.128 100.119 307.747C100.894 307.398 101.716 306.974 102.584 306.474C103.443 305.935 104.171 305.382 104.768 304.817L106.108 304.509C106.346 304.241 106.638 304.024 106.985 303.858L108.072 303.288C108.45 303.072 108.787 302.866 109.084 302.67C109.421 302.464 109.659 302.196 109.797 301.865L110.04 301.808C110.974 301.594 111.841 301.18 112.641 300.569C113.441 299.957 114.23 299.391 115.008 298.87C115.192 298.742 115.464 298.53 115.823 298.233C116.223 297.927 116.504 297.756 116.667 297.718C117.216 297.506 117.776 297.335 118.344 297.204C118.903 297.033 119.453 296.821 119.993 296.568C121.246 296.066 122.474 295.548 123.676 295.015C124.91 294.432 126.177 293.991 127.477 293.692C127.923 293.589 128.334 293.516 128.709 293.472C129.115 293.379 129.546 293.301 130.002 293.239C130.08 293.392 130.214 293.511 130.404 293.595C130.586 293.639 130.746 293.687 130.887 293.74C131.068 293.784 131.238 293.873 131.397 294.008C131.547 294.102 131.63 294.275 131.645 294.528C131.745 294.59 131.836 294.612 131.917 294.594C132.039 294.566 132.126 294.481 132.179 294.341C132.273 294.191 132.422 294.093 132.625 294.046L132.929 293.976C133.588 294.423 134.222 294.854 134.83 295.27C135.47 295.636 136.213 295.892 137.06 296.04C137.665 297.183 138.326 298.292 139.044 299.367C139.762 300.442 140.275 301.649 140.583 302.989C140.77 303.801 140.83 304.621 140.764 305.449C140.261 305.864 139.958 306.404 139.854 307.069C139.751 307.734 139.663 308.374 139.591 308.989C138.585 309.82 137.803 310.79 137.247 311.902C136.69 313.013 136.113 314.129 135.516 315.25L134.541 315.474C134.379 315.512 134.271 315.601 134.218 315.741L133.81 316.477C133.519 316.885 133.188 317.304 132.816 317.731C132.485 318.15 132.278 318.646 132.197 319.221C131.097 320.201 130.056 321.252 129.075 322.376C128.134 323.491 127.243 324.636 126.403 325.813C126.04 326.281 125.692 326.81 125.357 327.4C125.013 327.95 124.655 328.438 124.283 328.866C124.086 329.125 123.844 329.373 123.557 329.61C123.301 329.798 123.074 330.021 122.877 330.28C122.443 330.807 122.053 331.346 121.71 331.895C121.356 332.404 120.978 332.897 120.575 333.375C122.384 332.873 124.222 332.408 126.09 331.978C127.948 331.507 129.786 331.042 131.604 330.58C132.538 330.366 133.447 330.135 134.331 329.889C135.206 329.602 136.11 329.351 137.044 329.136C137.206 329.099 137.358 329.107 137.498 329.16C137.629 329.173 137.781 329.18 137.953 329.184C138.671 329.147 139.313 329.149 139.878 329.19C141.911 329.106 143.935 328.983 145.949 328.819C147.964 328.654 149.98 328.682 151.997 328.902C152.572 328.983 153.009 329.118 153.309 329.306C153.649 329.484 154.15 329.433 154.812 329.152C155.512 329.59 156.224 329.896 156.948 330.071C157.713 330.237 158.469 330.363 159.215 330.448C159.93 331.138 160.595 331.798 161.21 332.426C161.865 333.044 162.31 333.861 162.543 334.877ZM198.654 300.336C198.495 300.758 198.446 301.196 198.508 301.652C198.571 302.108 198.644 302.519 198.728 302.885C198.84 303.372 198.952 303.859 199.064 304.346C199.208 304.784 199.331 305.226 199.434 305.672L199.644 306.586C199.628 306.889 199.572 307.201 199.475 307.523C199.378 307.844 199.321 308.157 199.305 308.46C199.083 310.093 199.144 311.661 199.49 313.163L199.518 313.285C199.427 313.819 199.327 314.312 199.217 314.765C199.148 315.208 199.079 315.652 199.01 316.095C198.932 316.498 198.903 316.932 198.925 317.397C198.937 317.822 199.029 318.314 199.2 318.873C198.959 320.425 198.507 321.898 197.844 323.29C197.172 324.642 196.529 326.03 195.916 327.453C195.138 327.974 194.444 328.583 193.835 329.279C193.266 329.966 192.732 330.709 192.231 331.508C191.066 332.204 189.935 332.956 188.838 333.764C187.742 334.572 186.809 335.535 186.04 336.652C185.287 336.911 184.544 337.211 183.809 337.551C183.075 337.891 182.38 338.307 181.724 338.8L180.993 338.968C180.628 339.052 180.345 339.032 180.145 338.907C179.683 339.313 179.181 339.642 178.641 339.894C178.091 340.106 177.532 340.278 176.964 340.409C176.233 340.577 175.492 340.704 174.743 340.791C174.025 340.828 173.286 340.87 172.527 340.916C171.99 340.441 171.323 340.146 170.527 340.03C169.722 339.873 169.002 339.718 168.368 339.565C166.817 338.212 165.604 336.844 164.731 335.463C163.848 334.042 162.902 332.442 161.895 330.665C161.845 330.078 161.861 329.497 161.943 328.922C162.015 328.307 161.956 327.679 161.766 327.039C162.011 324.759 162.526 322.631 163.311 320.655C164.127 318.628 165.125 316.646 166.303 314.707C166.247 314.463 166.241 314.251 166.285 314.07C166.369 313.88 166.334 313.631 166.178 313.325C166.228 313.356 166.314 313.358 166.435 313.33C166.76 313.255 166.945 313.127 166.988 312.946C167.023 312.724 166.992 312.496 166.895 312.262C168.142 310.992 169.214 309.612 170.111 308.123C171.049 306.624 172.196 305.292 173.552 304.124C173.59 303.731 173.723 303.38 173.951 303.071C174.179 302.762 174.337 302.426 174.425 302.064C175.64 301.399 176.691 300.58 177.579 299.606C178.467 298.632 179.434 297.726 180.48 296.886C181.046 296.371 181.599 295.988 182.14 295.735C182.711 295.432 183.324 295.121 183.976 294.799C184.201 294.662 184.411 294.55 184.604 294.462C184.798 294.375 185.017 294.303 185.26 294.247C185.991 294.079 186.735 294.058 187.49 294.183C188.237 294.268 188.975 294.226 189.706 294.058C189.909 294.011 190.072 293.974 190.193 293.946C190.346 293.868 190.5 293.79 190.653 293.712C191.539 294.406 192.562 294.855 193.72 295.058C194.104 295.611 194.51 296.074 194.937 296.446C195.406 296.808 195.874 297.171 196.342 297.533C196.801 297.855 197.233 298.247 197.639 298.71C198.076 299.122 198.414 299.665 198.654 300.336ZM193.293 304.905C193.246 304.702 193.183 304.524 193.105 304.371C192.671 304.342 192.248 304.269 191.836 304.15C191.424 304.031 190.994 304.023 190.548 304.126C190.264 304.191 189.993 304.317 189.737 304.505C189.631 304.23 189.463 304.055 189.232 303.98C189.041 303.895 188.815 303.84 188.552 303.815C188.321 303.74 188.079 303.71 187.826 303.726C187.605 303.691 187.394 303.611 187.194 303.486C186.998 303.19 186.781 302.897 186.543 302.61C186.338 302.273 186.033 302.065 185.63 301.986C185.349 302.436 184.993 302.839 184.562 303.194C184.121 303.51 183.66 303.829 183.179 304.154C182.738 304.469 182.307 304.825 181.885 305.221C181.504 305.608 181.198 306.042 180.966 306.523L179.87 306.775C179.729 307.278 179.463 307.702 179.073 308.049C178.673 308.355 178.357 308.748 178.126 309.229C177.551 309.703 177.035 310.249 176.579 310.867C176.154 311.436 175.738 312.044 175.332 312.694C174.916 313.302 174.505 313.931 174.099 314.581C173.733 315.221 173.317 315.83 172.851 316.407C172.585 317.665 172.225 318.796 171.772 319.798C171.35 320.75 170.952 321.718 170.58 322.702C170.248 323.676 169.996 324.717 169.824 325.826C169.683 326.884 169.78 328.145 170.117 329.606L170.257 330.216C170.304 330.419 170.371 330.617 170.458 330.811C171.117 331.258 171.683 331.769 172.157 332.343C172.672 332.909 173.369 333.241 174.246 333.338C175.133 333.476 176.018 333.422 176.902 333.176C177.827 332.92 178.744 332.816 179.652 332.863C181.517 332.049 183.25 331.031 184.85 329.808C186.481 328.534 187.973 327.122 189.326 325.571C189.523 325.312 189.76 325.043 190.039 324.766C190.307 324.447 190.515 324.143 190.662 323.852C190.818 323.603 190.929 323.342 190.995 323.07C191.102 322.789 191.213 322.529 191.328 322.288C191.532 321.686 191.776 321.074 192.06 320.452C192.345 319.831 192.659 319.246 193.003 318.696C193 317.756 193.068 316.843 193.206 315.956C193.335 315.028 193.468 314.121 193.606 313.234C193.744 312.347 193.816 311.454 193.823 310.555C193.87 309.646 193.787 308.725 193.572 307.791C193.525 307.588 193.453 307.369 193.357 307.135C193.301 306.891 193.229 306.673 193.142 306.479C193.364 305.957 193.414 305.433 193.293 304.905ZM241.841 285.396C241.872 285.902 241.849 286.356 241.77 286.759C241.723 287.112 241.806 287.563 242.018 288.113C241.621 288.247 241.329 288.464 241.141 288.763C240.985 289.013 240.858 289.299 240.761 289.62C240.705 289.933 240.633 290.27 240.545 290.632C240.489 290.944 240.387 291.246 240.24 291.536C240.901 292.923 241.425 294.363 241.812 295.856C242.198 297.349 242.64 298.808 243.139 300.232C243.772 302.054 244.502 303.831 245.328 305.565C246.186 307.249 246.83 309.025 247.26 310.892C247.391 311.461 247.492 311.993 247.563 312.49C247.675 312.977 247.792 313.485 247.914 314.013C247.988 314.338 248.068 314.683 248.152 315.048C248.267 315.364 248.362 315.684 248.437 316.009C248.708 317.186 248.817 318.401 248.763 319.653C248.75 320.896 248.797 322.125 248.906 323.34C248.521 323.899 248.207 324.484 247.963 325.096C247.76 325.699 247.527 326.266 247.264 326.797C247.001 327.327 246.664 327.811 246.251 328.248C245.848 328.726 245.295 329.109 244.592 329.399C244.564 329.834 244.39 330.194 244.072 330.481C243.793 330.759 243.575 331.109 243.415 331.53L243.293 331.558C242.278 331.792 241.372 331.851 240.576 331.735C239.78 331.619 239.015 331.453 238.281 331.237C237.588 331.011 236.87 330.77 236.126 330.514C235.383 330.257 234.557 330.105 233.649 330.058C232.297 329.386 231.028 328.609 229.842 327.727C228.646 326.805 227.357 326.033 225.973 325.411C225.502 324.664 224.962 324.083 224.354 323.667C223.786 323.242 223.199 322.736 222.593 322.148C222.325 321.911 222.102 321.684 221.924 321.469C221.786 321.244 221.599 320.987 221.362 320.7C221.166 320.403 220.911 320.227 220.599 320.17C220.327 320.104 220.071 320.014 219.831 319.898C219.216 318.714 218.483 317.664 217.631 316.749C216.779 315.833 215.835 314.981 214.798 314.194C214.657 314.696 214.567 315.23 214.526 315.796C214.516 316.311 214.511 316.847 214.511 317.402C214.501 317.918 214.455 318.463 214.374 319.037C214.323 319.562 214.203 320.06 214.012 320.531L214.054 320.714C214.101 320.917 214.21 321.02 214.382 321.024C214.554 321.027 214.663 321.13 214.71 321.333C214.719 321.374 214.708 321.419 214.677 321.469C214.686 321.509 214.695 321.55 214.705 321.591C214.539 321.8 214.423 322.04 214.358 322.312C214.333 322.574 214.162 322.763 213.847 322.878C213.934 323.072 214.001 323.27 214.048 323.473L214.174 324.022C214.445 325.199 214.574 326.409 214.56 327.652C214.588 328.886 214.742 330.112 215.022 331.33L215.204 332.122C215.27 332.406 215.351 332.665 215.447 332.9C215.585 333.125 215.762 333.34 215.981 333.546C216.199 333.753 216.332 333.957 216.379 334.16C216.444 334.445 216.383 334.737 216.196 335.036C216.526 335.174 216.903 335.322 217.324 335.482C217.746 335.641 218.131 335.831 218.481 336.05C218.881 336.3 219.219 336.564 219.497 336.842C219.784 337.161 219.974 337.523 220.068 337.929C220.227 338.619 220.116 339.158 219.734 339.545C219.353 339.932 218.856 340.281 218.244 340.593C217.672 340.896 217.055 341.188 216.393 341.468C215.781 341.78 215.293 342.17 214.931 342.639L214.748 342.681C214.261 342.793 213.863 342.735 213.553 342.506C213.244 342.278 212.846 342.22 212.359 342.332C211.298 341.251 210.443 339.951 209.794 338.433C209.155 336.956 208.672 335.506 208.345 334.085C207.943 332.339 207.704 330.556 207.627 328.735C207.509 326.923 207.477 325.114 207.532 323.305C207.545 321.507 207.604 319.719 207.708 317.942C207.844 316.115 207.938 314.297 207.993 312.489L208.012 312.292C207.965 312.089 207.871 311.961 207.731 311.908C207.631 311.845 207.562 311.733 207.525 311.571C207.506 311.489 207.517 311.444 207.558 311.435C207.586 311.001 207.619 310.587 207.657 310.193C207.735 309.791 207.764 309.356 207.742 308.891C207.724 307.698 207.62 306.503 207.43 305.307C207.272 304.061 207.057 302.849 206.786 301.672C206.556 300.485 206.325 299.298 206.095 298.111C205.896 296.874 205.762 295.643 205.694 294.419C205.944 294.02 206.17 293.604 206.37 293.173C206.57 292.743 206.861 292.334 207.242 291.947C208.063 291.8 208.903 291.735 209.762 291.751C210.621 291.768 211.467 291.915 212.301 292.193C213.19 293.827 213.917 295.499 214.481 297.207C215.086 298.907 215.812 300.578 216.661 302.221L216.703 302.404C216.75 302.607 216.874 302.685 217.078 302.638C217.312 302.542 217.509 302.56 217.668 302.695C217.615 302.835 217.586 302.991 217.583 303.163C217.62 303.326 217.658 303.488 217.695 303.651L217.934 304.686C218.089 304.992 218.27 305.314 218.476 305.651C218.682 305.989 218.998 306.151 219.422 306.139C219.924 307.392 220.505 308.52 221.163 309.522C221.821 310.525 222.531 311.474 223.293 312.367C224.054 313.261 224.856 314.145 225.699 315.02C226.532 315.855 227.4 316.745 228.302 317.692C229.494 318.23 230.573 318.922 231.538 319.769C232.493 320.576 233.443 321.362 234.389 322.127C235.366 322.843 236.401 323.439 237.494 323.914C238.627 324.38 239.984 324.517 241.564 324.324C241.73 324.115 241.821 323.859 241.837 323.556L241.945 322.633C242.001 322.321 242.067 322.049 242.142 321.818C242.249 321.537 242.43 321.303 242.686 321.116C242.506 319.96 242.32 318.784 242.131 317.588C241.982 316.383 241.989 315.205 242.152 314.056C241.865 313.737 241.66 313.314 241.539 312.786C241.445 312.38 241.377 311.99 241.333 311.615C241.33 311.231 241.287 310.856 241.203 310.49C241.025 309.719 240.718 309.127 240.281 308.714C240.216 308.43 240.171 308.141 240.146 307.848C240.112 307.514 240.163 307.181 240.301 306.85C239.789 306.113 239.329 305.321 238.921 304.474C238.553 303.618 238.261 302.723 238.046 301.789C237.925 301.261 237.859 300.699 237.85 300.103C237.467 299.55 237.141 298.876 236.873 298.083L236.054 295.642C235.777 294.808 235.473 294.044 235.142 293.351C234.812 292.657 234.372 292.138 233.822 291.794C233.982 291.373 234.005 290.919 233.893 290.431C233.706 289.619 233.407 288.876 232.995 288.201C232.583 287.526 232.284 286.783 232.097 285.97C231.966 285.402 231.957 284.805 232.07 284.181C232.973 284.016 233.869 283.917 234.759 283.883C235.681 283.799 236.568 283.659 237.42 283.463C237.739 283.732 238.084 283.93 238.455 284.058C238.827 284.187 239.219 284.31 239.631 284.429C240.034 284.508 240.421 284.611 240.793 284.739C241.205 284.858 241.554 285.077 241.841 285.396ZM288.01 274.771C288.041 275.277 288.017 275.732 287.939 276.135C287.892 276.487 287.974 276.939 288.186 277.489C287.789 277.623 287.497 277.839 287.31 278.139C287.153 278.389 287.027 278.675 286.93 278.996C286.873 279.309 286.801 279.646 286.714 280.008C286.657 280.32 286.556 280.622 286.409 280.912C287.07 282.299 287.594 283.739 287.98 285.232C288.366 286.725 288.809 288.184 289.308 289.608C289.94 291.429 290.67 293.207 291.497 294.941C292.355 296.625 292.998 298.4 293.428 300.268C293.559 300.837 293.66 301.369 293.732 301.866C293.844 302.353 293.961 302.861 294.082 303.389C294.157 303.713 294.236 304.059 294.32 304.424C294.436 304.739 294.531 305.06 294.606 305.385C294.876 306.562 294.985 307.777 294.931 309.029C294.918 310.272 294.966 311.501 295.074 312.716C294.69 313.275 294.375 313.86 294.131 314.472C293.928 315.075 293.695 315.642 293.432 316.172C293.17 316.703 292.832 317.187 292.42 317.624C292.016 318.102 291.463 318.485 290.761 318.775C290.732 319.209 290.559 319.57 290.24 319.857C289.962 320.135 289.743 320.485 289.583 320.906L289.462 320.934C288.446 321.168 287.541 321.226 286.744 321.11C285.948 320.994 285.183 320.828 284.449 320.612C283.756 320.387 283.038 320.146 282.295 319.89C281.552 319.633 280.726 319.481 279.817 319.434C278.465 318.761 277.196 317.985 276.01 317.103C274.814 316.181 273.525 315.409 272.142 314.787C271.671 314.04 271.131 313.459 270.522 313.043C269.954 312.618 269.367 312.112 268.762 311.524C268.493 311.287 268.27 311.06 268.092 310.844C267.955 310.619 267.768 310.363 267.53 310.076C267.334 309.779 267.079 309.602 266.767 309.546C266.496 309.48 266.239 309.389 265.999 309.274C265.385 308.09 264.651 307.04 263.799 306.124C262.947 305.209 262.003 304.357 260.967 303.57C260.826 304.072 260.735 304.606 260.694 305.171C260.684 305.687 260.679 306.222 260.679 306.778C260.669 307.294 260.624 307.839 260.542 308.413C260.492 308.938 260.371 309.436 260.18 309.907L260.223 310.09C260.269 310.293 260.378 310.396 260.55 310.399C260.722 310.403 260.831 310.506 260.878 310.709C260.887 310.749 260.876 310.795 260.845 310.845C260.854 310.885 260.864 310.926 260.873 310.966C260.707 311.176 260.592 311.416 260.526 311.688C260.501 311.95 260.331 312.139 260.015 312.254C260.102 312.448 260.169 312.646 260.216 312.849L260.342 313.397C260.613 314.575 260.742 315.785 260.729 317.028C260.756 318.262 260.91 319.488 261.19 320.706L261.373 321.498C261.438 321.782 261.519 322.041 261.616 322.275C261.753 322.5 261.931 322.716 262.149 322.922C262.368 323.128 262.5 323.333 262.547 323.536C262.613 323.82 262.551 324.112 262.364 324.412C262.695 324.55 263.071 324.698 263.493 324.858C263.914 325.017 264.3 325.206 264.649 325.425C265.049 325.675 265.388 325.94 265.665 326.218C265.952 326.536 266.143 326.899 266.236 327.305C266.395 327.995 266.284 328.534 265.903 328.921C265.521 329.308 265.025 329.657 264.412 329.969C263.841 330.272 263.224 330.563 262.561 330.844C261.949 331.156 261.462 331.546 261.099 332.014L260.916 332.056C260.429 332.169 260.031 332.11 259.722 331.882C259.413 331.654 259.015 331.596 258.527 331.708C257.466 330.627 256.611 329.327 255.963 327.809C255.323 326.331 254.84 324.882 254.513 323.461C254.111 321.715 253.872 319.931 253.795 318.111C253.677 316.299 253.646 314.489 253.7 312.681C253.714 310.882 253.772 309.094 253.877 307.317C254.012 305.491 254.107 303.673 254.161 301.865L254.18 301.668C254.133 301.465 254.04 301.337 253.899 301.284C253.799 301.221 253.731 301.109 253.693 300.946C253.674 300.865 253.685 300.82 253.726 300.811C253.754 300.376 253.787 299.963 253.825 299.569C253.904 299.166 253.932 298.732 253.91 298.267C253.892 297.074 253.788 295.879 253.599 294.683C253.44 293.437 253.225 292.225 252.954 291.047C252.724 289.86 252.494 288.674 252.263 287.487C252.064 286.25 251.931 285.019 251.863 283.795C252.113 283.395 252.338 282.98 252.538 282.549C252.738 282.118 253.029 281.71 253.41 281.322C254.232 281.176 255.072 281.111 255.931 281.127C256.789 281.143 257.636 281.291 258.469 281.569C259.358 283.203 260.085 284.874 260.649 286.583C261.254 288.282 261.981 289.954 262.829 291.597L262.871 291.78C262.918 291.983 263.043 292.061 263.246 292.014C263.48 291.917 263.677 291.936 263.836 292.071C263.783 292.211 263.755 292.367 263.751 292.539C263.789 292.701 263.826 292.864 263.864 293.026L264.102 294.062C264.258 294.368 264.439 294.69 264.645 295.027C264.851 295.365 265.166 295.527 265.591 295.515C266.093 296.768 266.673 297.895 267.331 298.898C267.99 299.901 268.699 300.849 269.461 301.743C270.222 302.637 271.025 303.521 271.867 304.396C272.701 305.23 273.568 306.121 274.47 307.068C275.663 307.606 276.741 308.298 277.706 309.145C278.661 309.951 279.612 310.738 280.557 311.503C281.534 312.219 282.569 312.815 283.662 313.29C284.796 313.756 286.152 313.893 287.733 313.7C287.898 313.491 287.989 313.235 288.005 312.932L288.113 312.009C288.17 311.697 288.235 311.425 288.311 311.194C288.417 310.913 288.598 310.679 288.854 310.492C288.674 309.336 288.489 308.16 288.299 306.964C288.15 305.758 288.157 304.581 288.32 303.432C288.033 303.113 287.829 302.69 287.707 302.162C287.614 301.756 287.545 301.365 287.502 300.991C287.499 300.607 287.455 300.232 287.371 299.866C287.194 299.095 286.886 298.503 286.449 298.09C286.384 297.806 286.339 297.517 286.314 297.224C286.28 296.889 286.332 296.557 286.469 296.226C285.958 295.488 285.497 294.696 285.089 293.85C284.721 292.994 284.429 292.099 284.215 291.165C284.093 290.637 284.028 290.075 284.019 289.479C283.635 288.925 283.309 288.252 283.041 287.459L282.223 285.018C281.945 284.184 281.641 283.42 281.311 282.726C280.98 282.033 280.54 281.514 279.991 281.17C280.15 280.749 280.174 280.294 280.062 279.807C279.875 278.995 279.575 278.252 279.164 277.577C278.752 276.902 278.452 276.158 278.266 275.346C278.135 274.778 278.126 274.181 278.239 273.557C279.141 273.392 280.038 273.292 280.928 273.259C281.849 273.175 282.736 273.035 283.589 272.839C283.907 273.107 284.252 273.306 284.624 273.434C284.995 273.562 285.387 273.686 285.799 273.805C286.202 273.883 286.589 273.987 286.961 274.115C287.373 274.234 287.723 274.453 288.01 274.771ZM314.545 302.015C314.417 302.386 314.243 302.747 314.024 303.096C313.796 303.405 313.593 303.73 313.415 304.07C313.159 304.258 312.848 304.393 312.482 304.477C312.158 304.552 311.833 304.627 311.508 304.702C311.214 304.726 310.93 304.792 310.655 304.898C310.412 304.954 310.227 305.082 310.102 305.282C309.759 305.275 309.482 305.189 309.273 305.023C309.055 304.817 308.738 304.741 308.322 304.793C308.151 304.79 307.988 304.828 307.835 304.905C307.067 304.355 306.33 303.755 305.625 303.105C304.96 302.446 304.325 301.822 303.72 301.235C303.333 299.742 302.861 298.247 302.303 296.751C302.178 296.395 302.033 296.043 301.868 295.697C301.703 295.35 301.562 295.019 301.447 294.703C301.353 294.297 301.285 293.907 301.242 293.532C301.229 293.107 301.206 292.728 301.172 292.394C301.063 291.179 300.98 289.979 300.921 288.796C300.863 287.612 300.779 286.413 300.67 285.198C300.59 284.105 300.419 282.99 300.157 281.853C299.886 280.675 299.451 279.621 298.852 278.69L298.721 278.399C298.728 278.056 298.748 277.773 298.783 277.551C298.848 277.28 298.869 276.997 298.844 276.703C298.822 276.238 298.646 275.937 298.315 275.799C298.362 275.446 298.519 275.196 298.784 275.05C299.04 274.863 299.147 274.582 299.103 274.207C299.106 274.035 299.069 273.873 298.991 273.719C299.288 273.523 299.589 273.347 299.896 273.191C300.233 272.985 300.573 272.885 300.917 272.892C301.464 272.851 301.973 272.927 302.444 273.117C302.906 273.268 303.357 273.463 303.797 273.704C304.896 275.503 305.636 277.513 306.019 279.734C306.392 281.914 306.689 284.133 306.91 286.391C307.13 288.65 307.442 290.844 307.847 292.974C308.242 295.063 309.011 296.917 310.153 298.536L310.289 298.569C310.501 298.563 310.65 298.464 310.734 298.274C310.809 298.043 310.953 297.924 311.165 297.918C311.347 297.962 311.457 297.979 311.498 297.97C311.847 298.745 312.289 299.455 312.822 300.102C313.356 300.749 313.93 301.386 314.545 302.015ZM351.892 261.418L351.948 261.661C351.683 261.808 351.587 262.044 351.662 262.369C351.262 262.674 350.833 262.944 350.373 263.178C349.905 263.372 349.471 263.621 349.071 263.927C348.615 263.989 348.143 264.076 347.656 264.188C347.2 264.251 346.748 264.333 346.302 264.436C345.084 264.716 343.875 265.037 342.675 265.399C341.476 265.76 340.258 266.04 339.021 266.24C338.527 266.695 337.958 267.104 337.315 267.466C336.702 267.778 336.092 268.004 335.483 268.144C334.995 268.256 334.555 268.293 334.162 268.256C333.299 268.967 332.317 269.621 331.214 270.217C330.152 270.803 329.069 271.394 327.966 271.99C326.854 272.545 325.797 273.152 324.794 273.81C323.822 274.419 323.01 275.162 322.356 276.039C322.406 276.626 322.476 277.208 322.566 277.786C322.647 278.323 322.748 278.856 322.87 279.384C323 279.952 323.142 280.476 323.295 280.953C323.488 281.422 323.742 281.877 324.058 282.317C324.279 282.352 324.517 282.361 324.77 282.346C325.063 282.321 325.312 282.285 325.515 282.238C325.718 282.192 325.916 282.125 326.11 282.037C326.294 281.909 326.403 281.735 326.438 281.513C327.028 281.291 327.633 281.131 328.251 281.031C328.86 280.891 329.469 280.751 330.078 280.611C330.687 280.471 331.272 280.315 331.831 280.144C332.43 279.963 332.996 279.726 333.527 279.433C334.139 279.121 334.745 278.874 335.345 278.694C335.985 278.503 336.605 278.318 337.205 278.137C337.805 277.956 338.42 277.751 339.051 277.52C339.673 277.249 340.291 276.871 340.907 276.388C341.482 276.469 342.033 276.449 342.561 276.328C343.129 276.197 343.687 276.111 344.233 276.071C344.564 276.209 344.839 276.381 345.057 276.587C345.317 276.784 345.483 277.045 345.558 277.369C345.689 277.938 345.617 278.553 345.342 279.215C345.066 279.877 344.863 280.48 344.731 281.023L344.061 281.177C343.087 281.401 342.165 281.763 341.297 282.262C340.46 282.711 339.616 283.226 338.766 283.807C337.948 284.337 337.104 284.852 336.236 285.351C335.398 285.8 334.492 286.137 333.518 286.361C333.356 286.398 333.277 286.523 333.284 286.736C333.321 286.898 333.308 287.029 333.246 287.129C333.033 287.135 332.724 287.185 332.318 287.279C331.384 287.493 330.514 287.801 329.708 288.2C328.902 288.599 328.053 288.901 327.159 289.107C326.916 289.163 326.672 289.219 326.428 289.275C326.175 289.291 325.922 289.306 325.669 289.322C325.541 289.693 325.329 289.977 325.032 290.174C324.726 290.33 324.459 290.562 324.23 290.871C324.193 291.265 324.214 291.73 324.295 292.267C324.417 292.795 324.522 293.348 324.613 293.926C324.734 294.454 324.81 294.971 324.841 295.477C324.872 295.983 324.798 296.406 324.62 296.746C324.708 296.94 324.889 296.983 325.164 296.877C325.429 296.731 325.599 296.82 325.674 297.145C325.758 297.51 325.806 297.905 325.818 298.33C325.831 298.755 325.884 299.17 325.977 299.576C326.155 300.348 326.432 301.182 326.809 302.078C327.218 302.925 327.694 303.692 328.237 304.379C328.82 305.057 329.498 305.586 330.269 305.964C331.031 306.302 331.899 306.359 332.873 306.134C333.523 305.985 334.104 305.723 334.616 305.348C335.129 304.974 335.502 304.46 335.737 303.808L336.028 303.677C336.19 303.639 336.337 303.627 336.468 303.64C336.64 303.643 336.807 303.626 336.969 303.588C337.213 303.532 337.485 303.32 337.785 302.952C338.116 302.534 338.458 302.07 338.812 301.561C339.205 301.043 339.604 300.545 340.007 300.067C340.401 299.549 340.802 299.158 341.212 298.892C341.365 298.259 341.498 297.629 341.611 297.005C341.764 296.371 342.068 295.831 342.521 295.384L342.114 293.618C342.418 293.078 342.751 292.574 343.113 292.106C343.516 291.628 343.774 291.077 343.887 290.452C344.109 290.487 344.306 290.506 344.477 290.509C344.69 290.503 344.897 290.476 345.1 290.43C345.303 290.383 345.502 290.316 345.695 290.229C345.93 290.132 346.139 290.02 346.323 289.892C346.751 290.264 347.111 290.715 347.405 291.246C347.729 291.727 348.09 292.179 348.486 292.601C348.289 293.416 348.063 294.387 347.81 295.514C347.556 296.641 347.262 297.778 346.927 298.924C346.592 300.07 346.207 301.185 345.772 302.268C345.369 303.302 344.919 304.132 344.422 304.759C344.328 304.909 344.097 305.112 343.728 305.368C343.356 305.796 343.02 306.194 342.72 306.562C342.429 306.971 342.168 307.416 341.937 307.897C340.843 308.533 339.819 309.282 338.862 310.143C337.947 310.995 337.027 311.827 336.102 312.638C335.586 312.629 335.044 312.689 334.476 312.82C333.989 312.932 333.506 313.065 333.028 313.217C332.56 313.411 332.041 313.573 331.473 313.704C331.263 313.538 330.987 313.452 330.644 313.446C330.35 313.47 330.202 313.291 330.199 312.907C328.8 313.143 327.594 313.014 326.583 312.52C325.58 312.067 324.663 311.423 323.829 310.588C323.037 309.745 322.327 308.796 321.7 307.744C321.073 306.691 320.434 305.683 319.785 304.721L319.743 304.538C319.697 304.335 319.75 304.195 319.903 304.117C320.056 304.039 320.109 303.898 320.063 303.695C320.044 303.614 320.01 303.558 319.96 303.526C319.735 303.108 319.545 302.745 319.389 302.439C319.233 302.133 319.103 301.757 319.001 301.31C318.851 300.66 318.747 300.022 318.688 299.394C318.62 298.725 318.511 298.066 318.361 297.417C318.212 296.767 318 296.217 317.725 295.767C317.841 295.527 317.922 295.23 317.969 294.877C317.966 294.493 317.943 294.114 317.9 293.739C317.856 293.364 317.792 292.994 317.708 292.629C317.665 292.254 317.651 291.915 317.667 291.612C317.402 291.203 317.171 290.85 316.974 290.553C316.768 290.216 316.609 289.803 316.497 289.316L316.399 288.89C316.646 288.106 316.828 287.316 316.944 286.519C317.06 285.723 317.192 284.902 317.339 284.056L317.297 283.873C317.026 282.695 316.714 281.527 316.362 280.368C316.01 279.209 315.698 278.041 315.427 276.864L315.161 275.706C315.068 275.3 314.999 274.91 314.956 274.535C315.243 274.298 315.435 274.019 315.532 273.697C315.629 273.375 315.822 273.096 316.109 272.859L318.119 272.396L318.344 271.703C318.419 271.472 318.449 271.23 318.434 270.977C318.852 270.752 319.241 270.492 319.601 270.195C319.991 269.849 320.341 269.512 320.651 269.184C321.144 268.729 321.587 268.327 321.977 267.981C322.399 267.585 322.815 267.254 323.224 266.989C323.664 266.674 324.135 266.394 324.634 266.151C325.134 265.908 325.72 265.666 326.392 265.426C326.716 265.351 326.905 265.244 326.959 265.103C327.052 264.953 327.182 264.774 327.348 264.565C327.854 264.534 328.36 264.503 328.866 264.472C329.362 264.4 329.854 264.309 330.341 264.196C331.316 263.972 332.188 263.579 332.956 263.018C334.174 262.737 335.368 262.441 336.536 262.13C337.745 261.809 338.958 261.508 340.176 261.228C341.232 260.985 342.297 260.782 343.371 260.621C344.446 260.459 345.514 260.363 346.576 260.332C346.913 260.126 347.305 259.972 347.752 259.869C348.239 259.757 348.741 259.706 349.256 259.716C349.802 259.675 350.31 259.559 350.779 259.365C350.922 259.803 351.112 260.165 351.349 260.452C351.618 260.69 351.799 261.012 351.892 261.418ZM440.57 225.94C440.535 226.162 440.457 226.565 440.335 227.149C440.213 227.732 440.17 228.106 440.208 228.268C440.282 228.593 440.36 229.024 440.441 229.561C440.553 230.048 440.786 230.316 441.139 230.363C440.907 231.399 440.842 232.419 440.945 233.422C441.078 234.374 441.262 235.358 441.496 236.373C441.72 237.348 441.928 238.347 442.121 239.372C442.305 240.356 442.362 241.347 442.293 242.346C442.511 242.553 442.622 242.848 442.625 243.232C442.659 243.566 442.821 243.807 443.112 243.954C442.983 244.325 442.936 244.678 442.97 245.012C442.995 245.306 443.045 245.615 443.12 245.94C443.269 246.59 443.475 247.205 443.737 247.786C443.44 248.539 443.385 249.321 443.572 250.133C443.79 250.895 443.992 251.682 444.179 252.494C444.338 253.185 444.391 253.878 444.337 254.575C444.324 255.262 444.397 255.95 444.556 256.641C444.603 256.844 444.665 257.022 444.743 257.175C444.821 257.328 444.883 257.506 444.93 257.709C444.977 257.912 444.928 258.073 444.785 258.191C444.672 258.26 444.653 258.457 444.728 258.781C445.074 260.284 445.309 261.769 445.433 263.237C445.547 264.664 445.601 266.106 445.594 267.561C445.618 268.966 445.606 270.401 445.559 271.866C445.511 273.331 445.508 274.806 445.551 276.293C445.217 276.883 444.998 277.511 444.894 278.176C444.831 278.832 444.558 279.408 444.073 279.904C443.854 281.365 443.464 282.738 442.904 284.021C442.385 285.295 441.75 286.531 441 287.73C440.29 288.919 439.531 290.077 438.721 291.204C437.921 292.372 437.146 293.555 436.395 294.754C435.989 294.847 435.583 294.941 435.177 295.034C434.821 295.159 434.44 295.268 434.034 295.361C433.141 295.567 432.238 295.732 431.326 295.856C430.414 295.981 429.529 296.035 428.67 296.019C428.377 295.488 427.963 295.177 427.429 295.086C426.945 295.026 426.478 294.855 426.029 294.574C425.538 294.302 425.14 293.966 424.835 293.566C424.529 293.166 424.032 292.96 423.345 292.947C423.002 292.385 422.514 291.749 421.88 291.039C421.287 290.321 420.69 289.582 420.087 288.822C419.485 288.063 418.933 287.335 418.43 286.638C417.959 285.892 417.658 285.234 417.527 284.666C417.481 284.463 417.459 284.275 417.462 284.103C417.497 283.882 417.511 283.665 417.505 283.452C417.196 283.224 416.949 282.896 416.765 282.468C416.581 282.04 416.418 281.608 416.274 281.17C416.162 280.683 416.019 280.246 415.844 279.858C415.66 279.43 415.398 279.127 415.058 278.949C414.645 279.386 414.353 279.881 414.181 280.433C414.009 280.986 413.866 281.575 413.753 282.199C413.681 282.814 413.609 283.43 413.537 284.045C413.464 284.66 413.342 285.244 413.17 285.797C412.704 286.374 412.314 286.998 411.998 287.67C411.723 288.332 411.427 288.998 411.111 289.67C410.845 290.372 410.525 291.023 410.15 291.622C409.784 292.262 409.314 292.82 408.739 293.294C408.744 294.062 408.58 294.741 408.245 295.331C407.961 295.953 407.622 296.522 407.228 297.041C406.843 297.599 406.479 298.154 406.135 298.703C405.801 299.293 405.611 299.957 405.567 300.694C404.952 301.177 404.288 301.822 403.575 302.627C402.872 303.473 402.148 304.324 401.405 305.179C400.701 306.025 399.954 306.774 399.164 307.426C398.423 308.11 397.728 308.526 397.079 308.676C396.551 308.797 396.029 308.853 395.514 308.843C395.048 308.865 394.558 308.871 394.043 308.861C393.528 308.851 393.012 308.842 392.497 308.832C391.991 308.863 391.479 308.959 390.96 309.121C390.002 308.487 389.198 307.688 388.549 306.726C387.909 305.804 387.182 304.967 386.368 304.214C385.884 303.042 385.396 301.851 384.904 300.639C384.42 299.467 384.038 298.272 383.758 297.054C383.599 296.364 383.531 295.696 383.553 295.049C383.585 294.443 383.531 293.836 383.39 293.227C383.344 293.024 383.261 292.85 383.142 292.707C383.055 292.513 382.968 292.319 382.88 292.126C383.034 291.492 383.122 290.851 383.144 290.205C383.157 289.518 383.129 288.84 383.061 288.172C383.033 287.494 383.01 286.837 382.992 286.2C382.964 285.522 383.007 284.871 383.12 284.246C383.089 283.74 382.862 283.408 382.441 283.248C382.66 282.898 382.772 282.552 382.779 282.208C382.785 281.865 382.751 281.53 382.676 281.206C382.642 280.871 382.583 280.522 382.499 280.156C382.415 279.791 382.376 279.436 382.383 279.093C382.386 278.921 382.431 278.654 382.519 278.292L382.829 277.13C382.948 276.718 383.035 276.356 383.092 276.044C383.179 275.681 383.205 275.419 383.167 275.257C383.102 274.972 382.951 274.686 382.713 274.399C382.689 273.55 382.771 272.697 382.959 271.841C383.187 270.976 383.309 270.115 383.326 269.256C383.342 268.397 383.3 267.658 383.2 267.04C383.092 266.381 383.101 265.588 383.23 264.66C383.252 264.57 383.249 264.463 383.221 264.342C383.183 264.179 383.099 264.092 382.968 264.079C382.837 264.066 382.717 264.009 382.607 263.905C382.88 262.859 383.016 261.78 383.017 260.669C383.049 259.507 383.015 258.339 382.916 257.165C382.858 255.981 382.783 254.822 382.693 253.688C382.594 252.514 382.59 251.382 382.681 250.292C382.373 249.508 382.08 248.699 381.802 247.865C381.515 246.99 381.279 246.147 381.092 245.335C380.877 244.401 380.738 243.428 380.677 242.416C380.655 241.395 380.886 240.444 381.367 239.564C381.692 239.489 382.032 239.389 382.388 239.264C382.785 239.13 383.146 239.026 383.471 238.951C383.958 238.839 384.514 238.84 385.138 238.952C385.722 240.186 386.382 241.381 387.118 242.537C387.854 243.693 388.386 244.982 388.713 246.403C388.872 247.093 388.949 247.802 388.946 248.53L388.982 250.638C389.01 251.316 389.062 252.009 389.14 252.718C389.208 253.386 389.378 254.031 389.649 254.653C389.343 255.365 389.242 256.136 389.348 256.967C389.485 257.748 389.633 258.484 389.792 259.174C389.517 259.836 389.343 260.474 389.271 261.089C389.198 261.705 389.172 262.331 389.19 262.968C389.239 263.555 389.294 264.163 389.353 264.79C389.412 265.418 389.45 266.051 389.469 266.688C389.434 266.909 389.348 267.186 389.21 267.517C389.113 267.838 389.079 268.06 389.107 268.182C389.172 268.466 389.319 268.732 389.547 268.978C389.494 269.119 389.436 269.239 389.373 269.339C389.301 269.398 389.264 269.514 389.261 269.686C389.242 270.16 389.252 270.671 389.292 271.218C389.364 271.714 389.39 272.2 389.371 272.675C389.402 273.736 389.346 274.797 389.205 275.855C389.105 276.905 388.984 277.958 388.843 279.017C389.03 279.829 389.138 280.488 389.169 280.994C389.241 281.491 389.262 281.956 389.234 282.39C389.237 282.774 389.209 283.208 389.149 283.692C389.121 284.127 389.12 284.682 389.148 285.36C389.166 285.997 389.217 286.777 389.301 287.698C389.425 288.61 389.539 289.567 389.641 290.57C389.775 291.522 389.929 292.47 390.103 293.414C390.268 294.316 390.425 295.092 390.575 295.742C390.846 296.92 391.209 298.033 391.664 299.083C392.17 300.164 392.823 301.146 393.625 302.031L394.661 301.792C394.904 301.736 395.168 301.676 395.453 301.61C395.746 301.585 396.029 301.606 396.301 301.672C396.566 301.525 396.68 301.37 396.643 301.208L396.531 300.721C396.503 300.599 396.567 300.413 396.723 300.163L397.163 300.126C397.569 300.033 397.921 299.888 398.218 299.691C398.555 299.485 398.883 299.239 399.202 298.952C399.731 297.718 400.418 296.62 401.265 295.655C402.153 294.681 402.89 293.614 403.478 292.452C403.607 292.081 403.579 291.681 403.395 291.253C403.863 291.059 404.187 290.793 404.365 290.452C404.584 290.103 404.778 289.737 404.946 289.357C405.115 288.976 405.289 288.615 405.467 288.275C405.677 287.884 405.991 287.577 406.409 287.352C406.528 286.94 406.622 286.512 406.691 286.069C406.751 285.585 406.815 285.121 406.884 284.678C406.994 284.225 407.133 283.808 407.302 283.427C407.502 282.996 407.802 282.628 408.202 282.322C408.537 280.62 408.762 278.901 408.875 277.165C408.979 275.388 409.36 273.697 410.017 272.092C409.895 271.564 409.803 271.073 409.741 270.617C409.679 270.161 409.551 269.698 409.358 269.23C410.055 267.615 410.373 266.024 410.312 264.457C410.25 262.889 410.028 261.273 409.645 259.608C409.327 258.227 409.554 257.17 410.326 256.437C411.138 255.694 412.174 255.178 413.433 254.888L414.042 254.748C414.286 254.692 414.514 254.661 414.726 254.655C414.873 254.92 415.066 255.111 415.306 255.226C415.578 255.292 415.854 255.378 416.135 255.485L416.22 255.85C416.35 256.419 416.391 256.965 416.34 257.49C416.321 257.964 416.373 258.466 416.494 258.994C416.55 259.237 416.665 259.553 416.84 259.94C417.517 261.024 418.069 262.03 418.497 262.958C418.964 263.876 419.348 264.985 419.647 266.285C419.899 267.381 420.095 268.512 420.235 269.677C420.406 270.792 420.537 271.916 420.626 273.05C420.973 273.44 421.202 273.879 421.314 274.367C421.389 274.691 421.428 275.046 421.431 275.43C421.465 275.764 421.519 276.094 421.594 276.419C421.753 277.109 422.013 277.776 422.375 278.419C422.768 279.013 423.161 279.607 423.555 280.2C423.988 280.785 424.381 281.378 424.734 281.981C425.087 282.584 425.317 283.215 425.426 283.874C426.313 284.568 427.123 285.301 427.856 286.073C428.639 286.876 429.517 287.529 430.488 288.033C430.831 288.039 431.104 288.019 431.307 287.972C431.551 287.916 431.745 287.829 431.889 287.71C432.042 287.632 432.17 287.539 432.273 287.429C432.426 287.351 432.579 287.273 432.732 287.195C432.894 287.158 433.143 287.122 433.477 287.088C434.086 286.392 434.616 285.629 435.066 284.798C435.526 284.008 435.94 283.208 436.309 282.396C436.719 281.575 437.124 280.733 437.524 279.872C437.924 279.01 438.354 278.184 438.814 277.394C439.319 274.2 439.6 271.057 439.658 267.965C439.716 264.873 439.462 261.725 438.896 258.52C438.793 258.074 438.843 257.827 439.046 257.78C439.249 257.733 439.399 257.549 439.496 257.228L439.104 255.522C438.805 254.223 438.567 252.909 438.39 251.582C438.253 250.245 438.263 248.896 438.42 247.535C438.186 247.075 438.013 246.602 437.901 246.115C437.658 245.059 437.506 244.025 437.444 243.013C437.413 241.952 437.281 240.913 437.048 239.898C436.926 239.37 436.744 238.856 436.501 238.356C436.289 237.807 435.969 237.346 435.541 236.974L435.396 236.622C435.34 236.379 435.374 236.157 435.5 235.957C435.665 235.748 435.765 235.533 435.8 235.311C435.475 234.83 435.268 234.3 435.178 233.722C435.128 233.135 435.038 232.557 434.907 231.989C434.832 231.664 434.712 231.328 434.547 230.982C434.382 230.635 434.113 230.397 433.742 230.269C434.014 229.779 434.156 229.19 434.169 228.503C434.182 227.816 434.125 227.103 433.997 226.362C433.91 225.613 433.787 224.893 433.628 224.202C433.46 223.472 433.361 222.853 433.33 222.347C433.602 221.857 433.928 221.418 434.309 221.031C434.722 220.594 435.212 220.311 435.781 220.18C436.512 220.012 437.1 220.154 437.547 220.607C437.984 221.02 438.368 221.573 438.698 222.266C439.019 222.919 439.305 223.602 439.554 224.314C439.844 225.017 440.183 225.559 440.57 225.94ZM500.359 263.36C500.368 263.956 500.212 264.484 499.89 264.943C499.599 265.352 499.213 265.719 498.732 266.043C498.251 266.368 497.735 266.636 497.186 266.848C496.667 267.01 496.185 267.142 495.738 267.245C495.535 267.292 495.332 267.339 495.129 267.385C494.957 267.382 494.77 267.404 494.567 267.451C494.364 267.497 494.285 267.622 494.332 267.825C494.379 268.028 494.31 268.194 494.126 268.322C493.904 268.287 493.687 268.273 493.475 268.279C493.262 268.285 493.054 268.312 492.851 268.358C492.567 268.424 492.288 268.51 492.013 268.616C491.778 268.712 491.54 268.789 491.296 268.845C490.971 268.919 490.718 268.935 490.537 268.891C490.396 268.838 490.256 268.785 490.115 268.731C490.006 268.628 489.877 268.53 489.727 268.436C489.618 268.333 489.452 268.264 489.23 268.23C488.918 268.173 488.67 268.209 488.485 268.337C488.342 268.456 488.05 268.394 487.61 268.154C487.029 267.86 486.49 267.471 485.994 266.986C485.529 266.452 485.059 265.897 484.585 265.322C484.111 264.747 483.616 264.177 483.101 263.612C482.586 263.046 482.029 262.576 481.43 262.2L480.942 262.313C480.211 262.481 479.774 262.902 479.63 263.577C479.399 263.502 479.163 263.406 478.923 263.29C478.673 263.134 478.412 263.023 478.141 262.957C477.272 263.457 476.354 263.924 475.385 264.361C474.417 264.798 473.425 265.133 472.41 265.366L471.557 265.563C471.313 265.619 471.04 265.639 470.737 265.623C470.369 265.879 470.05 266.166 469.781 266.484C469.503 266.762 469.161 266.948 468.755 267.041C468.511 267.097 468.208 267.081 467.846 266.994C467.602 267.05 467.504 267.179 467.551 267.382C467.638 267.576 467.54 267.706 467.255 267.771L466.707 267.897C466.139 268.028 465.575 268.179 465.016 268.351C464.497 268.513 463.954 268.659 463.385 268.79C462.614 268.967 461.799 269.048 460.94 269.032C460.765 269.201 460.555 269.313 460.312 269.369C460.168 269.487 460.079 269.658 460.044 269.879C460.001 270.06 459.957 270.242 459.913 270.423C459.86 270.563 459.766 270.713 459.632 270.872C459.528 270.981 459.35 271.044 459.097 271.059C459.128 271.565 459.014 271.998 458.755 272.357C458.495 272.716 458.431 273.179 458.562 273.748C458.171 274.094 457.876 274.483 457.676 274.914C457.475 275.345 457.28 275.796 457.089 276.267C456.898 276.739 456.683 277.195 456.442 277.635C456.242 278.066 455.942 278.434 455.542 278.74C455.395 279.03 455.423 279.43 455.625 279.939C455.263 280.407 454.789 280.858 454.205 281.292C453.621 281.726 453.044 282.008 452.476 282.139C451.298 282.41 450.341 281.967 449.605 280.811C449.512 280.405 449.454 279.97 449.433 279.504C449.361 279.008 449.34 278.542 449.368 278.108C449.387 277.634 449.481 277.206 449.65 276.825C449.809 276.403 450.094 276.06 450.503 275.795C450.419 275.429 450.241 275.214 449.969 275.148C449.688 275.042 449.526 274.801 449.483 274.426C450.457 273.646 451.253 272.736 451.869 271.697C452.485 270.657 453.01 269.595 453.445 268.512C453.911 267.379 454.377 266.245 454.843 265.112C455.309 263.979 455.879 262.928 456.555 261.96L456.26 260.681C457.179 259.101 457.635 257.457 457.627 255.749C458.055 255.565 458.292 255.297 458.339 254.944C458.427 254.582 458.419 254.177 458.316 253.731C458.519 253.684 458.623 253.575 458.626 253.403C458.66 253.181 458.829 253.078 459.132 253.094C459.273 252.035 459.474 251.049 459.733 250.134C459.993 249.219 460.253 248.304 460.513 247.389C460.763 246.433 460.948 245.472 461.067 244.504C461.227 243.526 461.262 242.471 461.172 241.337C461.731 241.166 461.975 240.831 461.904 240.335C461.863 239.788 461.837 239.303 461.825 238.878C462.303 238.169 462.596 237.397 462.702 236.56C462.85 235.713 462.952 234.856 463.009 233.988C463.056 233.079 463.128 232.186 463.226 231.309C463.354 230.381 463.628 229.527 464.047 228.747L464.005 228.564C463.958 228.361 463.849 228.258 463.677 228.254C463.496 228.211 463.382 228.087 463.336 227.884C463.367 227.834 463.378 227.789 463.368 227.748C463.809 227.433 464.1 227.024 464.241 226.522C464.372 225.978 464.658 225.549 465.099 225.234C466.11 225.728 466.959 225.981 467.647 225.994C468.324 225.967 469.2 225.872 470.275 225.71C470.933 226.157 471.377 226.782 471.604 227.585C471.863 228.338 472.182 229.076 472.563 229.801C473.187 231.026 473.826 232.225 474.481 233.4C475.168 234.525 475.762 235.714 476.264 236.966C476.563 237.71 476.955 238.389 477.439 239.005C477.922 239.62 478.309 240.279 478.599 240.982C478.811 241.532 478.961 242.182 479.048 242.931C479.125 243.64 479.347 244.231 479.712 244.703L480.362 245.579C480.668 245.979 480.938 246.408 481.172 246.868C481.447 247.318 481.701 247.772 481.935 248.231C482.54 249.375 483.128 250.629 483.699 251.994C484.3 253.309 485.017 254.47 485.847 255.476C486.143 255.836 486.513 256.05 486.956 256.119C487.44 256.178 487.956 256.188 488.502 256.148C489.04 256.067 489.552 255.97 490.039 255.858C490.558 255.696 491 255.573 491.365 255.489L491.974 255.349C492.218 255.293 492.471 255.277 492.733 255.302C492.97 255.59 493.117 255.855 493.173 256.099C493.285 256.586 493.211 257.009 492.952 257.368C492.693 257.727 492.605 258.09 492.689 258.455C492.736 258.658 492.868 258.863 493.087 259.069C492.915 259.066 492.667 259.102 492.342 259.176C491.408 259.391 490.532 259.764 489.713 260.294C490.197 260.91 490.759 261.401 491.399 261.766C492.07 262.082 492.757 262.373 493.459 262.639C493.791 262.221 494.18 261.96 494.626 261.857C495.114 261.745 495.588 261.764 496.05 261.914C496.544 262.015 497.034 262.009 497.521 261.897C497.887 261.812 498.137 261.691 498.271 261.532C498.68 261.822 499.033 262.147 499.329 262.507C499.616 262.825 499.96 263.11 500.359 263.36ZM479.052 258.002C478.812 257.33 478.558 256.875 478.29 256.638C478.053 256.351 477.822 255.997 477.597 255.579C477.304 255.048 477.042 254.467 476.811 253.836C476.621 253.195 476.395 252.585 476.133 252.004C475.531 250.688 474.888 249.383 474.205 248.086C473.563 246.78 472.828 245.538 472.001 244.36C472.108 244.079 472.137 243.837 472.091 243.634L472.049 243.452C471.59 243.13 471.214 242.703 470.92 242.172C470.618 241.6 470.32 241.049 470.027 240.518C469.765 239.937 469.456 239.431 469.1 239C468.776 238.518 468.332 238.171 467.77 237.959C467.705 238.23 467.709 238.529 467.784 238.854C467.849 239.138 467.93 239.397 468.027 239.631C468.164 239.856 468.266 240.111 468.331 240.395C467.972 240.692 467.742 241.086 467.642 241.58C467.573 242.023 467.363 242.414 467.013 242.751C466.987 244.125 466.805 245.471 466.467 246.788C466.12 248.065 465.732 249.352 465.303 250.648C464.915 251.934 464.552 253.236 464.214 254.554C463.866 255.831 463.655 257.141 463.579 258.484C463.135 258.971 462.877 259.522 462.805 260.137C462.773 260.743 462.823 261.33 462.954 261.899C463.366 262.018 463.8 262.046 464.256 261.984C464.743 261.872 465.21 261.764 465.657 261.661C466.104 261.559 466.539 261.501 466.964 261.489C467.389 261.477 467.801 261.596 468.201 261.846C468.691 261.562 469.236 261.329 469.836 261.149C470.467 260.918 470.953 260.614 471.293 260.236C472.171 260.333 473.077 260.275 474.011 260.06C474.498 259.948 474.955 259.8 475.383 259.616C475.852 259.422 476.296 259.213 476.714 258.989C477.098 258.986 477.415 259.062 477.665 259.219C477.905 259.334 478.224 259.325 478.621 259.191C478.786 258.982 478.871 258.792 478.874 258.62C478.868 258.408 478.927 258.201 479.052 258.002ZM575.14 239.674C575.199 240.302 575.083 240.82 574.792 241.229C574.542 241.629 574.226 242.022 573.845 242.409C573.633 242.415 573.425 242.442 573.222 242.488C573.05 242.485 572.863 242.507 572.66 242.554C571.392 242.803 570.231 243.241 569.178 243.868C568.166 244.486 567.09 245.011 565.95 245.445C565.562 245.619 565.186 245.749 564.82 245.833C564.486 245.867 564.146 245.967 563.799 246.132C562.546 246.634 561.203 247.114 559.769 247.572C558.336 248.03 556.911 248.529 555.496 249.069C554.072 249.567 552.682 250.122 551.326 250.734C550.001 251.295 548.786 251.96 547.68 252.727C547.54 252.674 547.399 252.621 547.258 252.568C547.109 252.474 546.953 252.446 546.79 252.483C546.384 252.576 546.012 252.726 545.675 252.932C545.337 253.138 544.981 253.263 544.607 253.306C544.257 253.643 543.852 253.929 543.393 254.163C542.965 254.347 542.516 254.535 542.048 254.729C541.611 254.872 541.183 255.056 540.764 255.281C540.345 255.505 539.97 255.827 539.639 256.245C539.277 256.157 538.852 256.169 538.365 256.282C537.909 256.344 537.567 256.251 537.339 256.005C536.508 256.666 535.579 257.179 534.551 257.544C533.564 257.9 532.538 258.178 531.473 258.381C530.773 258.499 529.958 258.58 529.027 258.623C528.096 258.666 527.152 258.648 526.193 258.57C525.225 258.45 524.308 258.276 523.443 258.048C522.569 257.779 521.859 257.386 521.313 256.871C520.935 256.53 520.629 256.13 520.395 255.671C520.161 255.212 519.793 254.912 519.29 254.771C519.197 253.809 519.129 252.862 519.086 251.932C519.043 251.001 518.995 250.05 518.942 249.079C519.596 248.202 520.199 247.293 520.752 246.353C521.306 245.414 521.809 244.443 522.263 243.441C522.95 242.898 523.558 242.287 524.086 241.61C524.655 240.923 525.203 240.241 525.732 239.564C526.291 238.837 526.835 238.134 527.363 237.457C527.932 236.77 528.555 236.135 529.233 235.551C529.29 235.239 529.401 234.978 529.566 234.769C529.763 234.51 529.965 234.271 530.171 234.053C530.368 233.794 530.545 233.539 530.701 233.29C530.848 232.999 530.925 232.682 530.931 232.339C532.156 231.159 533.147 229.798 533.904 228.256C534.66 226.713 535.014 225.093 534.965 223.394C534.144 222.984 533.268 222.801 532.338 222.844C531.438 222.837 530.512 222.901 529.56 223.034C528.738 223.181 527.886 223.377 527.002 223.623C526.158 223.86 525.28 224.041 524.368 224.165C523.541 224.655 522.649 225.052 521.693 225.358C520.778 225.654 519.862 225.95 518.947 226.246C518.023 226.502 517.117 226.838 516.229 227.256C515.374 227.624 514.575 228.15 513.835 228.834C513.672 228.871 513.505 228.888 513.333 228.885C513.202 228.872 513.055 228.885 512.893 228.922C511.584 229.18 510.427 229.725 509.421 230.555C508.405 231.344 507.41 232.129 506.435 232.909C506.391 233.09 506.379 233.222 506.397 233.303C506.454 233.546 506.55 233.781 506.688 234.006C506.856 234.181 506.968 234.39 507.024 234.634C506.993 234.684 506.982 234.729 506.992 234.769C507.001 234.81 506.99 234.855 506.959 234.905C506.965 235.118 506.946 235.314 506.902 235.495C506.899 235.667 506.88 235.864 506.845 236.086C506.698 237.488 506.749 238.823 506.998 240.091C507.2 241.156 507.438 242.192 507.712 243.197C507.987 244.203 508.225 245.239 508.427 246.304C508.645 247.622 508.722 248.887 508.659 250.098C509.086 251.026 509.507 252.02 509.922 253.079C510.327 254.097 510.773 255.106 511.26 256.106C511.747 257.105 512.269 258.075 512.828 259.016C513.417 259.906 514.099 260.733 514.873 261.495C514.851 261.586 514.886 261.642 514.976 261.664C515.067 261.686 515.153 261.687 515.234 261.669L515.721 261.556C515.924 261.51 516.024 261.572 516.021 261.744C516.13 261.847 516.219 261.955 516.288 262.067C516.347 262.139 516.447 262.202 516.587 262.255C516.697 262.358 516.734 262.521 516.699 262.742C516.846 263.564 516.816 264.362 516.609 265.136C516.402 265.91 516.352 266.713 516.458 267.544C515.998 267.778 515.566 267.941 515.16 268.035C514.46 268.153 513.804 268.09 513.192 267.846C512.59 267.643 512.009 267.349 511.45 266.965C510.891 266.58 510.353 266.191 509.835 265.797C509.307 265.363 508.758 265.019 508.186 264.765C507.64 263.694 507.067 262.501 506.465 261.185C505.903 259.861 505.206 258.781 504.373 257.947C504.451 257.544 504.429 257.079 504.308 256.551C504.162 255.73 503.898 254.956 503.518 254.232C503.168 253.457 502.941 252.654 502.835 251.823C502.732 251.377 502.67 250.921 502.649 250.455C502.668 249.981 502.646 249.515 502.584 249.059C502.466 248.36 502.23 247.708 501.878 247.105C501.566 246.493 501.351 245.837 501.232 245.137C501.198 244.803 501.189 244.485 501.205 244.182C501.252 243.829 501.349 243.507 501.496 243.217C501.181 242.776 501.012 242.323 500.991 241.858C500.873 241.158 500.804 240.49 500.786 239.853C500.768 239.216 500.709 238.588 500.609 237.97C500.534 237.645 500.444 237.345 500.338 237.07C500.223 236.755 500.092 236.464 499.945 236.199L499.355 236.142C499.111 236.198 498.882 236.315 498.666 236.493C498.491 236.661 498.341 236.846 498.216 237.045C498.091 237.245 497.981 237.42 497.888 237.57C497.785 237.679 497.672 237.748 497.55 237.776C497.469 237.794 497.368 237.818 497.246 237.846C497.155 237.824 497.069 237.822 496.988 237.841C496.907 237.86 496.763 237.978 496.557 238.197C496.391 238.406 496.169 238.649 495.891 238.927C495.644 239.155 495.402 239.403 495.165 239.672C494.918 239.899 494.718 240.052 494.565 240.13C494.099 240.152 493.701 240.094 493.37 239.956C493.071 239.769 492.776 239.601 492.485 239.454C492.226 239.257 491.956 239.106 491.675 238.999C491.385 238.852 491.061 238.841 490.705 238.966C490.527 238.75 490.406 238.501 490.34 238.216C490.234 237.941 490.169 237.657 490.144 237.364L489.92 236.389C490.083 235.796 490.37 235.281 490.783 234.844C491.145 234.375 491.563 233.959 492.034 233.594L493.45 232.498C493.922 232.133 494.339 231.717 494.701 231.248L495.25 231.122C495.99 230.995 496.586 230.708 497.04 230.261C497.533 229.806 497.977 229.319 498.371 228.801C498.755 228.242 499.14 227.683 499.524 227.124C499.949 226.556 500.438 226.08 500.992 225.696C501.485 225.797 501.994 225.872 502.519 225.922C503.034 225.932 503.56 225.896 504.097 225.815C504.625 225.694 505.155 225.487 505.686 225.193C506.217 224.9 506.593 224.493 506.816 223.971C507.037 224.006 507.214 224.029 507.345 224.042C507.507 224.005 507.69 223.963 507.893 223.916C508.511 223.816 509.102 223.595 509.664 223.252C510.217 222.868 510.741 222.448 511.234 221.992C512.056 221.846 512.838 221.623 513.582 221.324C514.356 220.975 515.111 220.63 515.845 220.29C516.62 219.941 517.379 219.617 518.122 219.317C518.897 218.968 519.695 218.72 520.517 218.574C521.866 218.306 523.158 217.881 524.391 217.297C525.625 216.714 526.922 216.309 528.28 216.082C529.224 215.907 530.156 215.778 531.077 215.695C532.03 215.561 532.969 215.366 533.893 215.111C534.477 215.233 534.995 215.349 535.448 215.458C535.932 215.518 536.49 215.433 537.121 215.202C538.672 215.999 540.144 217.007 541.536 218.226L541.775 219.262C541.949 220.205 541.997 221.156 541.918 222.115C541.84 223.073 541.7 224.046 541.499 225.033C541.33 225.97 541.12 226.916 540.87 227.871C540.61 228.786 540.371 229.696 540.152 230.602C538.063 233.605 535.971 236.588 533.873 239.55C531.776 242.513 529.579 245.413 527.281 248.25C527.294 248.675 527.256 249.068 527.168 249.431C527.121 249.783 527.119 250.147 527.163 250.522C527.21 250.725 527.267 250.883 527.336 250.995C527.639 251.011 527.92 251.117 528.179 251.314C528.469 251.461 528.616 251.727 528.619 252.111L529.167 251.985C529.37 251.938 529.49 251.996 529.528 252.158L530.516 251.995C532.078 251.721 533.612 251.326 535.117 250.808C536.623 250.291 538.124 249.753 539.62 249.195C541.157 248.627 542.678 248.085 544.184 247.567C545.68 247.009 547.195 246.532 548.729 246.137C549.066 245.931 549.429 245.74 549.816 245.566C550.203 245.391 550.531 245.145 550.8 244.826L550.983 244.784C551.267 244.719 551.489 244.753 551.648 244.888C551.848 245.013 552.094 245.063 552.388 245.038C552.591 244.991 552.785 244.904 552.969 244.776C553.194 244.639 553.424 244.522 553.658 244.425C554.189 244.132 554.754 243.895 555.354 243.714C555.995 243.524 556.61 243.318 557.2 243.097C559.509 242.352 561.816 241.693 564.121 241.12C566.416 240.506 568.661 239.669 570.854 238.608C571.122 238.846 571.453 238.983 571.847 239.021C572.231 239.018 572.64 239.031 573.074 239.059C573.499 239.047 573.888 239.064 574.241 239.111C574.634 239.149 574.934 239.337 575.14 239.674ZM594.301 214.806C594.394 215.212 594.313 215.509 594.057 215.696C593.801 215.883 593.715 216.16 593.799 216.525C593.827 216.647 593.891 216.739 593.99 216.802C594.09 216.864 594.159 216.977 594.196 217.139L594.252 217.383C594.307 219.85 594.068 222.064 593.536 224.025C593.045 225.977 592.358 227.823 591.476 229.566C590.595 231.308 589.532 233.006 588.288 234.66C587.084 236.305 585.773 238.04 584.354 239.863C583.96 240.381 583.546 240.904 583.112 241.431C582.718 241.949 582.349 242.483 582.005 243.033L580.96 244.62C580.928 244.67 580.728 244.823 580.36 245.079C579.982 245.294 579.757 245.431 579.685 245.49C579.172 245.865 578.629 246.289 578.054 246.764C577.519 247.229 577.085 247.756 576.75 248.346C575.938 248.533 575.276 248.814 574.764 249.188C574.251 249.563 573.697 250.032 573.1 250.597C572.897 250.644 572.705 250.645 572.524 250.602C572.383 250.548 572.222 250.5 572.041 250.456C571.86 250.412 571.668 250.414 571.465 250.46C571.293 250.457 571.075 250.529 570.809 250.675C570.135 249.976 569.448 249.407 568.749 248.969C568.05 248.531 567.199 248.364 566.196 248.466C565.915 247.804 565.51 247.341 564.979 247.079C564.439 246.776 563.894 246.452 563.345 246.108C563.207 245.883 563.081 245.613 562.966 245.297C562.85 244.982 562.699 244.696 562.512 244.44C562.325 244.184 562.106 243.977 561.856 243.821C561.607 243.665 561.299 243.629 560.934 243.713C560.837 243.479 560.91 243.333 561.154 243.277C561.398 243.221 561.496 243.092 561.449 242.889C561.393 242.645 561.297 242.411 561.159 242.186C561.022 241.961 560.921 241.706 560.855 241.422C560.809 241.219 560.787 241.032 560.79 240.86C560.793 240.688 560.812 240.491 560.847 240.27C560.473 239.201 560.155 238.099 559.893 236.962C559.388 234.769 559.035 232.584 558.834 230.407C558.663 228.18 558.326 225.971 557.821 223.778C557.597 222.803 557.312 221.843 556.966 220.896C556.66 219.941 556.258 219.028 555.759 218.16C554.872 218.578 553.994 219.036 553.125 219.536C552.247 219.994 551.454 220.54 550.744 221.174C550.232 220.992 549.728 220.937 549.231 221.009C548.685 221.049 548.149 221.044 547.625 220.994C547.21 220.491 546.932 219.935 546.792 219.326C546.661 218.757 546.636 218.186 546.718 217.611L546.963 215.887C547.89 215.46 548.795 214.931 549.676 214.301C550.516 213.68 551.387 213.095 552.286 212.546C552.593 212.39 552.975 212.195 553.434 211.961C553.934 211.718 554.276 211.532 554.461 211.404C554.717 211.217 554.848 210.951 554.855 210.608C554.892 210.214 554.985 209.872 555.132 209.582L556.167 209.344C556.411 209.288 556.679 209.247 556.973 209.223C557.257 209.157 557.535 209.157 557.807 209.223C559.185 208.521 560.595 207.961 562.038 207.544C563.472 207.086 564.937 206.578 566.433 206.019C566.596 205.982 566.835 205.906 567.15 205.79L568.143 205.369C568.49 205.204 568.801 205.068 569.076 204.962C569.382 204.806 569.596 204.714 569.718 204.686C569.84 204.658 569.915 204.705 569.943 204.827L570.978 204.589C572.724 204.187 574.481 204.018 576.249 204.081L581.551 204.272C582.372 204.682 583.189 205.071 584.001 205.44C584.812 205.809 585.691 206.098 586.638 206.308C586.99 206.911 587.416 207.369 587.916 207.682C588.446 207.944 589.027 208.238 589.658 208.563C589.982 209.045 590.377 209.552 590.842 210.087C591.338 210.571 591.819 211.08 592.284 211.615C592.749 212.149 593.173 212.693 593.557 213.246C593.931 213.758 594.179 214.278 594.301 214.806ZM588.847 217.023C588.185 216.192 587.535 215.316 586.895 214.394C586.255 213.472 585.537 212.676 584.741 212.004C583.964 211.969 583.157 211.898 582.32 211.791C581.514 211.635 580.88 211.203 580.418 210.497C580.347 210.556 580.209 210.609 580.006 210.656C579.641 210.74 579.283 210.673 578.934 210.454C578.584 210.235 578.217 210.127 577.833 210.13C577.499 210.164 577.038 210.206 576.451 210.256C575.904 210.296 575.322 210.366 574.703 210.466C574.085 210.565 573.466 210.665 572.848 210.764C572.27 210.854 571.819 210.937 571.494 211.012C571.169 211.086 570.829 211.186 570.473 211.311C570.148 211.386 569.807 211.485 569.451 211.61C569.126 211.685 568.937 211.792 568.884 211.933C568.822 212.033 568.678 212.151 568.453 212.289C568.231 212.254 567.999 212.265 567.755 212.321L567.024 212.489C566.171 212.685 565.351 213.024 564.564 213.504C563.808 213.935 563.075 214.467 562.366 215.1L562.422 215.344C562.497 215.669 562.681 215.819 562.975 215.794C563.268 215.769 563.468 215.894 563.574 216.169C563.371 216.216 563.213 216.274 563.101 216.342C562.979 216.37 562.951 216.526 563.016 216.811C563.11 217.217 563.253 217.654 563.446 218.123C563.68 218.582 563.853 219.055 563.965 219.542C564.049 219.908 564.107 220.343 564.138 220.849C564.169 221.355 564.055 221.788 563.795 222.147C564.285 222.419 564.6 222.859 564.741 223.468C564.834 223.874 564.851 224.32 564.791 224.804C564.732 225.288 564.617 225.72 564.449 226.101C564.76 227.825 564.994 229.588 565.153 231.39C565.311 233.192 565.586 234.946 565.979 236.652C566.175 237.504 566.407 238.327 566.675 239.121C566.984 239.905 567.353 240.675 567.784 241.431C568.333 241.775 568.88 242.013 569.423 242.144C570.007 242.266 570.611 242.384 571.236 242.496L571.278 242.679C571.306 242.801 571.253 242.942 571.118 243.101C570.984 243.26 570.94 243.441 570.987 243.644C571.024 243.806 571.124 243.869 571.286 243.832C572.88 242.952 574.348 241.994 575.692 240.958C577.035 239.922 578.221 238.666 579.25 237.189C579.343 237.039 579.451 236.95 579.573 236.922C579.654 236.904 579.76 236.901 579.892 236.913C580.063 236.916 580.215 236.924 580.346 236.937L580.229 236.707C580.173 236.464 580.182 236.226 580.258 235.995C580.373 235.755 580.514 235.53 580.68 235.321L581.162 234.633C581.319 234.383 581.434 234.142 581.51 233.911C581.816 233.755 582.002 233.542 582.067 233.27C582.174 232.989 582.41 232.806 582.775 232.722C582.754 232.257 582.902 231.881 583.221 231.594C583.53 231.266 583.674 230.869 583.653 230.404C584.362 229.77 584.946 229.059 585.406 228.269C585.906 227.47 586.336 226.644 586.696 225.791C587.096 224.93 587.451 224.057 587.761 223.173C588.061 222.249 588.391 221.361 588.751 220.509L588.695 220.265C588.545 219.615 588.525 219.064 588.635 218.611C588.785 218.149 588.856 217.62 588.847 217.023Z" fill="black"/>
<path d="M243.212 145.317L232.858 100.323L239.135 98.8786L243.609 118.32L255.163 115.662L250.689 96.2198L256.966 94.7754L267.32 139.769L261.043 141.214L256.198 120.161L244.644 122.82L249.489 143.873L243.212 145.317ZM274.349 138.152L263.995 93.1578L281.437 89.144L282.511 93.8101L271.346 96.3794L274.772 111.266L283.826 109.183L284.849 113.627L275.794 115.71L279.591 132.208L290.867 129.613L291.903 134.113L274.349 138.152ZM296.97 132.946L286.616 87.9523L292.893 86.5079L302.212 127.003L313.71 124.357L314.745 128.856L296.97 132.946ZM319.048 127.866L308.694 82.8717L314.971 81.4273L324.29 121.922L335.788 119.276L336.824 123.775L319.048 127.866ZM352.415 120.714C349.378 121.413 346.816 121.378 344.729 120.611C342.641 119.844 340.958 118.457 339.677 116.451C338.388 114.408 337.403 111.905 336.721 108.943L332.797 91.8893C332.115 88.9267 331.92 86.3005 332.212 84.0107C332.532 81.6754 333.454 79.7477 334.976 78.2277C336.526 76.6621 338.819 75.53 341.856 74.8312C344.893 74.1324 347.432 74.1525 349.474 74.8914C351.515 75.6304 353.168 76.9658 354.431 78.8977C355.732 80.821 356.723 83.264 357.405 86.2266L361.342 103.335C362.015 106.261 362.196 108.91 361.884 111.282C361.609 113.646 360.723 115.644 359.227 117.275C357.722 118.869 355.451 120.015 352.415 120.714ZM351.277 115.77C352.943 115.387 354.126 114.764 354.824 113.901C355.514 113.002 355.866 111.907 355.881 110.616C355.888 109.289 355.699 107.792 355.316 106.126L350.778 86.4062C350.395 84.7397 349.918 83.3481 349.349 82.2312C348.772 81.0773 347.985 80.2836 346.988 79.8501C345.983 79.3795 344.647 79.3359 342.981 79.7194C341.314 80.1029 340.114 80.7302 339.378 81.6013C338.671 82.4268 338.31 83.4847 338.295 84.775C338.272 86.0282 338.452 87.488 338.835 89.1544L343.373 108.874C343.757 110.541 344.241 111.969 344.827 113.16C345.405 114.314 346.2 115.145 347.214 115.652C348.256 116.114 349.61 116.154 351.277 115.77ZM240.195 200.397L234.182 171.858L238.076 170.962L248.397 192.857L248.145 168.645L252.004 167.757L259.07 196.053L255.877 196.788L250.814 176.232L250.755 197.966L248.51 198.483L238.991 178.952L243.423 199.654L240.195 200.397ZM267.776 194.05L265.467 184.016L255.097 167.045L258.781 166.198L266.288 178.914L267.411 164.211L271.13 163.356L269.256 183.144L271.565 193.178L267.776 194.05ZM288.333 189.319L281.794 160.902L284.495 160.28L296.908 177.298L292.564 158.423L295.862 157.664L302.401 186.082L299.875 186.663L287.237 169.143L291.701 188.544L288.333 189.319ZM305.325 185.409L304.82 155.603L308.644 154.723L321.252 181.744L317.498 182.608L314.553 175.749L308.765 177.081L309.043 184.553L305.325 185.409ZM308.637 174.119L313.373 173.029L308.041 160.772L308.637 174.119ZM324.066 181.096L318.052 152.558L321.947 151.662L332.268 173.557L332.016 149.345L335.875 148.457L342.94 176.753L339.748 177.488L334.685 156.931L334.626 178.666L332.38 179.183L322.862 159.652L327.293 180.354L324.066 181.096ZM347.296 175.751L340.757 147.333L351.773 144.798L352.451 147.745L345.399 149.368L347.563 158.77L353.281 157.454L353.927 160.261L348.209 161.577L350.606 171.997L357.728 170.358L358.382 173.2L347.296 175.751ZM369.81 170.57L363.271 142.152L367.165 141.256L373.705 169.674L369.81 170.57ZM385.076 167.389C383.438 167.766 381.989 167.73 380.729 167.281C379.491 166.827 378.449 166.045 377.603 164.935C376.756 163.824 376.098 162.461 375.627 160.845L378.918 159.091C379.219 160.08 379.595 161.016 380.044 161.898C380.516 162.774 381.103 163.452 381.805 163.931C382.501 164.386 383.351 164.498 384.357 164.267C385.386 164.03 386.093 163.572 386.479 162.892C386.882 162.184 386.96 161.291 386.713 160.216C386.416 158.929 385.887 157.967 385.125 157.33C384.357 156.669 383.438 156.044 382.366 155.453L376.626 152.341C375.502 151.738 374.607 151.008 373.942 150.151C373.272 149.271 372.772 148.118 372.444 146.691C371.965 144.609 372.19 142.858 373.119 141.438C374.048 140.017 375.542 139.07 377.6 138.596C378.723 138.338 379.74 138.264 380.652 138.374C381.582 138.456 382.398 138.736 383.099 139.215C383.824 139.689 384.457 140.355 385 141.216C385.561 142.047 386.042 143.069 386.444 144.282L383.286 145.969C383.001 145.05 382.664 144.228 382.276 143.505C381.883 142.758 381.363 142.213 380.717 141.869C380.09 141.496 379.285 141.423 378.303 141.649C377.32 141.875 376.61 142.321 376.173 142.988C375.753 143.627 375.662 144.46 375.899 145.49C376.098 146.355 376.402 147.036 376.812 147.533C377.245 148.024 377.857 148.487 378.646 148.921L384.421 152.025C385.712 152.713 386.918 153.617 388.038 154.739C389.153 155.837 389.915 157.275 390.324 159.052C390.647 160.455 390.634 161.739 390.286 162.903C389.933 164.043 389.304 165 388.398 165.775C387.516 166.544 386.409 167.083 385.076 167.389Z" fill="white"/>
</g>
<defs>
<filter id="filter0_d" x="-2" y="0" width="653.636" height="470" filterUnits="userSpaceOnUse" color-interpolation-filters="sRGB">
<feFlood flood-opacity="0" result="BackgroundImageFix"/>
<feColorMatrix in="SourceAlpha" type="matrix" values="0 0 0 0 0 0 0 0 0 0 0 0 0 0 0 0 0 0 127 0"/>
<feOffset dy="4"/>
<feGaussianBlur stdDeviation="2"/>
<feColorMatrix type="matrix" values="0 0 0 0 0 0 0 0 0 0 0 0 0 0 0 0 0 0 0.25 0"/>
<feBlend mode="normal" in2="BackgroundImageFix" result="effect1_dropShadow"/>
<feBlend mode="normal" in="SourceGraphic" in2="effect1_dropShadow" result="shape"/>
</filter>
</defs>
</svg>
