<svg id="Layer_3" data-name="Layer 3" xmlns="http://www.w3.org/2000/svg" viewBox="0 0 1657.3 1133.32"><defs><style>.cls-1{opacity:0.6;}.cls-2{fill:none;}.cls-3{opacity:0.8;}.cls-4{fill:#6a4c93;}.cls-5{fill:#fff;opacity:0.2;}.cls-6{fill:#ff595e;}.cls-7{fill:#8ac926;}.cls-8{fill:#1982c4;}.cls-9{fill:#ffca3a;}</style></defs><g class="cls-1"><rect class="cls-2" x="427.04" y="-133.81" width="255.47" height="363.05" transform="translate(190.06 294.88) rotate(-13.99)"/><g class="cls-3"><path class="cls-4" d="M450.54,54.57l.84-.21c-1.83,1,.35,2.6-.49,2.81C450.11,56.46,449.55,55.4,450.54,54.57Z" transform="translate(185.14 159.31)"/><path class="cls-4" d="M467.3,208.17l2.25-.56c2,2.19-.77,4.09-1.34,5.42-1.41.35-2.32,2.67-3.72.63C463.22,211,465.19,209.3,467.3,208.17Z" transform="translate(185.14 159.31)"/><path class="cls-4" d="M486.75,165.08c-3-2.54,5.48-3.16.85-7.38-1.34-.57-2.68,2.45-4.09.41-2.66-10.68-13.76-19.27-22.48-26.67,2.53.57,5.28-2.81,8.09-1.11,4.78,2.39,8.71,12.17,14.55,5.63,7-4.43,16.39-5,24.41-2.79,9.85-7.24-2.24-18.57,7.12-26.58a7.45,7.45,0,0,1,6.26,3.52c3.79,5.63-.08,12.87,5,17.58,2.67-1.26,5.07-3.65,8.16-3.23,8.44,2.68,18.28,3.82,25,6.63-1.48,3.66-6.12,5.41-6.41,9.07,3.1.43,2.88,5.56,6.89,3.66,2.32,2.11.14,5.35-1.12,7.46,2.87,3.17,14-5,11,2,1.62,2.89-3.66,2.11-4.64,3a7,7,0,0,0-2.25-1.84c-6.75,6.47-15.69,9-22.52,15.18,2.18,7.53,11.46,8.8,15.81,15.48-2.24.56-4.92-2.95-7.66-3.16l-6.4,1.89c.56,8.23-7.53,8.15-9.37,14-.9-1.27-1.05-4.22-2.59-5.63-1-5.42-6.54.14-8.72-3.81-3.38.84-4.29,5.56-6.69,7.94,1.48,3.53-1.05,6.55.91,9.64,0,3.59-3.66-.28-5.14,1-.27-7.1,2.19-15.19-1.24-21.8-4.37,1.69-.63-4.93-4.86-2.68l-2.18,3.24c-.35-1.41-1.19-2.4-2.88-2a33.91,33.91,0,0,0-4.64,6.54c-.64-1.34-.71-4-3-4.64l-4.43,2.6a15.21,15.21,0,0,0,3.67-12.87c-2-1-3.59,2.39-4.36,1.69.7-.78,2.67-2.47,2.32-3.87-5.34-1.06-13.22-.29-17.16,3.08,1.54-1-.92-1.26-1.13-2.11C476,171.05,482.31,168.88,486.75,165.08Z" transform="translate(185.14 159.31)"/><path class="cls-4" d="M455.34,25.87c2.4-7.17,8.23-7.73,15.13-8.85,3,2.54,8.08,3.67,9.77,6.84-3.87,3.65,3.86,9.49-3.1,10.33,2.88,4.36-3.87,4.85-6.48,6.4-3.59,1.19-7.31-.57-10.12-2.26-1.34-1.76-1.9-4-4.5-4.86C456,31.08,459,27.35,455.34,25.87Z" transform="translate(185.14 159.31)"/><path class="cls-5" d="M460.61,30.24c1.83,1.33-.07,2.11-1.19,2.39C458.64,30.73,462,32.28,460.61,30.24Z" transform="translate(185.14 159.31)"/><path class="cls-5" d="M463.07,31.72c1.27,3.87,3.94.21,7.11.92-2.25-.64-1.69-.78-1.9-2.82,2.46.29,1.68,3.17,3.8.85-.29.07-.21-3.23-2.67-2.32,1.89-3.17,6,2.67,7.09.91-2.32.29-2.87,1.62-4.71,2.67-.91,1.13.85,2.18.85,3.38-1.83-1.33-2.89-.78-4.79,1.19.57-.14,1.2-1.19.78-1.68-.14.63-1.34.62-1.9.76-.42-.48.56-.14.7-.76-2.46-2.68-2.74,1-3.66,2.11-.14-.57,1.27-2.12-.27-3.52-1.27-1.48-1.62.7-2.54.63Z" transform="translate(185.14 159.31)"/><path class="cls-5" d="M463.5,29.82c-.85.21-1.34-.57-1.83-.14,2.74-1-1.19-3.59,2-2.6-2.32-.92-1-4.22-2.88-4.37l2.75-1c.13.56-.15.63-.64,1.06,1.47,1.13,3.09-2,2-2.88l3.23,2.18c.64.13-1.82-1.34-1.69.42,2.46,2.67,2.82-1.9,3.88-2.46,1,2.75,2.87,5.56,6.11,4.15-2.74,1-3.31,1.13-6.33,2.18-2.39-1.2,2.81-1.89-.14-3l-1.27.92c.21-.35.5-.43.43-.71-1.48,1.27-3.52.29-3.8,2.75,2.25.63,1.26,1.48,2.81,2.88-.77-4.29-5.13-.22-6.05,2.11C462.37,30.1,464,31.79,463.5,29.82Z" transform="translate(185.14 159.31)"/><path class="cls-4" d="M462.17,24.48l1.33.56Z" transform="translate(185.14 159.31)"/><polygon class="cls-4" points="656.58 192.23 654.26 193.71 654.04 192.86 656.58 192.23"/><path class="cls-4" d="M513.78,212.43l1.91-2Z" transform="translate(185.14 159.31)"/><path class="cls-5" d="M473.48,32.71c3.31,2.47-2.25-1.83,2.32-1.48-1.26,2.11,2,3.1-1.9,3.17Z" transform="translate(185.14 159.31)"/><path class="cls-4" d="M523,201.47c1.76-1.34,4.5,2.46,2,3.09C523.29,205,521,202.87,523,201.47Z" transform="translate(185.14 159.31)"/><path class="cls-4" d="M459.14-70.4c1.69-2.82-.63-8.51,2.33-9.85,1.26,1.48,2.95,1.06,4.08-.41.42-1.91-1.48-3.52-.14-5.35,7.6.5,5.7-3.52,12.73-5.27,1.13-2.67-1.61-5.27-3.08-7.6,1.61-.7,1,1.56,2,1.9-1-7.52-6.6-13.29-8.49-20.89.91,1.27,3.45-.56,3.38-.84l7.51,13.37c13.78,1.34,24.34-4.27,35.46-12.42,3.37-2-1.47-8.3,3.94-7,5,5.62-2.75,14.13,2.8,18.43,7.73,2.25,15.82,7.11,21.58,9.86,3.37,3.94-6.75,5.26-.71,9.14,1.41-.35,2.89-1.61,4.58-.84-.22,2.75-6,3.58-3.53,7.46,1.83,1.33,4.36-1.69,5.21,1.68-.43,3.1-5.49.78-5.07,4.85-2.68,6,4.85,2.67,5.48,6.41-1.13,1.47-3.73,1.82-5.56,1.68-1,2-3.31,5.9-3.1,9.14a10,10,0,0,1,5.42,2.54c-3.45,1.75-9,1-12.31,4.56-2.05,3.79,4.42,2.18,2,5.77-2.39,0-5.2-2.89-7.88-1.63l-1.83,5.84c-11.75,3.23-22.58-.65-33.9,4.27-6.26-3.53-13.57-4.1-20.26-4.52.78-2.89,1.7-5.2-.41-7.67-1.9-.42-3.87-1.12-5.77-1.55-.7-1.61,1.06-3-.2-4.43L460.89-55c.7-3.16,2.68-6,1.34-9-.42-2.88-3.52-2.11-5.48-2.81C456.61-68.58,458.16-69.56,459.14-70.4Z" transform="translate(185.14 159.31)"/><path class="cls-4" d="M544.08,233.27a4.17,4.17,0,0,1,1.83,3.73C544.22,237.42,543,234.74,544.08,233.27Z" transform="translate(185.14 159.31)"/><path class="cls-4" d="M507.13-14.53c-2.17-2.74,2.4-3.58,1.2-6,4.72-1.48,3.38-8,9.51-7.45,5.76-3.23,6,5.07,11.95,2.4,2,5.49,9.55,10.76,4.7,18.85-.5,5.2-8,1.68-5.56,7.66-1.41-.84-3.24-2.18-5.49-1.62C522-.31,521.54,2.5,519.92,2,517.67.18,515.35-3.13,512.4-.6c.7-3.16-2-4.29-4.71-4.5C512.68-9,502.49-10.38,507.13-14.53Z" transform="translate(185.14 159.31)"/><rect class="cls-5" x="512.21" y="-8.79" width="1.45" height="0.29" transform="translate(202.45 283.09) rotate(-13.99)"/><path class="cls-5" d="M515.64-6.78c2.53-3,.7,1.61,3.73.56-3.94-.21,1.19,1.2-1.07,3-2.31-.92.5-1.62-.77-3.1l-3.44.56,1.48-1.27Z" transform="translate(185.14 159.31)"/><polygon class="cls-5" points="699.51 145.07 698.95 146.41 698.74 145.56 699.51 145.07"/><path class="cls-5" d="M515.86-20.29c1.19,0,.7.43.35,1.41Z" transform="translate(185.14 159.31)"/><polygon class="cls-5" points="706.96 154.57 705.91 152.74 707.38 153.87 706.96 154.57"/><polygon class="cls-5" points="709.63 150.91 708.23 152.46 709.07 151.05 709.63 150.91"/><path class="cls-5" d="M525.9-7.55l.92-1.12Z" transform="translate(185.14 159.31)"/><path class="cls-5" d="M524.64-13.81l1.69.77Z" transform="translate(185.14 159.31)"/><path class="cls-5" d="M527.39-13.59l1.19-1.2Z" transform="translate(185.14 159.31)"/><path class="cls-4" d="M599.31,24.36c1.26,1.48,4,2.89,2.1,4.86-1.41,1.54-4,.7-4.71-.92C596.21,26.33,597.41,23.94,599.31,24.36Z" transform="translate(185.14 159.31)"/><path class="cls-4" d="M612.18,17.27c8-2.59,4.72-13.43,10.84-18.84,3-2.25,3.8,3.24,7,1.83-.42-1.68,0-3.58-.63-4.92,1.62.49,2.88,4.36,5.69,2.47,2.61-1.54,4.44-5,5.92-7.45,6.75-.49,12,14.63,17.57,3.39,0,2.39-2.74,4.57-1.33,6.61,2.88,2,8.72-5.76,9.49.91-.63,1.06-1.2,2.4.42,2.89,3.23,2.19,5.63-3.79,8-1.4-2.19,4.43-.57,9.7-5.22,12.66-.92,3.51,3.87,4.71,4.64,6.61,1.54,5-6.26,4.85-5.92,9.84,3.24,2.19,6.33,6.19,6.47,10.35-4.93-1.77-4.44,3.79-5.42,5.83-7.67-3.17-8,8.57-14.49,6.6.63,1.33,2.45,2.67,1,3.94-3-1.06-1.62-6.48-6.26-4.72-1.76,1.33-4.78-1.2-6.19,1.54-.91,1.13,1.54,3.8-.85,3.8-2.74-3.8-8.92-4.65-13.56-6.48-2.75-1.41.77-5.28-3.38-5.14-1.61.7-1.83,3.45-4.29,3.17-3.44-7.82-4.34-19.84-13.06-26A8.46,8.46,0,0,1,612.18,17.27Z" transform="translate(185.14 159.31)"/><path class="cls-4" d="M531.4,35.79c2.82-1.89,5-2.74,8.3-1.46,2.61.84,2,4.28,5,4.43-2.11,1.12.35,3.8-.77,5.27-1.55,2.18-3,4.92-6.19,5.13-3.24-1-8.51-1.76-8.65-5.91C528.31,40.15,530.49,38.12,531.4,35.79Z" transform="translate(185.14 159.31)"/><path class="cls-5" d="M535.55,44c1,1.55.07,2.67-1.41,2.74.14-3-3.1-.43-2.95-3.45C532.74,42.33,535.12,43.54,535.55,44Z" transform="translate(185.14 159.31)"/><path class="cls-5" d="M532.6,41.77l1.26.29Z" transform="translate(185.14 159.31)"/><path class="cls-5" d="M538.15,36.5,537,37.7l.63.14c-.14-.56-2.6.35-3.66-.29C535.34,37.2,537.24,32.84,538.15,36.5Z" transform="translate(185.14 159.31)"/><path class="cls-5" d="M541.53,42.84c-.57.14-4.85-1.49-3.73-4.15-.56,4.91,3.31-1.13,5.06,1.12l-2,.49c3.8.85-.07,3.31-.28,4.85-.07-.28.21-.35.14-.63a1.84,1.84,0,0,0-2.46.91c-.28.07-.77-.7-.85.21C536.39,42.62,539.84,44.45,541.53,42.84Z" transform="translate(185.14 159.31)"/><path class="cls-5" d="M539.77,46.56v1.2c-.49-.78-1.75.14-1.75-1.06Z" transform="translate(185.14 159.31)"/></g><rect class="cls-2" x="640.58" y="100.49" width="256.6" height="364.66" transform="translate(593.67 1177.88) rotate(-84.1)"/><g class="cls-3"><path class="cls-4" d="M739.73,383.61l.09-.86c.36,2.08,2.57.55,2.48,1.42C741.37,384.67,740.18,384.83,739.73,383.61Z" transform="translate(185.14 159.31)"/><path class="cls-4" d="M890.54,420.28l.24-2.31c2.76-1.19,3.59,2.12,4.66,3.11-.15,1.45,1.73,3.1-.68,3.74C891.8,425.1,890.88,422.66,890.54,420.28Z" transform="translate(185.14 159.31)"/><path class="cls-4" d="M856.48,387.19c-3.43,2-1.11-6.27-6.68-3.33-1,1.07,1.4,3.37-1,4-11-1.14-22.92,6.41-32.88,12.12,1.4-2.19-.85-5.94,1.71-8,3.89-3.7,14.47-4.07,10.3-11.82-1.8-8.1.9-17.18,5.7-24-3.47-11.78-18.31-4.23-22.67-15.81a7.49,7.49,0,0,1,5.46-4.71c6.62-1.65,12.13,4.48,18.31,1.31-.27-3-1.71-6-.26-8.81,5.42-7.06,9.85-16,14.8-21.31,3,2.64,3,7.63,6.37,9.15,1.46-2.78,6.24-.82,5.81-5.26,2.79-1.47,5.1,1.7,6.66,3.61,4-1.63.08-14.92,5.68-9.65,3.28-.55.74,4.17,1.2,5.39a7.1,7.1,0,0,0-2.5,1.5c3.8,8.59,3.13,17.89,6.64,26.45,7.86.52,12.23-7.81,20-9.64-.24,2.32-4.48,3.64-5.61,6.15l-.4,6.7c8,2.28,5.13,9.9,10,13.63-1.5.42-4.35-.45-6.2.52-5.48-.86-2.11,6.23-6.58,6.94-.36,3.48,3.78,5.95,5.22,9,3.83-.19,5.82,3.23,9.41,2.43,3.39,1.23-1.51,3.36-.83,5.19-6.8-2.17-13.6-7.26-21-6.28.11,4.71-4.86-1.08-4.19,3.68l2.31,3.16c-1.45-.15-2.66.31-2.84,2.05a33.88,33.88,0,0,0,4.59,6.62c-1.49.14-4-.71-5.4,1.2l.94,5.08a15.24,15.24,0,0,0-10.9-7.86c-1.63,1.58,1,4.2.1,4.69-.49-.93-1.41-3.37-2.86-3.52-2.83,4.69-4.79,12.39-2.95,17.27-.4-1.8-1.51.43-2.38.34C858.44,399.39,858.55,392.67,856.48,387.19Z" transform="translate(185.14 159.31)"/><path class="cls-4" d="M714.27,369.27c-6-4.71-4.49-10.41-3.19-17.31,3.42-2,6.22-6.38,9.79-6.9,2.13,4.91,10.29-.4,8.7,6.47,5.1-1.23,3.26,5.31,3.83,8.3-.1,3.8-3,6.71-5.6,8.79-2.11.66-4.43.42-6.12,2.59C719.42,370.39,716.91,366.32,714.27,369.27Z" transform="translate(185.14 159.31)"/><path class="cls-5" d="M720.19,365.79c1.88-1.27,2,.78,1.85,1.94C720,367.81,722.6,365.15,720.19,365.79Z" transform="translate(185.14 159.31)"/><path class="cls-5" d="M722.43,364c4.09.13,1.54-3.65,3.29-6.4-1.36,1.91-1.3,1.33-3.3.83,1.11-2.23,3.57-.51,2.09-3.3,0,.29-3.12-.9-3.1,1.73-2.34-2.87,4.59-4.79,3.29-6.39-.53,2.29.55,3.28.91,5.36.75,1.26,2.35-.05,3.48.36-1.88,1.27-1.72,2.46-.51,4.93.06-.58-.72-1.54-1.33-1.31.55.35.14,1.48.08,2.06-.6.23.06-.58-.48-.93-3.38,1.41,0,2.93.74,4.18-.59-.06-1.57-1.92-3.42-.94-1.83.69.11,1.77-.27,2.6Z" transform="translate(185.14 159.31)"/><path class="cls-5" d="M720.78,362.92c-.09.87-1,1.07-.76,1.68,0-2.93-3.8-.1-1.76-2.82-1.65,1.88-4.34-.45-5.1,1.23v-2.93c.58.06.55.35.78,1,1.57-1-.8-3.59-2.05-2.85l3.16-2.3c.35-.56-1.88,1.26-.18,1.74,3.37-1.41-.83-3.31-1-4.5,2.93,0,6.23-.82,6-4.36,0,2.93-.07,3.51-.11,6.73-1.95,1.84-.83-3.31-2.84-.88l.43,1.51c-.26-.32-.23-.62-.52-.65.69,1.83-.93,3.42,1.3,4.54,1.36-1.91,1.82-.7,3.68-1.68-4.32-.74-2,4.78-.08,6.44C720.66,364.08,722.81,363.13,720.78,362.92Z" transform="translate(185.14 159.31)"/><path class="cls-4" d="M715.28,362.35l1-1.07Z" transform="translate(185.14 159.31)"/><polygon class="cls-4" points="911.56 515.78 912.16 518.48 911.29 518.39 911.56 515.78"/><path class="cls-4" d="M910.44,377.83l-1.2-2.47Z" transform="translate(185.14 159.31)"/><path class="cls-5" d="M726.92,354.48c3.46-2.28-2.5,1.49-.6-2.7,1.56,1.91,3.6-.8,2.34,2.88Z" transform="translate(185.14 159.31)"/><path class="cls-4" d="M903.24,365.37c-.66-2.12,3.87-3.41,3.6-.8C906.66,366.31,903.87,367.78,903.24,365.37Z" transform="translate(185.14 159.31)"/><path class="cls-4" d="M624.63,332.78c-2.08-2.56-8.25-2.32-8.51-5.56,1.84-.69,2-2.43,1-4-1.65-1.05-3.83.19-5.1-1.7,3.07-7-1.37-6.58-.62-13.82-2.14-2-5.53-.29-8.23.32-.12-1.77,1.8-.4,2.46-1.21-7.44-1.65-14.81,1.69-22.63.88,1.51-.43.65-3.45.36-3.48l15.19-2.53c6-12.55,4.28-24.44.39-37.73-.77-3.88-8.34-1.45-5.23-6.1,7-2.79,12.41,7.43,18.37,3.65,4.76-6.53,12.12-12.51,16.69-17,4.87-1.84,2.66,8.18,8.39,3.79.15-1.45-.54-3.28.77-4.6,2.52,1.13,1.34,6.87,5.83,5.87,1.88-1.27-.1-4.7,3.37-4.34,2.78,1.46-1.14,5.45,2.85,6.45,4.8,4.59,4.19-3.67,7.93-3,1,1.57.45,4.14-.32,5.82,1.6,1.63,4.45,5.15,7.59,6.06a9.94,9.94,0,0,1,4.24-4.25c.48,3.86-2.09,8.86.1,13.19,2.89,3.22,3.57-3.44,6.14.05-.82,2.25-4.5,3.92-4.22,6.88l4.88,3.73c-1,12.19-8.33,21.09-7.55,33.47-5.47,4.71-8.51,11.42-11.19,17.59-2.46-1.72-4.34-3.38-7.39-2.23-1,1.65-2.38,3.27-3.44,4.92-1.76.11-2.42-2-4.25-1.32l-2.73,3.81c-2.75-1.74-4.8-4.59-8-4.34-2.86-.59-3.19,2.6-4.53,4.22C625.49,335.8,625.09,334,624.63,332.78Z" transform="translate(185.14 159.31)"/><path class="cls-4" d="M940.48,356.34a4.19,4.19,0,0,1,4.15-.45C944.45,357.62,941.49,357.9,940.48,356.34Z" transform="translate(185.14 159.31)"/><path class="cls-4" d="M693.81,306.55c-3.34,1.12-2.57-3.49-5.23-3.18.21-4.95-6.43-5.93-3.79-11.52-1.08-6.55,6.85-4,6.35-10.47,5.85,0,13.43-5.35,19.41,2,4.74,2.24-1.13,8.08,5.34,7.87-1.28,1-3.17,2.31-3.41,4.63-.15,1.44,2.34,2.87,1.32,4.23-2.5,1.5-6.42,2.56-5,6.21-2.74-1.74-4.72.39-5.86,2.91C700.89,303.18,696.14,312.35,693.81,306.55Z" transform="translate(185.14 159.31)"/><rect class="cls-5" x="700.61" y="302.94" width="1.46" height="0.29" transform="translate(512.93 1128.87) rotate(-84.1)"/><path class="cls-5" d="M704,301.16c-2-3.43,1.76-.11,1.81-3.33-1.55,3.65,1.53-.72,2.42,2-1.65,1.88-1.35-1-3.18-.33l-.66,3.45-.68-1.83Z" transform="translate(185.14 159.31)"/><polygon class="cls-5" points="881.7 459.11 882.76 460.1 881.89 460.01 881.7 459.11"/><path class="cls-5" d="M691.35,296.34c.41-1.13.64-.52,1.45.15Z" transform="translate(185.14 159.31)"/><polygon class="cls-5" points="893.21 455.32 891.12 455.69 892.69 454.69 893.21 455.32"/><polygon class="cls-5" points="890.67 451.55 891.65 453.4 890.61 452.13 890.67 451.55"/><path class="cls-5" d="M706.81,291.2l-.75-1.25Z" transform="translate(185.14 159.31)"/><path class="cls-5" d="M700.47,290.25l1.31-1.33Z" transform="translate(185.14 159.31)"/><path class="cls-5" d="M701.61,287.73l-.72-1.53Z" transform="translate(185.14 159.31)"/><path class="cls-4" d="M762,232.78c1.83-.69,4.1-2.8,5.31-.33,1,1.86-.71,4-2.48,4.14C762.84,236.38,761,234.43,762,232.78Z" transform="translate(185.14 159.31)"/><path class="cls-4" d="M759.74,218.19c.3-8.46-11.07-9.05-14.09-16.68-1.09-3.62,4.36-2.47,4.14-6-1.74-.18-3.39-1.23-4.87-1.09,1-1.36,5.11-1.23,4.28-4.54-.57-3-3.2-5.89-5-8.13,1.84-6.54,17.92-6.34,9.2-15.44,2.26.82,3.38,4.15,5.79,3.52,2.85-2-2.46-10.21,4.11-8.65.78,1,1.85,2,2.87.59,3.17-2.31-1.66-6.61,1.42-8,3.43,3.57,9,3.85,10.17,9.25,3,2.07,5.77-2,7.83-2.12,5.24.25,2.44,7.57,7.27,8.95,3.17-2.31,8-3.86,12-2.57-3.36,4.05,2.06,5.48,3.65,7.11-5.61,6.16,5.35,10.51,1.28,15.95,1.48-.14,3.37-1.41,4.06.41-2,2.43-6.67-.68-6.59,4.3.65,2.12-2.77,4.11-.66,6.38.74,1.24,4.11-.16,3.29,2.09-4.52,1.29-7.44,6.85-10.75,10.6-2.27,2.11-4.72-2.53-6,1.43.11,1.77,2.63,2.91,1.52,5.14-8.56.58-20.22-2.68-29.06,3.44A8.51,8.51,0,0,1,759.74,218.19Z" transform="translate(185.14 159.31)"/><path class="cls-4" d="M749.63,300.82c-.83-3.31-.88-5.65,1.45-8.34,1.69-2.17,4.72-.39,5.89-3.2.34,2.38,3.71,1,4.72,2.54,1.53,2.21,3.64,4.47,2.73,7.6-2,2.72-4.57,7.43-8.54,6.15C752.69,305.24,751.51,302.48,749.63,300.82Z" transform="translate(185.14 159.31)"/><path class="cls-5" d="M758.82,299.72c1.8-.4,2.55.85,2.11,2.27-2.8-1.17-1.46,2.78-4.27,1.61C756.27,301.8,758.22,300,758.82,299.72Z" transform="translate(185.14 159.31)"/><path class="cls-5" d="M755.69,301.74l.7-1.1Z" transform="translate(185.14 159.31)"/><path class="cls-5" d="M752.61,294.69l.72,1.54.35-.55c-.58-.06-.56,2.57-1.52,3.35C752.31,297.58,748.84,294.3,752.61,294.69Z" transform="translate(185.14 159.31)"/><path class="cls-5" d="M759.74,293.67c0,.58-3.06,4.07-5.19,2.1,4.45,2.21.07-3.51,2.79-4.4l-.21,2c2.1-3.3,3.1,1.2,4.49,1.92-.29,0-.26-.32-.55-.35a1.84,1.84,0,0,0,0,2.64c0,.29-.93.49-.09.87C757.78,298.44,760.69,295.82,759.74,293.67Z" transform="translate(185.14 159.31)"/><path class="cls-5" d="M762.66,296.6l1.13.41c-.9.2-.47,1.71-1.6,1.3Z" transform="translate(185.14 159.31)"/></g><rect class="cls-2" x="711.89" y="281.62" width="281.33" height="399.8" transform="translate(246.27 1217.33) rotate(-65.53)"/><g class="cls-3"><path class="cls-4" d="M787.06,576.08l.4-.86c-.36,2.29,2.48,1.47,2.08,2.34C788.4,577.75,787.1,577.51,787.06,576.08Z" transform="translate(185.14 159.31)"/><path class="cls-4" d="M931,666.85l1.06-2.32c3.28-.27,3,3.46,3.75,4.86-.66,1.46.72,3.83-2,3.65C930.62,672.29,930.52,669.44,931,666.85Z" transform="translate(185.14 159.31)"/><path class="cls-4" d="M907.15,620.56c-4.26.87,1-6.89-5.78-5.79-1.41.77.28,4-2.44,3.81-11-5-26-1.33-38.4,1.12,2.22-1.8,1.19-6.48,4.58-7.74,5.34-2.49,16.46.83,14.83-8.69.95-9,6.93-17.54,14.31-23,.51-13.45-17.55-10.79-18-24.35a8.19,8.19,0,0,1,7.32-3c7.45.59,11,8.88,18.57,7.75.75-3.17.32-6.87,2.81-9.25,8.09-5.44,15.81-13.15,22.81-17,2.15,3.78.47,9,3.43,11.73,2.49-2.37,6.77,1.33,7.88-3.43,3.41-.55,4.7,3.55,5.66,6.08,4.7-.31,5.29-15.48,9.27-8,3.6.58-.69,4.6-.63,6a7.74,7.74,0,0,0-3.12.69c.95,10.25-3,19.69-2.34,29.81,8,3.28,15.43-3.86,24.18-3-1.06,2.32-5.92,2.22-8,4.44l-2.75,6.82c7.47,5.15,1.87,12.07,5.64,17.65-1.71-.08-4.36-2-6.63-1.61-5.39-2.81-4.36,5.73-9.25,4.9-1.59,3.5,1.85,7.51,2.27,11.21,4,1.14,4.91,5.39,8.93,5.82,3.09,2.46-2.75,3-2.68,5.1C953.29,624,948,616.36,940,614.79c-1.53,4.92-4.68-2.83-5.63,2.35l1.29,4.1c-1.45-.66-2.88-.61-3.67,1.13a37.82,37.82,0,0,0,2.45,8.49c-1.59-.37-3.94-2.15-6-.64l-.8,5.6a16.7,16.7,0,0,0-8.58-12c-2.25,1.08-.4,4.73-1.53,4.91-.19-1.14-.3-4-1.75-4.65-4.57,3.88-9.31,11.2-9.1,16.91.22-2-1.71-.08-2.59-.48C904.93,633.94,907.39,627,907.15,620.56Z" transform="translate(185.14 159.31)"/><path class="cls-4" d="M765.61,552.29c-4.54-7-1-12.39,2.73-19.11,4.25-.87,8.7-4.46,12.58-3.75.5,5.85,10.84,3.18,6.79,9.76,5.73.5,1.53,6.66,1.08,10-1.43,3.91-5.5,5.92-8.89,7.19-2.43-.05-4.75-1.11-7.26.55C770.58,555.25,769.39,550.15,765.61,552.29Z" transform="translate(185.14 159.31)"/><path class="cls-5" d="M773,550.73c2.39-.66,1.76,1.51,1.23,2.67C772.06,552.77,775.71,550.92,773,550.73Z" transform="translate(185.14 159.31)"/><path class="cls-5" d="M775.94,549.62c4.21,1.57,2.88-3.24,5.66-5.49-2.09,1.5-1.82.92-3.73-.29,1.94-1.93,3.89.71,3.34-2.7-.14.29-2.93-2-3.84.71-1.42-3.8,6.45-3.38,5.66-5.49-1.35,2.2-.58,3.59-.93,5.89.34,1.57,2.46.77,3.49,1.59-2.4.66-2.64,1.95-2.25,4.94.27-.58-.21-1.85-.92-1.82.45.55-.38,1.58-.64,2.16-.71,0,.26-.58-.18-1.13-4,.28-1,3-.69,4.6-.59-.27-.95-2.54-3.22-2.17-2.15.08-.51,1.87-1.19,2.61Z" transform="translate(185.14 159.31)"/><path class="cls-5" d="M774.6,548c-.4.87-1.4.76-1.38,1.48,1-3-3.91-1.43-.84-3.54-2.38,1.37-4.36-2-5.74-.51l1-3c.58.26.44.56.47,1.27,2-.5.42-4-1.13-3.67l4.09-1.29c.56-.46-2.4.65-.79,1.74,4-.29.29-3.73.53-5,3,1,6.77,1.33,7.77-2.43-1,3-1.3,3.62-2.46,6.95-2.67,1.24.29-3.72-2.64-1.91l-.08,1.73c-.16-.43,0-.72-.32-.86.08,2.15-2.16,3.23-.24,5.16,2.09-1.5,2.15-.08,4.41-.45-4.22-2.27-3.7,4.28-2.33,6.66C774.07,549.12,776.63,548.88,774.6,548Z" transform="translate(185.14 159.31)"/><path class="cls-4" d="M769.08,545.45l1.4-.77Z" transform="translate(185.14 159.31)"/><polygon class="cls-4" points="967.85 702.54 967.53 705.55 966.66 705.15 967.85 702.54"/><path class="cls-4" d="M966.5,629.68l-.39-3Z" transform="translate(185.14 159.31)"/><path class="cls-5" d="M783.92,541.33c4.4-1.16-3.11.68.33-3,1,2.53,4,.42,1.43,3.8Z" transform="translate(185.14 159.31)"/><path class="cls-4" d="M963.37,614.22c0-2.43,5.2-2.19,4,.43C966.59,616.39,963.18,616.94,963.37,614.22Z" transform="translate(185.14 159.31)"/><path class="cls-4" d="M685.2,483.06c-1.27-3.38-7.77-5.28-6.9-8.75,2.14-.08,2.94-1.82,2.44-3.8-1.35-1.67-4-1.14-4.71-3.55,5.64-6.2.88-7.32,4.18-14.58-1.53-2.81-5.65-2.23-8.66-2.55.5-1.87,2,.22,3-.39-7.16-4.31-16-3.41-23.83-7,1.72.08,1.88-3.35,1.59-3.48L669,441.64c10.6-11,13-23.91,13.58-39.08.55-4.3-8.16-4.41-3.3-8.16,8.27-.45,10.3,12.05,17.81,10.21,7.24-5.13,17-8.77,23.29-11.86,5.7-.21-.09,9.43,7.39,6.87.66-1.45.59-3.59,2.41-4.51,2.22,2.06-1,7.61,4,8.14,2.39-.66,1.53-4.92,5-3.33,2.38,2.49-3.09,5.26.71,7.69,3.38,6.45,5.63-2.35,9.28-.34.5,2-1,4.47-2.36,6,1.09,2.24,2.83,6.89,5.77,8.93a10.9,10.9,0,0,1,5.89-2.93c-.85,4.18-5.26,8.48-4.5,13.74,1.87,4.36,4.92-2.32,6.37,2.2-1.65,2.06-6.06,2.51-6.8,5.68l3.78,5.58c-5.27,12.33-16,19-19.54,32.15-7.33,3-12.83,8.9-17.78,14.37-2-2.65-3.32-5-6.89-4.9-1.66,1.35-3.62,2.57-5.29,3.91-1.87-.5-1.82-2.93-4-2.85l-4.17,3c-2.25-2.78-3.39-6.45-6.85-7.33-2.77-1.61-4.22,1.59-6.18,2.81C685,486.5,685.25,484.48,685.2,483.06Z" transform="translate(185.14 159.31)"/><path class="cls-4" d="M1005.22,617.84a4.58,4.58,0,0,1,4.47,1C1008.9,620.56,1005.72,619.82,1005.22,617.84Z" transform="translate(185.14 159.31)"/><path class="cls-4" d="M766.25,480c-3.86,0-1.45-4.52-4.33-5.13,2-5.08-4.6-8.41.09-13.3,1.16-7.18,8.51-1.74,10.25-8.66,6.08,2.06,15.83-.87,19.48,8.86,4.14,4-4,8,2.79,10-1.69.63-4.09,1.29-5.15,3.62-.66,1.45,1.42,3.8-.11,4.86-3.12.68-7.56.41-7.4,4.7-2.25-2.78-5-1.25-7.11,1C774.79,478.93,766.64,486.8,766.25,480Z" transform="translate(185.14 159.31)"/><rect class="cls-5" x="774.49" y="478.83" width="1.6" height="0.31" transform="translate(203.32 1145.53) rotate(-65.53)"/><path class="cls-5" d="M778.76,477.93c-.88-4.26,1.86.5,3-2.83-2.88,3.25,1.85-.21,1.82,2.94-2.37,1.37-1.05-1.54-3.19-1.46l-1.88,3.35-.08-2.14Z" transform="translate(185.14 159.31)"/><polygon class="cls-5" points="956.6 633.22 957.37 634.62 956.49 634.22 956.6 633.22"/><path class="cls-5" d="M767.26,468.49c.82-1,.85-.32,1.45.66Z" transform="translate(185.14 159.31)"/><polygon class="cls-5" points="969.89 633.3 967.59 632.96 969.57 632.46 969.89 633.3"/><polygon class="cls-5" points="968.57 628.49 968.93 630.76 968.3 629.07 968.57 628.49"/><path class="cls-5" d="M785.12,468.55l-.34-1.56Z" transform="translate(185.14 159.31)"/><path class="cls-5" d="M778.86,465.35l1.83-.93Z" transform="translate(185.14 159.31)"/><path class="cls-5" d="M780.93,463.13l-.22-1.85Z" transform="translate(185.14 159.31)"/><path class="cls-4" d="M862.92,427.12c2.14-.08,5.24-1.48,5.63,1.51.37,2.27-2.14,3.94-4,3.44C862.49,431.14,861.26,428.47,862.92,427.12Z" transform="translate(185.14 159.31)"/><path class="cls-4" d="M865.62,411.16c3.26-8.69-8.34-13.27-8.81-22.26.13-4.14,5.39-1,6.4-4.8-1.75-.8-3.1-2.46-4.68-2.83,1.53-1.06,5.73.5,6-3.22.45-3.31-1.27-7.25-2.37-10.21,4.2-6.15,20.84-.33,15-12.83,2.06,1.64,2.06,5.5,4.78,5.68,3.68-1.13,1-11.47,7.29-7.56.48,1.27,1.25,2.68,2.78,1.62,4.1-1.29.59-7.45,4.28-7.88,2.33,4.92,8,7.14,7.35,13.17,2.4,3.2,6.7-.1,8.88.54,5.36,2.08-.12,8.71,4.43,11.83,4.1-1.29,9.67-1.21,13.35,1.52-4.9,3,.23,6.42,1.32,8.67-8,4.43,1.88,12.79-4.25,17,1.59.37,4-.29,4.08,1.86-2.94,1.82-6.69-3.05-8.36,2.16-.05,2.43-4.31,3.3-2.91,6.39.34,1.56,4.33,1.27,2.7,3.33-5.15-.23-10.13,4.52-14.88,7.26-3.1,1.4-4-4.28-6.75-.61-.5,1.88,1.72,3.94-.21,5.87-9.09-2.39-20.08-9.84-31.4-6.57A9.37,9.37,0,0,1,865.62,411.16Z" transform="translate(185.14 159.31)"/><path class="cls-4" d="M826.26,493.5c.3-3.73,1.06-6.19,4.43-8.16,2.51-1.67,5,1.24,7.23-1.27-.47,2.59,3.52,2.3,4,4.28.82,2.83,2.21,5.92.18,8.86-3.07,2.11-7.35,6.12-11,3.4C827.9,499.15,827.64,495.88,826.26,493.5Z" transform="translate(185.14 159.31)"/><path class="cls-5" d="M836.2,495.56c2,.22,2.35,1.78,1.4,3.1-2.51-2.2-2.49,2.37-5,.18C832.82,496.83,835.49,495.59,836.2,495.56Z" transform="translate(185.14 159.31)"/><path class="cls-5" d="M832.24,496.56l1.11-.89Z" transform="translate(185.14 159.31)"/><path class="cls-5" d="M831.5,488.16l.21,1.85.56-.45c-.59-.26-1.48,2.49-2.75,3C830.18,491.07,827.72,486.44,831.5,488.16Z" transform="translate(185.14 159.31)"/><path class="cls-5" d="M839.27,489.59c-.26.59-4.6,3.17-6.13.37,3.85,3.86,1.29-3.62,4.44-3.59l-.93,2c3.34-2.69,2.8,2.33,4,3.57-.29-.13-.16-.42-.44-.55a2,2,0,0,0-.91,2.74c-.13.3-1.13.19-.39.88C835.57,493.87,839.51,492.16,839.27,489.59Z" transform="translate(185.14 159.31)"/><path class="cls-5" d="M841.28,493.67l1,.82c-1-.11-1.08,1.61-2.12.78Z" transform="translate(185.14 159.31)"/></g><rect class="cls-2" x="979.38" y="555.74" width="283.06" height="199.18" transform="translate(524.25 1851.33) rotate(-83.29)"/><g class="cls-3"><path class="cls-4" d="M1043,631.61l.67.07c-1.62.26-.46,2-1.13,1.92C1042.17,632.87,1042.05,631.94,1043,631.61Z" transform="translate(185.14 159.31)"/><path class="cls-4" d="M1012.89,748.26l1.79.21c.89,2.15-1.69,2.76-2.46,3.58-1.13-.13-2.43,1.31-2.9-.57C1009.14,749.19,1011,748.5,1012.89,748.26Z" transform="translate(185.14 159.31)"/><path class="cls-4" d="M1039,722.18c-1.51-2.68,4.87-.79,2.65-5.14-.82-.79-2.63,1.05-3.09-.83,1-8.52-4.73-17.85-9-25.65,1.69,1.11,4.63-.59,6.21,1.42,2.83,3.06,3,11.28,9.06,8.12,6.3-1.31,13.33.89,18.57,4.69,9.18-2.56,3.49-14.16,12.53-17.42a5.83,5.83,0,0,1,3.59,4.29c1.21,5.15-3.61,9.36-1.22,14.19,2.3-.17,4.71-1.26,6.85-.1,5.41,4.28,12.28,7.82,16.37,11.72-2.08,2.26-6,2.26-7.17,4.84,2.14,1.17.57,4.85,4,4.57,1.11,2.18-1.38,3.94-2.88,5.13,1.23,3.11,11.58.23,7.43,4.52.39,2.55-3.25.53-4.2.87a5.54,5.54,0,0,0-1.13-2c-6.71,2.86-13.93,2.24-20.61,4.86-.49,6.1,5.93,9.58,7.27,15.66-1.8-.21-2.78-3.52-4.72-4.42l-5.19-.39c-1.86,6.15-7.74,3.87-10.69,7.62-.31-1.17.4-3.37-.34-4.82.73-4.24-4.81-1.7-5.31-5.18-2.69-.32-4.66,2.87-7.06,4,.1,3-2.58,4.48-2,7.28-1,2.62-2.59-1.21-4-.7,1.76-5.25,5.79-10.48,5.11-16.25-3.65,0,.89-3.76-2.81-3.29l-2.48,1.76c.13-1.12-.21-2.07-1.56-2.23a26.52,26.52,0,0,0-5.19,3.49c-.09-1.15.6-3.12-.87-4.2l-4,.67a11.84,11.84,0,0,0,6.22-8.38c-1.21-1.27-3.27.76-3.64,0,.72-.37,2.63-1.06,2.76-2.18-3.61-2.24-9.56-3.85-13.37-2.48,1.4-.29-.32-1.17-.24-1.85C1029.45,723.58,1034.67,723.73,1039,722.18Z" transform="translate(185.14 159.31)"/><path class="cls-4" d="M1054.41,612c3.73-4.57,8.14-3.37,13.48-2.28,1.5,2.68,4.88,4.9,5.24,7.67-3.83,1.6.2,8-5.11,6.68.9,4-4.16,2.47-6.49,2.89-2.94-.13-5.18-2.44-6.76-4.44-.49-1.66-.28-3.45-1.94-4.79C1053.49,616,1056.67,614.09,1054.41,612Z" transform="translate(185.14 159.31)"/><path class="cls-5" d="M1057.05,616.64c1,1.47-.63,1.52-1.53,1.41C1055.48,616.46,1057.52,618.52,1057.05,616.64Z" transform="translate(185.14 159.31)"/><path class="cls-5" d="M1058.44,618.39c-.14,3.18,2.81,1.24,4.93,2.63-1.47-1.08-1-1-.61-2.57,1.72.88.36,2.77,2.54,1.66-.23,0,.73-2.41-1.31-2.43,2.26-1.78,3.67,3.62,4.92,2.63-1.77-.44-2.54.38-4.17.65-1,.56,0,1.82-.31,2.69-1-1.48-1.89-1.36-3.83-.45.46,0,1.21-.54,1-1-.28.43-1.15.09-1.6,0-.17-.47.45,0,.72-.36-1-2.64-2.27-.05-3.25.53.06-.46,1.51-1.2.77-2.65-.51-1.43-1.37.07-2-.23Z" transform="translate(185.14 159.31)"/><path class="cls-5" d="M1059.27,617.13c-.67-.08-.81-.78-1.29-.61,2.27,0,.12-2.95,2.2-1.34-1.43-1.3.4-3.36-.89-4l2.27,0c0,.45-.28.42-.75.59.76,1.23,2.79-.58,2.23-1.55l1.75,2.48c.43.27-1-1.48-1.34-.16,1,2.63,2.57-.61,3.5-.73,0,2.28.56,4.85,3.31,4.71-2.27,0-2.72-.09-5.21-.15-1.42-1.53,2.57-.61.71-2.19l-1.18.32c.25-.21.48-.18.51-.4-1.43.51-2.65-.77-3.53,1,1.46,1.08.51,1.43,1.25,2.88.62-3.34-3.68-1.57-5-.13C1058.38,617,1059.09,618.7,1059.27,617.13Z" transform="translate(185.14 159.31)"/><path class="cls-4" d="M1059.78,612.86l.81.78Z" transform="translate(185.14 159.31)"/><polygon class="cls-4" points="1249.35 780.89 1247.25 781.33 1247.33 780.65 1249.35 780.89"/><path class="cls-4" d="M1045.62,764.17l1.93-.91Z" transform="translate(185.14 159.31)"/><path class="cls-5" d="M1065.76,622c1.73,2.72-1.14-2,2.1-.43-1.51,1.19.58,2.8-2.26,1.79Z" transform="translate(185.14 159.31)"/><path class="cls-4" d="M1055.37,758.72c1.65-.49,2.6,3,.58,2.8C1054.6,761.36,1053.49,759.18,1055.37,758.72Z" transform="translate(185.14 159.31)"/><path class="cls-4" d="M1083.72,542.83c2-1.59,1.89-6.38,4.41-6.54.52,1.43,1.86,1.59,3.09.82.83-1.27-.1-3,1.38-3.94,5.4,2.46,5.12-1,10.73-.33,1.56-1.64.28-4.29-.15-6.39,1.37-.07.28,1.4.91,1.93,1.36-5.76-1.15-11.52-.44-17.58.32,1.17,2.67.54,2.7.32l1.79,11.81c9.68,4.79,18.93,3.6,29.28.72,3-.56,1.22-6.46,4.8-4,2.09,5.48-5.9,9.55-3,14.22,5,3.77,9.58,9.54,13,13.14,1.37,3.8-6.38,2-3,6.47,1.12.13,2.55-.38,3.56.65-.91,1.94-5.35,1-4.62,4.46,1,1.47,3.65,0,3.33,2.66-1.16,2.15-4.21-.94-5,2.14-3.62,3.68,2.8,3.29,2.23,6.19-1.23.76-3.22.3-4.52-.31-1.28,1.22-4,3.4-4.78,5.82a7.75,7.75,0,0,1,3.25,3.34c-3,.33-6.85-1.72-10.24-.07-2.53,2.21,2.63,2.82-.1,4.77-1.75-.66-3-3.54-5.3-3.36l-2.94,3.76c-9.46-.89-16.29-6.7-25.91-6.23-3.59-4.3-8.77-6.73-13.52-8.88,1.36-1.89,2.67-3.33,1.81-5.71-1.27-.83-2.51-1.88-3.78-2.72-.07-1.37,1.58-1.86,1.07-3.29l-2.93-2.16c1.39-2.12,3.62-3.68,3.46-6.2.49-2.22-2-2.51-3.23-3.56C1081.37,543.46,1082.77,543.17,1083.72,542.83Z" transform="translate(185.14 159.31)"/><path class="cls-4" d="M1062,787.72a3.26,3.26,0,0,1,.31,3.23C1060.93,790.79,1060.74,788.49,1062,787.72Z" transform="translate(185.14 159.31)"/><path class="cls-4" d="M1103.32,596.81c-.83-2.6,2.74-1.95,2.53-4,3.84.23,4.67-4.91,9-2.81,5.09-.77,3,5.36,8.05,5-.07,4.55,4,10.49-1.77,15-1.79,3.66-6.26-1-6.16,4.05-.8-1-1.76-2.48-3.56-2.69-1.12-.13-2.25,1.78-3.3,1-1.13-2-1.91-5-4.77-4,1.39-2.11-.25-3.67-2.19-4.58C1105.86,602.34,1098.79,598.55,1103.32,596.81Z" transform="translate(185.14 159.31)"/><rect class="cls-5" x="1105.82" y="602.13" width="0.22" height="1.13" transform="translate(563.3 1789.96) rotate(-83.29)"/><path class="cls-5" d="M1107.39,604.81c2.68-1.51.07,1.36,2.56,1.43-2.81-1.24.55,1.2-1.58,1.86-1.44-1.3.8-1,.29-2.47l-2.67-.54,1.43-.51Z" transform="translate(185.14 159.31)"/><polygon class="cls-5" points="1293.66 758.33 1292.88 759.15 1292.96 758.47 1293.66 758.33"/><path class="cls-5" d="M1111.27,595c.88.33.4.51-.13,1.13Z" transform="translate(185.14 159.31)"/><polygon class="cls-5" points="1296.48 767.31 1296.21 765.68 1296.98 766.91 1296.48 767.31"/><polygon class="cls-5" points="1299.43 765.38 1297.98 766.12 1298.99 765.32 1299.43 765.38"/><path class="cls-5" d="M1115.09,607.07l1-.56Z" transform="translate(185.14 159.31)"/><path class="cls-5" d="M1115.9,602.16l1,1Z" transform="translate(185.14 159.31)"/><path class="cls-5" d="M1117.84,603.07l1.2-.54Z" transform="translate(185.14 159.31)"/><path class="cls-4" d="M1159.83,650.58c.51,1.43,2.12,3.21.2,4.12a2.32,2.32,0,0,1-3.19-2C1157,651.16,1158.56,649.75,1159.83,650.58Z" transform="translate(185.14 159.31)"/><path class="cls-4" d="M1171.17,649c6.57.32,7.15-8.5,13.11-10.76,2.82-.8,1.87,3.41,4.62,3.28.16-1.35,1-2.62.9-3.77,1,.81.9,4,3.47,3.37,2.33-.4,4.61-2.42,6.37-3.8,5.06,1.51,4.72,14,11.88,7.32-.66,1.74-3.26,2.57-2.79,4.45,1.55,2.23,8-1.8,6.67,3.28-.76.6-1.54,1.42-.49,2.22,1.75,2.49,5.15-1.21,6.23,1.19-2.81,2.63-3.09,6.92-7.29,7.8-1.64,2.31,1.52,4.5,1.56,6.1-.25,4.07-5.9,1.81-7,5.55,1.76,2.48,2.91,6.26,1.86,9.32-3.1-2.64-4.28,1.55-5.56,2.77-4.71-4.43-8.21,4-12.38.81.09,1.15,1,2.63-.37,3.15-1.87-1.59.6-5.17-3.27-5.17-1.65.49-3.15-2.19-4.94-.58-1,.57.08,3.19-1.66,2.53-1-3.52-5.23-5.85-8.11-8.46-1.61-1.78,2-3.63-1-4.68-1.37.07-2.28,2-4,1.13-.35-6.65,2.3-15.67-2.35-22.59A6.61,6.61,0,0,1,1171.17,649Z" transform="translate(185.14 159.31)"/><path class="cls-4" d="M1107.15,640.2c2.58-.61,4.4-.62,6.46,1.22,1.67,1.33.25,3.67,2.42,4.61-1.85.23-.79,2.86-2,3.63-1.73,1.16-3.51,2.77-5.93,2-2.09-1.61-5.72-3.63-4.68-6.69C1103.69,642.53,1105.85,641.64,1107.15,640.2Z" transform="translate(185.14 159.31)"/><path class="cls-5" d="M1107.91,647.35c.29,1.4-.69,2-1.79,1.61.94-2.17-2.14-1.16-1.2-3.33C1106.32,645.34,1107.73,646.87,1107.91,647.35Z" transform="translate(185.14 159.31)"/><path class="cls-5" d="M1106.38,644.89l.84.55Z" transform="translate(185.14 159.31)"/><path class="cls-5" d="M1111.88,642.58l-1.2.54.42.28c.06-.45-2-.46-2.59-1.22C1109.64,642.31,1112.23,639.66,1111.88,642.58Z" transform="translate(185.14 159.31)"/><path class="cls-5" d="M1112.6,648.13c-.45,0-3.13-2.42-1.58-4.06-1.76,3.44,2.72.09,3.38,2.22l-1.57-.18c2.54,1.66-1,2.39-1.54,3.46,0-.23.25-.2.28-.42a1.42,1.42,0,0,0-2,0c-.23,0-.37-.73-.67-.08C1108.91,646.55,1110.92,648.84,1112.6,648.13Z" transform="translate(185.14 159.31)"/><path class="cls-5" d="M1110.28,650.36l-.33.87c-.14-.7-1.32-.38-1-1.25Z" transform="translate(185.14 159.31)"/></g></g><g class="cls-1"><rect class="cls-2" x="263.55" y="499.06" width="367.62" height="258.68" transform="matrix(0.97, -0.25, 0.25, 0.97, 39.94, 293.85)"/><g class="cls-3"><path class="cls-6" d="M439,523l.22.85c-1.08-1.84-2.62.39-2.85-.46C437.12,522.55,438.18,522,439,523Z" transform="translate(185.14 159.31)"/><path class="cls-6" d="M283.73,542l.6,2.26c-2.18,2.1-4.14-.72-5.5-1.28-.38-1.42-2.74-2.31-.69-3.76C280.83,537.87,282.56,539.84,283.73,542Z" transform="translate(185.14 159.31)"/><path class="cls-6" d="M327.63,561.08c2.52-3.09,3.27,5.52,7.48.77.56-1.36-2.52-2.68-.47-4.13,10.78-2.84,19.33-14.2,26.7-23.12-.53,2.57,2.92,5.3,1.24,8.18-2.36,4.87-12.21,9-5.51,14.81,4.57,7,5.26,16.52,3.15,24.67,7.46,9.88,18.77-2.51,27,6.86a7.56,7.56,0,0,1-3.48,6.38c-5.66,3.91-13,.09-17.74,5.28,1.31,2.69,3.76,5.08,3.38,8.22-2.61,8.57-3.62,18.56-6.39,25.36-3.72-1.45-5.56-6.13-9.26-6.37-.39,3.14-5.6,3-3.62,7-2.11,2.37-5.41.2-7.56-1-3.17,3,5.22,14.11-1.93,11.13-2.9,1.68-2.18-3.67-3.05-4.66a7.19,7.19,0,0,0,1.83-2.3c-6.64-6.75-9.32-15.77-15.67-22.6-7.59,2.3-8.75,11.72-15.47,16.22-.59-2.27,2.93-5,3.11-7.8l-2-6.46c-8.31.67-8.35-7.52-14.28-9.3,1.27-.93,4.26-1.12,5.66-2.7,5.47-1.13-.22-6.62,3.74-8.88-.89-3.41-5.68-4.27-8.13-6.66-3.54,1.54-6.64-1-9.74,1-3.64,0,.23-3.7-1.07-5.19,7.19-.37,15.42,2,22.07-1.55-1.77-4.39,5-.7,2.64-5l-3.3-2.16c1.42-.38,2.41-1.24,2-2.94a34.51,34.51,0,0,0-6.69-4.62c1.35-.66,4.06-.77,4.67-3.05l-2.69-4.46a15.4,15.4,0,0,0,13.08,3.55c1-2.08-2.47-3.61-1.77-4.4.8.7,2.53,2.68,4,2.3,1-5.42.12-13.39-3.35-17.33,1,1.55,1.27-.94,2.12-1.17C321.44,550.26,323.72,556.64,327.63,561.08Z" transform="translate(185.14 159.31)"/><path class="cls-6" d="M468.16,527.44c7.29,2.33,7.93,8.23,9.16,15.2-2.53,3.09-3.61,8.23-6.79,10-3.75-3.88-9.56,4-10.5-3-4.38,3-5-3.86-6.57-6.47-1.25-3.62.48-7.42,2.16-10.28,1.76-1.38,4-2,4.86-4.62C462.9,528.22,466.71,531.16,468.16,527.44Z" transform="translate(185.14 159.31)"/><path class="cls-5" d="M463.8,532.84c-1.32,1.86-2.13-.05-2.43-1.18C463.28,530.85,461.76,534.29,463.8,532.84Z" transform="translate(185.14 159.31)"/><path class="cls-5" d="M462.34,535.35c-3.9,1.33-.16,4-.83,7.2.61-2.29.76-1.72,2.82-2-.26,2.5-3.19,1.75-.81,3.86-.07-.29,3.27-.26,2.32-2.73,3.23,1.87-2.63,6.15-.83,7.19-.32-2.34-1.68-2.89-2.77-4.73-1.15-.92-2.19.88-3.41.9,1.33-1.87.75-2.93-1.27-4.83.15.57,1.23,1.19,1.72.76-.64-.13-.66-1.35-.8-1.91.48-.43.14.56.78.7,2.68-2.53-1-2.76-2.18-3.68.57-.15,2.16,1.26,3.56-.32,1.48-1.31-.73-1.63-.68-2.56Z" transform="translate(185.14 159.31)"/><path class="cls-5" d="M464.27,535.75c-.22-.85.55-1.36.12-1.86,1,2.77,3.62-1.25,2.66,2,.89-2.36,4.26-1.12,4.38-3l1,2.76c-.57.15-.64-.13-1.08-.63-1.12,1.51,2,3.11,2.95,2l-2.17,3.3c-.13.65,1.33-1.86-.45-1.7-2.67,2.52,2,2.82,2.54,3.89-2.77,1-5.59,3-4.12,6.24-1-2.76-1.18-3.33-2.29-6.38,1.18-2.44,2,2.82,3-.18l-.94-1.27c.36.21.43.5.72.42-1.3-1.48-.33-3.56-2.83-3.81-.61,2.28-1.48,1.3-2.88,2.88,4.33-.83.15-5.2-2.21-6.1C464,534.62,462.28,536.27,464.27,535.75Z" transform="translate(185.14 159.31)"/><path class="cls-6" d="M469.66,534.33l-.55,1.36Z" transform="translate(185.14 159.31)"/><polygon class="cls-6" points="646.37 703.15 644.84 700.82 645.7 700.59 646.37 703.15"/><path class="cls-6" d="M280,589.09l2,1.9Z" transform="translate(185.14 159.31)"/><path class="cls-5" d="M461.48,545.9c-2.46,3.38,1.82-2.3,1.52,2.33-2.15-1.25-3.11,2-3.23-1.88Z" transform="translate(185.14 159.31)"/><path class="cls-6" d="M291.26,598.28c1.38,1.77-2.43,4.59-3.1,2C287.71,598.61,289.82,596.23,291.26,598.28Z" transform="translate(185.14 159.31)"/><path class="cls-6" d="M565.69,530c2.87,1.68,8.6-.75,10,2.23-1.48,1.3-1,3,.47,4.12,1.93.41,3.54-1.54,5.42-.2-.41,7.69,3.63,5.72,5.5,12.82,2.72,1.1,5.32-1.7,7.65-3.23.73,1.63-1.56,1-1.9,2,7.61-1.1,13.37-6.86,21-8.88-1.27.94.61,3.48.9,3.41l-13.43,7.78c-1.19,14,4.64,24.59,13,35.74,2.11,3.39,8.38-1.6,7.1,3.9-5.63,5.12-14.35-2.6-18.63,3.07-2.17,7.87-7,16.12-9.69,22-3.95,3.47-5.42-6.77-9.27-.6.38,1.42,1.67,2.9.91,4.62-2.78-.18-3.7-6-7.59-3.47-1.33,1.87,1.76,4.4-1.64,5.29-3.14-.38-.86-5.54-5-5.06-6.15-2.63-2.64,4.94-6.41,5.63-1.51-1.12-1.9-3.75-1.78-5.6-2.08-1-6-3.28-9.3-3a10,10,0,0,1-2.5,5.51c-1.82-3.46-1.18-9.09-4.78-12.4-3.86-2-2.15,4.51-5.81,2.14,0-2.43,2.86-5.31,1.54-8L535.62,598c-3.42-11.85.36-22.86-4.77-34.27,3.48-6.38,4-13.79,4.31-20.56,2.93.75,5.28,1.64,7.75-.52.4-1.93,1.09-3.94,1.5-5.86,1.62-.74,3,1,4.48-.27l1.22-4.57c3.22.67,6.16,2.63,9.14,1.23,2.91-.46,2.09-3.58,2.77-5.59C563.8,527.47,564.83,529,565.69,530Z" transform="translate(185.14 159.31)"/><path class="cls-6" d="M259.34,620a4.21,4.21,0,0,1-3.75,1.9C255.14,620.24,257.84,618.92,259.34,620Z" transform="translate(185.14 159.31)"/><path class="cls-6" d="M509.75,579.34c2.75-2.24,3.66,2.38,6.06,1.14,1.56,4.75,8.17,3.32,7.67,9.52,3.35,5.8-5.05,6.19-2.27,12.14-5.53,2.06-10.77,9.81-19,5-5.28-.43-1.81-8-7.83-5.53.83-1.43,2.16-3.3,1.56-5.57-.37-1.42-3.22-1.88-2.74-3.53,1.82-2.3,5.14-4.69,2.54-7.65,3.21.67,4.32-2.05,4.49-4.83C504.26,585,505.49,574.7,509.75,579.34Z" transform="translate(185.14 159.31)"/><rect class="cls-5" x="503.73" y="584.56" width="0.29" height="1.47" transform="translate(52.77 306.81) rotate(-14.74)"/><path class="cls-5" d="M502,588.06c3.1,2.52-1.62.73-.52,3.78.16-4-1.2,1.23-3-1,.9-2.36,1.65.48,3.13-.83L501,586.5l1.3,1.48Z" transform="translate(185.14 159.31)"/><polygon class="cls-5" points="694.69 745.99 693.33 745.44 694.18 745.22 694.69 745.99"/><path class="cls-5" d="M515.7,588.1c0,1.21-.43.72-1.42.38Z" transform="translate(185.14 159.31)"/><polygon class="cls-5" points="685.17 753.66 687.01 752.57 685.89 754.08 685.17 753.66"/><polygon class="cls-5" points="688.91 756.32 687.33 754.91 688.76 755.75 688.91 756.32"/><path class="cls-5" d="M502.94,598.44l1.14.92Z" transform="translate(185.14 159.31)"/><path class="cls-5" d="M509.26,597.08l-.77,1.72Z" transform="translate(185.14 159.31)"/><path class="cls-5" d="M509.07,599.87l1.23,1.19Z" transform="translate(185.14 159.31)"/><path class="cls-6" d="M471.59,673.19c-1.48,1.3-2.87,4.09-4.88,2.19-1.58-1.4-.77-4,.86-4.78C469.56,670.07,472,671.26,471.59,673.19Z" transform="translate(185.14 159.31)"/><path class="cls-6" d="M479,686.13c2.73,8.09,13.66,4.6,19.22,10.73,2.31,3-3.23,3.89-1.77,7.14,1.71-.45,3.63,0,5-.7-.48,1.65-4.38,3-2.42,5.8,1.59,2.62,5.11,4.42,7.62,5.89.58,6.83-14.66,12.35-3.2,17.84-2.42,0-4.67-2.72-6.71-1.27-2,3,5.95,8.76-.8,9.63-1.08-.63-2.45-1.18-2.92.46-2.17,3.3,3.91,5.65,1.53,8.1-4.52-2.15-9.84-.45-12.89-5.11-3.57-.89-4.72,4-6.64,4.78-5,1.63-5-6.28-10-5.86-2.17,3.31-6.18,6.49-10.39,6.68,1.72-5-3.9-4.44-6-5.41,3.11-7.8-8.78-8-6.87-14.58-1.34.65-2.67,2.52-4,1,1-3,6.53-1.72,4.69-6.39-1.37-1.77,1.15-4.86-1.65-6.25-1.14-.91-3.82,1.61-3.85-.81,3.81-2.82,4.59-9.1,6.38-13.82,1.39-2.8,5.35.71,5.16-3.49-.73-1.62-3.52-1.8-3.26-4.3,7.87-3.59,20-4.66,26.19-13.57A8.58,8.58,0,0,1,479,686.13Z" transform="translate(185.14 159.31)"/><path class="cls-6" d="M459.12,604.59c2,2.82,2.84,5,1.6,8.38-.83,2.65-4.32,2-4.42,5.11-1.17-2.12-3.85.41-5.35-.72-2.23-1.54-5-2.93-5.28-6.2,1-3.29,1.67-8.63,5.87-8.83C454.67,601.51,456.76,603.69,459.12,604.59Z" transform="translate(185.14 159.31)"/><path class="cls-5" d="M450.84,608.89c-1.56,1-2.7.1-2.79-1.39,3.06.11.38-3.14,3.45-3C452.52,606,451.33,608.45,450.84,608.89Z" transform="translate(185.14 159.31)"/><path class="cls-5" d="M453.08,605.87l-.27,1.29Z" transform="translate(185.14 159.31)"/><path class="cls-5" d="M458.49,611.43l-1.23-1.19-.13.64c.57-.15-.39-2.63.24-3.71C457.75,608.59,462.18,610.46,458.49,611.43Z" transform="translate(185.14 159.31)"/><path class="cls-5" d="M452.12,614.93c-.15-.57,1.44-4.93,4.16-3.83-5-.5,1.18,3.33-1.08,5.14l-.52-2c-.81,3.85-3.35,0-4.91-.23.28-.07.35.21.63.14a1.86,1.86,0,0,0-.95-2.49c-.07-.28.7-.78-.22-.85C452.28,609.73,450.47,613.24,452.12,614.93Z" transform="translate(185.14 159.31)"/><path class="cls-5" d="M448.33,613.19l-1.22,0c.79-.51-.16-1.78,1.06-1.79Z" transform="translate(185.14 159.31)"/></g></g><g class="cls-1"><rect class="cls-2" x="1127.82" y="623.76" width="309.91" height="218.07" transform="translate(1.78 1073.69) rotate(-36.8)"/><g class="cls-3"><path class="cls-7" d="M1242.9,653l.44.6c-1.43-1.1-1.93,1.13-2.37.54C1241.27,653.33,1241.91,652.54,1242.9,653Z" transform="translate(185.14 159.31)"/><path class="cls-7" d="M1127.57,717.05l1.18,1.59c-1,2.33-3.47.74-4.7.74-.75-1-2.87-.94-1.73-2.72C1124,714.78,1126,715.77,1127.57,717.05Z" transform="translate(185.14 159.31)"/><path class="cls-7" d="M1167.91,718.1c1-3.22,4.3,3.27,6.09-1.78,0-1.24-2.81-1.29-1.67-3.07,7.52-5.63,10.61-17.21,13.54-26.52.4,2.18,4,3.22,3.56,6-.3,4.55-6.7,10.88.38,13.32,5.79,4,9.34,11.24,10.27,18.28,9,5.35,13.88-7.91,23.27-3.19a6.38,6.38,0,0,1-.69,6.09c-3.18,4.84-10.16,4.19-12.19,9.73,1.87,1.69,4.55,2.78,5.24,5.36.68,7.52,3,15.65,3,21.83-3.37.05-6.29-3-9.26-2,.69,2.58-3.42,4.11-.6,6.63-.89,2.53-4.16,1.88-6.24,1.58-1.54,3.32,8.55,9.37,2,9.31-1.74,2.23-2.87-2.18-3.86-2.68a6,6,0,0,0,.7-2.37c-7.33-3.18-12.27-9.38-19.4-12.7-5.2,4.2-3.13,11.93-6.95,17.56-1.18-1.58.7-4.85,0-7.07l-3.61-4.42c-6.29,3.16-8.9-3.22-14.11-2.74.7-1.13,3-2.22,3.58-3.9,3.91-2.62-2.28-5.1.11-8.12-1.78-2.38-5.8-1.54-8.46-2.64-2.29,2.33-5.5,1.34-7.29,3.91-2.82,1.18-1-3-2.47-3.72,5.5-2.57,12.68-3.3,16.75-8.2-2.78-2.87,3.66-2.12.49-4.7l-3.26-.65c1-.74,1.49-1.73.6-2.92a29.49,29.49,0,0,0-6.69-1.49c.85-.94,2.93-1.88,2.69-3.86l-3.52-2.63a13,13,0,0,0,11.34-1.37c.1-1.93-3.07-2-2.77-2.87.84.29,2.82,1.29,3.81.54-.93-4.55-4.14-10.5-8.1-12.48,1.28.89.69-1.14,1.29-1.58C1159.65,711.6,1163.46,715.86,1167.91,718.1Z" transform="translate(185.14 159.31)"/><path class="cls-7" d="M1267.06,647.33c6.44-.49,8.81,3.92,12,9-1,3.21-.21,7.57-2.14,10-4.16-1.84-6.2,6.17-9.16,1-2.48,3.71-5.1-1.44-7.17-3-2.13-2.43-2-5.94-1.58-8.71,1-1.64,2.53-2.82,2.34-5.15C1263.2,649.6,1267.11,650.7,1267.06,647.33Z" transform="translate(185.14 159.31)"/><path class="cls-5" d="M1265.37,652.92c-.44,1.88-1.68.64-2.27-.15C1264.33,651.54,1264.23,654.7,1265.37,652.92Z" transform="translate(185.14 159.31)"/><path class="cls-5" d="M1265,655.35c-2.63,2.27,1.14,3.16,1.63,5.89-.24-2,0-1.58,1.59-2.43.59,2-1.94,2.38.59,3.27-.15-.19,2.47-1.23.94-2.87,3.12.45-.1,5.65,1.63,5.89-1-1.73-2.23-1.73-3.66-2.82-1.19-.35-1.44,1.38-2.38,1.78.45-1.88-.34-2.53-2.52-3.37.3.4,1.34.55,1.58,0-.54.1-.94-.85-1.23-1.24.24-.49.29.39.83.3,1.3-2.82-1.67-1.83-2.86-2.18.4-.3,2.08.3,2.67-1.38.75-1.49-1.08-1-1.33-1.79Z" transform="translate(185.14 159.31)"/><path class="cls-5" d="M1266.66,655.05c-.45-.59,0-1.24-.5-1.49,1.69,1.84,2.43-2.12,2.73.75-.05-2.13,3-2.22,2.48-3.71l1.68,1.84c-.4.29-.55.09-1-.15-.4,1.53,2.57,1.78,2.92.6l-.65,3.26c.1.54.45-1.88-.89-1.19-1.29,2.82,2.43,1.59,3.21,2.23-1.83,1.69-3.42,4.11-1.24,6.19-1.68-1.84-2-2.23-3.81-4.26.16-2.28,2.42,1.58,2.28-1.09l-1.14-.69c.35,0,.5.25.7.1-1.49-.75-1.39-2.68-3.42-2.09.25,2-.74,1.49-1.34,3.17,3.13-2-1.53-4.11-3.66-4.07C1266.07,654.26,1265.27,656.09,1266.66,655.05Z" transform="translate(185.14 159.31)"/><path class="cls-7" d="M1270.42,652.24v0Z" transform="translate(185.14 159.31)"/><polygon class="cls-7" points="1451.98 821.64 1450.05 820.3 1450.65 819.85 1451.98 821.64"/><path class="cls-7" d="M1139.6,755l2.18.85Z" transform="translate(185.14 159.31)"/><path class="cls-5" d="M1267.69,663.86c-.85,3.42.69-2.37,1.93,1.34-2.08-.3-1.79,2.57-3.13-.44Z" transform="translate(185.14 159.31)"/><path class="cls-7" d="M1151.28,758.67c1.63,1-.45,4.36-1.79,2.57C1148.6,760.05,1149.5,757.53,1151.28,758.67Z" transform="translate(185.14 159.31)"/><path class="cls-7" d="M1344.08,618.46c2.77.41,6.49-3.3,8.52-1.42-.75,1.48.14,2.67,1.68,3.07,1.63-.29,2.28-2.32,4.16-1.87,2.12,6.14,4.65,3.32,8.36,8.27,2.47,0,3.61-3,5-4.94,1.09,1-.9,1.28-.84,2.17,5.6-3.26,8.27-9.59,13.63-13.59-.7,1.14,1.58,2.53,1.78,2.38l-8,10.33c3.5,11.29,11.41,17.74,21.5,23.79,2.72,2,6-3.9,6.78.81-2.77,5.78-12,2.5-13.58,8.3.79,6.83-.36,14.8-.61,20.24-2,4-6.38-3.57-7.43,2.47.74,1,2.22,1.74,2.17,3.32-2.23.74-4.8-3.52-7-.31-.44,1.88,2.77,2.88.39,4.65-2.57.7-2.42-4-5.49-2.38-5.64-.1-.5,4.7-3.22,6.43-1.54-.39-2.68-2.32-3.17-3.81-1.93-.1-5.74-.65-8.22.58a8.43,8.43,0,0,1-.2,5.1c-2.52-2.13-3.81-6.73-7.67-8.17-3.66-.36-.25,4.2-3.86,3.5-.79-1.88.55-5-1.33-6.73l-5.2.49c-6.42-8.18-6.95-18-14.57-25.27.7-6.09-1.27-12-3.15-17.43,2.53-.34,4.66-.39,5.9-2.86-.3-1.64-.4-3.42-.69-5.06,1-1.08,2.67-.14,3.42-1.62l-.49-4c2.72-.5,5.64.1,7.53-1.93,2.13-1.28.49-3.46.39-5.24C1341.81,617.08,1343.1,618,1344.08,618.46Z" transform="translate(185.14 159.31)"/><path class="cls-7" d="M1133.22,785.78a3.56,3.56,0,0,1-2.33,2.67C1130,787.26,1131.69,785.38,1133.22,785.78Z" transform="translate(185.14 159.31)"/><path class="cls-7" d="M1316,674.72c1.44-2.62,3.61.7,5.1-1,2.72,3.22,7.43,0,9,5,4.46,3.47-2,6.43,2.07,10.2-3.67,3.36-5.31,11.08-13.28,9.93-4.26,1.33-4-5.7-7.87-1.84.2-1.39.65-3.27-.54-4.85-.74-1-3.11-.45-3.26-1.89.7-2.37,2.53-5.29-.44-6.78,2.72-.49,2.73-3,2-5.2C1313.51,680.9,1311.19,672.43,1316,674.72Z" transform="translate(185.14 159.31)"/><rect class="cls-5" x="1313.16" y="680.61" width="0.24" height="1.24" transform="translate(38.75 1081.69) rotate(-36.8)"/><path class="cls-5" d="M1312.71,684c3.22,1-1,1.09.79,3.12-1.13-3.17-.55,1.34-2.68.14,0-2.12,1.44-.14,2.19-1.63l-1.58-2.52,1.48.74Z" transform="translate(185.14 159.31)"/><polygon class="cls-5" points="1503.3 839.82 1502.06 839.82 1502.66 839.38 1503.3 839.82"/><path class="cls-5" d="M1323.41,679.68c.4.94-.1.69-1,.74Z" transform="translate(185.14 159.31)"/><polygon class="cls-5" points="1498.29 848.83 1499.38 847.39 1498.98 848.92 1498.29 848.83"/><polygon class="cls-5" points="1502.05 849.72 1500.37 849.12 1501.75 849.32 1502.05 849.72"/><path class="cls-5" d="M1316.71,691.8l1.19.35Z" transform="translate(185.14 159.31)"/><path class="cls-5" d="M1321.22,688.73l0,1.59Z" transform="translate(185.14 159.31)"/><path class="cls-5" d="M1322,691l1.34.54Z" transform="translate(185.14 159.31)"/><path class="cls-7" d="M1315.88,760.12c-.74,1.48-1,4.11-3.12,3.26a2.54,2.54,0,0,1-.84-4C1313.31,758.33,1315.59,758.48,1315.88,760.12Z" transform="translate(185.14 159.31)"/><path class="cls-7" d="M1325.73,767.9c4.69,5.45,12.13-.73,18.41,2.3,2.77,1.64-1.3,4.06.88,6.14,1.19-.89,2.83-1.18,3.67-2.12.15,1.43-2.48,3.71-.06,5.29,2.08,1.54,5.4,1.84,7.82,2.19,2.62,5.16-7.54,14.3,3.15,15-1.88.79-4.51-.65-5.65,1.13-.6,2.92,7.42,5,2.43,7.77-1.05-.15-2.29-.15-2.14,1.29-.65,3.27,4.85,3.17,3.76,5.84-4.21-.25-7.83,2.77-11.69.09-3.07.44-2.43,4.6-3.67,5.84-3.42,2.86-5.88-3.33-9.7-1.4-.65,3.27-2.78,7-6,8.51-.24-4.46-4.46-2.24-6.39-2.34,0-7.08-9.39-3.48-10-9.22-.85.94-1.29,2.82-2.78,2.08-.14-2.68,4.56-3.41,1.64-6.49-1.63-.94-.63-4.16-3.26-4.36-1.18-.35-2.48,2.47-3.27.59,2.08-3.41.71-8.56.61-12.82.21-2.62,4.41-1.13,2.93-4.35-1.09-1-3.32-.3-3.91-2.33,5-5.3,14.17-10,16.17-18.9A7.24,7.24,0,0,1,1325.73,767.9Z" transform="translate(185.14 159.31)"/><path class="cls-7" d="M1284.43,710.46c2.42,1.59,3.8,3,3.89,6,.2,2.33-2.72,3-1.83,5.39-1.58-1.29-2.88,1.53-4.41,1.14-2.23-.5-4.85-.7-6.09-3.18-.29-2.87-1.42-7.28,1.8-8.76C1280,709.47,1282.29,710.51,1284.43,710.46Z" transform="translate(185.14 159.31)"/><path class="cls-5" d="M1279.32,716.45a1.41,1.41,0,0,1-2.63-.2c2.43-.89-.69-2.58,1.74-3.47C1279.72,713.68,1279.56,716,1279.32,716.45Z" transform="translate(185.14 159.31)"/><path class="cls-5" d="M1280.11,713.38l.2,1.09Z" transform="translate(185.14 159.31)"/><path class="cls-5" d="M1286.1,716l-1.34-.54.1.54c.4-.3-1.14-1.93-1-3C1284.62,714,1288.68,714.08,1286.1,716Z" transform="translate(185.14 159.31)"/><path class="cls-5" d="M1282.23,720.76c-.3-.39-.44-4.31,2-4.3-4,1.18,2,2.22.79,4.35l-1-1.39c.58,3.27-2.63,1-3.92,1.39.2-.15.35.05.55-.1a1.57,1.57,0,0,0-1.53-1.64c-.15-.2.29-.84-.45-.59C1280.7,716.65,1280.4,720,1282.23,720.76Z" transform="translate(185.14 159.31)"/><path class="cls-5" d="M1278.71,720.61l-.94.39c.45-.64-.69-1.33.26-1.73Z" transform="translate(185.14 159.31)"/></g></g><g class="cls-1"><rect class="cls-2" x="75.07" y="571.91" width="282.18" height="401.01" transform="translate(-398.27 868.16) rotate(-69.82)"/><g class="cls-3"><path class="cls-8" d="M157.76,871.91l.33-.89c-.18,2.32,2.59,1.29,2.26,2.19C159.22,873.48,157.91,873.34,157.76,871.91Z" transform="translate(185.14 159.31)"/><path class="cls-8" d="M308.53,951.9l.88-2.4c3.26-.51,3.25,3.24,4.12,4.58-.55,1.51,1,3.78-1.73,3.8C308.57,957.37,308.25,954.53,308.53,951.9Z" transform="translate(185.14 159.31)"/><path class="cls-8" d="M281.21,907.39c-4.19,1.19.52-7-6.22-5.35-1.35.87.58,4-2.15,4-11.42-4.19-26.16.63-38.32,4,2.08-2,.7-6.56,4-8.08,5.15-2.89,16.53-.41,14.18-9.81.28-9.11,5.62-18.06,12.59-24-.5-13.49-18.36-9.48-19.87-23a8.24,8.24,0,0,1,7.1-3.54c7.5,0,11.71,8.06,19.16,6.36.51-3.22-.19-6.9,2.11-9.46,7.68-6.05,14.83-14.34,21.55-18.7,2.43,3.63,1.14,9,4.31,11.49,2.31-2.57,6.87.81,7.62-4,3.37-.81,5,3.19,6.12,5.66,4.68-.67,4.13-15.88,8.67-8.75,3.64.31-.35,4.65-.18,6.07a7.74,7.74,0,0,0-3.07.92c1.72,10.19-1.53,19.92-.11,30,8.23,2.69,15.15-5,24-4.84-.88,2.4-5.75,2.66-7.64,5l-2.25,7c7.87,4.6,2.78,11.94,7,17.24-1.73,0-4.52-1.66-6.76-1.12-5.6-2.4-3.93,6.06-8.89,5.6-1.32,3.61,2.42,7.37,3.11,11,4.14.84,5.33,5,9.37,5.15,3.28,2.23-2.52,3.17-2.29,5.31-6.66-4.16-12.52-11.43-20.7-12.4-1.16,5-4.89-2.47-5.46,2.78l1.61,4c-1.51-.55-2.93-.39-3.59,1.41a37.65,37.65,0,0,0,3.09,8.3c-1.62-.25-4.1-1.84-6.08-.18l-.37,5.66a16.8,16.8,0,0,0-9.49-11.33c-2.16,1.25,0,4.76-1.16,5-.27-1.12-.59-4-2.09-4.52-4.29,4.22-8.47,11.9-7.84,17.59.07-2-1.72.05-2.62-.28C280,920.93,281.93,913.8,281.21,907.39Z" transform="translate(185.14 159.31)"/><path class="cls-8" d="M134.51,849.72c-5.06-6.63-1.95-12.31,1.3-19.31,4.19-1.19,8.37-5.11,12.31-4.69.94,5.8,11.07,2.36,7.51,9.25,5.78.07,2,6.54,1.83,9.88-1.13,4-5.06,6.33-8.34,7.85-2.44.13-4.85-.75-7.23,1.1C139.7,852.31,138.13,847.3,134.51,849.72Z" transform="translate(185.14 159.31)"/><path class="cls-5" d="M141.78,847.62c2.34-.84,1.88,1.37,1.43,2.57C141,849.72,144.51,847.6,141.78,847.62Z" transform="translate(185.14 159.31)"/><path class="cls-5" d="M144.65,846.28c4.32,1.25,2.64-3.46,5.25-5.92-2,1.67-1.76,1.07-3.75,0,1.79-2.07,3.94.43,3.13-2.94-.11.3-3.08-1.82-3.78,1-1.71-3.69,6.2-3.86,5.24-5.91-1.18,2.29-.3,3.63-.48,6,.46,1.54,2.51.58,3.61,1.33-2.35.84-2.5,2.15-1.88,5.11.22-.61-.35-1.84-1.06-1.76.49.52-.26,1.62-.48,2.21-.7.09.22-.59-.26-1.11-4,.58-.81,3.11-.35,4.65-.61-.22-1.15-2.47-3.38-1.93-2.14.24-.37,1.91-1,2.7Z" transform="translate(185.14 159.31)"/><path class="cls-5" d="M143.18,844.72c-.33.9-1.35.87-1.27,1.59.81-3.12-4-1.15-1.11-3.49-2.27,1.56-4.51-1.65-5.77-.07l.81-3.12c.6.22.48.52.56,1.24,1.95-.65.13-4-1.4-3.59l4-1.6c.52-.5-2.35.84-.66,1.8,4-.59,0-3.75.16-5.06,3.12.8,6.86.82,7.58-3-.8,3.12-1,3.73-1.93,7.14-2.58,1.44,0-3.74-2.79-1.71l.05,1.73c-.19-.41-.08-.72-.38-.83.24,2.14-1.92,3.39.15,5.18,2-1.66,2.14-.24,4.38-.78-4.4-2-3.38,4.56-1.83,6.84C142.74,845.92,145.29,845.49,143.18,844.72Z" transform="translate(185.14 159.31)"/><path class="cls-8" d="M137.47,842.62l1.34-.87Z" transform="translate(185.14 159.31)"/><polygon class="cls-8" points="336.08 998.69 335.99 1001.73 335.08 1001.4 336.08 998.69"/><path class="cls-8" d="M341.26,912.06l-.62-3Z" transform="translate(185.14 159.31)"/><path class="cls-5" d="M152,837.39c4.31-1.49-3.06.92.1-3,1.14,2.47,4,.13,1.71,3.7Z" transform="translate(185.14 159.31)"/><path class="cls-8" d="M337,896.83c-.13-2.44,5-2.58,4.05.12C340.35,898.76,337,899.56,337,896.83Z" transform="translate(185.14 159.31)"/><path class="cls-8" d="M48.89,786.52c-1.52-3.29-8.17-4.71-7.56-8.24,2.14-.23,2.8-2,2.16-4-1.48-1.57-4.13-.84-5-3.2,5.17-6.63.33-7.38,3.09-14.9-1.74-2.69-5.82-1.8-8.86-1.89.36-1.91,2,.07,3-.62-7.49-3.77-16.24-2.21-24.36-5.2,1.72,0,1.62-3.5,1.32-3.61l16.88,1.43c9.78-11.76,11.2-24.89,10.65-40.11.23-4.35-8.49-3.8-3.91-7.92,8.23-1.07,11.2,11.28,18.57,8.88,6.86-5.67,16.31-10,22.41-13.61,5.69-.64.62,9.44,7.91,6.32.55-1.5.32-3.64,2.07-4.7,2.38,1.9-.44,7.69,4.63,7.84,2.34-.84,1.16-5,4.76-3.7,2.57,2.31-2.69,5.49,1.29,7.64,3.87,6.19,5.46-2.78,9.26-1,.65,2-.65,4.54-1.92,6.12,1.26,2.17,3.35,6.69,6.44,8.51a10.93,10.93,0,0,1,5.68-3.37c-.54,4.24-4.63,8.87-3.47,14.08,2.2,4.22,4.74-2.7,6.53,1.72-1.49,2.18-5.87,3-6.37,6.19l4.19,5.29c-4.34,12.74-14.6,20.23-17.13,33.63-7.1,3.53-12.16,9.86-16.7,15.71-2.15-2.5-3.7-4.78-7.26-4.38-1.56,1.47-3.42,2.84-5,4.3-1.9-.35-2-2.79-4.17-2.56l-4,3.33c-2.46-2.61-3.87-6.2-7.4-6.81-2.89-1.41-4.1,1.9-6,3.27C49,790,49,787.94,48.89,786.52Z" transform="translate(185.14 159.31)"/><path class="cls-8" d="M379.1,897.3a4.61,4.61,0,0,1,4.54.65C383,899.75,379.75,899.25,379.1,897.3Z" transform="translate(185.14 159.31)"/><path class="cls-8" d="M129.73,777.33c-3.86.29-1.79-4.41-4.72-4.81,1.58-5.22-5.23-8.06-.91-13.3.62-7.28,8.38-2.38,9.61-9.43,6.23,1.6,15.76-2.06,20.14,7.4,4.45,3.68-3.4,8.31,3.55,9.83-1.65.77-4,1.61-4.88,4-.56,1.5,1.71,3.7.25,4.87-3.07.92-7.53,1-7.05,5.26-2.45-2.61-5.14-.87-7,1.51C138.19,775.66,130.63,784.15,129.73,777.33Z" transform="translate(185.14 159.31)"/><rect class="cls-5" x="137.89" y="775.52" width="1.6" height="0.32" transform="translate(-452.08 797.59) rotate(-69.82)"/><path class="cls-5" d="M142.08,774.36c-1.19-4.19,1.91.36,2.83-3.06-2.64,3.47,1.83-.34,2,2.81-2.27,1.54-1.17-1.46-3.31-1.22l-1.63,3.5-.23-2.14Z" transform="translate(185.14 159.31)"/><polygon class="cls-5" points="319.62 930.2 320.5 931.54 319.59 931.21 319.62 930.2"/><path class="cls-5" d="M129.88,765.78c.74-1.09.82-.38,1.5.55Z" transform="translate(185.14 159.31)"/><polygon class="cls-5" points="332.92 929.28 330.6 929.11 332.54 928.46 332.92 929.28"/><polygon class="cls-5" points="331.24 924.57 331.78 926.82 331.02 925.17 331.24 924.57"/><path class="cls-5" d="M147.74,764.5l-.45-1.53Z" transform="translate(185.14 159.31)"/><path class="cls-5" d="M141.24,761.77l1.76-1.06Z" transform="translate(185.14 159.31)"/><path class="cls-5" d="M143.15,759.4l-.36-1.84Z" transform="translate(185.14 159.31)"/><path class="cls-8" d="M222.45,717.23c2.14-.24,5.13-1.87,5.74,1.08.54,2.25-1.84,4.1-3.75,3.74C222.33,721.28,220.89,718.7,222.45,717.23Z" transform="translate(185.14 159.31)"/><path class="cls-8" d="M224,701.06c2.61-8.94-9.34-12.65-10.49-21.6-.18-4.16,5.32-1.46,6-5.29-1.81-.66-3.28-2.23-4.89-2.48,1.45-1.17,5.77.08,5.78-3.67.21-3.34-1.8-7.15-3.13-10,3.74-6.47,20.83-1.89,14-14,2.19,1.49,2.47,5.35,5.21,5.33,3.59-1.41.15-11.55,6.73-8.11.57,1.23,1.45,2.58,2.9,1.41,4-1.6,0-7.5,3.69-8.2,2.69,4.74,8.52,6.54,8.33,12.62,2.64,3,6.7-.61,8.93-.13,5.51,1.68.54,8.72,5.32,11.51,4-1.61,9.58-1.94,13.46.51-4.67,3.4.72,6.4,2,8.57-7.65,5,2.85,12.65-3,17.34,1.61.25,4-.59,4.21,1.54-2.8,2.05-6.92-2.54-8.19,2.79.12,2.44-4.07,3.63-2.44,6.62.46,1.53,4.43.94,2.95,3.13-5.17.15-9.79,5.27-14.34,8.38-3,1.63-4.34-4-6.79-.11-.36,1.91,2,3.81.23,5.89-9.28-1.71-20.82-8.34-31.9-4.22A9.35,9.35,0,0,1,224,701.06Z" transform="translate(185.14 159.31)"/><path class="cls-8" d="M190.77,786.37c0-3.75.6-6.26,3.81-8.5,2.39-1.85,5.14.87,7.14-1.81-.28,2.63,3.69,2,4.34,4,1,2.76,2.66,5.75.85,8.84-2.91,2.34-6.89,6.68-10.77,4.23C192.83,791.9,192.33,788.65,190.77,786.37Z" transform="translate(185.14 159.31)"/><path class="cls-5" d="M200.86,787.69c2,.06,2.49,1.6,1.63,3-2.67-2-2.3,2.56-5,.56C197.57,789.21,200.15,787.77,200.86,787.69Z" transform="translate(185.14 159.31)"/><path class="cls-5" d="M197,789l1.05-1Z" transform="translate(185.14 159.31)"/><path class="cls-5" d="M195.61,780.64l.35,1.84.52-.5c-.61-.22-1.29,2.6-2.53,3.17C194.5,783.65,191.7,779.2,195.61,780.64Z" transform="translate(185.14 159.31)"/><path class="cls-5" d="M203.49,781.49c-.22.6-4.37,3.51-6.11.83,4.15,3.56,1-3.72,4.17-3.93l-.77,2.1c3.13-2.94,3,2.12,4.26,3.27-.31-.11-.19-.41-.49-.52a2,2,0,0,0-.7,2.82c-.11.3-1.12.27-.33.9C200.1,786.05,203.91,784,203.49,781.49Z" transform="translate(185.14 159.31)"/><path class="cls-5" d="M205.8,785.41l1.09.74c-1,0-1,1.7-2.06,1Z" transform="translate(185.14 159.31)"/></g></g><g class="cls-1"><rect class="cls-2" x="654.8" y="696.8" width="288.11" height="202.74" transform="matrix(0.32, -0.95, 0.95, 0.32, -26.1, 1462.39)"/><g class="cls-3"><path class="cls-9" d="M726.14,758.36l.66.22c-1.67-.08-.87,1.89-1.53,1.67C725.05,759.44,725.13,758.5,726.14,758.36Z" transform="translate(185.14 159.31)"/><path class="cls-9" d="M671.94,868.35l1.75.58c.44,2.34-2.26,2.41-3.2,3.06-1.1-.36-2.7.8-2.77-1.16C668,868.5,670.05,868.21,671.94,868.35Z" transform="translate(185.14 159.31)"/><path class="cls-9" d="M703.32,847.78c-.94-3,5,.22,3.71-4.58-.65-1-2.84.5-2.91-1.46,2.77-8.29-1-18.78-3.69-27.44,1.45,1.46,4.73.37,5.89,2.7,2.18,3.64.65,11.86,7.34,10,6.55,0,13.1,3.65,17.54,8.53,9.67-.65,6.41-13.39,16.09-14.77a5.94,5.94,0,0,1,2.69,5c.14,5.39-5.54,8.59-4.16,13.9,2.33.29,4.95-.29,6.84,1.31,4.51,5.39,10.62,10.34,13.89,15.07-2.55,1.82-6.4,1-8.15,3.35,1.89,1.6-.44,5,3.06,5.38.65,2.4-2.19,3.64-3.94,4.52.58,3.34,11.5,2.62,6.47,6-.14,2.62-3.34-.15-4.36,0a5.57,5.57,0,0,0-.73-2.19c-7.28,1.45-14.34-.66-21.54.57-1.75,6,3.93,10.77,4,17.1-1.74-.58-2-4.07-3.78-5.38L732.48,884c-3.13,5.75-8.51,2.25-12.23,5.38-.07-1.24,1.09-3.28.66-4.88,1.6-4.07-4.44-2.69-4.22-6.26-2.62-.87-5.24,1.89-7.86,2.47-.51,3-3.49,3.93-3.5,6.84-1.52,2.4-2.33-1.74-3.85-1.53,2.84-4.87,7.93-9.24,8.45-15.13-3.64-.73,1.67-3.57-2.11-3.86L705,868.23c.37-1.1.22-2.11-1.09-2.55a27.13,27.13,0,0,0-5.89,2.4c.14-1.17,1.23-3,0-4.37l-4.08-.15a12,12,0,0,0,7.94-7c-1-1.53-3.42.07-3.64-.73.8-.22,2.84-.51,3.2-1.6-3.12-3-8.72-5.83-12.8-5.25,1.45,0-.07-1.23.15-1.89C693.57,847.19,698.73,848.43,703.32,847.78Z" transform="translate(185.14 159.31)"/><path class="cls-9" d="M741.58,741.19c4.66-3.78,8.8-1.67,13.9.52.94,3,3.85,5.89,3.63,8.73-4.15.8-1.46,8-6.48,5.6.08,4.15-4.65,1.6-7.06,1.53-2.91-.73-4.65-3.5-5.81-5.83-.15-1.75.43-3.49-1-5.17C739.83,745,743.4,743.74,741.58,741.19Z" transform="translate(185.14 159.31)"/><path class="cls-5" d="M743.25,746.36c.65,1.67-1,1.38-1.82,1.09C741.72,745.85,743.32,748.32,743.25,746.36Z" transform="translate(185.14 159.31)"/><path class="cls-5" d="M744.27,748.39c-.8,3.14,2.54,1.82,4.36,3.65-1.23-1.39-.8-1.24-.07-2.7,1.53,1.24-.22,2.84,2.18,2.19-.21-.08,1.24-2.26-.79-2.7,2.61-1.3,2.9,4.37,4.36,3.64-1.68-.8-2.62-.14-4.29-.22-1.1.37-.37,1.82-.88,2.62-.65-1.67-1.6-1.74-3.71-1.24.44.15,1.31-.29,1.24-.79-.37.36-1.17-.15-1.6-.3-.08-.5.43.15.79-.21-.5-2.85-2.25-.52-3.34-.15.14-.44,1.75-.88,1.31-2.47-.22-1.53-1.38-.22-2-.66Z" transform="translate(185.14 159.31)"/><path class="cls-5" d="M745.36,747.3c-.65-.21-.65-.94-1.17-.87,2.26.51.74-2.91,2.48-.87-1.16-1.6,1.09-3.28-.07-4.15l2.26.51c-.15.44-.37.36-.88.44.51,1.38,2.91,0,2.55-1.09l1.23,2.83c.37.37-.65-1.67-1.3-.43.5,2.84,2.69-.07,3.63,0-.51,2.26-.44,5,2.33,5.38-2.26-.5-2.69-.65-5.17-1.23-1.09-1.82,2.69-.07,1.17-2l-1.24.07c.29-.14.52-.07.59-.29-1.53.22-2.48-1.31-3.72.22,1.24,1.38.22,1.53.66,3.13,1.31-3.2-3.35-2.33-5-1.17C744.49,747,744.85,748.83,745.36,747.3Z" transform="translate(185.14 159.31)"/><path class="cls-9" d="M746.75,743.16l.65.94Z" transform="translate(185.14 159.31)"/><polygon class="cls-9" points="934.5 912.07 932.31 912.08 932.53 911.42 934.5 912.07"/><path class="cls-9" d="M701.26,891l2.11-.51Z" transform="translate(185.14 159.31)"/><path class="cls-5" d="M750.82,753.49c1.16,3.06-.73-2.18,2.18,0-1.75.88,0,2.91-2.62,1.31Z" transform="translate(185.14 159.31)"/><path class="cls-9" d="M712.1,887.59c1.75-.15,2,3.56,0,2.91C710.79,890.06,710.14,887.66,712.1,887.59Z" transform="translate(185.14 159.31)"/><path class="cls-9" d="M785.13,678.34c2.33-1.16,3.2-6,5.75-5.6.22,1.53,1.53,2,2.91,1.46,1.09-1.09.51-3,2.19-3.64,4.87,3.57,5.31.07,10.77,1.89,1.89-1.31,1.16-4.21,1.17-6.4,1.38.22,0,1.46.5,2.11,2.55-5.45,1.24-11.71,3.21-17.6.08,1.23,2.55,1.09,2.62.87l-.66,12.15c8.66,6.77,18.12,7.51,29,6.79,3.13.07,2.55-6.18,5.61-3,.94,5.89-7.86,8.28-6,13.53,4.22,4.8,7.57,11.5,10.26,15.79.58,4.08-6.77.65-4.37,5.82,1.09.37,2.61.15,3.41,1.39-1.31,1.75-5.52-.15-5.53,3.49.66,1.67,3.64.73,2.77,3.34-1.6,1.9-4-1.81-5.46,1.09-4.37,2.91,2.11,3.86.94,6.63-1.38.51-3.27-.37-4.44-1.25-1.52.95-4.73,2.55-6,4.81a7.85,7.85,0,0,1,2.55,4c-3.06-.29-6.48-3.13-10.19-2.18-3,1.66,2,3.34-1.09,4.72-1.6-1-2.26-4.15-4.59-4.44l-3.71,3.13c-9.24-2.85-14.84-10-24.52-11.58-2.68-5-7.34-8.52-11.63-11.66,1.75-1.6,3.35-2.76,3-5.31-1.09-1.09-2.11-2.4-3.2-3.49.22-1.38,2-1.53,1.75-3.06l-2.47-2.76c1.82-1.82,4.37-2.91,4.73-5.46.95-2.1-1.45-2.91-2.47-4.22C782.66,678.48,784.11,678.48,785.13,678.34Z" transform="translate(185.14 159.31)"/><path class="cls-9" d="M712.67,917.86a3.3,3.3,0,0,1-.37,3.28C711,920.7,711.29,918.37,712.67,917.86Z" transform="translate(185.14 159.31)"/><path class="cls-9" d="M793.47,736.2c-.29-2.77,3.13-1.38,3.35-3.49,3.78,1,5.68-3.93,9.53-.94,5.24.29,1.89,6,7,6.69-1,4.51,1.82,11.28-4.88,14.63-2.55,3.27-6-2.27-7,2.76-.58-1.17-1.23-2.84-3-3.42-1.09-.37-2.62,1.3-3.49.28-.73-2.18-.87-5.38-3.93-5,1.82-1.81.51-3.71-1.23-5C794.85,742.24,788.59,737,793.47,736.2Z" transform="translate(185.14 159.31)"/><rect class="cls-5" x="794.73" y="742.03" width="0.23" height="1.15" transform="translate(23.86 1420.63) rotate(-71.53)"/><path class="cls-5" d="M795.86,745c3-1-.21,1.37,2.26,2-2.54-1.82.29,1.31-2,1.52-1.16-1.59,1-.86.8-2.4L794.41,745l1.53-.22Z" transform="translate(185.14 159.31)"/><polygon class="cls-5" points="983.33 898.78 982.39 899.44 982.61 898.78 983.33 898.78"/><path class="cls-5" d="M801.76,736.05c.8.51.29.59-.36,1.1Z" transform="translate(185.14 159.31)"/><polygon class="cls-5" points="984.27 908.32 984.35 906.64 984.86 908.02 984.27 908.32"/><polygon class="cls-5" points="987.62 907 986.02 907.44 987.19 906.86 987.62 907"/><path class="cls-5" d="M803.07,748.86l1.09-.36Z" transform="translate(185.14 159.31)"/><path class="cls-5" d="M804.89,744.13l.8,1.24Z" transform="translate(185.14 159.31)"/><path class="cls-5" d="M806.63,745.45l1.31-.3Z" transform="translate(185.14 159.31)"/><path class="cls-9" d="M838.62,801.49c.22,1.53,1.46,3.65-.65,4.15A2.37,2.37,0,0,1,835.2,803C835.71,801.49,837.53,800.4,838.62,801.49Z" transform="translate(185.14 159.31)"/><path class="cls-9" d="M850.27,802.23c6.47,1.68,8.88-7,15.28-8,3-.22,1.16,3.79,3.93,4.23.44-1.31,1.53-2.41,1.67-3.57.88,1,.08,4.15,2.77,4.08,2.4.07,5.09-1.46,7.13-2.47,4.73,2.55,1.81,14.91,10.33,9.75-1,1.61-3.79,1.9-3.71,3.86,1.08,2.55,8.29-.14,6,4.66-.87.43-1.82,1.09-1,2.11,1.24,2.84,5.39-.14,6,2.47-3.35,2-4.52,6.26-8.88,6.26-2.12,2,.58,4.8.28,6.41-1.09,4-6.25.57-8.15,4.06,1.24,2.84,1.6,6.84-.08,9.68-2.54-3.28-4.58.66-6.11,1.6-3.78-5.39-9,2.32-12.51-1.75-.15,1.16.5,2.83-1,3-1.53-2,1.67-5-2.18-5.82-1.75.14-2.69-2.84-4.81-1.6-1.09.36-.58,3.2-2.18,2.18-.22-3.71-4-6.92-6.33-10.12-1.23-2.11,2.77-3.2-.07-4.88-1.38-.22-2.69,1.53-4.22.29,1-6.69,5.54-15.13,2.34-23A6.74,6.74,0,0,1,850.27,802.23Z" transform="translate(185.14 159.31)"/><path class="cls-9" d="M788.29,780.23c2.69-.07,4.51.29,6.18,2.55,1.38,1.68-.51,3.71,1.45,5.09-1.89-.14-1.38,2.69-2.76,3.2-2,.8-4.08,2-6.33.8-1.75-2-5-4.8-3.27-7.64C784.36,781.83,786.69,781.39,788.29,780.23Z" transform="translate(185.14 159.31)"/><path class="cls-5" d="M787.56,787.5c0,1.46-1.1,1.82-2.12,1.24,1.39-2-1.89-1.6-.5-3.57C786.39,785.18,787.48,787,787.56,787.5Z" transform="translate(185.14 159.31)"/><path class="cls-5" d="M786.54,784.74l.73.73Z" transform="translate(185.14 159.31)"/><path class="cls-5" d="M792.51,783.58l-1.32.29.37.36c.15-.44-1.89-.87-2.33-1.75C790.32,782.85,793.45,780.74,792.51,783.58Z" transform="translate(185.14 159.31)"/><path class="cls-5" d="M792.07,789.26c-.44-.15-2.62-3.06-.73-4.37-2.47,3.05,2.69.65,2.91,2.91l-1.53-.51c2.18,2.19-1.45,2.18-2.25,3.13.07-.22.29-.15.36-.36a1.45,1.45,0,0,0-2-.44c-.22-.08-.21-.8-.65-.22C788.72,786.92,790.25,789.62,792.07,789.26Z" transform="translate(185.14 159.31)"/><path class="cls-5" d="M789.3,791l-.51.8c0-.73-1.24-.65-.72-1.46Z" transform="translate(185.14 159.31)"/></g></g><g class="cls-1"><rect class="cls-2" x="-97.13" y="216.78" width="315.25" height="448.01" transform="translate(-199.21 591.91) rotate(-81.13)"/><g class="cls-3"><path class="cls-9" d="M102.67,319l-.16,1.06c-.31-2.58-3.13-.85-3-1.91C100.73,317.59,102.2,317.46,102.67,319Z" transform="translate(185.14 159.31)"/><path class="cls-9" d="M-80,264.4l-.44,2.82c-3.46,1.28-4.27-2.83-5.52-4.11.28-1.78-1.92-3.92,1.07-4.55C-81.27,258.41-80.3,261.45-80,264.4Z" transform="translate(185.14 159.31)"/><path class="cls-9" d="M-40.34,307.17c4.33-2.22,1,7.75,8,4.5,1.29-1.24-1.51-4.22,1.48-4.84,13.43,2.1,28.52-6.41,41.11-12.78-1.85,2.61.67,7.35-2.61,9.74-5,4.29-18,4.06-13.38,13.85,1.69,10-2.2,21-8.53,29.09,3.51,14.67,22.19,6.35,26.81,20.84a9.2,9.2,0,0,1-7,5.42c-8.22,1.61-14.6-6.26-22.38-2.76.15,3.64,1.72,7.51-.25,10.82-7.09,8.31-13.1,19-19.5,25.21-3.45-3.44-3.22-9.56-7.24-11.63-2,3.31-7.7.6-7.46,6.08-3.52,1.62-6.15-2.41-7.95-4.86-5,1.75-1,18.3-7.58,11.49-4,.45-.64-5.17-1.13-6.7A8.58,8.58,0,0,0-64.81,399c-4.11-10.78-2.7-22.15-6.46-32.88-9.6-1.13-15.49,8.81-25.18,10.56.44-2.83,5.72-4.18,7.27-7.19l.91-8.2c-9.61-3.3-5.65-12.46-11.41-17.35,1.88-.43,5.31.83,7.64-.25,6.67,1.4,3-7.5,8.51-8.09.67-4.25-4.26-7.55-5.82-11.41-4.71,0-6.93-4.34-11.4-3.59-4.07-1.72,2.08-4,1.35-6.31,8.21,3.09,16.23,9.77,25.4,9,.17-5.78,5.9,1.64,5.37-4.24l-2.64-4c1.77.27,3.3-.21,3.63-2.33a42.44,42.44,0,0,0-5.21-8.42c1.82-.08,4.9,1.12,6.7-1.13l-.84-6.29a18.75,18.75,0,0,0,12.88,10.34c2.09-1.84-1-5.22.17-5.76.55,1.17,1.52,4.22,3.29,4.49,3.76-5.57,6.67-14.89,4.72-21,.37,2.23,1.88-.43,2.94-.27C-42,292.07-42.54,300.3-40.34,307.17Z" transform="translate(185.14 159.31)"/><path class="cls-9" d="M133,338.2c7,6.16,4.84,13.06,2.81,21.44-4.33,2.22-8,7.44-12.46,7.84-2.3-6.16-12.65-.17-10.26-8.49-6.34,1.19-3.66-6.72-4.17-10.42.37-4.65,4.16-8.05,7.43-10.43,2.64-.68,5.47-.24,7.68-2.79C126.74,336.5,129.56,341.65,133,338.2Z" transform="translate(185.14 159.31)"/><path class="cls-5" d="M125.5,342.1c-2.38,1.43-2.36-1.09-2.14-2.51C125.89,339.62,122.51,342.72,125.5,342.1Z" transform="translate(185.14 159.31)"/><path class="cls-5" d="M122.65,344.19c-5-.42-2.13,4.37-4.45,7.64,1.8-2.26,1.68-1.55,4.1-.82-1.5,2.67-4.41.4-2.78,3.92.06-.36,3.78,1.31,3.92-1.92,2.69,3.67-5.94,5.59-4.44,7.63.79-2.78-.47-4.05-.78-6.64-.84-1.58-2.88-.09-4.25-.66,2.4-1.44,2.27-2.91.94-6-.11.72.79,1.94,1.55,1.7-.65-.47-.07-1.83,0-2.53.75-.25-.11.7.53,1.16,4.23-1.51.2-3.58-.64-5.17.71.11,1.8,2.46,4.13,1.38,2.29-.74,0-2.18.5-3.19Z" transform="translate(185.14 159.31)"/><path class="cls-5" d="M124.6,345.58c.17-1.06,1.28-1.25,1-2-.2,3.59,4.65.36,2,3.57,2.15-2.2,5.3.82,6.34-1.19l-.2,3.6c-.71-.11-.65-.47-.89-1.23-2,1.13.75,4.46,2.32,3.62l-4,2.63c-.46.66,2.39-1.44.33-2.12-4.22,1.51.81,4.11.93,5.58-3.59-.2-7.7.6-7.64,5,.19-3.59.3-4.3.55-8.24,2.51-2.14.81,4.1,3.43,1.26l-.44-1.88c.31.4.25.77.6.82-.72-2.29,1.37-4.13-1.29-5.64-1.8,2.25-2.29.73-4.63,1.81,5.25,1.19,2.71-5.73.51-7.89C124.82,344.17,122.12,345.19,124.6,345.58Z" transform="translate(185.14 159.31)"/><path class="cls-9" d="M131.31,346.63,130,347.88Z" transform="translate(185.14 159.31)"/><polygon class="cls-9" points="302.4 512.44 301.83 509.09 302.9 509.25 302.4 512.44"/><path class="cls-9" d="M-107.15,315.21l1.33,3.11Z" transform="translate(185.14 159.31)"/><path class="cls-5" d="M116.53,355.55c-4.39,2.57,3.16-1.68.56,3.35-1.79-2.46-4.46.74-2.69-3.69Z" transform="translate(185.14 159.31)"/><path class="cls-9" d="M-99.11,331c.67,2.64-5,3.93-4.46.75C-103.24,329.59-99.72,328-99.11,331Z" transform="translate(185.14 159.31)"/><path class="cls-9" d="M240.65,388.68c2.39,3.27,10,3.36,10.08,7.36-2.29.73-2.62,2.85-1.49,4.84,2,1.39,4.71,0,6.15,2.41-4.21,8.4,1.27,8.16-.11,17,2.5,2.57,6.76.7,10.11.14,0,2.17-2.23.36-3.1,1.32,9,2.5,18.28-1.13,27.83.36-1.88.43-1,4.19-.66,4.24l-18.8,2.14c-8.14,15-6.82,29.72-2.88,46.27.7,4.81,10.14,2.31,6,7.82-8.79,3-14.74-9.91-22.3-5.66-6.26,7.72-15.66,14.58-21.56,19.82-6.09,1.95-2.74-10.21-10.05-5.19-.28,1.77.45,4.05-1.24,5.6-3-1.56-1.2-8.51-6.79-7.58-2.38,1.44-.17,5.77-4.41,5.11-3.31-2,1.75-6.6-3.08-8.09-5.59-5.94-5.37,4.24-9.91,3.17-1.14-2-.29-5.12.75-7.13-1.85-2.1-5.13-6.59-8.91-7.91a12.25,12.25,0,0,1-5.48,4.94c-.34-4.76,3.12-10.74.71-16.19-3.33-4.14-4.6,4-7.53-.45,1.15-2.72,5.78-4.53,5.62-8.17L173.87,450c2-14.9,11.56-25.35,11.39-40.59,7-5.42,11.17-13.47,14.86-20.87,2.9,2.27,5.1,4.43,8.91,3.21,1.39-2,3.13-3.86,4.53-5.81,2.17,0,2.85,2.61,5.14,1.89l3.59-4.51c3.27,2.32,5.6,5.94,9.6,5.84,3.48.91,4.08-3,5.83-4.89C239.79,384.92,240.17,387.16,240.65,388.68Z" transform="translate(185.14 159.31)"/><path class="cls-9" d="M-145.37,339.67c-1.23.9-3.82,1.21-5.12.29C-150.16,337.84-146.51,337.68-145.37,339.67Z" transform="translate(185.14 159.31)"/><path class="cls-9" d="M154.11,416.46c4.16-1.16,2.92,4.44,6.21,4.23-.58,6.06,7.5,7.69,3.92,14.37.91,8.11-8.67,4.45-8.46,12.44-7.18-.39-16.82,5.71-23.69-3.69-5.68-3.06,1.9-9.85-6-10,1.63-1.19,4-2.63,4.47-5.46.27-1.77-2.69-3.68-1.35-5.28,3.16-1.68,8-2.73,6.57-7.3,3.26,2.32,5.83-.18,7.38-3.2C145.2,420.14,151.62,409.19,154.11,416.46Z" transform="translate(185.14 159.31)"/><rect class="cls-5" x="143.74" y="420.06" width="1.79" height="0.35" transform="translate(-107.73 657.67) rotate(-81.13)"/><path class="cls-5" d="M141.22,422.42c2.23,4.33-2.17,0-2.43,4,2.13-4.37-1.93.79-2.85-2.62,2.15-2.19,1.6,1.34,3.89.61l1-4.19.73,2.29Z" transform="translate(185.14 159.31)"/><polygon class="cls-5" points="335.44 583.87 334.19 582.59 335.25 582.75 335.44 583.87"/><path class="cls-5" d="M156.47,429.14c-.57,1.36-.82.6-1.77-.27Z" transform="translate(185.14 159.31)"/><polygon class="cls-5" points="321.07 587.78 323.65 587.46 321.67 588.6 321.07 587.78"/><polygon class="cls-5" points="323.95 592.58 322.86 590.24 324.06 591.87 323.95 592.58"/><path class="cls-5" d="M137.18,434.46,138,436Z" transform="translate(185.14 159.31)"/><path class="cls-5" d="M144.9,436l-1.7,1.55Z" transform="translate(185.14 159.31)"/><path class="cls-5" d="M143.33,439l.79,1.94Z" transform="translate(185.14 159.31)"/><path class="cls-9" d="M65.69,502.62c-2.28.73-5.21,3.17-6.53.07-1.08-2.34,1.13-4.9,3.3-4.92C64.94,498.15,67.09,500.67,65.69,502.62Z" transform="translate(185.14 159.31)"/><path class="cls-9" d="M67.59,520.66c-.9,10.37,13,11.81,16.22,21.36,1.11,4.52-5.51,2.77-5.46,7.12,2.12.33,4.08,1.72,5.9,1.65-1.33,1.6-6.34,1.18-5.53,5.29.5,3.7,3.55,7.44,5.63,10.29C81.67,574.29,62,573,72.07,584.74c-2.72-1.15-3.88-5.31-6.87-4.69-3.63,2.33,2.36,12.68-5.59,10.35-.9-1.23-2.16-2.51-3.49-.9-4,2.62,1.61,8.21-2.25,9.78-4-4.6-10.76-5.3-11.9-12-3.55-2.73-7.2,2.13-9.74,2.1-6.41-.64-2.5-9.45-8.35-11.45-4,2.63-10.07,4.23-14.86,2.39,4.37-4.75-2.19-6.86-4-9,7.28-7.19-5.89-13.23-.55-19.64-1.82.08-4.22,1.52-4.95-.77,2.62-2.85,8.13,1.27,8.36-4.85-.67-2.64,3.66-4.86,1.21-7.78-.83-1.58-5.05-.07-3.91-2.78,5.63-1.3,9.57-7.93,13.88-12.33,2.92-2.44,5.62,3.42,7.46-1.37,0-2.17-3.05-3.73-1.54-6.39,10.53-.17,24.63,4.56,35.87-2.38A10.49,10.49,0,0,1,67.59,520.66Z" transform="translate(185.14 159.31)"/><path class="cls-9" d="M85.25,419.93c.81,4.11.72,7-2.31,10.14-2.21,2.56-5.82.18-7.43,3.55-.27-2.94-4.49-1.42-5.62-3.41-1.74-2.81-4.18-5.72-2.87-9.5,2.67-3.21,6.08-8.83,10.87-7C81.78,414.32,83.05,417.78,85.25,419.93Z" transform="translate(185.14 159.31)"/><path class="cls-5" d="M73.9,420.69c-2.23.38-3.07-1.2-2.44-2.91,3.37,1.61,2-3.32,5.34-1.7C77.17,418.31,74.66,420.45,73.9,420.69Z" transform="translate(185.14 159.31)"/><path class="cls-5" d="M77.88,418.42l-.93,1.3Z" transform="translate(185.14 159.31)"/><path class="cls-5" d="M81.21,427.27l-.79-1.94L80,426c.71.11.84-3.13,2.08-4C81.76,423.73,85.8,428,81.21,427.27Z" transform="translate(185.14 159.31)"/><path class="cls-5" d="M72.39,428.06c.11-.7,4-4.8,6.51-2.24-5.33-3-.31,4.3-3.71,5.22l.38-2.48c-2.78,3.91-3.72-1.67-5.38-2.65.36.06.3.41.65.47a2.26,2.26,0,0,0,.15-3.24c.05-.36,1.17-.54.16-1.06C75.1,422.33,71.36,425.37,72.39,428.06Z" transform="translate(185.14 159.31)"/><path class="cls-5" d="M69,424.28l-1.37-.58c1.13-.19.69-2.06,2.05-1.49Z" transform="translate(185.14 159.31)"/></g></g></svg>