<svg width="508" height="437" viewBox="0 0 508 437" fill="none" xmlns="http://www.w3.org/2000/svg">
<circle r="14.4829" transform="matrix(1 0 0 -1 16.7114 232.01)" fill="#8AC926"/>
<path d="M201.104 209H207.424V207.38H203.364V201.44H206.624V199.84H203.364V194.48H207.384V192.8H201.104V209ZM209.208 209H211.048L211.228 197.24L213.948 209H215.228L217.968 197.24L218.148 209H219.968L219.668 192.8H217.468L214.588 205.94L211.728 192.8H209.508L209.208 209ZM222.451 209H224.711V201.46H226.491C229.131 201.46 230.471 199.86 230.471 197.28C230.471 194.46 229.371 192.8 226.471 192.8H222.451V209ZM224.711 199.84V194.42H225.771C228.031 194.42 228.331 195 228.331 197.3C228.331 199.3 227.691 199.84 225.751 199.84H224.711ZM230.419 209H232.539L233.319 204.92H236.619L237.359 209H239.499L236.039 192.8H233.859L230.419 209ZM233.619 203.3L234.959 196L236.319 203.3H233.619ZM242.278 209H244.538V194.48H247.198V192.8H239.538V194.48H242.278V209ZM248.76 209H251.02V201.42H255.18V209H257.44V192.8H255.18V199.8H251.02V192.8H248.76V209ZM260.091 209H262.311V192.8H260.091V209ZM264.432 209H271.592V207.38H266.572L271.592 193.78V192.8H264.732V194.42H269.192L264.432 207.38V209ZM273.272 209H279.592V207.38H275.532V201.44H278.792V199.84H275.532V194.48H279.552V192.8H273.272V209Z" fill="black"/>
<path d="M435.746 209.219V193.019H439.266C440.466 193.019 441.413 193.206 442.106 193.579C442.813 193.939 443.313 194.486 443.606 195.219C443.913 195.953 444.066 196.866 444.066 197.959V203.919C444.066 205.066 443.913 206.033 443.606 206.819C443.313 207.606 442.826 208.206 442.146 208.619C441.48 209.019 440.58 209.219 439.446 209.219H435.746ZM438.006 207.599H439.286C440.113 207.599 440.7 207.439 441.046 207.119C441.393 206.799 441.6 206.333 441.666 205.719C441.746 205.106 441.786 204.366 441.786 203.499V198.239C441.786 197.399 441.733 196.719 441.626 196.199C441.52 195.679 441.286 195.299 440.926 195.059C440.566 194.819 440 194.699 439.226 194.699H438.006V207.599ZM446.293 209.219V193.019H452.573V194.699H448.553V200.059H451.813V201.659H448.553V207.599H452.613V209.219H446.293ZM454.438 209.219V193.019H460.698V194.639H456.698V200.039H459.798V201.639H456.698V209.219H454.438ZM462.37 209.219V193.019H464.59V209.219H462.37ZM467.211 209.219V193.019H468.751L473.351 203.779V193.019H475.231V209.219H473.791L469.131 198.159V209.219H467.211ZM477.778 209.219V193.019H484.058V194.699H480.038V200.059H483.298V201.659H480.038V207.599H484.098V209.219H477.778Z" fill="black"/>
<circle r="65.73" transform="matrix(1 0 0 -1 238.41 299.968)" fill="#D7EDB4"/>
<path d="M219.648 281.499H224.336V282.443H220.88V287.307H223.696V288.203H220.88V293.547H224.368V294.459H219.648V281.499ZM227.351 289.627L225.271 285.211H226.423L228.007 288.603L229.527 285.211H230.711L228.551 289.755L230.743 294.459H229.623L227.895 290.827L226.279 294.459H225.159L227.351 289.627ZM231.877 285.211H233.045V285.979C233.525 285.371 234.117 285.067 234.821 285.067C235.631 285.067 236.181 285.403 236.469 286.075C236.767 286.736 236.917 287.627 236.917 288.747V290.699C236.917 291.968 236.751 292.939 236.421 293.611C236.09 294.272 235.514 294.603 234.693 294.603C234.117 294.603 233.567 294.309 233.045 293.723V297.499H231.877V285.211ZM234.517 293.675C235.007 293.675 235.333 293.445 235.493 292.987C235.663 292.528 235.749 291.776 235.749 290.731V288.747C235.749 287.755 235.663 287.045 235.493 286.619C235.333 286.192 234.997 285.979 234.485 285.979C234.005 285.979 233.525 286.219 233.045 286.699V293.003C233.471 293.451 233.962 293.675 234.517 293.675ZM238.709 281.499H239.877V294.459H238.709V281.499ZM244.071 294.603C243.154 294.603 242.514 294.32 242.151 293.755C241.788 293.179 241.607 292.299 241.607 291.115V288.555C241.607 287.371 241.788 286.496 242.151 285.931C242.514 285.355 243.154 285.067 244.071 285.067C244.999 285.067 245.644 285.355 246.007 285.931C246.37 286.496 246.551 287.371 246.551 288.555V291.115C246.551 292.299 246.37 293.179 246.007 293.755C245.644 294.32 244.999 294.603 244.071 294.603ZM244.071 293.723C244.455 293.723 244.738 293.621 244.919 293.419C245.111 293.216 245.234 292.944 245.287 292.603C245.34 292.251 245.367 291.776 245.367 291.179V288.491C245.367 287.893 245.34 287.424 245.287 287.083C245.234 286.731 245.111 286.453 244.919 286.251C244.738 286.048 244.455 285.947 244.071 285.947C243.687 285.947 243.404 286.048 243.223 286.251C243.042 286.453 242.924 286.731 242.871 287.083C242.818 287.424 242.791 287.893 242.791 288.491V291.179C242.791 291.776 242.818 292.251 242.871 292.603C242.924 292.944 243.042 293.216 243.223 293.419C243.404 293.621 243.687 293.723 244.071 293.723ZM248.254 285.211H249.438V286.475C249.715 286.016 250.04 285.675 250.414 285.451C250.798 285.227 251.182 285.115 251.566 285.115C251.64 285.115 251.71 285.12 251.774 285.131V286.379C251.582 286.315 251.39 286.283 251.198 286.283C250.462 286.283 249.875 286.64 249.438 287.355V294.459H248.254V285.211ZM255.197 294.603C254.599 294.603 254.119 294.485 253.757 294.251C253.394 294.016 253.127 293.637 252.957 293.115C252.786 292.592 252.701 291.883 252.701 290.987V288.651C252.701 287.744 252.786 287.035 252.957 286.523C253.138 286 253.41 285.627 253.773 285.403C254.146 285.179 254.626 285.067 255.213 285.067C255.853 285.067 256.343 285.205 256.685 285.483C257.037 285.749 257.277 286.155 257.405 286.699C257.543 287.243 257.613 287.973 257.613 288.891V289.723H253.869V291.339C253.869 292.224 253.97 292.843 254.173 293.195C254.375 293.547 254.717 293.723 255.197 293.723C255.602 293.723 255.911 293.595 256.125 293.339C256.349 293.083 256.461 292.619 256.461 291.947V291.307H257.597V291.819C257.597 292.715 257.41 293.403 257.037 293.883C256.663 294.363 256.05 294.603 255.197 294.603ZM256.461 289.051V288.283C256.461 287.728 256.429 287.291 256.365 286.971C256.311 286.651 256.194 286.4 256.013 286.219C255.831 286.037 255.559 285.947 255.197 285.947C254.866 285.947 254.605 286.021 254.413 286.171C254.221 286.309 254.082 286.56 253.997 286.923C253.911 287.275 253.869 287.776 253.869 288.427V289.051H256.461ZM212.907 318.603C212.225 318.603 211.702 318.453 211.339 318.155C210.977 317.845 210.731 317.435 210.603 316.923C210.486 316.4 210.427 315.744 210.427 314.955V312.795C210.427 311.899 210.497 311.184 210.635 310.651C210.785 310.117 211.035 309.723 211.387 309.467C211.75 309.2 212.257 309.067 212.907 309.067C213.814 309.067 214.433 309.317 214.763 309.819C215.094 310.309 215.259 311.045 215.259 312.027V312.475H214.171V312.027C214.171 311.483 214.129 311.061 214.043 310.763C213.969 310.464 213.841 310.256 213.659 310.139C213.478 310.011 213.227 309.947 212.907 309.947C212.545 309.947 212.267 310.032 212.075 310.203C211.894 310.373 211.766 310.645 211.691 311.019C211.627 311.381 211.595 311.909 211.595 312.603V315.195C211.595 315.835 211.633 316.336 211.707 316.699C211.782 317.061 211.915 317.323 212.107 317.483C212.299 317.643 212.571 317.723 212.923 317.723C213.286 317.723 213.553 317.648 213.723 317.499C213.905 317.339 214.022 317.104 214.075 316.795C214.139 316.485 214.171 316.053 214.171 315.499V314.987H215.259V315.435C215.259 316.128 215.195 316.704 215.067 317.163C214.95 317.611 214.721 317.963 214.379 318.219C214.038 318.475 213.547 318.603 212.907 318.603ZM216.838 305.499H218.006V310.187C218.699 309.44 219.451 309.067 220.262 309.067C220.721 309.067 221.073 309.237 221.318 309.579C221.563 309.92 221.686 310.405 221.686 311.035V318.459H220.502V311.291C220.502 310.821 220.427 310.485 220.278 310.283C220.139 310.08 219.921 309.979 219.622 309.979C219.366 309.979 219.094 310.059 218.806 310.219C218.529 310.379 218.262 310.592 218.006 310.859V318.459H216.838V305.499ZM225.016 318.603C224.461 318.603 224.013 318.405 223.672 318.011C223.33 317.616 223.16 317.125 223.16 316.539C223.16 315.931 223.277 315.429 223.512 315.035C223.757 314.64 224.13 314.288 224.632 313.979C225.133 313.669 225.885 313.291 226.888 312.843V312.187C226.888 311.611 226.85 311.163 226.776 310.843C226.712 310.523 226.594 310.293 226.424 310.155C226.264 310.016 226.034 309.947 225.736 309.947C224.872 309.947 224.44 310.475 224.44 311.531V311.851L223.288 311.835C223.298 310.885 223.501 310.187 223.896 309.739C224.29 309.291 224.925 309.067 225.8 309.067C226.61 309.067 227.186 309.312 227.528 309.803C227.88 310.293 228.056 311.067 228.056 312.123V316.619C228.056 316.917 228.061 317.259 228.072 317.643C228.093 318.027 228.114 318.299 228.136 318.459H227.096L226.92 317.179C226.781 317.584 226.541 317.925 226.2 318.203C225.869 318.469 225.474 318.603 225.016 318.603ZM225.384 317.611C225.704 317.611 225.992 317.504 226.248 317.291C226.514 317.067 226.728 316.805 226.888 316.507V313.627C226.162 314.011 225.634 314.309 225.304 314.523C224.984 314.736 224.738 314.976 224.568 315.243C224.408 315.499 224.328 315.835 224.328 316.251C224.328 316.709 224.424 317.051 224.616 317.275C224.818 317.499 225.074 317.611 225.384 317.611ZM229.935 305.499H231.103V318.459H229.935V305.499ZM233.17 305.499H234.338V318.459H233.17V305.499ZM238.564 318.603C237.967 318.603 237.487 318.485 237.124 318.251C236.761 318.016 236.495 317.637 236.324 317.115C236.153 316.592 236.068 315.883 236.068 314.987V312.651C236.068 311.744 236.153 311.035 236.324 310.523C236.505 310 236.777 309.627 237.14 309.403C237.513 309.179 237.993 309.067 238.58 309.067C239.22 309.067 239.711 309.205 240.052 309.483C240.404 309.749 240.644 310.155 240.772 310.699C240.911 311.243 240.98 311.973 240.98 312.891V313.723H237.236V315.339C237.236 316.224 237.337 316.843 237.54 317.195C237.743 317.547 238.084 317.723 238.564 317.723C238.969 317.723 239.279 317.595 239.492 317.339C239.716 317.083 239.828 316.619 239.828 315.947V315.307H240.964V315.819C240.964 316.715 240.777 317.403 240.404 317.883C240.031 318.363 239.417 318.603 238.564 318.603ZM239.828 313.051V312.283C239.828 311.728 239.796 311.291 239.732 310.971C239.679 310.651 239.561 310.4 239.38 310.219C239.199 310.037 238.927 309.947 238.564 309.947C238.233 309.947 237.972 310.021 237.78 310.171C237.588 310.309 237.449 310.56 237.364 310.923C237.279 311.275 237.236 311.776 237.236 312.427V313.051H239.828ZM242.556 309.211H243.724V310.171C244.034 309.829 244.375 309.563 244.748 309.371C245.132 309.168 245.532 309.067 245.948 309.067C246.407 309.067 246.759 309.237 247.004 309.579C247.25 309.92 247.372 310.405 247.372 311.035V318.459H246.204V311.291C246.204 310.821 246.13 310.485 245.98 310.283C245.842 310.08 245.623 309.979 245.324 309.979C245.068 309.979 244.802 310.059 244.524 310.219C244.247 310.368 243.98 310.576 243.724 310.843V318.459H242.556V309.211ZM251.455 321.499C250.506 321.499 249.77 321.36 249.247 321.083C248.735 320.805 248.479 320.384 248.479 319.819C248.479 319.392 248.623 319.003 248.911 318.651C249.21 318.299 249.573 318.016 249.999 317.803C249.317 317.621 248.975 317.285 248.975 316.795C248.975 316.496 249.061 316.224 249.231 315.979C249.413 315.723 249.695 315.435 250.079 315.115C249.674 314.816 249.375 314.437 249.183 313.979C249.002 313.509 248.911 312.949 248.911 312.299C248.911 311.36 249.13 310.587 249.567 309.979C250.005 309.371 250.65 309.067 251.503 309.067C252.442 309.067 253.103 309.451 253.487 310.219C253.583 310.048 253.749 309.861 253.983 309.659C254.229 309.445 254.479 309.285 254.735 309.179L254.975 309.099L255.295 309.915C255.039 309.957 254.751 310.064 254.431 310.235C254.122 310.405 253.903 310.565 253.775 310.715C253.85 310.917 253.914 311.184 253.967 311.515C254.031 311.835 254.063 312.107 254.063 312.331C254.063 313.323 253.861 314.112 253.455 314.699C253.05 315.275 252.405 315.563 251.519 315.563C251.359 315.563 251.189 315.552 251.007 315.531C250.837 315.499 250.693 315.461 250.575 315.419C250.159 315.835 249.951 316.187 249.951 316.475C249.951 316.624 250.01 316.741 250.127 316.827C250.255 316.901 250.453 316.955 250.719 316.987L252.191 317.211C252.959 317.328 253.535 317.563 253.919 317.915C254.314 318.256 254.511 318.736 254.511 319.355C254.511 320.069 254.234 320.603 253.679 320.955C253.135 321.317 252.394 321.499 251.455 321.499ZM251.519 314.715C252.127 314.715 252.533 314.491 252.735 314.043C252.938 313.595 253.039 313.013 253.039 312.299C253.039 310.699 252.533 309.899 251.519 309.899C250.933 309.899 250.527 310.133 250.303 310.603C250.079 311.072 249.967 311.637 249.967 312.299C249.967 313.909 250.485 314.715 251.519 314.715ZM251.503 320.555C252.154 320.555 252.661 320.459 253.023 320.267C253.397 320.075 253.583 319.776 253.583 319.371C253.583 319.029 253.461 318.763 253.215 318.571C252.981 318.379 252.522 318.229 251.839 318.123L250.655 317.963C250.303 318.219 250.015 318.464 249.791 318.699C249.578 318.944 249.471 319.221 249.471 319.531C249.471 319.883 249.637 320.139 249.967 320.299C250.298 320.469 250.81 320.555 251.503 320.555ZM258.205 318.603C257.607 318.603 257.127 318.485 256.765 318.251C256.402 318.016 256.135 317.637 255.965 317.115C255.794 316.592 255.709 315.883 255.709 314.987V312.651C255.709 311.744 255.794 311.035 255.965 310.523C256.146 310 256.418 309.627 256.781 309.403C257.154 309.179 257.634 309.067 258.221 309.067C258.861 309.067 259.351 309.205 259.693 309.483C260.045 309.749 260.285 310.155 260.413 310.699C260.551 311.243 260.621 311.973 260.621 312.891V313.723H256.877V315.339C256.877 316.224 256.978 316.843 257.181 317.195C257.383 317.547 257.725 317.723 258.205 317.723C258.61 317.723 258.919 317.595 259.133 317.339C259.357 317.083 259.469 316.619 259.469 315.947V315.307H260.605V315.819C260.605 316.715 260.418 317.403 260.045 317.883C259.671 318.363 259.058 318.603 258.205 318.603ZM259.469 313.051V312.283C259.469 311.728 259.437 311.291 259.373 310.971C259.319 310.651 259.202 310.4 259.021 310.219C258.839 310.037 258.567 309.947 258.205 309.947C257.874 309.947 257.613 310.021 257.421 310.171C257.229 310.309 257.09 310.56 257.005 310.923C256.919 311.275 256.877 311.776 256.877 312.427V313.051H259.469ZM264.309 318.603C263.584 318.603 262.997 318.368 262.549 317.899C262.112 317.429 261.861 316.789 261.797 315.979L262.773 315.675C262.837 316.379 263.002 316.896 263.269 317.227C263.536 317.557 263.909 317.723 264.389 317.723C264.794 317.723 265.104 317.611 265.317 317.387C265.541 317.152 265.653 316.827 265.653 316.411C265.653 315.803 265.28 315.184 264.533 314.555L263.269 313.467C262.832 313.104 262.512 312.747 262.309 312.395C262.106 312.043 262.005 311.627 262.005 311.147C262.005 310.496 262.202 309.989 262.597 309.627C263.002 309.253 263.541 309.067 264.213 309.067C264.896 309.067 265.418 309.285 265.781 309.723C266.154 310.16 266.362 310.752 266.405 311.499L265.573 311.771C265.509 310.555 265.072 309.947 264.261 309.947C263.898 309.947 263.61 310.048 263.397 310.251C263.184 310.443 263.077 310.715 263.077 311.067C263.077 311.355 263.13 311.605 263.237 311.819C263.344 312.032 263.541 312.267 263.829 312.523L265.141 313.691C265.642 314.139 266.021 314.56 266.277 314.955C266.544 315.339 266.677 315.813 266.677 316.379C266.677 317.083 266.464 317.632 266.037 318.027C265.61 318.411 265.034 318.603 264.309 318.603Z" fill="black"/>
<circle r="65.73" transform="matrix(1 0 0 -1 357.617 209.729)" fill="#FFDB7A"/>
<path d="M328.308 203.514H332.996V204.458H329.54V209.322H332.356V210.218H329.54V215.562H333.028V216.474H328.308V203.514ZM336.507 216.618C335.717 216.618 335.147 216.319 334.795 215.722C334.453 215.125 334.283 214.133 334.283 212.746V211.034C334.283 209.722 334.437 208.735 334.747 208.074C335.056 207.413 335.627 207.082 336.459 207.082C337.056 207.082 337.6 207.349 338.091 207.882V203.514H339.259V216.474H338.091V215.818C337.6 216.351 337.072 216.618 336.507 216.618ZM336.747 215.69C337.195 215.69 337.643 215.487 338.091 215.082V208.65C337.6 208.213 337.141 207.994 336.715 207.994C336.224 207.994 335.888 208.202 335.707 208.618C335.536 209.034 335.451 209.711 335.451 210.65V212.842C335.451 213.845 335.536 214.57 335.707 215.018C335.888 215.466 336.235 215.69 336.747 215.69ZM341.196 204.362H342.364V205.946H341.196V204.362ZM341.196 207.226H342.364V216.474H341.196V207.226ZM346.526 216.586C345.896 216.586 345.459 216.415 345.214 216.074C344.979 215.722 344.862 215.215 344.862 214.554V207.994H343.726V207.226H344.862V204.362H346.03V207.226H347.566V207.994H346.03V214.442C346.03 214.911 346.083 215.237 346.19 215.418C346.296 215.589 346.515 215.674 346.846 215.674C347.048 215.674 347.272 215.647 347.518 215.594V216.49C347.187 216.554 346.856 216.586 346.526 216.586ZM352.212 204.362H353.38V205.946H352.212V204.362ZM352.212 207.226H353.38V216.474H352.212V207.226ZM355.349 207.226H356.517V208.186C356.827 207.845 357.168 207.578 357.541 207.386C357.925 207.183 358.325 207.082 358.741 207.082C359.2 207.082 359.552 207.253 359.797 207.594C360.043 207.935 360.165 208.421 360.165 209.05V216.474H358.997V209.306C358.997 208.837 358.923 208.501 358.773 208.298C358.635 208.095 358.416 207.994 358.117 207.994C357.861 207.994 357.595 208.074 357.317 208.234C357.04 208.383 356.773 208.591 356.517 208.858V216.474H355.349V207.226ZM364.008 216.618C363.283 216.618 362.696 216.383 362.248 215.914C361.811 215.445 361.56 214.805 361.496 213.994L362.472 213.69C362.536 214.394 362.702 214.911 362.968 215.242C363.235 215.573 363.608 215.738 364.088 215.738C364.494 215.738 364.803 215.626 365.016 215.402C365.24 215.167 365.352 214.842 365.352 214.426C365.352 213.818 364.979 213.199 364.232 212.57L362.968 211.482C362.531 211.119 362.211 210.762 362.008 210.41C361.806 210.058 361.704 209.642 361.704 209.162C361.704 208.511 361.902 208.005 362.296 207.642C362.702 207.269 363.24 207.082 363.912 207.082C364.595 207.082 365.118 207.301 365.48 207.738C365.854 208.175 366.062 208.767 366.104 209.514L365.272 209.786C365.208 208.57 364.771 207.962 363.96 207.962C363.598 207.962 363.31 208.063 363.096 208.266C362.883 208.458 362.776 208.73 362.776 209.082C362.776 209.37 362.83 209.621 362.936 209.834C363.043 210.047 363.24 210.282 363.528 210.538L364.84 211.706C365.342 212.154 365.72 212.575 365.976 212.97C366.243 213.354 366.376 213.829 366.376 214.394C366.376 215.098 366.163 215.647 365.736 216.042C365.31 216.426 364.734 216.618 364.008 216.618ZM367.837 204.362H369.005V205.946H367.837V204.362ZM367.837 207.226H369.005V216.474H367.837V207.226ZM373.326 219.514C372.377 219.514 371.641 219.375 371.118 219.098C370.606 218.821 370.35 218.399 370.35 217.834C370.35 217.407 370.494 217.018 370.782 216.666C371.081 216.314 371.444 216.031 371.87 215.818C371.188 215.637 370.846 215.301 370.846 214.81C370.846 214.511 370.932 214.239 371.102 213.994C371.284 213.738 371.566 213.45 371.95 213.13C371.545 212.831 371.246 212.453 371.054 211.994C370.873 211.525 370.782 210.965 370.782 210.314C370.782 209.375 371.001 208.602 371.438 207.994C371.876 207.386 372.521 207.082 373.374 207.082C374.313 207.082 374.974 207.466 375.358 208.234C375.454 208.063 375.62 207.877 375.854 207.674C376.1 207.461 376.35 207.301 376.606 207.194L376.846 207.114L377.166 207.93C376.91 207.973 376.622 208.079 376.302 208.25C375.993 208.421 375.774 208.581 375.646 208.73C375.721 208.933 375.785 209.199 375.838 209.53C375.902 209.85 375.934 210.122 375.934 210.346C375.934 211.338 375.732 212.127 375.326 212.714C374.921 213.29 374.276 213.578 373.39 213.578C373.23 213.578 373.06 213.567 372.878 213.546C372.708 213.514 372.564 213.477 372.446 213.434C372.03 213.85 371.822 214.202 371.822 214.49C371.822 214.639 371.881 214.757 371.998 214.842C372.126 214.917 372.324 214.97 372.59 215.002L374.062 215.226C374.83 215.343 375.406 215.578 375.79 215.93C376.185 216.271 376.382 216.751 376.382 217.37C376.382 218.085 376.105 218.618 375.55 218.97C375.006 219.333 374.265 219.514 373.326 219.514ZM373.39 212.73C373.998 212.73 374.404 212.506 374.606 212.058C374.809 211.61 374.91 211.029 374.91 210.314C374.91 208.714 374.404 207.914 373.39 207.914C372.804 207.914 372.398 208.149 372.174 208.618C371.95 209.087 371.838 209.653 371.838 210.314C371.838 211.925 372.356 212.73 373.39 212.73ZM373.374 218.57C374.025 218.57 374.532 218.474 374.894 218.282C375.268 218.09 375.454 217.791 375.454 217.386C375.454 217.045 375.332 216.778 375.086 216.586C374.852 216.394 374.393 216.245 373.71 216.138L372.526 215.978C372.174 216.234 371.886 216.479 371.662 216.714C371.449 216.959 371.342 217.237 371.342 217.546C371.342 217.898 371.508 218.154 371.838 218.314C372.169 218.485 372.681 218.57 373.374 218.57ZM377.881 203.514H379.049V208.202C379.742 207.455 380.494 207.082 381.305 207.082C381.764 207.082 382.116 207.253 382.361 207.594C382.606 207.935 382.729 208.421 382.729 209.05V216.474H381.545V209.306C381.545 208.837 381.47 208.501 381.321 208.298C381.182 208.095 380.964 207.994 380.665 207.994C380.409 207.994 380.137 208.074 379.849 208.234C379.572 208.394 379.305 208.607 379.049 208.874V216.474H377.881V203.514ZM386.651 216.586C386.021 216.586 385.584 216.415 385.339 216.074C385.104 215.722 384.987 215.215 384.987 214.554V207.994H383.851V207.226H384.987V204.362H386.155V207.226H387.691V207.994H386.155V214.442C386.155 214.911 386.208 215.237 386.315 215.418C386.421 215.589 386.64 215.674 386.971 215.674C387.173 215.674 387.397 215.647 387.643 215.594V216.49C387.312 216.554 386.981 216.586 386.651 216.586Z" fill="black"/>
<circle r="65.73" transform="matrix(1 0 0 -1 118.091 209.729)" fill="#FFDB7A"/>
<path d="M76.9859 186.803H78.2019V198.851H81.8819V199.763H76.9859V186.803ZM85.1753 199.907C84.5779 199.907 84.0979 199.79 83.7353 199.555C83.3726 199.32 83.1059 198.942 82.9353 198.419C82.7646 197.896 82.6793 197.187 82.6793 196.291V193.955C82.6793 193.048 82.7646 192.339 82.9353 191.827C83.1166 191.304 83.3886 190.931 83.7513 190.707C84.1246 190.483 84.6046 190.371 85.1913 190.371C85.8313 190.371 86.3219 190.51 86.6633 190.787C87.0153 191.054 87.2553 191.459 87.3833 192.003C87.5219 192.547 87.5913 193.278 87.5913 194.195V195.027H83.8473V196.643C83.8473 197.528 83.9486 198.147 84.1513 198.499C84.3539 198.851 84.6953 199.027 85.1753 199.027C85.5806 199.027 85.8899 198.899 86.1033 198.643C86.3273 198.387 86.4393 197.923 86.4393 197.251V196.611H87.5753V197.123C87.5753 198.019 87.3886 198.707 87.0153 199.187C86.6419 199.667 86.0286 199.907 85.1753 199.907ZM86.4393 194.355V193.587C86.4393 193.032 86.4073 192.595 86.3433 192.275C86.2899 191.955 86.1726 191.704 85.9913 191.523C85.8099 191.342 85.5379 191.251 85.1753 191.251C84.8446 191.251 84.5833 191.326 84.3913 191.475C84.1993 191.614 84.0606 191.864 83.9753 192.227C83.8899 192.579 83.8473 193.08 83.8473 193.731V194.355H86.4393ZM90.7678 199.907C90.2131 199.907 89.7651 199.71 89.4238 199.315C89.0824 198.92 88.9118 198.43 88.9118 197.843C88.9118 197.235 89.0291 196.734 89.2638 196.339C89.5091 195.944 89.8824 195.592 90.3838 195.283C90.8851 194.974 91.6371 194.595 92.6398 194.147V193.491C92.6398 192.915 92.6024 192.467 92.5278 192.147C92.4638 191.827 92.3464 191.598 92.1758 191.459C92.0158 191.32 91.7864 191.251 91.4878 191.251C90.6238 191.251 90.1918 191.779 90.1918 192.835V193.155L89.0398 193.139C89.0504 192.19 89.2531 191.491 89.6478 191.043C90.0424 190.595 90.6771 190.371 91.5518 190.371C92.3624 190.371 92.9384 190.616 93.2798 191.107C93.6318 191.598 93.8078 192.371 93.8078 193.427V197.923C93.8078 198.222 93.8131 198.563 93.8238 198.947C93.8451 199.331 93.8664 199.603 93.8878 199.763H92.8478L92.6718 198.483C92.5331 198.888 92.2931 199.23 91.9518 199.507C91.6211 199.774 91.2264 199.907 90.7678 199.907ZM91.1358 198.915C91.4558 198.915 91.7438 198.808 91.9998 198.595C92.2664 198.371 92.4798 198.11 92.6398 197.811V194.931C91.9144 195.315 91.3864 195.614 91.0558 195.827C90.7358 196.04 90.4904 196.28 90.3198 196.547C90.1598 196.803 90.0798 197.139 90.0798 197.555C90.0798 198.014 90.1758 198.355 90.3678 198.579C90.5704 198.803 90.8264 198.915 91.1358 198.915ZM95.6071 190.515H96.7911V191.779C97.0685 191.32 97.3938 190.979 97.7671 190.755C98.1511 190.531 98.5351 190.419 98.9191 190.419C98.9938 190.419 99.0631 190.424 99.1271 190.435V191.683C98.9351 191.619 98.7431 191.587 98.5511 191.587C97.8151 191.587 97.2285 191.944 96.7911 192.659V199.763H95.6071V190.515ZM100.277 190.515H101.445V191.475C101.754 191.134 102.096 190.867 102.469 190.675C102.853 190.472 103.253 190.371 103.669 190.371C104.128 190.371 104.48 190.542 104.725 190.883C104.97 191.224 105.093 191.71 105.093 192.339V199.763H103.925V192.595C103.925 192.126 103.85 191.79 103.701 191.587C103.562 191.384 103.344 191.283 103.045 191.283C102.789 191.283 102.522 191.363 102.245 191.523C101.968 191.672 101.701 191.88 101.445 192.147V199.763H100.277V190.515ZM111.69 199.907C111.135 199.907 110.687 199.71 110.346 199.315C110.004 198.92 109.834 198.43 109.834 197.843C109.834 197.235 109.951 196.734 110.186 196.339C110.431 195.944 110.804 195.592 111.306 195.283C111.807 194.974 112.559 194.595 113.562 194.147V193.491C113.562 192.915 113.524 192.467 113.45 192.147C113.386 191.827 113.268 191.598 113.098 191.459C112.938 191.32 112.708 191.251 112.41 191.251C111.546 191.251 111.114 191.779 111.114 192.835V193.155L109.962 193.139C109.972 192.19 110.175 191.491 110.57 191.043C110.964 190.595 111.599 190.371 112.474 190.371C113.284 190.371 113.86 190.616 114.202 191.107C114.554 191.598 114.73 192.371 114.73 193.427V197.923C114.73 198.222 114.735 198.563 114.746 198.947C114.767 199.331 114.788 199.603 114.81 199.763H113.77L113.594 198.483C113.455 198.888 113.215 199.23 112.874 199.507C112.543 199.774 112.148 199.907 111.69 199.907ZM112.058 198.915C112.378 198.915 112.666 198.808 112.922 198.595C113.188 198.371 113.402 198.11 113.562 197.811V194.931C112.836 195.315 112.308 195.614 111.978 195.827C111.658 196.04 111.412 196.28 111.242 196.547C111.082 196.803 111.002 197.139 111.002 197.555C111.002 198.014 111.098 198.355 111.29 198.579C111.492 198.803 111.748 198.915 112.058 198.915ZM119.281 199.907C118.684 199.907 118.134 199.614 117.633 199.027V199.763H116.465V186.803H117.633V191.283C117.836 191.016 118.086 190.798 118.385 190.627C118.684 190.456 119.02 190.371 119.393 190.371C120.204 190.371 120.758 190.707 121.057 191.379C121.356 192.051 121.505 192.942 121.505 194.051V196.003C121.505 197.272 121.34 198.243 121.009 198.915C120.678 199.576 120.102 199.907 119.281 199.907ZM119.073 198.979C119.574 198.979 119.905 198.75 120.065 198.291C120.236 197.832 120.321 197.08 120.321 196.035V194.051C120.321 193.059 120.236 192.35 120.065 191.923C119.905 191.496 119.569 191.283 119.057 191.283C118.588 191.283 118.113 191.523 117.633 192.003V198.307C118.038 198.755 118.518 198.979 119.073 198.979ZM125.393 199.907C124.476 199.907 123.836 199.624 123.473 199.059C123.111 198.483 122.929 197.603 122.929 196.419V193.859C122.929 192.675 123.111 191.8 123.473 191.235C123.836 190.659 124.476 190.371 125.393 190.371C126.321 190.371 126.967 190.659 127.329 191.235C127.692 191.8 127.873 192.675 127.873 193.859V196.419C127.873 197.603 127.692 198.483 127.329 199.059C126.967 199.624 126.321 199.907 125.393 199.907ZM125.393 199.027C125.777 199.027 126.06 198.926 126.241 198.723C126.433 198.52 126.556 198.248 126.609 197.907C126.663 197.555 126.689 197.08 126.689 196.483V193.795C126.689 193.198 126.663 192.728 126.609 192.387C126.556 192.035 126.433 191.758 126.241 191.555C126.06 191.352 125.777 191.251 125.393 191.251C125.009 191.251 124.727 191.352 124.545 191.555C124.364 191.758 124.247 192.035 124.193 192.387C124.14 192.728 124.113 193.198 124.113 193.795V196.483C124.113 197.08 124.14 197.555 124.193 197.907C124.247 198.248 124.364 198.52 124.545 198.723C124.727 198.926 125.009 199.027 125.393 199.027ZM130.856 199.907C130.387 199.907 130.029 199.736 129.784 199.395C129.539 199.054 129.416 198.568 129.416 197.939V190.515H130.6V197.683C130.6 198.152 130.669 198.488 130.808 198.691C130.957 198.883 131.181 198.979 131.48 198.979C131.747 198.979 132.019 198.899 132.296 198.739C132.584 198.568 132.856 198.344 133.112 198.067V190.515H134.28V199.763H133.112V198.739C132.803 199.102 132.456 199.39 132.072 199.603C131.688 199.806 131.283 199.907 130.856 199.907ZM138.282 199.875C137.652 199.875 137.215 199.704 136.97 199.363C136.735 199.011 136.618 198.504 136.618 197.843V191.283H135.482V190.515H136.618V187.651H137.786V190.515H139.322V191.283H137.786V197.731C137.786 198.2 137.839 198.526 137.946 198.707C138.052 198.878 138.271 198.963 138.602 198.963C138.804 198.963 139.028 198.936 139.274 198.883V199.779C138.943 199.843 138.612 199.875 138.282 199.875ZM146.032 199.875C145.402 199.875 144.965 199.704 144.72 199.363C144.485 199.011 144.368 198.504 144.368 197.843V191.283H143.232V190.515H144.368V187.651H145.536V190.515H147.072V191.283H145.536V197.731C145.536 198.2 145.589 198.526 145.696 198.707C145.802 198.878 146.021 198.963 146.352 198.963C146.554 198.963 146.778 198.936 147.024 198.883V199.779C146.693 199.843 146.362 199.875 146.032 199.875ZM148.34 186.803H149.508V191.491C150.201 190.744 150.953 190.371 151.764 190.371C152.223 190.371 152.575 190.542 152.82 190.883C153.065 191.224 153.188 191.71 153.188 192.339V199.763H152.004V192.595C152.004 192.126 151.929 191.79 151.78 191.587C151.641 191.384 151.423 191.283 151.124 191.283C150.868 191.283 150.596 191.363 150.308 191.523C150.031 191.683 149.764 191.896 149.508 192.163V199.763H148.34V186.803ZM157.238 199.907C156.64 199.907 156.16 199.79 155.798 199.555C155.435 199.32 155.168 198.942 154.998 198.419C154.827 197.896 154.742 197.187 154.742 196.291V193.955C154.742 193.048 154.827 192.339 154.998 191.827C155.179 191.304 155.451 190.931 155.814 190.707C156.187 190.483 156.667 190.371 157.254 190.371C157.894 190.371 158.384 190.51 158.726 190.787C159.078 191.054 159.318 191.459 159.446 192.003C159.584 192.547 159.654 193.278 159.654 194.195V195.027H155.91V196.643C155.91 197.528 156.011 198.147 156.214 198.499C156.416 198.851 156.758 199.027 157.238 199.027C157.643 199.027 157.952 198.899 158.166 198.643C158.39 198.387 158.502 197.923 158.502 197.251V196.611H159.638V197.123C159.638 198.019 159.451 198.707 159.078 199.187C158.704 199.667 158.091 199.907 157.238 199.907ZM158.502 194.355V193.587C158.502 193.032 158.47 192.595 158.406 192.275C158.352 191.955 158.235 191.704 158.054 191.523C157.872 191.342 157.6 191.251 157.238 191.251C156.907 191.251 156.646 191.326 156.454 191.475C156.262 191.614 156.123 191.864 156.038 192.227C155.952 192.579 155.91 193.08 155.91 193.731V194.355H158.502ZM96.4787 223.907C95.924 223.907 95.476 223.71 95.1347 223.315C94.7934 222.92 94.6227 222.43 94.6227 221.843C94.6227 221.235 94.74 220.734 94.9747 220.339C95.22 219.944 95.5934 219.592 96.0947 219.283C96.596 218.974 97.348 218.595 98.3507 218.147V217.491C98.3507 216.915 98.3134 216.467 98.2387 216.147C98.1747 215.827 98.0574 215.598 97.8867 215.459C97.7267 215.32 97.4974 215.251 97.1987 215.251C96.3347 215.251 95.9027 215.779 95.9027 216.835V217.155L94.7507 217.139C94.7614 216.19 94.964 215.491 95.3587 215.043C95.7534 214.595 96.388 214.371 97.2627 214.371C98.0734 214.371 98.6494 214.616 98.9907 215.107C99.3427 215.598 99.5187 216.371 99.5187 217.427V221.923C99.5187 222.222 99.524 222.563 99.5347 222.947C99.556 223.331 99.5774 223.603 99.5987 223.763H98.5587L98.3827 222.483C98.244 222.888 98.004 223.23 97.6627 223.507C97.332 223.774 96.9374 223.907 96.4787 223.907ZM96.8467 222.915C97.1667 222.915 97.4547 222.808 97.7107 222.595C97.9774 222.371 98.1907 222.11 98.3507 221.811V218.931C97.6254 219.315 97.0974 219.614 96.7667 219.827C96.4467 220.04 96.2014 220.28 96.0307 220.547C95.8707 220.803 95.7907 221.139 95.7907 221.555C95.7907 222.014 95.8867 222.355 96.0787 222.579C96.2814 222.803 96.5374 222.915 96.8467 222.915ZM102.598 223.907C102.129 223.907 101.771 223.736 101.526 223.395C101.281 223.054 101.158 222.568 101.158 221.939V214.515H102.342V221.683C102.342 222.152 102.411 222.488 102.55 222.691C102.699 222.883 102.923 222.979 103.222 222.979C103.489 222.979 103.761 222.899 104.038 222.739C104.326 222.568 104.598 222.344 104.854 222.067V214.515H106.022V223.763H104.854V222.739C104.545 223.102 104.198 223.39 103.814 223.603C103.43 223.806 103.025 223.907 102.598 223.907ZM109.88 223.907C109.09 223.907 108.52 223.608 108.168 223.011C107.826 222.414 107.656 221.422 107.656 220.035V218.323C107.656 217.011 107.81 216.024 108.12 215.363C108.429 214.702 109 214.371 109.832 214.371C110.429 214.371 110.973 214.638 111.464 215.171V210.803H112.632V223.763H111.464V223.107C110.973 223.64 110.445 223.907 109.88 223.907ZM110.12 222.979C110.568 222.979 111.016 222.776 111.464 222.371V215.939C110.973 215.502 110.514 215.283 110.088 215.283C109.597 215.283 109.261 215.491 109.08 215.907C108.909 216.323 108.824 217 108.824 217.939V220.131C108.824 221.134 108.909 221.859 109.08 222.307C109.261 222.755 109.608 222.979 110.12 222.979ZM114.569 211.651H115.737V213.235H114.569V211.651ZM114.569 214.515H115.737V223.763H114.569V214.515ZM120.027 223.907C119.429 223.907 118.949 223.79 118.587 223.555C118.224 223.32 117.957 222.942 117.787 222.419C117.616 221.896 117.531 221.187 117.531 220.291V217.955C117.531 217.048 117.616 216.339 117.787 215.827C117.968 215.304 118.24 214.931 118.603 214.707C118.976 214.483 119.456 214.371 120.043 214.371C120.683 214.371 121.173 214.51 121.515 214.787C121.867 215.054 122.107 215.459 122.235 216.003C122.373 216.547 122.443 217.278 122.443 218.195V219.027H118.699V220.643C118.699 221.528 118.8 222.147 119.003 222.499C119.205 222.851 119.547 223.027 120.027 223.027C120.432 223.027 120.741 222.899 120.955 222.643C121.179 222.387 121.291 221.923 121.291 221.251V220.611H122.427V221.123C122.427 222.019 122.24 222.707 121.867 223.187C121.493 223.667 120.88 223.907 120.027 223.907ZM121.291 218.355V217.587C121.291 217.032 121.259 216.595 121.195 216.275C121.141 215.955 121.024 215.704 120.843 215.523C120.661 215.342 120.389 215.251 120.027 215.251C119.696 215.251 119.435 215.326 119.243 215.475C119.051 215.614 118.912 215.864 118.827 216.227C118.741 216.579 118.699 217.08 118.699 217.731V218.355H121.291ZM124.019 214.515H125.187V215.475C125.497 215.134 125.838 214.867 126.211 214.675C126.595 214.472 126.995 214.371 127.411 214.371C127.87 214.371 128.222 214.542 128.467 214.883C128.713 215.224 128.835 215.71 128.835 216.339V223.763H127.667V216.595C127.667 216.126 127.593 215.79 127.443 215.587C127.305 215.384 127.086 215.283 126.787 215.283C126.531 215.283 126.265 215.363 125.987 215.523C125.71 215.672 125.443 215.88 125.187 216.147V223.763H124.019V214.515ZM132.87 223.907C132.188 223.907 131.665 223.758 131.302 223.459C130.94 223.15 130.694 222.739 130.566 222.227C130.449 221.704 130.39 221.048 130.39 220.259V218.099C130.39 217.203 130.46 216.488 130.598 215.955C130.748 215.422 130.998 215.027 131.35 214.771C131.713 214.504 132.22 214.371 132.87 214.371C133.777 214.371 134.396 214.622 134.726 215.123C135.057 215.614 135.222 216.35 135.222 217.331V217.779H134.134V217.331C134.134 216.787 134.092 216.366 134.006 216.067C133.932 215.768 133.804 215.56 133.622 215.443C133.441 215.315 133.19 215.251 132.87 215.251C132.508 215.251 132.23 215.336 132.038 215.507C131.857 215.678 131.729 215.95 131.654 216.323C131.59 216.686 131.558 217.214 131.558 217.907V220.499C131.558 221.139 131.596 221.64 131.67 222.003C131.745 222.366 131.878 222.627 132.07 222.787C132.262 222.947 132.534 223.027 132.886 223.027C133.249 223.027 133.516 222.952 133.686 222.803C133.868 222.643 133.985 222.408 134.038 222.099C134.102 221.79 134.134 221.358 134.134 220.803V220.291H135.222V220.739C135.222 221.432 135.158 222.008 135.03 222.467C134.913 222.915 134.684 223.267 134.342 223.523C134.001 223.779 133.51 223.907 132.87 223.907ZM139.105 223.907C138.508 223.907 138.028 223.79 137.665 223.555C137.302 223.32 137.036 222.942 136.865 222.419C136.694 221.896 136.609 221.187 136.609 220.291V217.955C136.609 217.048 136.694 216.339 136.865 215.827C137.046 215.304 137.318 214.931 137.681 214.707C138.054 214.483 138.534 214.371 139.121 214.371C139.761 214.371 140.252 214.51 140.593 214.787C140.945 215.054 141.185 215.459 141.313 216.003C141.452 216.547 141.521 217.278 141.521 218.195V219.027H137.777V220.643C137.777 221.528 137.878 222.147 138.081 222.499C138.284 222.851 138.625 223.027 139.105 223.027C139.51 223.027 139.82 222.899 140.033 222.643C140.257 222.387 140.369 221.923 140.369 221.251V220.611H141.505V221.123C141.505 222.019 141.318 222.707 140.945 223.187C140.572 223.667 139.958 223.907 139.105 223.907ZM140.369 218.355V217.587C140.369 217.032 140.337 216.595 140.273 216.275C140.22 215.955 140.102 215.704 139.921 215.523C139.74 215.342 139.468 215.251 139.105 215.251C138.774 215.251 138.513 215.326 138.321 215.475C138.129 215.614 137.99 215.864 137.905 216.227C137.82 216.579 137.777 217.08 137.777 217.731V218.355H140.369Z" fill="black"/>
<path d="M237.33 402.71C237.467 402.691 237.563 402.565 237.544 402.428L237.235 400.199C237.216 400.063 237.09 399.967 236.953 399.986C236.816 400.005 236.721 400.131 236.74 400.268L237.014 402.249L235.033 402.523C234.896 402.542 234.801 402.669 234.82 402.805C234.839 402.942 234.965 403.038 235.102 403.019L237.33 402.71ZM31.0425 246.692L31.4419 246.995L31.7436 246.596L31.3442 246.294L31.0425 246.692ZM35.4362 250.017L36.235 250.622L36.5367 250.223L35.7379 249.619L35.4362 250.017ZM40.2292 253.644L41.0281 254.249L41.3298 253.85L40.531 253.246L40.2292 253.644ZM45.0223 257.272L45.8212 257.876L46.1229 257.477L45.3241 256.873L45.0223 257.272ZM49.8154 260.899L50.6143 261.503L50.916 261.105L50.1171 260.5L49.8154 260.899ZM54.6085 264.526L55.4074 265.131L55.7091 264.732L54.9102 264.127L54.6085 264.526ZM59.4016 268.153L60.2004 268.758L60.5022 268.359L59.7033 267.755L59.4016 268.153ZM64.1947 271.78L64.9935 272.385L65.2952 271.986L64.4964 271.382L64.1947 271.78ZM68.9878 275.408L69.7866 276.012L70.0883 275.613L69.2895 275.009L68.9878 275.408ZM73.7808 279.035L74.5797 279.639L74.8814 279.241L74.0826 278.636L73.7808 279.035ZM78.5739 282.662L79.3728 283.267L79.6745 282.868L78.8757 282.263L78.5739 282.662ZM83.367 286.289L84.1659 286.894L84.4676 286.495L83.6687 285.891L83.367 286.289ZM88.1601 289.916L88.9589 290.521L89.2607 290.122L88.4618 289.518L88.1601 289.916ZM92.9532 293.544L93.752 294.148L94.0538 293.749L93.2549 293.145L92.9532 293.544ZM97.7463 297.171L98.5451 297.775L98.8468 297.377L98.048 296.772L97.7463 297.171ZM102.539 300.798L103.338 301.403L103.64 301.004L102.841 300.399L102.539 300.798ZM107.332 304.425L108.131 305.03L108.433 304.631L107.634 304.026L107.332 304.425ZM112.126 308.052L112.924 308.657L113.226 308.258L112.427 307.654L112.126 308.052ZM116.919 311.68L117.717 312.284L118.019 311.885L117.22 311.281L116.919 311.68ZM121.712 315.307L122.511 315.911L122.812 315.513L122.013 314.908L121.712 315.307ZM126.505 318.934L127.304 319.539L127.605 319.14L126.806 318.535L126.505 318.934ZM131.298 322.561L132.097 323.166L132.398 322.767L131.6 322.162L131.298 322.561ZM136.091 326.188L136.89 326.793L137.191 326.394L136.393 325.79L136.091 326.188ZM140.884 329.816L141.683 330.42L141.985 330.021L141.186 329.417L140.884 329.816ZM145.677 333.443L146.476 334.047L146.778 333.649L145.979 333.044L145.677 333.443ZM150.47 337.07L151.269 337.674L151.571 337.276L150.772 336.671L150.47 337.07ZM155.263 340.697L156.062 341.302L156.364 340.903L155.565 340.298L155.263 340.697ZM160.056 344.324L160.855 344.929L161.157 344.53L160.358 343.926L160.056 344.324ZM164.849 347.952L165.648 348.556L165.95 348.157L165.151 347.553L164.849 347.952ZM169.642 351.579L170.441 352.183L170.743 351.785L169.944 351.18L169.642 351.579ZM174.436 355.206L175.234 355.81L175.536 355.412L174.737 354.807L174.436 355.206ZM179.229 358.833L180.027 359.438L180.329 359.039L179.53 358.434L179.229 358.833ZM184.022 362.46L184.821 363.065L185.122 362.666L184.323 362.062L184.022 362.46ZM188.815 366.088L189.614 366.692L189.915 366.293L189.117 365.689L188.815 366.088ZM193.608 369.715L194.407 370.319L194.708 369.921L193.91 369.316L193.608 369.715ZM198.401 373.342L199.2 373.946L199.502 373.548L198.703 372.943L198.401 373.342ZM203.194 376.969L203.993 377.574L204.295 377.175L203.496 376.57L203.194 376.969ZM207.987 380.596L208.786 381.201L209.088 380.802L208.289 380.198L207.987 380.596ZM212.78 384.223L213.579 384.828L213.881 384.429L213.082 383.825L212.78 384.223ZM217.573 387.851L218.372 388.455L218.674 388.056L217.875 387.452L217.573 387.851ZM222.366 391.478L223.165 392.082L223.467 391.684L222.668 391.079L222.366 391.478ZM227.159 395.105L227.958 395.71L228.26 395.311L227.461 394.706L227.159 395.105ZM231.952 398.732L232.751 399.337L233.053 398.938L232.254 398.334L231.952 398.732ZM236.746 402.359L237.145 402.662L237.447 402.263L237.047 401.961L236.746 402.359ZM237.365 402.958C237.638 402.92 237.829 402.667 237.791 402.394L237.174 397.936C237.136 397.663 236.884 397.472 236.61 397.51C236.337 397.548 236.146 397.8 236.184 398.074L236.732 402.036L232.77 402.584C232.496 402.622 232.305 402.875 232.343 403.148C232.381 403.422 232.634 403.613 232.907 403.575L237.365 402.958ZM30.8916 246.892L31.2911 247.194L31.8945 246.396L31.4951 246.094L30.8916 246.892ZM35.2853 250.217L36.0841 250.821L36.6876 250.024L35.8887 249.419L35.2853 250.217ZM40.0784 253.844L40.8772 254.448L41.4807 253.651L40.6818 253.046L40.0784 253.844ZM44.8715 257.471L45.6703 258.075L46.2738 257.278L45.4749 256.674L44.8715 257.471ZM49.6646 261.098L50.4634 261.703L51.0668 260.905L50.268 260.301L49.6646 261.098ZM54.4576 264.725L55.2565 265.33L55.8599 264.532L55.0611 263.928L54.4576 264.725ZM59.2507 268.353L60.0496 268.957L60.653 268.16L59.8542 267.555L59.2507 268.353ZM64.0438 271.98L64.8427 272.584L65.4461 271.787L64.6473 271.182L64.0438 271.98ZM68.8369 275.607L69.6357 276.211L70.2392 275.414L69.4403 274.81L68.8369 275.607ZM73.63 279.234L74.4288 279.839L75.0323 279.041L74.2334 278.437L73.63 279.234ZM78.4231 282.861L79.2219 283.466L79.8254 282.668L79.0265 282.064L78.4231 282.861ZM83.2162 286.489L84.015 287.093L84.6184 286.296L83.8196 285.691L83.2162 286.489ZM88.0092 290.116L88.8081 290.72L89.4115 289.923L88.6127 289.318L88.0092 290.116ZM92.8023 293.743L93.6012 294.347L94.2046 293.55L93.4058 292.946L92.8023 293.743ZM97.5954 297.37L98.3943 297.975L98.9977 297.177L98.1988 296.573L97.5954 297.37ZM102.388 300.997L103.187 301.602L103.791 300.804L102.992 300.2L102.388 300.997ZM107.182 304.625L107.98 305.229L108.584 304.432L107.785 303.827L107.182 304.625ZM111.975 308.252L112.774 308.856L113.377 308.059L112.578 307.454L111.975 308.252ZM116.768 311.879L117.567 312.483L118.17 311.686L117.371 311.082L116.768 311.879ZM121.561 315.506L122.36 316.111L122.963 315.313L122.164 314.709L121.561 315.506ZM126.354 319.133L127.153 319.738L127.756 318.94L126.957 318.336L126.354 319.133ZM131.147 322.761L131.946 323.365L132.549 322.568L131.75 321.963L131.147 322.761ZM135.94 326.388L136.739 326.992L137.342 326.195L136.544 325.59L135.94 326.388ZM140.733 330.015L141.532 330.619L142.135 329.822L141.337 329.218L140.733 330.015ZM145.526 333.642L146.325 334.247L146.929 333.449L146.13 332.845L145.526 333.642ZM150.319 337.269L151.118 337.874L151.722 337.076L150.923 336.472L150.319 337.269ZM155.112 340.897L155.911 341.501L156.515 340.704L155.716 340.099L155.112 340.897ZM159.905 344.524L160.704 345.128L161.308 344.331L160.509 343.726L159.905 344.524ZM164.699 348.151L165.497 348.755L166.101 347.958L165.302 347.353L164.699 348.151ZM169.492 351.778L170.29 352.383L170.894 351.585L170.095 350.981L169.492 351.778ZM174.285 355.405L175.084 356.01L175.687 355.212L174.888 354.608L174.285 355.405ZM179.078 359.032L179.877 359.637L180.48 358.84L179.681 358.235L179.078 359.032ZM183.871 362.66L184.67 363.264L185.273 362.467L184.474 361.862L183.871 362.66ZM188.664 366.287L189.463 366.891L190.066 366.094L189.267 365.489L188.664 366.287ZM193.457 369.914L194.256 370.519L194.859 369.721L194.06 369.117L193.457 369.914ZM198.25 373.541L199.049 374.146L199.652 373.348L198.854 372.744L198.25 373.541ZM203.043 377.168L203.842 377.773L204.445 376.976L203.647 376.371L203.043 377.168ZM207.836 380.796L208.635 381.4L209.239 380.603L208.44 379.998L207.836 380.796ZM212.629 384.423L213.428 385.027L214.032 384.23L213.233 383.625L212.629 384.423ZM217.422 388.05L218.221 388.655L218.825 387.857L218.026 387.253L217.422 388.05ZM222.215 391.677L223.014 392.282L223.618 391.484L222.819 390.88L222.215 391.677ZM227.009 395.304L227.807 395.909L228.411 395.112L227.612 394.507L227.009 395.304ZM231.802 398.932L232.6 399.536L233.204 398.739L232.405 398.134L231.802 398.932ZM236.595 402.559L236.994 402.861L237.598 402.064L237.198 401.761L236.595 402.559Z" fill="black"/>
<path d="M239.806 20.7515C239.67 20.7705 239.574 20.8967 239.593 21.0335L239.902 23.2622C239.921 23.399 240.047 23.4945 240.184 23.4755C240.32 23.4566 240.416 23.3304 240.397 23.1936L240.123 21.2125L242.104 20.9382C242.24 20.9193 242.336 20.7931 242.317 20.6563C242.298 20.5195 242.172 20.424 242.035 20.4429L239.806 20.7515ZM446.094 176.769L445.695 176.467L445.393 176.866L445.792 177.168L446.094 176.769ZM441.701 173.444L440.902 172.84L440.6 173.239L441.399 173.843L441.701 173.444ZM436.907 169.817L436.109 169.213L435.807 169.611L436.606 170.216L436.907 169.817ZM432.114 166.19L431.316 165.586L431.014 165.984L431.813 166.589L432.114 166.19ZM427.321 162.563L426.522 161.958L426.221 162.357L427.02 162.962L427.321 162.563ZM422.528 158.936L421.729 158.331L421.428 158.73L422.226 159.334L422.528 158.936ZM417.735 155.308L416.936 154.704L416.635 155.103L417.433 155.707L417.735 155.308ZM412.942 151.681L412.143 151.077L411.841 151.475L412.64 152.08L412.942 151.681ZM408.149 148.054L407.35 147.45L407.048 147.848L407.847 148.453L408.149 148.054ZM403.356 144.427L402.557 143.822L402.255 144.221L403.054 144.826L403.356 144.427ZM398.563 140.8L397.764 140.195L397.462 140.594L398.261 141.198L398.563 140.8ZM393.77 137.172L392.971 136.568L392.669 136.967L393.468 137.571L393.77 137.172ZM388.977 133.545L388.178 132.941L387.876 133.339L388.675 133.944L388.977 133.545ZM384.184 129.918L383.385 129.314L383.083 129.712L383.882 130.317L384.184 129.918ZM379.39 126.291L378.592 125.686L378.29 126.085L379.089 126.69L379.39 126.291ZM374.597 122.664L373.799 122.059L373.497 122.458L374.296 123.062L374.597 122.664ZM369.804 119.036L369.005 118.432L368.704 118.831L369.503 119.435L369.804 119.036ZM365.011 115.409L364.212 114.805L363.911 115.203L364.709 115.808L365.011 115.409ZM360.218 111.782L359.419 111.178L359.118 111.576L359.916 112.181L360.218 111.782ZM355.425 108.155L354.626 107.55L354.324 107.949L355.123 108.554L355.425 108.155ZM350.632 104.528L349.833 103.923L349.531 104.322L350.33 104.926L350.632 104.528ZM345.839 100.9L345.04 100.296L344.738 100.695L345.537 101.299L345.839 100.9ZM341.046 97.2733L340.247 96.6688L339.945 97.0675L340.744 97.672L341.046 97.2733ZM336.253 93.6461L335.454 93.0416L335.152 93.4403L335.951 94.0448L336.253 93.6461ZM331.46 90.0189L330.661 89.4144L330.359 89.8131L331.158 90.4176L331.46 90.0189ZM326.667 86.3917L325.868 85.7872L325.566 86.1859L326.365 86.7904L326.667 86.3917ZM321.873 82.7645L321.075 82.16L320.773 82.5587L321.572 83.1632L321.873 82.7645ZM317.08 79.1373L316.282 78.5328L315.98 78.9315L316.779 79.536L317.08 79.1373ZM312.287 75.5101L311.488 74.9056L311.187 75.3043L311.986 75.9088L312.287 75.5101ZM307.494 71.8829L306.695 71.2784L306.394 71.6771L307.193 72.2816L307.494 71.8829ZM302.701 68.2557L301.902 67.6512L301.601 68.0499L302.399 68.6544L302.701 68.2557ZM297.908 64.6285L297.109 64.024L296.808 64.4227L297.606 65.0272L297.908 64.6285ZM293.115 61.0013L292.316 60.3968L292.014 60.7955L292.813 61.4L293.115 61.0013ZM288.322 57.3742L287.523 56.7696L287.221 57.1683L288.02 57.7729L288.322 57.3742ZM283.529 53.747L282.73 53.1424L282.428 53.5411L283.227 54.1457L283.529 53.747ZM278.736 50.1198L277.937 49.5152L277.635 49.9139L278.434 50.5185L278.736 50.1198ZM273.943 46.4926L273.144 45.888L272.842 46.2867L273.641 46.8913L273.943 46.4926ZM269.15 42.8654L268.351 42.2609L268.049 42.6596L268.848 43.2641L269.15 42.8654ZM264.357 39.2382L263.558 38.6337L263.256 39.0324L264.055 39.6369L264.357 39.2382ZM259.563 35.611L258.765 35.0065L258.463 35.4052L259.262 36.0097L259.563 35.611ZM254.77 31.9838L253.972 31.3793L253.67 31.778L254.469 32.3825L254.77 31.9838ZM249.977 28.3566L249.178 27.7521L248.877 28.1508L249.676 28.7553L249.977 28.3566ZM245.184 24.7294L244.385 24.1249L244.084 24.5236L244.883 25.1281L245.184 24.7294ZM240.391 21.1022L239.992 20.7998L239.69 21.1985L240.089 21.5009L240.391 21.1022ZM239.772 20.5039C239.499 20.5418 239.308 20.7942 239.345 21.0677L239.963 25.5252C240 25.7988 240.253 25.9898 240.526 25.9519C240.8 25.914 240.991 25.6616 240.953 25.3881L240.405 21.4259L244.367 20.8773C244.64 20.8394 244.831 20.5869 244.793 20.3134C244.756 20.0399 244.503 19.8488 244.23 19.8867L239.772 20.5039ZM446.245 176.57L445.846 176.268L445.242 177.065L445.642 177.367L446.245 176.57ZM441.851 173.245L441.053 172.641L440.449 173.438L441.248 174.043L441.851 173.245ZM437.058 169.618L436.259 169.013L435.656 169.811L436.455 170.415L437.058 169.618ZM432.265 165.991L431.466 165.386L430.863 166.184L431.662 166.788L432.265 165.991ZM427.472 162.364L426.673 161.759L426.07 162.556L426.869 163.161L427.472 162.364ZM422.679 158.736L421.88 158.132L421.277 158.929L422.076 159.534L422.679 158.736ZM417.886 155.109L417.087 154.505L416.484 155.302L417.283 155.907L417.886 155.109ZM413.093 151.482L412.294 150.877L411.691 151.675L412.489 152.279L413.093 151.482ZM408.3 147.855L407.501 147.25L406.898 148.048L407.696 148.652L408.3 147.855ZM403.507 144.228L402.708 143.623L402.104 144.42L402.903 145.025L403.507 144.228ZM398.714 140.6L397.915 139.996L397.311 140.793L398.11 141.398L398.714 140.6ZM393.921 136.973L393.122 136.369L392.518 137.166L393.317 137.771L393.921 136.973ZM389.127 133.346L388.329 132.741L387.725 133.539L388.524 134.143L389.127 133.346ZM384.334 129.719L383.536 129.114L382.932 129.912L383.731 130.516L384.334 129.719ZM379.541 126.092L378.742 125.487L378.139 126.284L378.938 126.889L379.541 126.092ZM374.748 122.464L373.949 121.86L373.346 122.657L374.145 123.262L374.748 122.464ZM369.955 118.837L369.156 118.233L368.553 119.03L369.352 119.635L369.955 118.837ZM365.162 115.21L364.363 114.605L363.76 115.403L364.559 116.007L365.162 115.21ZM360.369 111.583L359.57 110.978L358.967 111.776L359.766 112.38L360.369 111.583ZM355.576 107.956L354.777 107.351L354.174 108.148L354.972 108.753L355.576 107.956ZM350.783 104.328L349.984 103.724L349.381 104.521L350.179 105.126L350.783 104.328ZM345.99 100.701L345.191 100.097L344.587 100.894L345.386 101.499L345.99 100.701ZM341.197 97.0739L340.398 96.4694L339.794 97.2668L340.593 97.8713L341.197 97.0739ZM336.404 93.4467L335.605 92.8422L335.001 93.6396L335.8 94.2441L336.404 93.4467ZM331.61 89.8195L330.812 89.215L330.208 90.0124L331.007 90.617L331.61 89.8195ZM326.817 86.1924L326.019 85.5878L325.415 86.3852L326.214 86.9898L326.817 86.1924ZM322.024 82.5652L321.225 81.9606L320.622 82.758L321.421 83.3626L322.024 82.5652ZM317.231 78.938L316.432 78.3334L315.829 79.1308L316.628 79.7354L317.231 78.938ZM312.438 75.3108L311.639 74.7062L311.036 75.5037L311.835 76.1082L312.438 75.3108ZM307.645 71.6836L306.846 71.079L306.243 71.8765L307.042 72.481L307.645 71.6836ZM302.852 68.0564L302.053 67.4519L301.45 68.2493L302.249 68.8538L302.852 68.0564ZM298.059 64.4292L297.26 63.8247L296.657 64.6221L297.456 65.2266L298.059 64.4292ZM293.266 60.802L292.467 60.1975L291.864 60.9949L292.662 61.5994L293.266 60.802ZM288.473 57.1748L287.674 56.5703L287.071 57.3677L287.869 57.9722L288.473 57.1748ZM283.68 53.5476L282.881 52.9431L282.277 53.7405L283.076 54.345L283.68 53.5476ZM278.887 49.9204L278.088 49.3159L277.484 50.1133L278.283 50.7178L278.887 49.9204ZM274.094 46.2932L273.295 45.6887L272.691 46.4861L273.49 47.0906L274.094 46.2932ZM269.3 42.666L268.502 42.0615L267.898 42.8589L268.697 43.4634L269.3 42.666ZM264.507 39.0388L263.709 38.4343L263.105 39.2317L263.904 39.8362L264.507 39.0388ZM259.714 35.4116L258.915 34.8071L258.312 35.6045L259.111 36.209L259.714 35.4116ZM254.921 31.7844L254.122 31.1799L253.519 31.9773L254.318 32.5819L254.921 31.7844ZM250.128 28.1573L249.329 27.5527L248.726 28.3501L249.525 28.9547L250.128 28.1573ZM245.335 24.5301L244.536 23.9255L243.933 24.7229L244.732 25.3275L245.335 24.5301ZM240.542 20.9029L240.142 20.6005L239.539 21.3979L239.939 21.7003L240.542 20.9029Z" fill="black"/>
<path d="M446.192 246.528C446.211 246.391 446.116 246.265 445.979 246.245L443.751 245.931C443.614 245.912 443.488 246.007 443.469 246.144C443.449 246.281 443.545 246.407 443.681 246.426L445.662 246.706L445.383 248.686C445.363 248.823 445.458 248.949 445.595 248.968C445.732 248.988 445.858 248.893 445.878 248.756L446.192 246.528ZM241.902 400.434L242.298 400.136L241.997 399.737L241.602 400.035L241.902 400.434ZM246.255 397.157L247.047 396.561L246.746 396.161L245.955 396.757L246.255 397.157ZM251.004 393.581L251.795 392.985L251.495 392.586L250.703 393.182L251.004 393.581ZM255.753 390.006L256.544 389.41L256.243 389.011L255.452 389.606L255.753 390.006ZM260.501 386.431L261.293 385.835L260.992 385.435L260.2 386.031L260.501 386.431ZM265.25 382.855L266.041 382.259L265.741 381.86L264.949 382.456L265.25 382.855ZM269.999 379.28L270.79 378.684L270.489 378.284L269.698 378.88L269.999 379.28ZM274.747 375.704L275.539 375.108L275.238 374.709L274.446 375.305L274.747 375.704ZM279.496 372.129L280.287 371.533L279.987 371.134L279.195 371.73L279.496 372.129ZM284.245 368.554L285.036 367.958L284.735 367.558L283.944 368.154L284.245 368.554ZM288.993 364.978L289.785 364.382L289.484 363.983L288.692 364.579L288.993 364.978ZM293.742 361.403L294.533 360.807L294.233 360.407L293.441 361.003L293.742 361.403ZM298.49 357.827L299.282 357.232L298.981 356.832L298.19 357.428L298.49 357.827ZM303.239 354.252L304.031 353.656L303.73 353.257L302.938 353.853L303.239 354.252ZM307.988 350.677L308.779 350.081L308.478 349.681L307.687 350.277L307.988 350.677ZM312.736 347.101L313.528 346.505L313.227 346.106L312.436 346.702L312.736 347.101ZM317.485 343.526L318.277 342.93L317.976 342.531L317.184 343.126L317.485 343.526ZM322.234 339.951L323.025 339.355L322.724 338.955L321.933 339.551L322.234 339.951ZM326.982 336.375L327.774 335.779L327.473 335.38L326.682 335.976L326.982 336.375ZM331.731 332.8L332.522 332.204L332.222 331.804L331.43 332.4L331.731 332.8ZM336.48 329.224L337.271 328.629L336.97 328.229L336.179 328.825L336.48 329.224ZM341.228 325.649L342.02 325.053L341.719 324.654L340.928 325.25L341.228 325.649ZM345.977 322.074L346.768 321.478L346.468 321.078L345.676 321.674L345.977 322.074ZM350.726 318.498L351.517 317.902L351.216 317.503L350.425 318.099L350.726 318.498ZM355.474 314.923L356.266 314.327L355.965 313.928L355.174 314.523L355.474 314.923ZM360.223 311.347L361.014 310.752L360.714 310.352L359.922 310.948L360.223 311.347ZM364.972 307.772L365.763 307.176L365.462 306.777L364.671 307.373L364.972 307.772ZM369.72 304.197L370.512 303.601L370.211 303.201L369.42 303.797L369.72 304.197ZM374.469 300.621L375.26 300.025L374.96 299.626L374.168 300.222L374.469 300.621ZM379.218 297.046L380.009 296.45L379.708 296.051L378.917 296.647L379.218 297.046ZM383.966 293.471L384.758 292.875L384.457 292.475L383.666 293.071L383.966 293.471ZM388.715 289.895L389.506 289.299L389.206 288.9L388.414 289.496L388.715 289.895ZM393.464 286.32L394.255 285.724L393.954 285.324L393.163 285.92L393.464 286.32ZM398.212 282.744L399.004 282.149L398.703 281.749L397.912 282.345L398.212 282.744ZM402.961 279.169L403.752 278.573L403.452 278.174L402.66 278.77L402.961 279.169ZM407.71 275.594L408.501 274.998L408.2 274.598L407.409 275.194L407.71 275.594ZM412.458 272.018L413.25 271.422L412.949 271.023L412.157 271.619L412.458 272.018ZM417.207 268.443L417.998 267.847L417.698 267.448L416.906 268.043L417.207 268.443ZM421.956 264.867L422.747 264.272L422.446 263.872L421.655 264.468L421.956 264.867ZM426.704 261.292L427.496 260.696L427.195 260.297L426.403 260.893L426.704 261.292ZM431.453 257.717L432.244 257.121L431.944 256.721L431.152 257.317L431.453 257.717ZM436.202 254.141L436.993 253.545L436.692 253.146L435.901 253.742L436.202 254.141ZM440.95 250.566L441.742 249.97L441.441 249.571L440.649 250.167L440.95 250.566ZM445.699 246.991L446.095 246.693L445.794 246.293L445.398 246.591L445.699 246.991ZM446.439 246.563C446.478 246.289 446.287 246.036 446.014 245.998L441.558 245.37C441.285 245.331 441.032 245.522 440.993 245.795C440.955 246.069 441.145 246.321 441.418 246.36L445.379 246.918L444.821 250.879C444.782 251.153 444.973 251.405 445.246 251.444C445.52 251.483 445.773 251.292 445.811 251.019L446.439 246.563ZM242.053 400.634L242.448 400.336L241.847 399.537L241.451 399.835L242.053 400.634ZM246.406 397.356L247.197 396.76L246.596 395.962L245.804 396.558L246.406 397.356ZM251.154 393.781L251.946 393.185L251.344 392.386L250.553 392.982L251.154 393.781ZM255.903 390.206L256.694 389.61L256.093 388.811L255.301 389.407L255.903 390.206ZM260.652 386.63L261.443 386.034L260.842 385.235L260.05 385.831L260.652 386.63ZM265.4 383.055L266.192 382.459L265.59 381.66L264.799 382.256L265.4 383.055ZM270.149 379.479L270.94 378.884L270.339 378.085L269.547 378.681L270.149 379.479ZM274.898 375.904L275.689 375.308L275.088 374.509L274.296 375.105L274.898 375.904ZM279.646 372.329L280.438 371.733L279.836 370.934L279.045 371.53L279.646 372.329ZM284.395 368.753L285.186 368.157L284.585 367.359L283.793 367.954L284.395 368.753ZM289.144 365.178L289.935 364.582L289.333 363.783L288.542 364.379L289.144 365.178ZM293.892 361.603L294.684 361.007L294.082 360.208L293.291 360.804L293.892 361.603ZM298.641 358.027L299.432 357.431L298.831 356.632L298.039 357.228L298.641 358.027ZM303.39 354.452L304.181 353.856L303.579 353.057L302.788 353.653L303.39 354.452ZM308.138 350.876L308.93 350.281L308.328 349.482L307.537 350.078L308.138 350.876ZM312.887 347.301L313.678 346.705L313.077 345.906L312.285 346.502L312.887 347.301ZM317.635 343.726L318.427 343.13L317.825 342.331L317.034 342.927L317.635 343.726ZM322.384 340.15L323.176 339.554L322.574 338.755L321.783 339.351L322.384 340.15ZM327.133 336.575L327.924 335.979L327.323 335.18L326.531 335.776L327.133 336.575ZM331.881 333L332.673 332.404L332.071 331.605L331.28 332.201L331.881 333ZM336.63 329.424L337.422 328.828L336.82 328.029L336.029 328.625L336.63 329.424ZM341.379 325.849L342.17 325.253L341.569 324.454L340.777 325.05L341.379 325.849ZM346.127 322.273L346.919 321.677L346.317 320.879L345.526 321.474L346.127 322.273ZM350.876 318.698L351.667 318.102L351.066 317.303L350.275 317.899L350.876 318.698ZM355.625 315.123L356.416 314.527L355.815 313.728L355.023 314.324L355.625 315.123ZM360.373 311.547L361.165 310.951L360.563 310.152L359.772 310.748L360.373 311.547ZM365.122 307.972L365.913 307.376L365.312 306.577L364.521 307.173L365.122 307.972ZM369.871 304.396L370.662 303.801L370.061 303.002L369.269 303.598L369.871 304.396ZM374.619 300.821L375.411 300.225L374.809 299.426L374.018 300.022L374.619 300.821ZM379.368 297.246L380.159 296.65L379.558 295.851L378.766 296.447L379.368 297.246ZM384.117 293.67L384.908 293.074L384.307 292.276L383.515 292.871L384.117 293.67ZM388.865 290.095L389.657 289.499L389.055 288.7L388.264 289.296L388.865 290.095ZM393.614 286.52L394.405 285.924L393.804 285.125L393.012 285.721L393.614 286.52ZM398.363 282.944L399.154 282.348L398.553 281.549L397.761 282.145L398.363 282.944ZM403.111 279.369L403.903 278.773L403.301 277.974L402.51 278.57L403.111 279.369ZM407.86 275.793L408.651 275.197L408.05 274.399L407.258 274.994L407.86 275.793ZM412.609 272.218L413.4 271.622L412.799 270.823L412.007 271.419L412.609 272.218ZM417.357 268.643L418.149 268.047L417.547 267.248L416.756 267.844L417.357 268.643ZM422.106 265.067L422.897 264.471L422.296 263.672L421.504 264.268L422.106 265.067ZM426.855 261.492L427.646 260.896L427.045 260.097L426.253 260.693L426.855 261.492ZM431.603 257.916L432.395 257.321L431.793 256.522L431.002 257.118L431.603 257.916ZM436.352 254.341L437.143 253.745L436.542 252.946L435.75 253.542L436.352 254.341ZM441.101 250.766L441.892 250.17L441.29 249.371L440.499 249.967L441.101 250.766ZM445.849 247.19L446.245 246.892L445.643 246.093L445.248 246.391L445.849 247.19Z" fill="black"/>
<path d="M30.945 176.934C30.9257 177.071 31.021 177.197 31.1577 177.216L33.3857 177.53C33.5224 177.55 33.6488 177.455 33.6681 177.318C33.6874 177.181 33.5922 177.055 33.4554 177.035L31.475 176.756L31.7542 174.776C31.7734 174.639 31.6782 174.513 31.5415 174.493C31.4048 174.474 31.2783 174.569 31.2591 174.706L30.945 176.934ZM235.234 23.0277L234.839 23.3256L235.139 23.7251L235.535 23.4271L235.234 23.0277ZM230.881 26.3051L230.09 26.901L230.391 27.3005L231.182 26.7046L230.881 26.3051ZM226.133 29.8805L225.341 30.4764L225.642 30.8758L226.434 30.28L226.133 29.8805ZM221.384 33.4559L220.593 34.0518L220.893 34.4512L221.685 33.8553L221.384 33.4559ZM216.635 37.0313L215.844 37.6272L216.145 38.0266L216.936 37.4307L216.635 37.0313ZM211.887 40.6067L211.095 41.2026L211.396 41.602L212.188 41.0061L211.887 40.6067ZM207.138 44.182L206.347 44.7779L206.647 45.1774L207.439 44.5815L207.138 44.182ZM202.39 47.7574L201.598 48.3533L201.899 48.7528L202.69 48.1569L202.39 47.7574ZM197.641 51.3328L196.849 51.9287L197.15 52.3282L197.942 51.7323L197.641 51.3328ZM192.892 54.9082L192.101 55.5041L192.402 55.9035L193.193 55.3076L192.892 54.9082ZM188.144 58.4836L187.352 59.0795L187.653 59.4789L188.444 58.883L188.144 58.4836ZM183.395 62.059L182.603 62.6549L182.904 63.0543L183.696 62.4584L183.395 62.059ZM178.646 65.6343L177.855 66.2302L178.156 66.6297L178.947 66.0338L178.646 65.6343ZM173.898 69.2097L173.106 69.8056L173.407 70.2051L174.198 69.6092L173.898 69.2097ZM169.149 72.7851L168.357 73.381L168.658 73.7804L169.45 73.1845L169.149 72.7851ZM164.4 76.3605L163.609 76.9564L163.91 77.3558L164.701 76.7599L164.4 76.3605ZM159.652 79.9359L158.86 80.5318L159.161 80.9312L159.952 80.3353L159.652 79.9359ZM154.903 83.5112L154.112 84.1071L154.412 84.5066L155.204 83.9107L154.903 83.5112ZM150.154 87.0866L149.363 87.6825L149.664 88.082L150.455 87.4861L150.154 87.0866ZM145.406 90.662L144.614 91.2579L144.915 91.6573L145.706 91.0614L145.406 90.662ZM140.657 94.2374L139.866 94.8333L140.166 95.2327L140.958 94.6368L140.657 94.2374ZM135.908 97.8128L135.117 98.4087L135.418 98.8081L136.209 98.2122L135.908 97.8128ZM131.16 101.388L130.368 101.984L130.669 102.383L131.46 101.788L131.16 101.388ZM126.411 104.964L125.62 105.559L125.92 105.959L126.712 105.363L126.411 104.964ZM121.662 108.539L120.871 109.135L121.172 109.534L121.963 108.938L121.662 108.539ZM116.914 112.114L116.122 112.71L116.423 113.11L117.214 112.514L116.914 112.114ZM112.165 115.69L111.374 116.286L111.674 116.685L112.466 116.089L112.165 115.69ZM107.416 119.265L106.625 119.861L106.926 120.26L107.717 119.665L107.416 119.265ZM102.668 122.84L101.876 123.436L102.177 123.836L102.969 123.24L102.668 122.84ZM97.9191 126.416L97.1277 127.012L97.4284 127.411L98.2199 126.815L97.9191 126.416ZM93.1704 129.991L92.379 130.587L92.6798 130.987L93.4712 130.391L93.1704 129.991ZM88.4218 133.567L87.6303 134.163L87.9311 134.562L88.7225 133.966L88.4218 133.567ZM83.6731 137.142L82.8817 137.738L83.1824 138.137L83.9739 137.541L83.6731 137.142ZM78.9245 140.717L78.133 141.313L78.4338 141.713L79.2252 141.117L78.9245 140.717ZM74.1758 144.293L73.3844 144.889L73.6851 145.288L74.4766 144.692L74.1758 144.293ZM69.4271 147.868L68.6357 148.464L68.9365 148.863L69.7279 148.268L69.4271 147.868ZM64.6785 151.444L63.887 152.039L64.1878 152.439L64.9792 151.843L64.6785 151.444ZM59.9298 155.019L59.1384 155.615L59.4391 156.014L60.2306 155.418L59.9298 155.019ZM55.1812 158.594L54.3897 159.19L54.6905 159.59L55.4819 158.994L55.1812 158.594ZM50.4325 162.17L49.6411 162.766L49.9418 163.165L50.7333 162.569L50.4325 162.17ZM45.6839 165.745L44.8924 166.341L45.1932 166.74L45.9846 166.145L45.6839 165.745ZM40.9352 169.32L40.1438 169.916L40.4445 170.316L41.2359 169.72L40.9352 169.32ZM36.1865 172.896L35.3951 173.492L35.6958 173.891L36.4873 173.295L36.1865 172.896ZM31.4379 176.471L31.0422 176.769L31.3429 177.169L31.7386 176.871L31.4379 176.471ZM30.6975 176.899C30.6589 177.173 30.8493 177.425 31.1228 177.464L35.5787 178.092C35.8522 178.131 36.1051 177.94 36.1436 177.667C36.1822 177.393 35.9918 177.14 35.7183 177.102L31.7575 176.544L32.3157 172.583C32.3543 172.309 32.1639 172.056 31.8904 172.018C31.617 171.979 31.3641 172.17 31.3255 172.443L30.6975 176.899ZM235.084 22.828L234.688 23.1259L235.29 23.9248L235.686 23.6269L235.084 22.828ZM230.731 26.1054L229.94 26.7013L230.541 27.5002L231.333 26.9043L230.731 26.1054ZM225.982 29.6808L225.191 30.2767L225.792 31.0756L226.584 30.4797L225.982 29.6808ZM221.234 33.2562L220.442 33.8521L221.044 34.651L221.835 34.0551L221.234 33.2562ZM216.485 36.8316L215.694 37.4275L216.295 38.2263L217.087 37.6304L216.485 36.8316ZM211.736 40.4069L210.945 41.0028L211.547 41.8017L212.338 41.2058L211.736 40.4069ZM206.988 43.9823L206.196 44.5782L206.798 45.3771L207.589 44.7812L206.988 43.9823ZM202.239 47.5577L201.448 48.1536L202.049 48.9525L202.841 48.3566L202.239 47.5577ZM197.49 51.1331L196.699 51.729L197.301 52.5279L198.092 51.932L197.49 51.1331ZM192.742 54.7085L191.95 55.3044L192.552 56.1033L193.343 55.5074L192.742 54.7085ZM187.993 58.2839L187.202 58.8798L187.803 59.6786L188.595 59.0827L187.993 58.2839ZM183.245 61.8592L182.453 62.4551L183.055 63.254L183.846 62.6581L183.245 61.8592ZM178.496 65.4346L177.704 66.0305L178.306 66.8294L179.097 66.2335L178.496 65.4346ZM173.747 69.01L172.956 69.6059L173.557 70.4048L174.349 69.8089L173.747 69.01ZM168.999 72.5854L168.207 73.1813L168.809 73.9802L169.6 73.3843L168.999 72.5854ZM164.25 76.1608L163.458 76.7567L164.06 77.5555L164.851 76.9596L164.25 76.1608ZM159.501 79.7362L158.71 80.332L159.311 81.1309L160.103 80.535L159.501 79.7362ZM154.753 83.3115L153.961 83.9074L154.563 84.7063L155.354 84.1104L154.753 83.3115ZM150.004 86.8869L149.213 87.4828L149.814 88.2817L150.605 87.6858L150.004 86.8869ZM145.255 90.4623L144.464 91.0582L145.065 91.8571L145.857 91.2612L145.255 90.4623ZM140.507 94.0377L139.715 94.6336L140.317 95.4324L141.108 94.8365L140.507 94.0377ZM135.758 97.613L134.967 98.2089L135.568 99.0078L136.359 98.4119L135.758 97.613ZM131.009 101.188L130.218 101.784L130.819 102.583L131.611 101.987L131.009 101.188ZM126.261 104.764L125.469 105.36L126.071 106.159L126.862 105.563L126.261 104.764ZM121.512 108.339L120.721 108.935L121.322 109.734L122.114 109.138L121.512 108.339ZM116.763 111.915L115.972 112.51L116.573 113.309L117.365 112.713L116.763 111.915ZM112.015 115.49L111.223 116.086L111.825 116.885L112.616 116.289L112.015 115.49ZM107.266 119.065L106.475 119.661L107.076 120.46L107.868 119.864L107.266 119.065ZM102.517 122.641L101.726 123.237L102.327 124.036L103.119 123.44L102.517 122.641ZM97.7687 126.216L96.9773 126.812L97.5788 127.611L98.3702 127.015L97.7687 126.216ZM93.0201 129.792L92.2286 130.387L92.8301 131.186L93.6216 130.59L93.0201 129.792ZM88.2714 133.367L87.48 133.963L88.0815 134.762L88.8729 134.166L88.2714 133.367ZM83.5227 136.942L82.7313 137.538L83.3328 138.337L84.1242 137.741L83.5227 136.942ZM78.7741 140.518L77.9827 141.114L78.5842 141.912L79.3756 141.317L78.7741 140.518ZM74.0254 144.093L73.234 144.689L73.8355 145.488L74.6269 144.892L74.0254 144.093ZM69.2768 147.668L68.4853 148.264L69.0868 149.063L69.8783 148.467L69.2768 147.668ZM64.5281 151.244L63.7367 151.84L64.3382 152.639L65.1296 152.043L64.5281 151.244ZM59.7795 154.819L58.988 155.415L59.5895 156.214L60.381 155.618L59.7795 154.819ZM55.0308 158.395L54.2394 158.99L54.8409 159.789L55.6323 159.193L55.0308 158.395ZM50.2821 161.97L49.4907 162.566L50.0922 163.365L50.8836 162.769L50.2821 161.97ZM45.5335 165.545L44.742 166.141L45.3435 166.94L46.135 166.344L45.5335 165.545ZM40.7848 169.121L39.9934 169.717L40.5949 170.516L41.3863 169.92L40.7848 169.121ZM36.0362 172.696L35.2447 173.292L35.8462 174.091L36.6377 173.495L36.0362 172.696ZM31.2875 176.272L30.8918 176.569L31.4933 177.368L31.889 177.07L31.2875 176.272Z" fill="black"/>
<path d="M298.752 156.935C298.732 157.071 298.828 157.198 298.964 157.217L301.192 157.531C301.329 157.55 301.455 157.455 301.475 157.319C301.494 157.182 301.399 157.055 301.262 157.036L299.282 156.757L299.561 154.777C299.58 154.64 299.485 154.513 299.348 154.494C299.211 154.475 299.085 154.57 299.066 154.707L298.752 156.935ZM503.041 3.02843L502.645 3.32638L502.946 3.72582L503.342 3.42787L503.041 3.02843ZM498.688 6.30586L497.897 6.90176L498.197 7.3012L498.989 6.7053L498.688 6.30586ZM493.939 9.88125L493.148 10.4771L493.449 10.8766L494.24 10.2807L493.939 9.88125ZM489.191 13.4566L488.399 14.0525L488.7 14.452L489.492 13.8561L489.191 13.4566ZM484.442 17.032L483.651 17.6279L483.951 18.0273L484.743 17.4315L484.442 17.032ZM479.693 20.6074L478.902 21.2033L479.203 21.6027L479.994 21.0068L479.693 20.6074ZM474.945 24.1828L474.153 24.7787L474.454 25.1781L475.246 24.5822L474.945 24.1828ZM470.196 27.7582L469.405 28.3541L469.705 28.7535L470.497 28.1576L470.196 27.7582ZM465.448 31.3335L464.656 31.9294L464.957 32.3289L465.748 31.733L465.448 31.3335ZM460.699 34.9089L459.907 35.5048L460.208 35.9043L461 35.3084L460.699 34.9089ZM455.95 38.4843L455.159 39.0802L455.459 39.4797L456.251 38.8838L455.95 38.4843ZM451.202 42.0597L450.41 42.6556L450.711 43.055L451.502 42.4591L451.202 42.0597ZM446.453 45.6351L445.661 46.231L445.962 46.6304L446.754 46.0345L446.453 45.6351ZM441.704 49.2105L440.913 49.8064L441.214 50.2058L442.005 49.6099L441.704 49.2105ZM436.956 52.7858L436.164 53.3817L436.465 53.7812L437.256 53.1853L436.956 52.7858ZM432.207 56.3612L431.415 56.9571L431.716 57.3566L432.508 56.7607L432.207 56.3612ZM427.458 59.9366L426.667 60.5325L426.968 60.9319L427.759 60.336L427.458 59.9366ZM422.71 63.512L421.918 64.1079L422.219 64.5073L423.01 63.9114L422.71 63.512ZM417.961 67.0874L417.17 67.6833L417.47 68.0827L418.262 67.4868L417.961 67.0874ZM413.212 70.6627L412.421 71.2586L412.722 71.6581L413.513 71.0622L413.212 70.6627ZM408.464 74.2381L407.672 74.834L407.973 75.2335L408.764 74.6376L408.464 74.2381ZM403.715 77.8135L402.924 78.4094L403.224 78.8088L404.016 78.2129L403.715 77.8135ZM398.966 81.3889L398.175 81.9848L398.476 82.3842L399.267 81.7883L398.966 81.3889ZM394.218 84.9643L393.426 85.5602L393.727 85.9596L394.518 85.3637L394.218 84.9643ZM389.469 88.5396L388.678 89.1355L388.978 89.535L389.77 88.9391L389.469 88.5396ZM384.72 92.115L383.929 92.7109L384.23 93.1104L385.021 92.5145L384.72 92.115ZM379.972 95.6904L379.18 96.2863L379.481 96.6858L380.272 96.0899L379.972 95.6904ZM375.223 99.2658L374.432 99.8617L374.732 100.261L375.524 99.6652L375.223 99.2658ZM370.474 102.841L369.683 103.437L369.984 103.837L370.775 103.241L370.474 102.841ZM365.726 106.417L364.934 107.012L365.235 107.412L366.026 106.816L365.726 106.417ZM360.977 109.992L360.186 110.588L360.486 110.987L361.278 110.391L360.977 109.992ZM356.228 113.567L355.437 114.163L355.738 114.563L356.529 113.967L356.228 113.567ZM351.48 117.143L350.688 117.739L350.989 118.138L351.781 117.542L351.48 117.143ZM346.731 120.718L345.94 121.314L346.24 121.713L347.032 121.118L346.731 120.718ZM341.982 124.294L341.191 124.889L341.492 125.289L342.283 124.693L341.982 124.294ZM337.234 127.869L336.442 128.465L336.743 128.864L337.535 128.268L337.234 127.869ZM332.485 131.444L331.694 132.04L331.994 132.44L332.786 131.844L332.485 131.444ZM327.736 135.02L326.945 135.616L327.246 136.015L328.037 135.419L327.736 135.02ZM322.988 138.595L322.196 139.191L322.497 139.59L323.289 138.994L322.988 138.595ZM318.239 142.17L317.448 142.766L317.748 143.166L318.54 142.57L318.239 142.17ZM313.49 145.746L312.699 146.342L313 146.741L313.791 146.145L313.49 145.746ZM308.742 149.321L307.95 149.917L308.251 150.317L309.043 149.721L308.742 149.321ZM303.993 152.897L303.202 153.492L303.502 153.892L304.294 153.296L303.993 152.897ZM299.245 156.472L298.849 156.77L299.15 157.169L299.545 156.871L299.245 156.472ZM298.504 156.9C298.466 157.173 298.656 157.426 298.929 157.465L303.385 158.093C303.659 158.131 303.912 157.941 303.95 157.667C303.989 157.394 303.798 157.141 303.525 157.103L299.564 156.544L300.122 152.583C300.161 152.31 299.971 152.057 299.697 152.019C299.424 151.98 299.171 152.17 299.132 152.444L298.504 156.9ZM502.891 2.82871L502.495 3.12666L503.096 3.92554L503.492 3.62759L502.891 2.82871ZM498.538 6.10614L497.746 6.70204L498.348 7.50092L499.139 6.90502L498.538 6.10614ZM493.789 9.68153L492.998 10.2774L493.599 11.0763L494.391 10.4804L493.789 9.68153ZM489.04 13.2569L488.249 13.8528L488.85 14.6517L489.642 14.0558L489.04 13.2569ZM484.292 16.8323L483.5 17.4282L484.102 18.2271L484.893 17.6312L484.292 16.8323ZM479.543 20.4077L478.752 21.0036L479.353 21.8024L480.145 21.2066L479.543 20.4077ZM474.794 23.9831L474.003 24.579L474.604 25.3778L475.396 24.7819L474.794 23.9831ZM470.046 27.5584L469.254 28.1543L469.856 28.9532L470.647 28.3573L470.046 27.5584ZM465.297 31.1338L464.506 31.7297L465.107 32.5286L465.899 31.9327L465.297 31.1338ZM460.548 34.7092L459.757 35.3051L460.359 36.104L461.15 35.5081L460.548 34.7092ZM455.8 38.2846L455.008 38.8805L455.61 39.6794L456.401 39.0835L455.8 38.2846ZM451.051 41.86L450.26 42.4559L450.861 43.2548L451.653 42.6589L451.051 41.86ZM446.303 45.4354L445.511 46.0313L446.113 46.8301L446.904 46.2342L446.303 45.4354ZM441.554 49.0107L440.762 49.6066L441.364 50.4055L442.155 49.8096L441.554 49.0107ZM436.805 52.5861L436.014 53.182L436.615 53.9809L437.407 53.385L436.805 52.5861ZM432.057 56.1615L431.265 56.7574L431.867 57.5563L432.658 56.9604L432.057 56.1615ZM427.308 59.7369L426.516 60.3328L427.118 61.1317L427.909 60.5358L427.308 59.7369ZM422.559 63.3123L421.768 63.9082L422.369 64.707L423.161 64.1111L422.559 63.3123ZM417.811 66.8876L417.019 67.4835L417.621 68.2824L418.412 67.6865L417.811 66.8876ZM413.062 70.463L412.27 71.0589L412.872 71.8578L413.663 71.2619L413.062 70.463ZM408.313 74.0384L407.522 74.6343L408.123 75.4332L408.915 74.8373L408.313 74.0384ZM403.565 77.6138L402.773 78.2097L403.375 79.0086L404.166 78.4127L403.565 77.6138ZM398.816 81.1892L398.025 81.7851L398.626 82.5839L399.417 81.988L398.816 81.1892ZM394.067 84.7645L393.276 85.3604L393.877 86.1593L394.669 85.5634L394.067 84.7645ZM389.319 88.3399L388.527 88.9358L389.129 89.7347L389.92 89.1388L389.319 88.3399ZM384.57 91.9153L383.779 92.5112L384.38 93.3101L385.172 92.7142L384.57 91.9153ZM379.821 95.4907L379.03 96.0866L379.631 96.8855L380.423 96.2896L379.821 95.4907ZM375.073 99.0661L374.281 99.662L374.883 100.461L375.674 99.865L375.073 99.0661ZM370.324 102.641L369.533 103.237L370.134 104.036L370.926 103.44L370.324 102.641ZM365.575 106.217L364.784 106.813L365.385 107.612L366.177 107.016L365.575 106.217ZM360.827 109.792L360.035 110.388L360.637 111.187L361.428 110.591L360.827 109.792ZM356.078 113.368L355.287 113.964L355.888 114.762L356.68 114.167L356.078 113.368ZM351.329 116.943L350.538 117.539L351.139 118.338L351.931 117.742L351.329 116.943ZM346.581 120.518L345.789 121.114L346.391 121.913L347.182 121.317L346.581 120.518ZM341.832 124.094L341.041 124.69L341.642 125.489L342.434 124.893L341.832 124.094ZM337.083 127.669L336.292 128.265L336.893 129.064L337.685 128.468L337.083 127.669ZM332.335 131.245L331.543 131.84L332.145 132.639L332.936 132.043L332.335 131.245ZM327.586 134.82L326.795 135.416L327.396 136.215L328.188 135.619L327.586 134.82ZM322.837 138.395L322.046 138.991L322.647 139.79L323.439 139.194L322.837 138.395ZM318.089 141.971L317.297 142.567L317.899 143.365L318.69 142.77L318.089 141.971ZM313.34 145.546L312.549 146.142L313.15 146.941L313.942 146.345L313.34 145.546ZM308.591 149.121L307.8 149.717L308.402 150.516L309.193 149.92L308.591 149.121ZM303.843 152.697L303.051 153.293L303.653 154.092L304.444 153.496L303.843 152.697ZM299.094 156.272L298.698 156.57L299.3 157.369L299.696 157.071L299.094 156.272Z" fill="black"/>
<rect y="408.033" width="226.156" height="28.9658" fill="#C6B6DB"/>
<path d="M79.4468 427.033V416.313C79.4361 416.324 79.3134 416.356 79.0788 416.409C78.8548 416.462 78.5988 416.516 78.3108 416.569C78.0228 416.622 77.7668 416.67 77.5428 416.713C77.3188 416.756 77.2014 416.777 77.1908 416.777V415.481C77.3721 415.438 77.5801 415.38 77.8148 415.305C78.0601 415.23 78.3054 415.14 78.5508 415.033C78.8068 414.926 79.0468 414.793 79.2708 414.633C79.5054 414.473 79.7028 414.286 79.8628 414.073H81.1588V427.033H79.4468ZM83.8385 427.033V425.129H85.5505V427.033H83.8385ZM90.7344 427.033V414.073H93.5504C94.5104 414.073 95.2677 414.222 95.8224 414.521C96.3877 414.809 96.7877 415.246 97.0224 415.833C97.2677 416.42 97.3904 417.15 97.3904 418.025V422.793C97.3904 423.71 97.2677 424.484 97.0224 425.113C96.7877 425.742 96.3984 426.222 95.8544 426.553C95.3211 426.873 94.6011 427.033 93.6944 427.033H90.7344ZM92.5424 425.737H93.5664C94.2277 425.737 94.6971 425.609 94.9744 425.353C95.2517 425.097 95.4171 424.724 95.4704 424.233C95.5344 423.742 95.5664 423.15 95.5664 422.457V418.249C95.5664 417.577 95.5237 417.033 95.4384 416.617C95.3531 416.201 95.1664 415.897 94.8784 415.705C94.5904 415.513 94.1371 415.417 93.5184 415.417H92.5424V425.737ZM99.2679 427.033V414.073H101.044V427.033H99.2679ZM106.197 427.177C105.45 427.177 104.826 427.017 104.325 426.697C103.834 426.377 103.461 425.934 103.205 425.369C102.949 424.804 102.799 424.148 102.757 423.401L104.357 422.969C104.389 423.428 104.458 423.87 104.565 424.297C104.682 424.724 104.869 425.076 105.125 425.353C105.381 425.62 105.738 425.753 106.197 425.753C106.666 425.753 107.018 425.625 107.253 425.369C107.498 425.102 107.621 424.724 107.621 424.233C107.621 423.646 107.487 423.177 107.221 422.825C106.954 422.462 106.618 422.1 106.213 421.737L104.037 419.817C103.61 419.444 103.295 419.038 103.093 418.601C102.89 418.153 102.789 417.604 102.789 416.953C102.789 416.004 103.061 415.268 103.605 414.745C104.149 414.222 104.89 413.961 105.829 413.961C106.341 413.961 106.789 414.03 107.173 414.169C107.567 414.297 107.893 414.5 108.149 414.777C108.415 415.054 108.623 415.406 108.773 415.833C108.933 416.249 109.039 416.74 109.093 417.305L107.557 417.721C107.525 417.294 107.461 416.905 107.365 416.553C107.269 416.19 107.098 415.902 106.853 415.689C106.618 415.465 106.277 415.353 105.829 415.353C105.381 415.353 105.029 415.476 104.773 415.721C104.527 415.956 104.405 416.308 104.405 416.777C104.405 417.172 104.469 417.497 104.597 417.753C104.735 418.009 104.954 418.27 105.253 418.537L107.445 420.457C107.935 420.884 108.367 421.396 108.741 421.993C109.114 422.58 109.301 423.278 109.301 424.089C109.301 424.729 109.167 425.284 108.901 425.753C108.634 426.212 108.266 426.564 107.797 426.809C107.338 427.054 106.805 427.177 106.197 427.177ZM113.951 427.177C113.034 427.177 112.319 426.985 111.807 426.601C111.306 426.217 110.954 425.7 110.751 425.049C110.559 424.398 110.463 423.673 110.463 422.873V418.297C110.463 417.422 110.559 416.66 110.751 416.009C110.954 415.358 111.306 414.857 111.807 414.505C112.319 414.142 113.034 413.961 113.951 413.961C114.762 413.961 115.402 414.11 115.871 414.409C116.351 414.708 116.692 415.134 116.895 415.689C117.108 416.244 117.215 416.91 117.215 417.689V418.713H115.503V417.801C115.503 417.321 115.476 416.9 115.423 416.537C115.38 416.164 115.252 415.876 115.039 415.673C114.826 415.47 114.468 415.369 113.967 415.369C113.455 415.369 113.082 415.481 112.847 415.705C112.612 415.918 112.458 416.228 112.383 416.633C112.319 417.028 112.287 417.492 112.287 418.025V423.161C112.287 423.812 112.34 424.329 112.447 424.713C112.554 425.086 112.73 425.353 112.975 425.513C113.22 425.673 113.551 425.753 113.967 425.753C114.458 425.753 114.81 425.646 115.023 425.433C115.236 425.209 115.37 424.905 115.423 424.521C115.476 424.137 115.503 423.689 115.503 423.177V422.217H117.215V423.177C117.215 423.966 117.119 424.665 116.927 425.273C116.735 425.87 116.404 426.34 115.935 426.681C115.466 427.012 114.804 427.177 113.951 427.177ZM122.25 427.177C121.375 427.177 120.676 427.006 120.154 426.665C119.631 426.324 119.258 425.838 119.034 425.209C118.81 424.569 118.698 423.822 118.698 422.969V418.057C118.698 417.204 118.81 416.473 119.034 415.865C119.268 415.246 119.642 414.777 120.154 414.457C120.676 414.126 121.375 413.961 122.25 413.961C123.124 413.961 123.818 414.126 124.33 414.457C124.842 414.788 125.21 415.257 125.434 415.865C125.668 416.473 125.786 417.204 125.786 418.057V422.985C125.786 423.828 125.668 424.564 125.434 425.193C125.21 425.822 124.842 426.313 124.33 426.665C123.818 427.006 123.124 427.177 122.25 427.177ZM122.25 425.753C122.73 425.753 123.092 425.657 123.338 425.465C123.583 425.262 123.748 424.985 123.834 424.633C123.919 424.27 123.962 423.849 123.962 423.369V417.689C123.962 417.209 123.919 416.798 123.834 416.457C123.748 416.105 123.583 415.838 123.338 415.657C123.092 415.465 122.73 415.369 122.25 415.369C121.77 415.369 121.402 415.465 121.146 415.657C120.9 415.838 120.735 416.105 120.65 416.457C120.564 416.798 120.522 417.209 120.522 417.689V423.369C120.522 423.849 120.564 424.27 120.65 424.633C120.735 424.985 120.9 425.262 121.146 425.465C121.402 425.657 121.77 425.753 122.25 425.753ZM129.819 427.033L126.923 414.073H128.619L130.667 423.625L132.619 414.073H134.267L131.403 427.033H129.819ZM135.641 427.033V414.073H140.665V415.417H137.449V419.705H140.057V420.985H137.449V425.737H140.697V427.033H135.641ZM142.156 427.033V414.073H144.764C145.628 414.073 146.343 414.19 146.908 414.425C147.474 414.649 147.89 415.017 148.156 415.529C148.434 416.03 148.572 416.692 148.572 417.513C148.572 418.014 148.519 418.473 148.412 418.889C148.306 419.294 148.135 419.641 147.9 419.929C147.666 420.206 147.356 420.409 146.972 420.537L148.812 427.033H147.068L145.372 420.953H143.964V427.033H142.156ZM143.964 419.657H144.652C145.164 419.657 145.58 419.593 145.9 419.465C146.22 419.337 146.455 419.118 146.604 418.809C146.754 418.5 146.828 418.068 146.828 417.513C146.828 416.756 146.69 416.212 146.412 415.881C146.135 415.54 145.586 415.369 144.764 415.369H143.964V419.657Z" fill="black"/>
<rect x="245.096" y="408.033" width="226.156" height="28.9658" fill="#C6B6DB"/>
<path d="M331.603 427.033V425.817L334.899 420.681C335.144 420.297 335.368 419.94 335.571 419.609C335.784 419.278 335.955 418.932 336.083 418.569C336.222 418.196 336.291 417.769 336.291 417.289C336.291 416.692 336.195 416.222 336.003 415.881C335.811 415.54 335.475 415.369 334.995 415.369C334.59 415.369 334.275 415.481 334.051 415.705C333.827 415.929 333.672 416.222 333.587 416.585C333.502 416.948 333.459 417.337 333.459 417.753V418.185H331.747V417.737C331.747 416.958 331.848 416.292 332.051 415.737C332.264 415.172 332.6 414.734 333.059 414.425C333.528 414.116 334.147 413.961 334.915 413.961C335.96 413.961 336.739 414.26 337.251 414.857C337.763 415.444 338.019 416.26 338.019 417.305C338.019 417.86 337.95 418.345 337.811 418.761C337.683 419.177 337.512 419.566 337.299 419.929C337.086 420.292 336.851 420.665 336.595 421.049L333.619 425.593H337.715V427.033H331.603ZM339.372 427.033V425.129H341.084V427.033H339.372ZM346.268 427.033V414.073H349.084C350.044 414.073 350.801 414.222 351.356 414.521C351.921 414.809 352.321 415.246 352.556 415.833C352.801 416.42 352.924 417.15 352.924 418.025V422.793C352.924 423.71 352.801 424.484 352.556 425.113C352.321 425.742 351.932 426.222 351.388 426.553C350.854 426.873 350.134 427.033 349.228 427.033H346.268ZM348.076 425.737H349.1C349.761 425.737 350.23 425.609 350.508 425.353C350.785 425.097 350.95 424.724 351.004 424.233C351.068 423.742 351.1 423.15 351.1 422.457V418.249C351.1 417.577 351.057 417.033 350.972 416.617C350.886 416.201 350.7 415.897 350.412 415.705C350.124 415.513 349.67 415.417 349.052 415.417H348.076V425.737ZM354.705 427.033V414.073H359.729V415.417H356.513V419.705H359.121V420.985H356.513V425.737H359.761V427.033H354.705ZM361.221 427.033V414.073H366.229V415.369H363.029V419.689H365.509V420.969H363.029V427.033H361.221ZM367.567 427.033V414.073H369.343V427.033H367.567ZM371.439 427.033V414.073H372.671L376.351 422.681V414.073H377.855V427.033H376.703L372.975 418.185V427.033H371.439ZM379.893 427.033V414.073H384.917V415.417H381.701V419.705H384.309V420.985H381.701V425.737H384.949V427.033H379.893Z" fill="black"/>
<mask id="mask0" mask-type="alpha" maskUnits="userSpaceOnUse" x="492" y="183" width="16" height="36">
<rect width="16" height="36" transform="matrix(-1 0 0 1 508 183)" fill="#C4C4C4"/>
</mask>
<g mask="url(#mask0)">
<circle cx="508.482" cy="202.483" r="14.4829" transform="rotate(180 508.482 202.483)" fill="#FFCA3A"/>
</g>
</svg>
