<svg width="530" height="440" viewBox="0 0 530 440" fill="none" xmlns="http://www.w3.org/2000/svg">
<path d="M287.967 23.7523C287.83 23.7712 287.734 23.8974 287.753 24.0342L288.062 26.2629C288.081 26.3997 288.207 26.4952 288.344 26.4763C288.481 26.4573 288.576 26.3311 288.557 26.1944L288.283 24.2133L290.264 23.9389C290.401 23.92 290.496 23.7938 290.477 23.657C290.458 23.5203 290.332 23.4247 290.195 23.4437L287.967 23.7523ZM494.254 179.77L493.855 179.468L493.553 179.867L493.953 180.169L494.254 179.77ZM489.861 176.445L489.062 175.841L488.76 176.239L489.559 176.844L489.861 176.445ZM485.068 172.818L484.269 172.213L483.967 172.612L484.766 173.217L485.068 172.818ZM480.275 169.191L479.476 168.586L479.174 168.985L479.973 169.59L480.275 169.191ZM475.481 165.564L474.683 164.959L474.381 165.358L475.18 165.962L475.481 165.564ZM470.688 161.936L469.89 161.332L469.588 161.731L470.387 162.335L470.688 161.936ZM465.895 158.309L465.096 157.705L464.795 158.103L465.594 158.708L465.895 158.309ZM461.102 154.682L460.303 154.077L460.002 154.476L460.8 155.081L461.102 154.682ZM456.309 151.055L455.51 150.45L455.209 150.849L456.007 151.453L456.309 151.055ZM451.516 147.428L450.717 146.823L450.415 147.222L451.214 147.826L451.516 147.428ZM446.723 143.8L445.924 143.196L445.622 143.595L446.421 144.199L446.723 143.8ZM441.93 140.173L441.131 139.569L440.829 139.967L441.628 140.572L441.93 140.173ZM437.137 136.546L436.338 135.941L436.036 136.34L436.835 136.945L437.137 136.546ZM432.344 132.919L431.545 132.314L431.243 132.713L432.042 133.318L432.344 132.919ZM427.551 129.292L426.752 128.687L426.45 129.086L427.249 129.69L427.551 129.292ZM422.758 125.664L421.959 125.06L421.657 125.459L422.456 126.063L422.758 125.664ZM417.964 122.037L417.166 121.433L416.864 121.831L417.663 122.436L417.964 122.037ZM413.171 118.41L412.373 117.805L412.071 118.204L412.87 118.809L413.171 118.41ZM408.378 114.783L407.579 114.178L407.278 114.577L408.077 115.182L408.378 114.783ZM403.585 111.156L402.786 110.551L402.485 110.95L403.283 111.554L403.585 111.156ZM398.792 107.528L397.993 106.924L397.692 107.323L398.49 107.927L398.792 107.528ZM393.999 103.901L393.2 103.297L392.898 103.695L393.697 104.3L393.999 103.901ZM389.206 100.274L388.407 99.6695L388.105 100.068L388.904 100.673L389.206 100.274ZM384.413 96.6468L383.614 96.0423L383.312 96.441L384.111 97.0455L384.413 96.6468ZM379.62 93.0196L378.821 92.4151L378.519 92.8138L379.318 93.4183L379.62 93.0196ZM374.827 89.3924L374.028 88.7879L373.726 89.1866L374.525 89.7911L374.827 89.3924ZM370.034 85.7652L369.235 85.1607L368.933 85.5594L369.732 86.1639L370.034 85.7652ZM365.241 82.138L364.442 81.5335L364.14 81.9322L364.939 82.5367L365.241 82.138ZM360.447 78.5109L359.649 77.9063L359.347 78.305L360.146 78.9096L360.447 78.5109ZM355.654 74.8837L354.856 74.2791L354.554 74.6778L355.353 75.2824L355.654 74.8837ZM350.861 71.2565L350.062 70.6519L349.761 71.0506L350.56 71.6552L350.861 71.2565ZM346.068 67.6293L345.269 67.0247L344.968 67.4234L345.767 68.028L346.068 67.6293ZM341.275 64.0021L340.476 63.3976L340.175 63.7963L340.973 64.4008L341.275 64.0021ZM336.482 60.3749L335.683 59.7704L335.382 60.1691L336.18 60.7736L336.482 60.3749ZM331.689 56.7477L330.89 56.1432L330.588 56.5419L331.387 57.1464L331.689 56.7477ZM326.896 53.1205L326.097 52.516L325.795 52.9147L326.594 53.5192L326.896 53.1205ZM322.103 49.4933L321.304 48.8888L321.002 49.2875L321.801 49.892L322.103 49.4933ZM317.31 45.8661L316.511 45.2616L316.209 45.6603L317.008 46.2648L317.31 45.8661ZM312.517 42.2389L311.718 41.6344L311.416 42.0331L312.215 42.6376L312.517 42.2389ZM307.724 38.6117L306.925 38.0072L306.623 38.4059L307.422 39.0104L307.724 38.6117ZM302.931 34.9845L302.132 34.38L301.83 34.7787L302.629 35.3832L302.931 34.9845ZM298.137 31.3573L297.339 30.7528L297.037 31.1515L297.836 31.756L298.137 31.3573ZM293.344 27.7301L292.546 27.1256L292.244 27.5243L293.043 28.1289L293.344 27.7301ZM288.551 24.103L288.152 23.8006L287.85 24.1993L288.25 24.5017L288.551 24.103ZM287.932 23.5046C287.659 23.5425 287.468 23.7949 287.506 24.0685L288.123 28.526C288.161 28.7995 288.413 28.9905 288.687 28.9527C288.96 28.9148 289.151 28.6623 289.113 28.3888L288.565 24.4266L292.527 23.878C292.8 23.8401 292.991 23.5877 292.954 23.3141C292.916 23.0406 292.663 22.8496 292.39 22.8874L287.932 23.5046ZM494.405 179.571L494.006 179.269L493.402 180.066L493.802 180.368L494.405 179.571ZM490.012 176.246L489.213 175.641L488.609 176.439L489.408 177.043L490.012 176.246ZM485.218 172.619L484.42 172.014L483.816 172.812L484.615 173.416L485.218 172.619ZM480.425 168.991L479.627 168.387L479.023 169.184L479.822 169.789L480.425 168.991ZM475.632 165.364L474.833 164.76L474.23 165.557L475.029 166.162L475.632 165.364ZM470.839 161.737L470.04 161.133L469.437 161.93L470.236 162.534L470.839 161.737ZM466.046 158.11L465.247 157.505L464.644 158.303L465.443 158.907L466.046 158.11ZM461.253 154.483L460.454 153.878L459.851 154.676L460.65 155.28L461.253 154.483ZM456.46 150.855L455.661 150.251L455.058 151.048L455.857 151.653L456.46 150.855ZM451.667 147.228L450.868 146.624L450.265 147.421L451.063 148.026L451.667 147.228ZM446.874 143.601L446.075 142.997L445.472 143.794L446.27 144.398L446.874 143.601ZM442.081 139.974L441.282 139.369L440.678 140.167L441.477 140.771L442.081 139.974ZM437.288 136.347L436.489 135.742L435.885 136.54L436.684 137.144L437.288 136.347ZM432.495 132.719L431.696 132.115L431.092 132.912L431.891 133.517L432.495 132.719ZM427.701 129.092L426.903 128.488L426.299 129.285L427.098 129.89L427.701 129.092ZM422.908 125.465L422.11 124.861L421.506 125.658L422.305 126.262L422.908 125.465ZM418.115 121.838L417.316 121.233L416.713 122.031L417.512 122.635L418.115 121.838ZM413.322 118.211L412.523 117.606L411.92 118.404L412.719 119.008L413.322 118.211ZM408.529 114.583L407.73 113.979L407.127 114.776L407.926 115.381L408.529 114.583ZM403.736 110.956L402.937 110.352L402.334 111.149L403.133 111.754L403.736 110.956ZM398.943 107.329L398.144 106.725L397.541 107.522L398.34 108.126L398.943 107.329ZM394.15 103.702L393.351 103.097L392.748 103.895L393.546 104.499L394.15 103.702ZM389.357 100.075L388.558 99.4701L387.955 100.268L388.753 100.872L389.357 100.075ZM384.564 96.4475L383.765 95.8429L383.161 96.6403L383.96 97.2449L384.564 96.4475ZM379.771 92.8203L378.972 92.2157L378.368 93.0132L379.167 93.6177L379.771 92.8203ZM374.978 89.1931L374.179 88.5886L373.575 89.386L374.374 89.9905L374.978 89.1931ZM370.184 85.5659L369.386 84.9614L368.782 85.7588L369.581 86.3633L370.184 85.5659ZM365.391 81.9387L364.593 81.3342L363.989 82.1316L364.788 82.7361L365.391 81.9387ZM360.598 78.3115L359.8 77.707L359.196 78.5044L359.995 79.1089L360.598 78.3115ZM355.805 74.6843L355.006 74.0798L354.403 74.8772L355.202 75.4817L355.805 74.6843ZM351.012 71.0571L350.213 70.4526L349.61 71.25L350.409 71.8545L351.012 71.0571ZM346.219 67.4299L345.42 66.8254L344.817 67.6228L345.616 68.2273L346.219 67.4299ZM341.426 63.8027L340.627 63.1982L340.024 63.9956L340.823 64.6001L341.426 63.8027ZM336.633 60.1755L335.834 59.571L335.231 60.3684L336.03 60.9729L336.633 60.1755ZM331.84 56.5483L331.041 55.9438L330.438 56.7412L331.236 57.3457L331.84 56.5483ZM327.047 52.9211L326.248 52.3166L325.645 53.114L326.443 53.7186L327.047 52.9211ZM322.254 49.294L321.455 48.6894L320.851 49.4868L321.65 50.0914L322.254 49.294ZM317.461 45.6668L316.662 45.0622L316.058 45.8596L316.857 46.4642L317.461 45.6668ZM312.668 42.0396L311.869 41.435L311.265 42.2324L312.064 42.837L312.668 42.0396ZM307.874 38.4124L307.076 37.8078L306.472 38.6053L307.271 39.2098L307.874 38.4124ZM303.081 34.7852L302.283 34.1807L301.679 34.9781L302.478 35.5826L303.081 34.7852ZM298.288 31.158L297.489 30.5535L296.886 31.3509L297.685 31.9554L298.288 31.158ZM293.495 27.5308L292.696 26.9263L292.093 27.7237L292.892 28.3282L293.495 27.5308ZM288.702 23.9036L288.303 23.6012L287.699 24.3986L288.099 24.701L288.702 23.9036Z" fill="black"/>
<path d="M2.96657 3.75239C2.8298 3.77132 2.73428 3.89755 2.75322 4.03431L3.06181 6.26305C3.08075 6.39982 3.20697 6.49534 3.34374 6.4764C3.48051 6.45746 3.57603 6.33124 3.55709 6.19447L3.28278 4.21337L5.26388 3.93907C5.40065 3.92013 5.49617 3.79391 5.47723 3.65714C5.4583 3.52037 5.33207 3.42486 5.19531 3.44379L2.96657 3.75239ZM209.254 159.77L208.855 159.468L208.553 159.867L208.953 160.169L209.254 159.77ZM204.861 156.445L204.062 155.841L203.76 156.239L204.559 156.844L204.861 156.445ZM200.068 152.818L199.269 152.214L198.967 152.612L199.766 153.217L200.068 152.818ZM195.275 149.191L194.476 148.586L194.174 148.985L194.973 149.59L195.275 149.191ZM190.481 145.564L189.683 144.959L189.381 145.358L190.18 145.962L190.481 145.564ZM185.688 141.937L184.89 141.332L184.588 141.731L185.387 142.335L185.688 141.937ZM180.895 138.309L180.096 137.705L179.795 138.103L180.594 138.708L180.895 138.309ZM176.102 134.682L175.303 134.078L175.002 134.476L175.8 135.081L176.102 134.682ZM171.309 131.055L170.51 130.45L170.209 130.849L171.007 131.454L171.309 131.055ZM166.516 127.428L165.717 126.823L165.415 127.222L166.214 127.826L166.516 127.428ZM161.723 123.801L160.924 123.196L160.622 123.595L161.421 124.199L161.723 123.801ZM156.93 120.173L156.131 119.569L155.829 119.967L156.628 120.572L156.93 120.173ZM152.137 116.546L151.338 115.942L151.036 116.34L151.835 116.945L152.137 116.546ZM147.344 112.919L146.545 112.314L146.243 112.713L147.042 113.318L147.344 112.919ZM142.551 109.292L141.752 108.687L141.45 109.086L142.249 109.69L142.551 109.292ZM137.758 105.665L136.959 105.06L136.657 105.459L137.456 106.063L137.758 105.665ZM132.964 102.037L132.166 101.433L131.864 101.831L132.663 102.436L132.964 102.037ZM128.171 98.4101L127.373 97.8056L127.071 98.2043L127.87 98.8088L128.171 98.4101ZM123.378 94.7829L122.579 94.1784L122.278 94.5771L123.077 95.1816L123.378 94.7829ZM118.585 91.1557L117.786 90.5512L117.485 90.9499L118.283 91.5544L118.585 91.1557ZM113.792 87.5285L112.993 86.924L112.692 87.3227L113.49 87.9272L113.792 87.5285ZM108.999 83.9013L108.2 83.2968L107.898 83.6955L108.697 84.3L108.999 83.9013ZM104.206 80.2741L103.407 79.6696L103.105 80.0683L103.904 80.6728L104.206 80.2741ZM99.4129 76.6469L98.614 76.0424L98.3123 76.4411L99.1111 77.0456L99.4129 76.6469ZM94.6198 73.0198L93.8209 72.4152L93.5192 72.8139L94.3181 73.4185L94.6198 73.0198ZM89.8267 69.3926L89.0279 68.788L88.7261 69.1867L89.525 69.7913L89.8267 69.3926ZM85.0336 65.7654L84.2348 65.1608L83.9331 65.5595L84.7319 66.1641L85.0336 65.7654ZM80.2406 62.1382L79.4417 61.5336L79.14 61.9323L79.9388 62.5369L80.2406 62.1382ZM75.4475 58.511L74.6486 57.9065L74.3469 58.3052L75.1458 58.9097L75.4475 58.511ZM70.6544 54.8838L69.8556 54.2793L69.5538 54.678L70.3527 55.2825L70.6544 54.8838ZM65.8613 51.2566L65.0625 50.6521L64.7608 51.0508L65.5596 51.6553L65.8613 51.2566ZM61.0683 47.6294L60.2694 47.0249L59.9677 47.4236L60.7665 48.0281L61.0683 47.6294ZM56.2752 44.0022L55.4763 43.3977L55.1746 43.7964L55.9734 44.4009L56.2752 44.0022ZM51.4821 40.375L50.6833 39.7705L50.3815 40.1692L51.1804 40.7737L51.4821 40.375ZM46.689 36.7478L45.8902 36.1433L45.5885 36.542L46.3873 37.1465L46.689 36.7478ZM41.8959 33.1206L41.0971 32.5161L40.7954 32.9148L41.5942 33.5193L41.8959 33.1206ZM37.1029 29.4934L36.304 28.8889L36.0023 29.2876L36.8011 29.8921L37.1029 29.4934ZM32.3098 25.8662L31.5109 25.2617L31.2092 25.6604L32.0081 26.2649L32.3098 25.8662ZM27.5167 22.239L26.7179 21.6345L26.4161 22.0332L27.215 22.6377L27.5167 22.239ZM22.7236 18.6118L21.9248 18.0073L21.6231 18.406L22.4219 19.0105L22.7236 18.6118ZM17.9306 14.9847L17.1317 14.3801L16.83 14.7788L17.6288 15.3834L17.9306 14.9847ZM13.1375 11.3575L12.3386 10.7529L12.0369 11.1516L12.8358 11.7562L13.1375 11.3575ZM8.3444 7.73027L7.54555 7.12574L7.24383 7.52444L8.04268 8.12897L8.3444 7.73027ZM3.55133 4.10308L3.15172 3.80067L2.85 4.19938L3.24961 4.50178L3.55133 4.10308ZM2.93228 3.50475C2.65875 3.54262 2.46771 3.79507 2.50558 4.0686L3.12277 8.52607C3.16065 8.79961 3.41309 8.99065 3.68662 8.95277C3.96016 8.9149 4.1512 8.66245 4.11332 8.38892L3.56471 4.42672L7.52691 3.87811C7.80044 3.84024 7.99148 3.58779 7.95361 3.31426C7.91573 3.04073 7.66329 2.84969 7.38976 2.88756L2.93228 3.50475ZM209.405 159.571L209.006 159.269L208.402 160.066L208.802 160.368L209.405 159.571ZM205.012 156.246L204.213 155.641L203.609 156.439L204.408 157.043L205.012 156.246ZM200.218 152.619L199.42 152.014L198.816 152.812L199.615 153.416L200.218 152.619ZM195.425 148.992L194.627 148.387L194.023 149.184L194.822 149.789L195.425 148.992ZM190.632 145.364L189.833 144.76L189.23 145.557L190.029 146.162L190.632 145.364ZM185.839 141.737L185.04 141.133L184.437 141.93L185.236 142.535L185.839 141.737ZM181.046 138.11L180.247 137.505L179.644 138.303L180.443 138.907L181.046 138.11ZM176.253 134.483L175.454 133.878L174.851 134.676L175.65 135.28L176.253 134.483ZM171.46 130.856L170.661 130.251L170.058 131.048L170.857 131.653L171.46 130.856ZM166.667 127.228L165.868 126.624L165.265 127.421L166.063 128.026L166.667 127.228ZM161.874 123.601L161.075 122.997L160.472 123.794L161.27 124.399L161.874 123.601ZM157.081 119.974L156.282 119.369L155.678 120.167L156.477 120.771L157.081 119.974ZM152.288 116.347L151.489 115.742L150.885 116.54L151.684 117.144L152.288 116.347ZM147.495 112.72L146.696 112.115L146.092 112.912L146.891 113.517L147.495 112.72ZM142.701 109.092L141.903 108.488L141.299 109.285L142.098 109.89L142.701 109.092ZM137.908 105.465L137.11 104.861L136.506 105.658L137.305 106.263L137.908 105.465ZM133.115 101.838L132.316 101.233L131.713 102.031L132.512 102.635L133.115 101.838ZM128.322 98.2108L127.523 97.6062L126.92 98.4037L127.719 99.0082L128.322 98.2108ZM123.529 94.5836L122.73 93.979L122.127 94.7765L122.926 95.381L123.529 94.5836ZM118.736 90.9564L117.937 90.3518L117.334 91.1493L118.133 91.7538L118.736 90.9564ZM113.943 87.3292L113.144 86.7247L112.541 87.5221L113.34 88.1266L113.943 87.3292ZM109.15 83.702L108.351 83.0975L107.748 83.8949L108.546 84.4994L109.15 83.702ZM104.357 80.0748L103.558 79.4703L102.955 80.2677L103.753 80.8722L104.357 80.0748ZM99.5637 76.4476L98.7649 75.8431L98.1614 76.6405L98.9603 77.245L99.5637 76.4476ZM94.7707 72.8204L93.9718 72.2159L93.3684 73.0133L94.1672 73.6178L94.7707 72.8204ZM89.9776 69.1932L89.1787 68.5887L88.5753 69.3861L89.3741 69.9906L89.9776 69.1932ZM85.1845 65.566L84.3857 64.9615L83.7822 65.7589L84.581 66.3634L85.1845 65.566ZM80.3914 61.9388L79.5926 61.3343L78.9891 62.1317L79.788 62.7362L80.3914 61.9388ZM75.5983 58.3116L74.7995 57.7071L74.1961 58.5045L74.9949 59.109L75.5983 58.3116ZM70.8053 54.6844L70.0064 54.0799L69.403 54.8773L70.2018 55.4818L70.8053 54.6844ZM66.0122 51.0572L65.2133 50.4527L64.6099 51.2501L65.4087 51.8546L66.0122 51.0572ZM61.2191 47.43L60.4203 46.8255L59.8168 47.6229L60.6157 48.2275L61.2191 47.43ZM56.426 43.8028L55.6272 43.1983L55.0237 43.9957L55.8226 44.6003L56.426 43.8028ZM51.633 40.1757L50.8341 39.5711L50.2307 40.3685L51.0295 40.9731L51.633 40.1757ZM46.8399 36.5485L46.041 35.9439L45.4376 36.7413L46.2364 37.3459L46.8399 36.5485ZM42.0468 32.9213L41.248 32.3167L40.6445 33.1141L41.4434 33.7187L42.0468 32.9213ZM37.2537 29.2941L36.4549 28.6895L35.8514 29.487L36.6503 30.0915L37.2537 29.2941ZM32.4606 25.6669L31.6618 25.0624L31.0584 25.8598L31.8572 26.4643L32.4606 25.6669ZM27.6676 22.0397L26.8687 21.4352L26.2653 22.2326L27.0641 22.8371L27.6676 22.0397ZM22.8745 18.4125L22.0757 17.808L21.4722 18.6054L22.271 19.2099L22.8745 18.4125ZM18.0814 14.7853L17.2826 14.1808L16.6791 14.9782L17.478 15.5827L18.0814 14.7853ZM13.2883 11.1581L12.4895 10.5536L11.886 11.351L12.6849 11.9555L13.2883 11.1581ZM8.49526 7.53092L7.69641 6.92639L7.09297 7.72379L7.89182 8.32833L8.49526 7.53092ZM3.70219 3.90373L3.30258 3.60132L2.69914 4.39873L3.09874 4.70113L3.70219 3.90373Z" fill="black"/>
<path d="M79.1052 179.935C79.0859 180.071 79.1811 180.198 79.3178 180.217L81.5458 180.531C81.6825 180.55 81.809 180.455 81.8283 180.318C81.8475 180.182 81.7523 180.055 81.6156 180.036L79.6352 179.757L79.9143 177.776C79.9336 177.64 79.8384 177.513 79.7017 177.494C79.5649 177.475 79.4385 177.57 79.4192 177.707L79.1052 179.935ZM283.395 26.0283L282.999 26.3263L283.3 26.7257L283.695 26.4277L283.395 26.0283ZM279.042 29.3057L278.25 29.9016L278.551 30.3011L279.342 29.7052L279.042 29.3057ZM274.293 32.8811L273.502 33.477L273.802 33.8765L274.594 33.2806L274.293 32.8811ZM269.544 36.4565L268.753 37.0524L269.054 37.4518L269.845 36.8559L269.544 36.4565ZM264.796 40.0319L264.004 40.6278L264.305 41.0272L265.096 40.4313L264.796 40.0319ZM260.047 43.6073L259.256 44.2032L259.556 44.6026L260.348 44.0067L260.047 43.6073ZM255.298 47.1827L254.507 47.7786L254.808 48.178L255.599 47.5821L255.298 47.1827ZM250.55 50.758L249.758 51.3539L250.059 51.7534L250.85 51.1575L250.55 50.758ZM245.801 54.3334L245.01 54.9293L245.31 55.3288L246.102 54.7329L245.801 54.3334ZM241.052 57.9088L240.261 58.5047L240.562 58.9041L241.353 58.3082L241.052 57.9088ZM236.304 61.4842L235.512 62.0801L235.813 62.4795L236.604 61.8836L236.304 61.4842ZM231.555 65.0596L230.764 65.6555L231.064 66.0549L231.856 65.459L231.555 65.0596ZM226.806 68.635L226.015 69.2309L226.316 69.6303L227.107 69.0344L226.806 68.635ZM222.058 72.2103L221.266 72.8062L221.567 73.2057L222.358 72.6098L222.058 72.2103ZM217.309 75.7857L216.518 76.3816L216.818 76.7811L217.61 76.1852L217.309 75.7857ZM212.56 79.3611L211.769 79.957L212.07 80.3564L212.861 79.7605L212.56 79.3611ZM207.812 82.9365L207.02 83.5324L207.321 83.9318L208.113 83.3359L207.812 82.9365ZM203.063 86.5119L202.272 87.1078L202.572 87.5072L203.364 86.9113L203.063 86.5119ZM198.314 90.0872L197.523 90.6831L197.824 91.0826L198.615 90.4867L198.314 90.0872ZM193.566 93.6626L192.774 94.2585L193.075 94.658L193.867 94.0621L193.566 93.6626ZM188.817 97.238L188.026 97.8339L188.326 98.2333L189.118 97.6374L188.817 97.238ZM184.069 100.813L183.277 101.409L183.578 101.809L184.369 101.213L184.069 100.813ZM179.32 104.389L178.528 104.985L178.829 105.384L179.621 104.788L179.32 104.389ZM174.571 107.964L173.78 108.56L174.081 108.959L174.872 108.364L174.571 107.964ZM169.823 111.54L169.031 112.135L169.332 112.535L170.123 111.939L169.823 111.54ZM165.074 115.115L164.282 115.711L164.583 116.11L165.375 115.514L165.074 115.115ZM160.325 118.69L159.534 119.286L159.835 119.686L160.626 119.09L160.325 118.69ZM155.577 122.266L154.785 122.862L155.086 123.261L155.877 122.665L155.577 122.266ZM150.828 125.841L150.036 126.437L150.337 126.836L151.129 126.241L150.828 125.841ZM146.079 129.416L145.288 130.012L145.589 130.412L146.38 129.816L146.079 129.416ZM141.331 132.992L140.539 133.588L140.84 133.987L141.631 133.391L141.331 132.992ZM136.582 136.567L135.791 137.163L136.091 137.563L136.883 136.967L136.582 136.567ZM131.833 140.143L131.042 140.738L131.343 141.138L132.134 140.542L131.833 140.143ZM127.085 143.718L126.293 144.314L126.594 144.713L127.385 144.117L127.085 143.718ZM122.336 147.293L121.545 147.889L121.845 148.289L122.637 147.693L122.336 147.293ZM117.587 150.869L116.796 151.465L117.097 151.864L117.888 151.268L117.587 150.869ZM112.839 154.444L112.047 155.04L112.348 155.439L113.139 154.844L112.839 154.444ZM108.09 158.02L107.299 158.615L107.599 159.015L108.391 158.419L108.09 158.02ZM103.341 161.595L102.55 162.191L102.851 162.59L103.642 161.994L103.341 161.595ZM98.5927 165.17L97.8012 165.766L98.102 166.166L98.8934 165.57L98.5927 165.17ZM93.844 168.746L93.0526 169.342L93.3533 169.741L94.1448 169.145L93.844 168.746ZM89.0954 172.321L88.3039 172.917L88.6047 173.316L89.3961 172.721L89.0954 172.321ZM84.3467 175.896L83.5553 176.492L83.856 176.892L84.6474 176.296L84.3467 175.896ZM79.598 179.472L79.2024 179.77L79.5031 180.169L79.8988 179.871L79.598 179.472ZM78.8576 179.9C78.8191 180.173 79.0095 180.426 79.2829 180.465L83.7389 181.093C84.0123 181.131 84.2652 180.941 84.3038 180.667C84.3423 180.394 84.1519 180.141 83.8785 180.102L79.9176 179.544L80.4759 175.583C80.5144 175.31 80.324 175.057 80.0506 175.018C79.7771 174.98 79.5242 175.17 79.4857 175.444L78.8576 179.9ZM283.244 25.8286L282.848 26.1265L283.45 26.9254L283.846 26.6275L283.244 25.8286ZM278.891 29.106L278.1 29.7019L278.701 30.5008L279.493 29.9049L278.891 29.106ZM274.143 32.6814L273.351 33.2773L273.953 34.0762L274.744 33.4803L274.143 32.6814ZM269.394 36.2568L268.602 36.8527L269.204 37.6516L269.995 37.0557L269.394 36.2568ZM264.645 39.8322L263.854 40.4281L264.455 41.2269L265.247 40.631L264.645 39.8322ZM259.897 43.4076L259.105 44.0034L259.707 44.8023L260.498 44.2064L259.897 43.4076ZM255.148 46.9829L254.357 47.5788L254.958 48.3777L255.749 47.7818L255.148 46.9829ZM250.399 50.5583L249.608 51.1542L250.209 51.9531L251.001 51.3572L250.399 50.5583ZM245.651 54.1337L244.859 54.7296L245.461 55.5285L246.252 54.9326L245.651 54.1337ZM240.902 57.7091L240.111 58.305L240.712 59.1039L241.503 58.508L240.902 57.7091ZM236.153 61.2845L235.362 61.8804L235.963 62.6793L236.755 62.0834L236.153 61.2845ZM231.405 64.8599L230.613 65.4558L231.215 66.2546L232.006 65.6587L231.405 64.8599ZM226.656 68.4352L225.865 69.0311L226.466 69.83L227.258 69.2341L226.656 68.4352ZM221.907 72.0106L221.116 72.6065L221.717 73.4054L222.509 72.8095L221.907 72.0106ZM217.159 75.586L216.367 76.1819L216.969 76.9808L217.76 76.3849L217.159 75.586ZM212.41 79.1614L211.619 79.7573L212.22 80.5562L213.012 79.9603L212.41 79.1614ZM207.661 82.7368L206.87 83.3327L207.471 84.1315L208.263 83.5356L207.661 82.7368ZM202.913 86.3121L202.121 86.908L202.723 87.7069L203.514 87.111L202.913 86.3121ZM198.164 89.8875L197.373 90.4834L197.974 91.2823L198.766 90.6864L198.164 89.8875ZM193.415 93.4629L192.624 94.0588L193.226 94.8577L194.017 94.2618L193.415 93.4629ZM188.667 97.0383L187.875 97.6342L188.477 98.4331L189.268 97.8372L188.667 97.0383ZM183.918 100.614L183.127 101.21L183.728 102.008L184.52 101.413L183.918 100.614ZM179.169 104.189L178.378 104.785L178.98 105.584L179.771 104.988L179.169 104.189ZM174.421 107.764L173.629 108.36L174.231 109.159L175.022 108.563L174.421 107.764ZM169.672 111.34L168.881 111.936L169.482 112.735L170.274 112.139L169.672 111.34ZM164.924 114.915L164.132 115.511L164.734 116.31L165.525 115.714L164.924 114.915ZM160.175 118.491L159.383 119.086L159.985 119.885L160.776 119.289L160.175 118.491ZM155.426 122.066L154.635 122.662L155.236 123.461L156.028 122.865L155.426 122.066ZM150.678 125.641L149.886 126.237L150.488 127.036L151.279 126.44L150.678 125.641ZM145.929 129.217L145.137 129.813L145.739 130.612L146.53 130.016L145.929 129.217ZM141.18 132.792L140.389 133.388L140.99 134.187L141.782 133.591L141.18 132.792ZM136.432 136.368L135.64 136.963L136.242 137.762L137.033 137.166L136.432 136.368ZM131.683 139.943L130.891 140.539L131.493 141.338L132.284 140.742L131.683 139.943ZM126.934 143.518L126.143 144.114L126.744 144.913L127.536 144.317L126.934 143.518ZM122.186 147.094L121.394 147.69L121.996 148.488L122.787 147.893L122.186 147.094ZM117.437 150.669L116.645 151.265L117.247 152.064L118.038 151.468L117.437 150.669ZM112.688 154.244L111.897 154.84L112.498 155.639L113.29 155.043L112.688 154.244ZM107.94 157.82L107.148 158.416L107.75 159.215L108.541 158.619L107.94 157.82ZM103.191 161.395L102.4 161.991L103.001 162.79L103.792 162.194L103.191 161.395ZM98.4423 164.971L97.6509 165.566L98.2524 166.365L99.0438 165.769L98.4423 164.971ZM93.6936 168.546L92.9022 169.142L93.5037 169.941L94.2951 169.345L93.6936 168.546ZM88.945 172.121L88.1535 172.717L88.755 173.516L89.5465 172.92L88.945 172.121ZM84.1963 175.697L83.4049 176.293L84.0064 177.092L84.7978 176.496L84.1963 175.697ZM79.4477 179.272L79.052 179.57L79.6535 180.369L80.0492 180.071L79.4477 179.272Z" fill="black"/>
<circle r="14.4829" transform="matrix(1 0 0 -1 509.157 235.011)" fill="#FF595E"/>
<path d="M35.9425 212.221V196.021H38.1625V212.221H35.9425ZM40.7834 212.221V196.021H44.3034C45.5034 196.021 46.4501 196.207 47.1434 196.581C47.8501 196.941 48.3501 197.487 48.6434 198.221C48.9501 198.954 49.1034 199.867 49.1034 200.961V206.921C49.1034 208.067 48.9501 209.034 48.6434 209.821C48.3501 210.607 47.8634 211.207 47.1834 211.621C46.5168 212.021 45.6168 212.221 44.4834 212.221H40.7834ZM43.0434 210.601H44.3234C45.1501 210.601 45.7368 210.441 46.0834 210.121C46.4301 209.801 46.6368 209.334 46.7034 208.721C46.7834 208.107 46.8234 207.367 46.8234 206.501V201.241C46.8234 200.401 46.7701 199.721 46.6634 199.201C46.5568 198.681 46.3234 198.301 45.9634 198.061C45.6034 197.821 45.0368 197.701 44.2634 197.701H43.0434V210.601ZM51.3303 212.221V196.021H57.6103V197.701H53.5903V203.061H56.8503V204.661H53.5903V210.601H57.6503V212.221H51.3303ZM58.5948 212.221L62.0348 196.021H64.2148L67.6748 212.221H65.5348L64.7948 208.141H61.4948L60.7148 212.221H58.5948ZM61.7948 206.521H64.4948L63.1348 199.221L61.7948 206.521ZM70.4541 212.221V197.701H67.7141V196.021H75.3741V197.701H72.7141V212.221H70.4541ZM76.9358 212.221V196.021H83.2158V197.701H79.1958V203.061H82.4558V204.661H79.1958V210.601H83.2558V212.221H76.9358Z" fill="black"/>
<path d="M493.257 212.221V197.701H490.517V196.021H498.177V197.701H495.517V212.221H493.257ZM499.739 212.221V196.021H506.019V197.701H501.999V203.061H505.259V204.661H501.999V210.601H506.059V212.221H499.739ZM511.703 212.401C510.77 212.401 509.99 212.201 509.363 211.801C508.75 211.401 508.283 210.847 507.963 210.141C507.643 209.434 507.456 208.614 507.403 207.681L509.403 207.141C509.443 207.714 509.53 208.267 509.663 208.801C509.81 209.334 510.043 209.774 510.363 210.121C510.683 210.454 511.13 210.621 511.703 210.621C512.29 210.621 512.73 210.461 513.023 210.141C513.33 209.807 513.483 209.334 513.483 208.721C513.483 207.987 513.316 207.401 512.983 206.961C512.65 206.507 512.23 206.054 511.723 205.601L509.003 203.201C508.47 202.734 508.076 202.227 507.823 201.681C507.57 201.121 507.443 200.434 507.443 199.621C507.443 198.434 507.783 197.514 508.463 196.861C509.143 196.207 510.07 195.881 511.243 195.881C511.883 195.881 512.443 195.967 512.923 196.141C513.416 196.301 513.823 196.554 514.143 196.901C514.476 197.247 514.736 197.687 514.923 198.221C515.123 198.741 515.256 199.354 515.323 200.061L513.403 200.581C513.363 200.047 513.283 199.561 513.163 199.121C513.043 198.667 512.83 198.307 512.523 198.041C512.23 197.761 511.803 197.621 511.243 197.621C510.683 197.621 510.243 197.774 509.923 198.081C509.616 198.374 509.463 198.814 509.463 199.401C509.463 199.894 509.543 200.301 509.703 200.621C509.876 200.941 510.15 201.267 510.523 201.601L513.263 204.001C513.876 204.534 514.416 205.174 514.883 205.921C515.35 206.654 515.583 207.527 515.583 208.541C515.583 209.341 515.416 210.034 515.083 210.621C514.75 211.194 514.29 211.634 513.703 211.941C513.13 212.247 512.463 212.401 511.703 212.401ZM519.116 212.221V197.701H516.376V196.021H524.036V197.701H521.376V212.221H519.116Z" fill="black"/>
<path d="M251.44 212.221H253.7V204.681H255.48C258.12 204.681 259.46 203.081 259.46 200.501C259.46 197.681 258.36 196.021 255.46 196.021H251.44V212.221ZM253.7 203.061V197.641H254.76C257.02 197.641 257.32 198.221 257.32 200.521C257.32 202.521 256.68 203.061 254.74 203.061H253.7ZM261.05 212.221H263.31V204.621H265.07L267.19 212.221H269.37L267.07 204.101C268.51 203.621 269.07 202.221 269.07 200.321C269.07 197.241 267.55 196.021 264.31 196.021H261.05V212.221ZM263.31 203.001V197.641H264.31C266.37 197.641 266.89 198.421 266.89 200.321C266.89 202.401 266.07 203.001 264.17 203.001H263.31ZM275.561 212.401C278.821 212.401 279.981 210.341 279.981 207.161V201.001C279.981 197.821 278.821 195.881 275.561 195.881C272.281 195.881 271.121 197.801 271.121 201.001V207.141C271.121 210.361 272.261 212.401 275.561 212.401ZM275.561 210.621C273.741 210.621 273.401 209.441 273.401 207.641V200.541C273.401 198.741 273.741 197.641 275.561 197.641C277.361 197.641 277.701 198.741 277.701 200.541V207.641C277.701 209.441 277.361 210.621 275.561 210.621ZM283.982 212.221H286.242V197.701H288.902V196.021H281.242V197.701H283.982V212.221ZM294.604 212.401C297.864 212.401 299.024 210.341 299.024 207.161V201.001C299.024 197.821 297.864 195.881 294.604 195.881C291.324 195.881 290.164 197.801 290.164 201.001V207.141C290.164 210.361 291.304 212.401 294.604 212.401ZM294.604 210.621C292.784 210.621 292.444 209.441 292.444 207.641V200.541C292.444 198.741 292.784 197.641 294.604 197.641C296.404 197.641 296.744 198.741 296.744 200.541V207.641C296.744 209.441 296.404 210.621 294.604 210.621ZM303.025 212.221H305.285V197.701H307.945V196.021H300.285V197.701H303.025V212.221ZM311.987 212.221H314.147V206.501L317.627 196.021H315.507L313.067 203.841L310.587 196.021H308.487L311.987 206.501V212.221ZM319.136 212.221H321.396V204.681H323.176C325.816 204.681 327.156 203.081 327.156 200.501C327.156 197.681 326.056 196.021 323.156 196.021H319.136V212.221ZM321.396 203.061V197.641H322.456C324.716 197.641 325.016 198.221 325.016 200.521C325.016 202.521 324.376 203.061 322.436 203.061H321.396ZM328.745 212.221H335.065V210.601H331.005V204.661H334.265V203.061H331.005V197.701H335.025V196.021H328.745V212.221Z" fill="black"/>
<circle r="65.73" transform="matrix(1 0 0 -1 287.457 305.198)" fill="#D7EDB4"/>
<path d="M266.888 297.636C265.726 297.636 264.899 297.284 264.408 296.58C263.928 295.865 263.688 294.841 263.688 293.508V288.452C263.688 287.108 263.928 286.095 264.408 285.412C264.888 284.719 265.742 284.372 266.968 284.372C268.088 284.372 268.888 284.687 269.368 285.316C269.859 285.935 270.104 286.863 270.104 288.1V288.548H268.952V288.1C268.952 287.129 268.814 286.431 268.536 286.004C268.259 285.567 267.742 285.348 266.984 285.348C266.419 285.348 265.982 285.471 265.672 285.716C265.374 285.961 265.171 286.297 265.064 286.724C264.968 287.14 264.92 287.673 264.92 288.324V293.652C264.92 294.665 265.064 295.417 265.352 295.908C265.651 296.399 266.2 296.644 267 296.644C267.758 296.644 268.286 296.399 268.584 295.908C268.883 295.407 269.032 294.644 269.032 293.62V292.1H267.112V291.188H270.152V297.46H269.368L269.224 295.988C269.043 296.511 268.766 296.916 268.392 297.204C268.019 297.492 267.518 297.636 266.888 297.636ZM274.337 297.604C273.74 297.604 273.26 297.487 272.897 297.252C272.535 297.017 272.268 296.639 272.097 296.116C271.927 295.593 271.841 294.884 271.841 293.988V291.652C271.841 290.745 271.927 290.036 272.097 289.524C272.279 289.001 272.551 288.628 272.913 288.404C273.287 288.18 273.767 288.068 274.353 288.068C274.993 288.068 275.484 288.207 275.825 288.484C276.177 288.751 276.417 289.156 276.545 289.7C276.684 290.244 276.753 290.975 276.753 291.892V292.724H273.009V294.34C273.009 295.225 273.111 295.844 273.313 296.196C273.516 296.548 273.857 296.724 274.337 296.724C274.743 296.724 275.052 296.596 275.265 296.34C275.489 296.084 275.601 295.62 275.601 294.948V294.308H276.737V294.82C276.737 295.716 276.551 296.404 276.177 296.884C275.804 297.364 275.191 297.604 274.337 297.604ZM275.601 292.052V291.284C275.601 290.729 275.569 290.292 275.505 289.972C275.452 289.652 275.335 289.401 275.153 289.22C274.972 289.039 274.7 288.948 274.337 288.948C274.007 288.948 273.745 289.023 273.553 289.172C273.361 289.311 273.223 289.561 273.137 289.924C273.052 290.276 273.009 290.777 273.009 291.428V292.052H275.601ZM278.33 288.212H279.498V289.172C279.807 288.831 280.149 288.564 280.522 288.372C280.906 288.169 281.306 288.068 281.722 288.068C282.181 288.068 282.533 288.239 282.778 288.58C283.023 288.921 283.146 289.407 283.146 290.036V297.46H281.978V290.292C281.978 289.823 281.903 289.487 281.754 289.284C281.615 289.081 281.397 288.98 281.098 288.98C280.842 288.98 280.575 289.06 280.298 289.22C280.021 289.369 279.754 289.577 279.498 289.844V297.46H278.33V288.212ZM287.197 297.604C286.599 297.604 286.119 297.487 285.757 297.252C285.394 297.017 285.127 296.639 284.957 296.116C284.786 295.593 284.701 294.884 284.701 293.988V291.652C284.701 290.745 284.786 290.036 284.957 289.524C285.138 289.001 285.41 288.628 285.773 288.404C286.146 288.18 286.626 288.068 287.213 288.068C287.853 288.068 288.343 288.207 288.685 288.484C289.037 288.751 289.277 289.156 289.405 289.7C289.543 290.244 289.613 290.975 289.613 291.892V292.724H285.869V294.34C285.869 295.225 285.97 295.844 286.173 296.196C286.375 296.548 286.717 296.724 287.197 296.724C287.602 296.724 287.911 296.596 288.125 296.34C288.349 296.084 288.461 295.62 288.461 294.948V294.308H289.597V294.82C289.597 295.716 289.41 296.404 289.037 296.884C288.663 297.364 288.05 297.604 287.197 297.604ZM288.461 292.052V291.284C288.461 290.729 288.429 290.292 288.365 289.972C288.311 289.652 288.194 289.401 288.013 289.22C287.831 289.039 287.559 288.948 287.197 288.948C286.866 288.948 286.605 289.023 286.413 289.172C286.221 289.311 286.082 289.561 285.997 289.924C285.911 290.276 285.869 290.777 285.869 291.428V292.052H288.461ZM291.269 288.212H292.453V289.476C292.731 289.017 293.056 288.676 293.429 288.452C293.813 288.228 294.197 288.116 294.581 288.116C294.656 288.116 294.725 288.121 294.789 288.132V289.38C294.597 289.316 294.405 289.284 294.213 289.284C293.477 289.284 292.891 289.641 292.453 290.356V297.46H291.269V288.212ZM297.492 297.604C296.938 297.604 296.49 297.407 296.148 297.012C295.807 296.617 295.636 296.127 295.636 295.54C295.636 294.932 295.754 294.431 295.988 294.036C296.234 293.641 296.607 293.289 297.108 292.98C297.61 292.671 298.362 292.292 299.364 291.844V291.188C299.364 290.612 299.327 290.164 299.252 289.844C299.188 289.524 299.071 289.295 298.9 289.156C298.74 289.017 298.511 288.948 298.212 288.948C297.348 288.948 296.916 289.476 296.916 290.532V290.852L295.764 290.836C295.775 289.887 295.978 289.188 296.372 288.74C296.767 288.292 297.402 288.068 298.276 288.068C299.087 288.068 299.663 288.313 300.004 288.804C300.356 289.295 300.532 290.068 300.532 291.124V295.62C300.532 295.919 300.538 296.26 300.548 296.644C300.57 297.028 300.591 297.3 300.612 297.46H299.572L299.396 296.18C299.258 296.585 299.018 296.927 298.676 297.204C298.346 297.471 297.951 297.604 297.492 297.604ZM297.86 296.612C298.18 296.612 298.468 296.505 298.724 296.292C298.991 296.068 299.204 295.807 299.364 295.508V292.628C298.639 293.012 298.111 293.311 297.78 293.524C297.46 293.737 297.215 293.977 297.044 294.244C296.884 294.5 296.804 294.836 296.804 295.252C296.804 295.711 296.9 296.052 297.092 296.276C297.295 296.5 297.551 296.612 297.86 296.612ZM304.381 297.572C303.752 297.572 303.315 297.401 303.069 297.06C302.835 296.708 302.717 296.201 302.717 295.54V288.98H301.581V288.212H302.717V285.348H303.885V288.212H305.421V288.98H303.885V295.428C303.885 295.897 303.939 296.223 304.045 296.404C304.152 296.575 304.371 296.66 304.701 296.66C304.904 296.66 305.128 296.633 305.373 296.58V297.476C305.043 297.54 304.712 297.572 304.381 297.572ZM308.994 297.604C308.396 297.604 307.916 297.487 307.554 297.252C307.191 297.017 306.924 296.639 306.754 296.116C306.583 295.593 306.498 294.884 306.498 293.988V291.652C306.498 290.745 306.583 290.036 306.754 289.524C306.935 289.001 307.207 288.628 307.57 288.404C307.943 288.18 308.423 288.068 309.01 288.068C309.65 288.068 310.14 288.207 310.482 288.484C310.834 288.751 311.074 289.156 311.202 289.7C311.34 290.244 311.41 290.975 311.41 291.892V292.724H307.666V294.34C307.666 295.225 307.767 295.844 307.97 296.196C308.172 296.548 308.514 296.724 308.994 296.724C309.399 296.724 309.708 296.596 309.922 296.34C310.146 296.084 310.258 295.62 310.258 294.948V294.308H311.394V294.82C311.394 295.716 311.207 296.404 310.834 296.884C310.46 297.364 309.847 297.604 308.994 297.604ZM310.258 292.052V291.284C310.258 290.729 310.226 290.292 310.162 289.972C310.108 289.652 309.991 289.401 309.81 289.22C309.628 289.039 309.356 288.948 308.994 288.948C308.663 288.948 308.402 289.023 308.21 289.172C308.018 289.311 307.879 289.561 307.794 289.924C307.708 290.276 307.666 290.777 307.666 291.428V292.052H310.258ZM274.302 309.348H275.47V310.932H274.302V309.348ZM274.302 312.212H275.47V321.46H274.302V312.212ZM279.487 321.604C278.698 321.604 278.127 321.305 277.775 320.708C277.434 320.111 277.263 319.119 277.263 317.732V316.02C277.263 314.708 277.418 313.721 277.727 313.06C278.037 312.399 278.607 312.068 279.439 312.068C280.037 312.068 280.581 312.335 281.071 312.868V308.5H282.239V321.46H281.071V320.804C280.581 321.337 280.053 321.604 279.487 321.604ZM279.727 320.676C280.175 320.676 280.623 320.473 281.071 320.068V313.636C280.581 313.199 280.122 312.98 279.695 312.98C279.205 312.98 278.869 313.188 278.687 313.604C278.517 314.02 278.431 314.697 278.431 315.636V317.828C278.431 318.831 278.517 319.556 278.687 320.004C278.869 320.452 279.215 320.676 279.727 320.676ZM286.369 321.604C285.771 321.604 285.291 321.487 284.929 321.252C284.566 321.017 284.299 320.639 284.129 320.116C283.958 319.593 283.873 318.884 283.873 317.988V315.652C283.873 314.745 283.958 314.036 284.129 313.524C284.31 313.001 284.582 312.628 284.945 312.404C285.318 312.18 285.798 312.068 286.385 312.068C287.025 312.068 287.515 312.207 287.857 312.484C288.209 312.751 288.449 313.156 288.577 313.7C288.715 314.244 288.785 314.975 288.785 315.892V316.724H285.041V318.34C285.041 319.225 285.142 319.844 285.345 320.196C285.547 320.548 285.889 320.724 286.369 320.724C286.774 320.724 287.083 320.596 287.297 320.34C287.521 320.084 287.633 319.62 287.633 318.948V318.308H288.769V318.82C288.769 319.716 288.582 320.404 288.209 320.884C287.835 321.364 287.222 321.604 286.369 321.604ZM287.633 316.052V315.284C287.633 314.729 287.601 314.292 287.537 313.972C287.483 313.652 287.366 313.401 287.185 313.22C287.003 313.039 286.731 312.948 286.369 312.948C286.038 312.948 285.777 313.023 285.585 313.172C285.393 313.311 285.254 313.561 285.169 313.924C285.083 314.276 285.041 314.777 285.041 315.428V316.052H287.633ZM291.961 321.604C291.406 321.604 290.958 321.407 290.617 321.012C290.276 320.617 290.105 320.127 290.105 319.54C290.105 318.932 290.222 318.431 290.457 318.036C290.702 317.641 291.076 317.289 291.577 316.98C292.078 316.671 292.83 316.292 293.833 315.844V315.188C293.833 314.612 293.796 314.164 293.721 313.844C293.657 313.524 293.54 313.295 293.369 313.156C293.209 313.017 292.98 312.948 292.681 312.948C291.817 312.948 291.385 313.476 291.385 314.532V314.852L290.233 314.836C290.244 313.887 290.446 313.188 290.841 312.74C291.236 312.292 291.87 312.068 292.745 312.068C293.556 312.068 294.132 312.313 294.473 312.804C294.825 313.295 295.001 314.068 295.001 315.124V319.62C295.001 319.919 295.006 320.26 295.017 320.644C295.038 321.028 295.06 321.3 295.081 321.46H294.041L293.865 320.18C293.726 320.585 293.486 320.927 293.145 321.204C292.814 321.471 292.42 321.604 291.961 321.604ZM292.329 320.612C292.649 320.612 292.937 320.505 293.193 320.292C293.46 320.068 293.673 319.807 293.833 319.508V316.628C293.108 317.012 292.58 317.311 292.249 317.524C291.929 317.737 291.684 317.977 291.513 318.244C291.353 318.5 291.273 318.836 291.273 319.252C291.273 319.711 291.369 320.052 291.561 320.276C291.764 320.5 292.02 320.612 292.329 320.612ZM298.832 321.604C298.107 321.604 297.52 321.369 297.072 320.9C296.635 320.431 296.384 319.791 296.32 318.98L297.296 318.676C297.36 319.38 297.526 319.897 297.792 320.228C298.059 320.559 298.432 320.724 298.912 320.724C299.318 320.724 299.627 320.612 299.84 320.388C300.064 320.153 300.176 319.828 300.176 319.412C300.176 318.804 299.803 318.185 299.056 317.556L297.792 316.468C297.355 316.105 297.035 315.748 296.832 315.396C296.63 315.044 296.528 314.628 296.528 314.148C296.528 313.497 296.726 312.991 297.12 312.628C297.526 312.255 298.064 312.068 298.736 312.068C299.419 312.068 299.942 312.287 300.304 312.724C300.678 313.161 300.886 313.753 300.928 314.5L300.096 314.772C300.032 313.556 299.595 312.948 298.784 312.948C298.422 312.948 298.134 313.049 297.92 313.252C297.707 313.444 297.6 313.716 297.6 314.068C297.6 314.356 297.654 314.607 297.76 314.82C297.867 315.033 298.064 315.268 298.352 315.524L299.664 316.692C300.166 317.14 300.544 317.561 300.8 317.956C301.067 318.34 301.2 318.815 301.2 319.38C301.2 320.084 300.987 320.633 300.56 321.028C300.134 321.412 299.558 321.604 298.832 321.604Z" fill="black"/>
<circle r="65.73" transform="matrix(1 0 0 -1 412.232 214.958)" fill="#89C1E4"/>
<path d="M396.08 192.033H399.008C400.17 192.033 400.997 192.315 401.488 192.881C401.978 193.435 402.224 194.251 402.224 195.329C402.224 196.15 402.09 196.827 401.824 197.361C401.557 197.894 401.093 198.23 400.432 198.369L402.416 204.993H401.232L399.328 198.625H397.296V204.993H396.08V192.033ZM398.944 197.729C399.722 197.729 400.266 197.537 400.576 197.153C400.885 196.769 401.04 196.161 401.04 195.329C401.04 194.486 400.89 193.878 400.592 193.505C400.304 193.131 399.765 192.945 398.976 192.945H397.296V197.729H398.944ZM406.332 205.137C405.734 205.137 405.254 205.019 404.892 204.785C404.529 204.55 404.262 204.171 404.092 203.649C403.921 203.126 403.836 202.417 403.836 201.521V199.185C403.836 198.278 403.921 197.569 404.092 197.057C404.273 196.534 404.545 196.161 404.908 195.937C405.281 195.713 405.761 195.601 406.348 195.601C406.988 195.601 407.478 195.739 407.82 196.017C408.172 196.283 408.412 196.689 408.54 197.233C408.678 197.777 408.748 198.507 408.748 199.425V200.257H405.004V201.873C405.004 202.758 405.105 203.377 405.308 203.729C405.51 204.081 405.852 204.257 406.332 204.257C406.737 204.257 407.046 204.129 407.26 203.873C407.484 203.617 407.596 203.153 407.596 202.481V201.841H408.732V202.353C408.732 203.249 408.545 203.937 408.172 204.417C407.798 204.897 407.185 205.137 406.332 205.137ZM407.596 199.585V198.817C407.596 198.262 407.564 197.825 407.5 197.505C407.446 197.185 407.329 196.934 407.148 196.753C406.966 196.571 406.694 196.481 406.332 196.481C406.001 196.481 405.74 196.555 405.548 196.705C405.356 196.843 405.217 197.094 405.132 197.457C405.046 197.809 405.004 198.31 405.004 198.961V199.585H407.596ZM410.9 196.593H409.716V195.745H410.9V194.785C410.9 193.995 411.023 193.409 411.268 193.025C411.524 192.641 411.999 192.449 412.692 192.449C412.969 192.449 413.252 192.475 413.54 192.529V193.409C413.359 193.366 413.145 193.345 412.9 193.345C412.559 193.345 412.335 193.435 412.228 193.617C412.132 193.798 412.084 194.15 412.084 194.673V195.745H415.588V204.993H414.42V196.593H412.084V204.993H410.9V196.593ZM414.516 192.881H415.604V194.465H414.516V192.881ZM417.558 195.745H418.726V196.705C419.036 196.363 419.377 196.097 419.75 195.905C420.134 195.702 420.534 195.601 420.95 195.601C421.409 195.601 421.761 195.771 422.006 196.113C422.252 196.454 422.374 196.939 422.374 197.569V204.993H421.206V197.825C421.206 197.355 421.132 197.019 420.982 196.817C420.844 196.614 420.625 196.513 420.326 196.513C420.07 196.513 419.804 196.593 419.526 196.753C419.249 196.902 418.982 197.11 418.726 197.377V204.993H417.558V195.745ZM426.425 205.137C425.828 205.137 425.348 205.019 424.985 204.785C424.623 204.55 424.356 204.171 424.185 203.649C424.015 203.126 423.929 202.417 423.929 201.521V199.185C423.929 198.278 424.015 197.569 424.185 197.057C424.367 196.534 424.639 196.161 425.001 195.937C425.375 195.713 425.855 195.601 426.441 195.601C427.081 195.601 427.572 195.739 427.913 196.017C428.265 196.283 428.505 196.689 428.633 197.233C428.772 197.777 428.841 198.507 428.841 199.425V200.257H425.097V201.873C425.097 202.758 425.199 203.377 425.401 203.729C425.604 204.081 425.945 204.257 426.425 204.257C426.831 204.257 427.14 204.129 427.353 203.873C427.577 203.617 427.689 203.153 427.689 202.481V201.841H428.825V202.353C428.825 203.249 428.639 203.937 428.265 204.417C427.892 204.897 427.279 205.137 426.425 205.137ZM427.689 199.585V198.817C427.689 198.262 427.657 197.825 427.593 197.505C427.54 197.185 427.423 196.934 427.241 196.753C427.06 196.571 426.788 196.481 426.425 196.481C426.095 196.481 425.833 196.555 425.641 196.705C425.449 196.843 425.311 197.094 425.225 197.457C425.14 197.809 425.097 198.31 425.097 198.961V199.585H427.689ZM390.158 229.137C389.604 229.137 389.156 228.939 388.814 228.545C388.473 228.15 388.302 227.659 388.302 227.073C388.302 226.465 388.42 225.963 388.654 225.569C388.9 225.174 389.273 224.822 389.774 224.513C390.276 224.203 391.028 223.825 392.03 223.377V222.721C392.03 222.145 391.993 221.697 391.918 221.377C391.854 221.057 391.737 220.827 391.566 220.689C391.406 220.55 391.177 220.481 390.878 220.481C390.014 220.481 389.582 221.009 389.582 222.065V222.385L388.43 222.369C388.441 221.419 388.644 220.721 389.038 220.273C389.433 219.825 390.068 219.601 390.942 219.601C391.753 219.601 392.329 219.846 392.67 220.337C393.022 220.827 393.198 221.601 393.198 222.657V227.153C393.198 227.451 393.204 227.793 393.214 228.177C393.236 228.561 393.257 228.833 393.278 228.993H392.238L392.062 227.713C391.924 228.118 391.684 228.459 391.342 228.737C391.012 229.003 390.617 229.137 390.158 229.137ZM390.526 228.145C390.846 228.145 391.134 228.038 391.39 227.825C391.657 227.601 391.87 227.339 392.03 227.041V224.161C391.305 224.545 390.777 224.843 390.446 225.057C390.126 225.27 389.881 225.51 389.71 225.777C389.55 226.033 389.47 226.369 389.47 226.785C389.47 227.243 389.566 227.585 389.758 227.809C389.961 228.033 390.217 228.145 390.526 228.145ZM394.918 219.745H396.086V220.705C396.395 220.363 396.736 220.097 397.11 219.905C397.494 219.702 397.894 219.601 398.31 219.601C398.768 219.601 399.12 219.771 399.366 220.113C399.611 220.454 399.734 220.939 399.734 221.569V228.993H398.566V221.825C398.566 221.355 398.491 221.019 398.342 220.817C398.203 220.614 397.984 220.513 397.686 220.513C397.43 220.513 397.163 220.593 396.886 220.753C396.608 220.902 396.342 221.11 396.086 221.377V228.993H394.918V219.745ZM403.513 229.137C402.723 229.137 402.153 228.838 401.801 228.241C401.459 227.643 401.289 226.651 401.289 225.265V223.553C401.289 222.241 401.443 221.254 401.753 220.593C402.062 219.931 402.633 219.601 403.465 219.601C404.062 219.601 404.606 219.867 405.097 220.401V216.033H406.265V228.993H405.097V228.337C404.606 228.87 404.078 229.137 403.513 229.137ZM403.753 228.209C404.201 228.209 404.649 228.006 405.097 227.601V221.169C404.606 220.731 404.147 220.513 403.721 220.513C403.23 220.513 402.894 220.721 402.713 221.137C402.542 221.553 402.457 222.23 402.457 223.169V225.361C402.457 226.363 402.542 227.089 402.713 227.537C402.894 227.985 403.241 228.209 403.753 228.209ZM414.172 229.137C413.574 229.137 413.025 228.843 412.524 228.257V228.993H411.356V216.033H412.524V220.513C412.726 220.246 412.977 220.027 413.276 219.857C413.574 219.686 413.91 219.601 414.284 219.601C415.094 219.601 415.649 219.937 415.948 220.609C416.246 221.281 416.396 222.171 416.396 223.281V225.233C416.396 226.502 416.23 227.473 415.9 228.145C415.569 228.806 414.993 229.137 414.172 229.137ZM413.964 228.209C414.465 228.209 414.796 227.979 414.956 227.521C415.126 227.062 415.212 226.31 415.212 225.265V223.281C415.212 222.289 415.126 221.579 414.956 221.153C414.796 220.726 414.46 220.513 413.948 220.513C413.478 220.513 413.004 220.753 412.524 221.233V227.537C412.929 227.985 413.409 228.209 413.964 228.209ZM419.356 229.137C418.887 229.137 418.529 228.966 418.284 228.625C418.039 228.283 417.916 227.798 417.916 227.169V219.745H419.1V226.913C419.1 227.382 419.169 227.718 419.308 227.921C419.457 228.113 419.681 228.209 419.98 228.209C420.247 228.209 420.519 228.129 420.796 227.969C421.084 227.798 421.356 227.574 421.612 227.297V219.745H422.78V228.993H421.612V227.969C421.303 228.331 420.956 228.619 420.572 228.833C420.188 229.035 419.783 229.137 419.356 229.137ZM424.718 216.881H425.886V218.465H424.718V216.881ZM424.718 219.745H425.886V228.993H424.718V219.745ZM428.015 216.033H429.183V228.993H428.015V216.033ZM433.138 229.137C432.348 229.137 431.778 228.838 431.426 228.241C431.084 227.643 430.914 226.651 430.914 225.265V223.553C430.914 222.241 431.068 221.254 431.378 220.593C431.687 219.931 432.258 219.601 433.09 219.601C433.687 219.601 434.231 219.867 434.722 220.401V216.033H435.89V228.993H434.722V228.337C434.231 228.87 433.703 229.137 433.138 229.137ZM433.378 228.209C433.826 228.209 434.274 228.006 434.722 227.601V221.169C434.231 220.731 433.772 220.513 433.346 220.513C432.855 220.513 432.519 220.721 432.338 221.137C432.167 221.553 432.082 222.23 432.082 223.169V225.361C432.082 226.363 432.167 227.089 432.338 227.537C432.519 227.985 432.866 228.209 433.378 228.209Z" fill="black"/>
<circle r="65.73" transform="matrix(1 0 0 -1 167.138 214.958)" fill="#89C1E4"/>
<path d="M148.376 192.033H153.064V192.977H149.608V197.841H152.424V198.737H149.608V204.081H153.096V204.993H148.376V192.033ZM156.079 200.161L153.999 195.745H155.151L156.735 199.137L158.255 195.745H159.439L157.279 200.289L159.471 204.993H158.351L156.623 201.361L155.007 204.993H153.887L156.079 200.161ZM160.605 195.745H161.773V196.513C162.253 195.905 162.845 195.601 163.549 195.601C164.36 195.601 164.909 195.937 165.197 196.609C165.496 197.27 165.645 198.161 165.645 199.281V201.233C165.645 202.502 165.48 203.473 165.149 204.145C164.819 204.806 164.243 205.137 163.421 205.137C162.845 205.137 162.296 204.843 161.773 204.257V208.033H160.605V195.745ZM163.245 204.209C163.736 204.209 164.061 203.979 164.221 203.521C164.392 203.062 164.477 202.31 164.477 201.265V199.281C164.477 198.289 164.392 197.579 164.221 197.153C164.061 196.726 163.725 196.513 163.213 196.513C162.733 196.513 162.253 196.753 161.773 197.233V203.537C162.2 203.985 162.691 204.209 163.245 204.209ZM167.437 192.033H168.605V204.993H167.437V192.033ZM172.8 205.137C171.882 205.137 171.242 204.854 170.88 204.289C170.517 203.713 170.336 202.833 170.336 201.649V199.089C170.336 197.905 170.517 197.03 170.88 196.465C171.242 195.889 171.882 195.601 172.8 195.601C173.728 195.601 174.373 195.889 174.736 196.465C175.098 197.03 175.28 197.905 175.28 199.089V201.649C175.28 202.833 175.098 203.713 174.736 204.289C174.373 204.854 173.728 205.137 172.8 205.137ZM172.8 204.257C173.184 204.257 173.466 204.155 173.648 203.953C173.84 203.75 173.962 203.478 174.016 203.137C174.069 202.785 174.096 202.31 174.096 201.713V199.025C174.096 198.427 174.069 197.958 174.016 197.617C173.962 197.265 173.84 196.987 173.648 196.785C173.466 196.582 173.184 196.481 172.8 196.481C172.416 196.481 172.133 196.582 171.952 196.785C171.77 196.987 171.653 197.265 171.6 197.617C171.546 197.958 171.52 198.427 171.52 199.025V201.713C171.52 202.31 171.546 202.785 171.6 203.137C171.653 203.478 171.77 203.75 171.952 203.953C172.133 204.155 172.416 204.257 172.8 204.257ZM176.982 195.745H178.166V197.009C178.443 196.55 178.769 196.209 179.142 195.985C179.526 195.761 179.91 195.649 180.294 195.649C180.369 195.649 180.438 195.654 180.502 195.665V196.913C180.31 196.849 180.118 196.817 179.926 196.817C179.19 196.817 178.603 197.174 178.166 197.889V204.993H176.982V195.745ZM183.925 205.137C183.328 205.137 182.848 205.019 182.485 204.785C182.123 204.55 181.856 204.171 181.685 203.649C181.515 203.126 181.429 202.417 181.429 201.521V199.185C181.429 198.278 181.515 197.569 181.685 197.057C181.867 196.534 182.139 196.161 182.501 195.937C182.875 195.713 183.355 195.601 183.941 195.601C184.581 195.601 185.072 195.739 185.413 196.017C185.765 196.283 186.005 196.689 186.133 197.233C186.272 197.777 186.341 198.507 186.341 199.425V200.257H182.597V201.873C182.597 202.758 182.699 203.377 182.901 203.729C183.104 204.081 183.445 204.257 183.925 204.257C184.331 204.257 184.64 204.129 184.853 203.873C185.077 203.617 185.189 203.153 185.189 202.481V201.841H186.325V202.353C186.325 203.249 186.139 203.937 185.765 204.417C185.392 204.897 184.779 205.137 183.925 205.137ZM185.189 199.585V198.817C185.189 198.262 185.157 197.825 185.093 197.505C185.04 197.185 184.923 196.934 184.741 196.753C184.56 196.571 184.288 196.481 183.925 196.481C183.595 196.481 183.333 196.555 183.141 196.705C182.949 196.843 182.811 197.094 182.725 197.457C182.64 197.809 182.597 198.31 182.597 198.961V199.585H185.189ZM135.91 219.745H137.078V220.513C137.558 219.905 138.15 219.601 138.854 219.601C139.665 219.601 140.214 219.937 140.502 220.609C140.801 221.27 140.95 222.161 140.95 223.281V225.233C140.95 226.502 140.785 227.473 140.454 228.145C140.123 228.806 139.547 229.137 138.726 229.137C138.15 229.137 137.601 228.843 137.078 228.257V232.033H135.91V219.745ZM138.55 228.209C139.041 228.209 139.366 227.979 139.526 227.521C139.697 227.062 139.782 226.31 139.782 225.265V223.281C139.782 222.289 139.697 221.579 139.526 221.153C139.366 220.726 139.03 220.513 138.518 220.513C138.038 220.513 137.558 220.753 137.078 221.233V227.537C137.505 227.985 137.995 228.209 138.55 228.209ZM144.87 229.137C143.952 229.137 143.312 228.854 142.95 228.289C142.587 227.713 142.406 226.833 142.406 225.649V223.089C142.406 221.905 142.587 221.03 142.95 220.465C143.312 219.889 143.952 219.601 144.87 219.601C145.798 219.601 146.443 219.889 146.806 220.465C147.168 221.03 147.35 221.905 147.35 223.089V225.649C147.35 226.833 147.168 227.713 146.806 228.289C146.443 228.854 145.798 229.137 144.87 229.137ZM144.87 228.257C145.254 228.257 145.536 228.155 145.718 227.953C145.91 227.75 146.032 227.478 146.086 227.137C146.139 226.785 146.166 226.31 146.166 225.713V223.025C146.166 222.427 146.139 221.958 146.086 221.617C146.032 221.265 145.91 220.987 145.718 220.785C145.536 220.582 145.254 220.481 144.87 220.481C144.486 220.481 144.203 220.582 144.022 220.785C143.84 220.987 143.723 221.265 143.67 221.617C143.616 221.958 143.59 222.427 143.59 223.025V225.713C143.59 226.31 143.616 226.785 143.67 227.137C143.723 227.478 143.84 227.75 144.022 227.953C144.203 228.155 144.486 228.257 144.87 228.257ZM151.084 229.137C150.359 229.137 149.772 228.902 149.324 228.433C148.887 227.963 148.636 227.323 148.572 226.513L149.548 226.209C149.612 226.913 149.778 227.43 150.044 227.761C150.311 228.091 150.684 228.257 151.164 228.257C151.57 228.257 151.879 228.145 152.092 227.921C152.316 227.686 152.428 227.361 152.428 226.945C152.428 226.337 152.055 225.718 151.308 225.089L150.044 224.001C149.607 223.638 149.287 223.281 149.084 222.929C148.882 222.577 148.78 222.161 148.78 221.681C148.78 221.03 148.978 220.523 149.372 220.161C149.778 219.787 150.316 219.601 150.988 219.601C151.671 219.601 152.194 219.819 152.556 220.257C152.93 220.694 153.138 221.286 153.18 222.033L152.348 222.305C152.284 221.089 151.847 220.481 151.036 220.481C150.674 220.481 150.386 220.582 150.172 220.785C149.959 220.977 149.852 221.249 149.852 221.601C149.852 221.889 149.906 222.139 150.012 222.353C150.119 222.566 150.316 222.801 150.604 223.057L151.916 224.225C152.418 224.673 152.796 225.094 153.052 225.489C153.319 225.873 153.452 226.347 153.452 226.913C153.452 227.617 153.239 228.166 152.812 228.561C152.386 228.945 151.81 229.137 151.084 229.137ZM156.897 229.137C156.172 229.137 155.585 228.902 155.137 228.433C154.7 227.963 154.449 227.323 154.385 226.513L155.361 226.209C155.425 226.913 155.59 227.43 155.857 227.761C156.124 228.091 156.497 228.257 156.977 228.257C157.382 228.257 157.692 228.145 157.905 227.921C158.129 227.686 158.241 227.361 158.241 226.945C158.241 226.337 157.868 225.718 157.121 225.089L155.857 224.001C155.42 223.638 155.1 223.281 154.897 222.929C154.694 222.577 154.593 222.161 154.593 221.681C154.593 221.03 154.79 220.523 155.185 220.161C155.59 219.787 156.129 219.601 156.801 219.601C157.484 219.601 158.006 219.819 158.369 220.257C158.742 220.694 158.95 221.286 158.993 222.033L158.161 222.305C158.097 221.089 157.66 220.481 156.849 220.481C156.486 220.481 156.198 220.582 155.985 220.785C155.772 220.977 155.665 221.249 155.665 221.601C155.665 221.889 155.718 222.139 155.825 222.353C155.932 222.566 156.129 222.801 156.417 223.057L157.729 224.225C158.23 224.673 158.609 225.094 158.865 225.489C159.132 225.873 159.265 226.347 159.265 226.913C159.265 227.617 159.052 228.166 158.625 228.561C158.198 228.945 157.622 229.137 156.897 229.137ZM160.725 216.881H161.893V218.465H160.725V216.881ZM160.725 219.745H161.893V228.993H160.725V219.745ZM166.695 229.137C166.098 229.137 165.548 228.843 165.047 228.257V228.993H163.879V216.033H165.047V220.513C165.25 220.246 165.5 220.027 165.799 219.857C166.098 219.686 166.434 219.601 166.807 219.601C167.618 219.601 168.172 219.937 168.471 220.609C168.77 221.281 168.919 222.171 168.919 223.281V225.233C168.919 226.502 168.754 227.473 168.423 228.145C168.092 228.806 167.516 229.137 166.695 229.137ZM166.487 228.209C166.988 228.209 167.319 227.979 167.479 227.521C167.65 227.062 167.735 226.31 167.735 225.265V223.281C167.735 222.289 167.65 221.579 167.479 221.153C167.319 220.726 166.983 220.513 166.471 220.513C166.002 220.513 165.527 220.753 165.047 221.233V227.537C165.452 227.985 165.932 228.209 166.487 228.209ZM170.647 216.881H171.815V218.465H170.647V216.881ZM170.647 219.745H171.815V228.993H170.647V219.745ZM173.945 216.033H175.113V228.993H173.945V216.033ZM177.147 216.881H178.315V218.465H177.147V216.881ZM177.147 219.745H178.315V228.993H177.147V219.745ZM182.477 229.105C181.848 229.105 181.41 228.934 181.165 228.593C180.93 228.241 180.813 227.734 180.813 227.073V220.513H179.677V219.745H180.813V216.881H181.981V219.745H183.517V220.513H181.981V226.961C181.981 227.43 182.034 227.755 182.141 227.937C182.248 228.107 182.466 228.193 182.797 228.193C183 228.193 183.224 228.166 183.469 228.113V229.009C183.138 229.073 182.808 229.105 182.477 229.105ZM184.897 216.881H186.065V218.465H184.897V216.881ZM184.897 219.745H186.065V228.993H184.897V219.745ZM190.355 229.137C189.758 229.137 189.278 229.019 188.915 228.785C188.552 228.55 188.286 228.171 188.115 227.649C187.944 227.126 187.859 226.417 187.859 225.521V223.185C187.859 222.278 187.944 221.569 188.115 221.057C188.296 220.534 188.568 220.161 188.931 219.937C189.304 219.713 189.784 219.601 190.371 219.601C191.011 219.601 191.502 219.739 191.843 220.017C192.195 220.283 192.435 220.689 192.563 221.233C192.702 221.777 192.771 222.507 192.771 223.425V224.257H189.027V225.873C189.027 226.758 189.128 227.377 189.331 227.729C189.534 228.081 189.875 228.257 190.355 228.257C190.76 228.257 191.07 228.129 191.283 227.873C191.507 227.617 191.619 227.153 191.619 226.481V225.841H192.755V226.353C192.755 227.249 192.568 227.937 192.195 228.417C191.822 228.897 191.208 229.137 190.355 229.137ZM191.619 223.585V222.817C191.619 222.262 191.587 221.825 191.523 221.505C191.47 221.185 191.352 220.934 191.171 220.753C190.99 220.571 190.718 220.481 190.355 220.481C190.024 220.481 189.763 220.555 189.571 220.705C189.379 220.843 189.24 221.094 189.155 221.457C189.07 221.809 189.027 222.31 189.027 222.961V223.585H191.619ZM196.459 229.137C195.734 229.137 195.147 228.902 194.699 228.433C194.262 227.963 194.011 227.323 193.947 226.513L194.923 226.209C194.987 226.913 195.153 227.43 195.419 227.761C195.686 228.091 196.059 228.257 196.539 228.257C196.945 228.257 197.254 228.145 197.467 227.921C197.691 227.686 197.803 227.361 197.803 226.945C197.803 226.337 197.43 225.718 196.683 225.089L195.419 224.001C194.982 223.638 194.662 223.281 194.459 222.929C194.257 222.577 194.155 222.161 194.155 221.681C194.155 221.03 194.353 220.523 194.747 220.161C195.153 219.787 195.691 219.601 196.363 219.601C197.046 219.601 197.569 219.819 197.931 220.257C198.305 220.694 198.513 221.286 198.555 222.033L197.723 222.305C197.659 221.089 197.222 220.481 196.411 220.481C196.049 220.481 195.761 220.582 195.547 220.785C195.334 220.977 195.227 221.249 195.227 221.601C195.227 221.889 195.281 222.139 195.387 222.353C195.494 222.566 195.691 222.801 195.979 223.057L197.291 224.225C197.793 224.673 198.171 225.094 198.427 225.489C198.694 225.873 198.827 226.347 198.827 226.913C198.827 227.617 198.614 228.166 198.187 228.561C197.761 228.945 197.185 229.137 196.459 229.137Z" fill="black"/>
<path d="M286.377 405.711C286.514 405.693 286.609 405.566 286.591 405.43L286.282 403.201C286.263 403.064 286.137 402.969 286 402.987C285.863 403.006 285.768 403.133 285.787 403.269L286.061 405.25L284.08 405.525C283.943 405.544 283.848 405.67 283.867 405.807C283.885 405.943 284.012 406.039 284.148 406.02L286.377 405.711ZM80.0894 249.694L80.4888 249.996L80.7905 249.597L80.3911 249.295L80.0894 249.694ZM84.483 253.019L85.2819 253.623L85.5836 253.224L84.7848 252.62L84.483 253.019ZM89.2761 256.646L90.075 257.25L90.3767 256.852L89.5778 256.247L89.2761 256.646ZM94.0692 260.273L94.8681 260.877L95.1698 260.479L94.3709 259.874L94.0692 260.273ZM98.8623 263.9L99.6611 264.505L99.9629 264.106L99.164 263.501L98.8623 263.9ZM103.655 267.527L104.454 268.132L104.756 267.733L103.957 267.129L103.655 267.527ZM108.448 271.155L109.247 271.759L109.549 271.36L108.75 270.756L108.448 271.155ZM113.242 274.782L114.04 275.386L114.342 274.988L113.543 274.383L113.242 274.782ZM118.035 278.409L118.833 279.013L119.135 278.615L118.336 278.01L118.035 278.409ZM122.828 282.036L123.627 282.641L123.928 282.242L123.129 281.637L122.828 282.036ZM127.621 285.663L128.42 286.268L128.721 285.869L127.923 285.265L127.621 285.663ZM132.414 289.291L133.213 289.895L133.514 289.496L132.716 288.892L132.414 289.291ZM137.207 292.918L138.006 293.522L138.308 293.124L137.509 292.519L137.207 292.918ZM142 296.545L142.799 297.149L143.101 296.751L142.302 296.146L142 296.545ZM146.793 300.172L147.592 300.777L147.894 300.378L147.095 299.773L146.793 300.172ZM151.586 303.799L152.385 304.404L152.687 304.005L151.888 303.401L151.586 303.799ZM156.379 307.427L157.178 308.031L157.48 307.632L156.681 307.028L156.379 307.427ZM161.172 311.054L161.971 311.658L162.273 311.26L161.474 310.655L161.172 311.054ZM165.965 314.681L166.764 315.285L167.066 314.887L166.267 314.282L165.965 314.681ZM170.759 318.308L171.557 318.913L171.859 318.514L171.06 317.909L170.759 318.308ZM175.552 321.935L176.35 322.54L176.652 322.141L175.853 321.537L175.552 321.935ZM180.345 325.563L181.144 326.167L181.445 325.768L180.646 325.164L180.345 325.563ZM185.138 329.19L185.937 329.794L186.238 329.396L185.44 328.791L185.138 329.19ZM189.931 332.817L190.73 333.421L191.031 333.023L190.233 332.418L189.931 332.817ZM194.724 336.444L195.523 337.049L195.825 336.65L195.026 336.045L194.724 336.444ZM199.517 340.071L200.316 340.676L200.618 340.277L199.819 339.673L199.517 340.071ZM204.31 343.699L205.109 344.303L205.411 343.904L204.612 343.3L204.31 343.699ZM209.103 347.326L209.902 347.93L210.204 347.532L209.405 346.927L209.103 347.326ZM213.896 350.953L214.695 351.557L214.997 351.159L214.198 350.554L213.896 350.953ZM218.689 354.58L219.488 355.185L219.79 354.786L218.991 354.181L218.689 354.58ZM223.482 358.207L224.281 358.812L224.583 358.413L223.784 357.809L223.482 358.207ZM228.275 361.834L229.074 362.439L229.376 362.04L228.577 361.436L228.275 361.834ZM233.069 365.462L233.867 366.066L234.169 365.667L233.37 365.063L233.069 365.462ZM237.862 369.089L238.66 369.693L238.962 369.295L238.163 368.69L237.862 369.089ZM242.655 372.716L243.454 373.321L243.755 372.922L242.956 372.317L242.655 372.716ZM247.448 376.343L248.247 376.948L248.548 376.549L247.75 375.945L247.448 376.343ZM252.241 379.97L253.04 380.575L253.341 380.176L252.543 379.572L252.241 379.97ZM257.034 383.598L257.833 384.202L258.135 383.803L257.336 383.199L257.034 383.598ZM261.827 387.225L262.626 387.829L262.928 387.431L262.129 386.826L261.827 387.225ZM266.62 390.852L267.419 391.457L267.721 391.058L266.922 390.453L266.62 390.852ZM271.413 394.479L272.212 395.084L272.514 394.685L271.715 394.081L271.413 394.479ZM276.206 398.106L277.005 398.711L277.307 398.312L276.508 397.708L276.206 398.106ZM280.999 401.734L281.798 402.338L282.1 401.939L281.301 401.335L280.999 401.734ZM285.792 405.361L286.192 405.663L286.494 405.264L286.094 404.962L285.792 405.361ZM286.411 405.959C286.685 405.921 286.876 405.669 286.838 405.395L286.221 400.938C286.183 400.664 285.931 400.473 285.657 400.511C285.384 400.549 285.193 400.801 285.23 401.075L285.779 405.037L281.817 405.586C281.543 405.624 281.352 405.876 281.39 406.15C281.428 406.423 281.68 406.614 281.954 406.576L286.411 405.959ZM79.9385 249.893L80.3379 250.195L80.9414 249.398L80.542 249.096L79.9385 249.893ZM84.3322 253.218L85.131 253.822L85.7345 253.025L84.9356 252.42L84.3322 253.218ZM89.1253 256.845L89.9241 257.45L90.5275 256.652L89.7287 256.048L89.1253 256.845ZM93.9183 260.472L94.7172 261.077L95.3206 260.279L94.5218 259.675L93.9183 260.472ZM98.7114 264.099L99.5103 264.704L100.114 263.907L99.3149 263.302L98.7114 264.099ZM103.505 267.727L104.303 268.331L104.907 267.534L104.108 266.929L103.505 267.727ZM108.298 271.354L109.096 271.958L109.7 271.161L108.901 270.556L108.298 271.354ZM113.091 274.981L113.89 275.586L114.493 274.788L113.694 274.184L113.091 274.981ZM117.884 278.608L118.683 279.213L119.286 278.415L118.487 277.811L117.884 278.608ZM122.677 282.236L123.476 282.84L124.079 282.043L123.28 281.438L122.677 282.236ZM127.47 285.863L128.269 286.467L128.872 285.67L128.073 285.065L127.47 285.863ZM132.263 289.49L133.062 290.094L133.665 289.297L132.866 288.692L132.263 289.49ZM137.056 293.117L137.855 293.722L138.458 292.924L137.66 292.32L137.056 293.117ZM141.849 296.744L142.648 297.349L143.251 296.551L142.453 295.947L141.849 296.744ZM146.642 300.371L147.441 300.976L148.045 300.179L147.246 299.574L146.642 300.371ZM151.435 303.999L152.234 304.603L152.838 303.806L152.039 303.201L151.435 303.999ZM156.228 307.626L157.027 308.23L157.631 307.433L156.832 306.828L156.228 307.626ZM161.022 311.253L161.82 311.858L162.424 311.06L161.625 310.456L161.022 311.253ZM165.815 314.88L166.613 315.485L167.217 314.687L166.418 314.083L165.815 314.88ZM170.608 318.507L171.407 319.112L172.01 318.315L171.211 317.71L170.608 318.507ZM175.401 322.135L176.2 322.739L176.803 321.942L176.004 321.337L175.401 322.135ZM180.194 325.762L180.993 326.366L181.596 325.569L180.797 324.964L180.194 325.762ZM184.987 329.389L185.786 329.994L186.389 329.196L185.59 328.592L184.987 329.389ZM189.78 333.016L190.579 333.621L191.182 332.823L190.383 332.219L189.78 333.016ZM194.573 336.643L195.372 337.248L195.975 336.451L195.177 335.846L194.573 336.643ZM199.366 340.271L200.165 340.875L200.768 340.078L199.97 339.473L199.366 340.271ZM204.159 343.898L204.958 344.502L205.562 343.705L204.763 343.1L204.159 343.898ZM208.952 347.525L209.751 348.13L210.355 347.332L209.556 346.728L208.952 347.525ZM213.745 351.152L214.544 351.757L215.148 350.959L214.349 350.355L213.745 351.152ZM218.538 354.779L219.337 355.384L219.941 354.587L219.142 353.982L218.538 354.779ZM223.332 358.407L224.13 359.011L224.734 358.214L223.935 357.609L223.332 358.407ZM228.125 362.034L228.923 362.638L229.527 361.841L228.728 361.236L228.125 362.034ZM232.918 365.661L233.717 366.266L234.32 365.468L233.521 364.864L232.918 365.661ZM237.711 369.288L238.51 369.893L239.113 369.095L238.314 368.491L237.711 369.288ZM242.504 372.915L243.303 373.52L243.906 372.723L243.107 372.118L242.504 372.915ZM247.297 376.543L248.096 377.147L248.699 376.35L247.9 375.745L247.297 376.543ZM252.09 380.17L252.889 380.774L253.492 379.977L252.693 379.372L252.09 380.17ZM256.883 383.797L257.682 384.402L258.285 383.604L257.487 383L256.883 383.797ZM261.676 387.424L262.475 388.029L263.078 387.231L262.28 386.627L261.676 387.424ZM266.469 391.051L267.268 391.656L267.872 390.858L267.073 390.254L266.469 391.051ZM271.262 394.679L272.061 395.283L272.665 394.486L271.866 393.881L271.262 394.679ZM276.055 398.306L276.854 398.91L277.458 398.113L276.659 397.508L276.055 398.306ZM280.848 401.933L281.647 402.537L282.251 401.74L281.452 401.136L280.848 401.933ZM285.642 405.56L286.041 405.863L286.645 405.065L286.245 404.763L285.642 405.56Z" fill="black"/>
<path d="M495.239 249.529C495.258 249.392 495.163 249.266 495.026 249.247L492.797 248.937C492.661 248.918 492.534 249.013 492.515 249.15C492.496 249.287 492.592 249.413 492.728 249.432L494.709 249.707L494.434 251.688C494.415 251.825 494.51 251.951 494.647 251.97C494.784 251.989 494.91 251.894 494.929 251.757L495.239 249.529ZM293.178 402.321L293.579 402.018L293.277 401.619L292.877 401.922L293.178 402.321ZM297.586 398.99L298.387 398.384L298.086 397.985L297.285 398.591L297.586 398.99ZM302.395 395.356L303.196 394.75L302.895 394.351L302.093 394.957L302.395 395.356ZM307.203 391.722L308.005 391.116L307.703 390.717L306.902 391.323L307.203 391.722ZM312.012 388.088L312.813 387.482L312.512 387.083L311.711 387.689L312.012 388.088ZM316.821 384.454L317.622 383.848L317.321 383.449L316.519 384.055L316.821 384.454ZM321.629 380.82L322.431 380.214L322.129 379.816L321.328 380.421L321.629 380.82ZM326.438 377.186L327.239 376.58L326.938 376.182L326.137 376.787L326.438 377.186ZM331.247 373.552L332.048 372.946L331.747 372.548L330.945 373.153L331.247 373.552ZM336.055 369.918L336.857 369.312L336.555 368.914L335.754 369.519L336.055 369.918ZM340.864 366.284L341.665 365.678L341.364 365.28L340.563 365.885L340.864 366.284ZM345.673 362.65L346.474 362.044L346.173 361.646L345.371 362.251L345.673 362.65ZM350.481 359.016L351.283 358.41L350.981 358.012L350.18 358.617L350.481 359.016ZM355.29 355.382L356.091 354.777L355.79 354.378L354.989 354.983L355.29 355.382ZM360.099 351.748L360.9 351.143L360.599 350.744L359.797 351.349L360.099 351.748ZM364.907 348.114L365.709 347.509L365.407 347.11L364.606 347.715L364.907 348.114ZM369.716 344.48L370.517 343.875L370.216 343.476L369.415 344.081L369.716 344.48ZM374.525 340.846L375.326 340.241L375.025 339.842L374.223 340.447L374.525 340.846ZM379.333 337.212L380.135 336.607L379.833 336.208L379.032 336.813L379.333 337.212ZM384.142 333.578L384.943 332.973L384.642 332.574L383.841 333.179L384.142 333.578ZM388.951 329.944L389.752 329.339L389.451 328.94L388.649 329.545L388.951 329.944ZM393.759 326.31L394.561 325.705L394.259 325.306L393.458 325.911L393.759 326.31ZM398.568 322.676L399.37 322.071L399.068 321.672L398.267 322.277L398.568 322.676ZM403.377 319.042L404.178 318.437L403.877 318.038L403.075 318.643L403.377 319.042ZM408.185 315.408L408.987 314.803L408.685 314.404L407.884 315.009L408.185 315.408ZM412.994 311.774L413.796 311.169L413.494 310.77L412.693 311.375L412.994 311.774ZM417.803 308.14L418.604 307.535L418.303 307.136L417.501 307.741L417.803 308.14ZM422.611 304.506L423.413 303.901L423.111 303.502L422.31 304.107L422.611 304.506ZM427.42 300.872L428.222 300.267L427.92 299.868L427.119 300.473L427.42 300.872ZM432.229 297.238L433.03 296.633L432.729 296.234L431.927 296.839L432.229 297.238ZM437.037 293.604L437.839 292.999L437.537 292.6L436.736 293.205L437.037 293.604ZM441.846 289.97L442.648 289.365L442.346 288.966L441.545 289.571L441.846 289.97ZM446.655 286.336L447.456 285.731L447.155 285.332L446.353 285.937L446.655 286.336ZM451.463 282.702L452.265 282.097L451.963 281.698L451.162 282.304L451.463 282.702ZM456.272 279.068L457.074 278.463L456.772 278.064L455.971 278.67L456.272 279.068ZM461.081 275.434L461.882 274.829L461.581 274.43L460.779 275.036L461.081 275.434ZM465.89 271.8L466.691 271.195L466.389 270.796L465.588 271.402L465.89 271.8ZM470.698 268.166L471.5 267.561L471.198 267.162L470.397 267.768L470.698 268.166ZM475.507 264.532L476.308 263.927L476.007 263.528L475.205 264.134L475.507 264.532ZM480.316 260.898L481.117 260.293L480.816 259.894L480.014 260.5L480.316 260.898ZM485.124 257.264L485.926 256.659L485.624 256.26L484.823 256.866L485.124 257.264ZM489.933 253.63L490.734 253.025L490.433 252.626L489.631 253.232L489.933 253.63ZM494.742 249.996L495.142 249.694L494.841 249.295L494.44 249.598L494.742 249.996ZM495.487 249.563C495.525 249.29 495.334 249.037 495.06 248.999L490.603 248.379C490.33 248.341 490.077 248.532 490.039 248.805C490.001 249.079 490.192 249.331 490.465 249.369L494.427 249.921L493.876 253.882C493.838 254.156 494.029 254.409 494.302 254.447C494.576 254.485 494.828 254.294 494.867 254.02L495.487 249.563ZM293.329 402.521L293.73 402.218L293.127 401.42L292.726 401.723L293.329 402.521ZM297.737 399.189L298.538 398.584L297.935 397.786L297.134 398.392L297.737 399.189ZM302.545 395.555L303.347 394.95L302.744 394.152L301.943 394.758L302.545 395.555ZM307.354 391.921L308.156 391.316L307.553 390.518L306.751 391.124L307.354 391.921ZM312.163 388.287L312.964 387.682L312.361 386.884L311.56 387.49L312.163 388.287ZM316.971 384.654L317.773 384.048L317.17 383.25L316.369 383.856L316.971 384.654ZM321.78 381.02L322.582 380.414L321.979 379.616L321.177 380.222L321.78 381.02ZM326.589 377.386L327.39 376.78L326.787 375.982L325.986 376.588L326.589 377.386ZM331.397 373.752L332.199 373.146L331.596 372.348L330.795 372.954L331.397 373.752ZM336.206 370.118L337.008 369.512L336.405 368.714L335.603 369.32L336.206 370.118ZM341.015 366.484L341.816 365.878L341.213 365.08L340.412 365.686L341.015 366.484ZM345.823 362.85L346.625 362.244L346.022 361.446L345.221 362.052L345.823 362.85ZM350.632 359.216L351.434 358.61L350.831 357.812L350.029 358.418L350.632 359.216ZM355.441 355.582L356.242 354.976L355.639 354.178L354.838 354.784L355.441 355.582ZM360.249 351.948L361.051 351.342L360.448 350.544L359.647 351.15L360.249 351.948ZM365.058 348.314L365.86 347.708L365.257 346.91L364.455 347.516L365.058 348.314ZM369.867 344.68L370.668 344.074L370.065 343.276L369.264 343.882L369.867 344.68ZM374.675 341.046L375.477 340.44L374.874 339.642L374.073 340.248L374.675 341.046ZM379.484 337.412L380.286 336.806L379.683 336.008L378.881 336.614L379.484 337.412ZM384.293 333.778L385.094 333.172L384.491 332.374L383.69 332.98L384.293 333.778ZM389.101 330.144L389.903 329.538L389.3 328.74L388.499 329.346L389.101 330.144ZM393.91 326.51L394.712 325.904L394.109 325.106L393.307 325.712L393.91 326.51ZM398.719 322.876L399.52 322.27L398.917 321.472L398.116 322.078L398.719 322.876ZM403.527 319.242L404.329 318.636L403.726 317.838L402.925 318.444L403.527 319.242ZM408.336 315.608L409.138 315.002L408.535 314.204L407.733 314.81L408.336 315.608ZM413.145 311.974L413.946 311.368L413.343 310.57L412.542 311.176L413.145 311.974ZM417.953 308.34L418.755 307.734L418.152 306.936L417.351 307.542L417.953 308.34ZM422.762 304.706L423.564 304.1L422.961 303.302L422.159 303.908L422.762 304.706ZM427.571 301.072L428.372 300.466L427.769 299.668L426.968 300.274L427.571 301.072ZM432.38 297.438L433.181 296.832L432.578 296.034L431.777 296.64L432.38 297.438ZM437.188 293.804L437.99 293.198L437.387 292.4L436.585 293.006L437.188 293.804ZM441.997 290.17L442.798 289.564L442.195 288.766L441.394 289.372L441.997 290.17ZM446.806 286.536L447.607 285.93L447.004 285.132L446.203 285.738L446.806 286.536ZM451.614 282.902L452.416 282.296L451.813 281.498L451.011 282.104L451.614 282.902ZM456.423 279.268L457.224 278.662L456.621 277.864L455.82 278.47L456.423 279.268ZM461.232 275.634L462.033 275.028L461.43 274.23L460.629 274.836L461.232 275.634ZM466.04 272L466.842 271.394L466.239 270.596L465.437 271.202L466.04 272ZM470.849 268.366L471.65 267.76L471.047 266.962L470.246 267.568L470.849 268.366ZM475.658 264.732L476.459 264.126L475.856 263.328L475.055 263.934L475.658 264.732ZM480.466 261.098L481.268 260.492L480.665 259.694L479.863 260.3L480.466 261.098ZM485.275 257.464L486.076 256.858L485.473 256.06L484.672 256.666L485.275 257.464ZM490.084 253.83L490.885 253.224L490.282 252.426L489.481 253.032L490.084 253.83ZM494.892 250.196L495.293 249.893L494.69 249.095L494.289 249.398L494.892 250.196Z" fill="black"/>
<rect x="51.2734" y="411.034" width="226.156" height="28.9658" fill="#C6B6DB"/>
<path d="M134.948 430.178C134.244 430.178 133.658 430.045 133.188 429.778C132.719 429.512 132.367 429.128 132.132 428.626C131.898 428.125 131.78 427.533 131.78 426.85V426.418H133.476C133.476 426.461 133.476 426.509 133.476 426.562C133.476 426.605 133.476 426.653 133.476 426.706C133.487 427.09 133.53 427.437 133.604 427.746C133.69 428.056 133.834 428.301 134.036 428.482C134.25 428.664 134.554 428.754 134.948 428.754C135.364 428.754 135.679 428.658 135.892 428.466C136.106 428.264 136.25 427.981 136.324 427.618C136.399 427.256 136.436 426.84 136.436 426.37C136.436 425.688 136.308 425.133 136.052 424.706C135.807 424.269 135.37 424.029 134.74 423.986C134.708 423.976 134.666 423.97 134.612 423.97C134.57 423.97 134.532 423.97 134.5 423.97V422.258C134.532 422.258 134.57 422.258 134.612 422.258C134.655 422.258 134.692 422.258 134.724 422.258C135.332 422.237 135.77 422.077 136.036 421.778C136.303 421.48 136.436 420.984 136.436 420.29C136.436 419.704 136.335 419.234 136.132 418.882C135.94 418.53 135.551 418.354 134.964 418.354C134.378 418.354 133.988 418.552 133.796 418.946C133.604 419.33 133.498 419.826 133.476 420.434C133.476 420.477 133.476 420.525 133.476 420.578C133.476 420.621 133.476 420.664 133.476 420.706H131.78V420.274C131.78 419.581 131.898 418.989 132.132 418.498C132.367 418.008 132.719 417.629 133.188 417.362C133.668 417.096 134.26 416.962 134.964 416.962C135.679 416.962 136.271 417.096 136.74 417.362C137.21 417.629 137.562 418.013 137.796 418.514C138.031 419.005 138.148 419.597 138.148 420.29C138.148 421.069 137.978 421.693 137.636 422.162C137.306 422.632 136.858 422.952 136.292 423.122C136.687 423.24 137.018 423.442 137.284 423.73C137.562 424.018 137.775 424.386 137.924 424.834C138.074 425.272 138.148 425.784 138.148 426.37C138.148 427.138 138.042 427.81 137.828 428.386C137.615 428.952 137.274 429.394 136.804 429.714C136.335 430.024 135.716 430.178 134.948 430.178ZM139.549 430.034V428.13H141.261V430.034H139.549ZM146.445 430.034V417.074H149.261C150.221 417.074 150.979 417.224 151.533 417.522C152.099 417.81 152.499 418.248 152.733 418.834C152.979 419.421 153.101 420.152 153.101 421.026V425.794C153.101 426.712 152.979 427.485 152.733 428.114C152.499 428.744 152.109 429.224 151.565 429.554C151.032 429.874 150.312 430.034 149.405 430.034H146.445ZM148.253 428.738H149.277C149.939 428.738 150.408 428.61 150.685 428.354C150.963 428.098 151.128 427.725 151.181 427.234C151.245 426.744 151.277 426.152 151.277 425.458V421.25C151.277 420.578 151.235 420.034 151.149 419.618C151.064 419.202 150.877 418.898 150.589 418.706C150.301 418.514 149.848 418.418 149.229 418.418H148.253V428.738ZM154.883 430.034V417.074H159.907V418.418H156.691V422.706H159.299V423.986H156.691V428.738H159.939V430.034H154.883ZM163.654 430.034L160.758 417.074H162.454L164.502 426.626L166.454 417.074H168.102L165.238 430.034H163.654ZM169.477 430.034V417.074H174.501V418.418H171.285V422.706H173.893V423.986H171.285V428.738H174.533V430.034H169.477ZM175.992 430.034V417.074H177.8V428.738H181.112V430.034H175.992ZM185.57 430.178C184.695 430.178 183.996 430.008 183.474 429.666C182.951 429.325 182.578 428.84 182.354 428.21C182.13 427.57 182.018 426.824 182.018 425.97V421.058C182.018 420.205 182.13 419.474 182.354 418.866C182.588 418.248 182.962 417.778 183.474 417.458C183.996 417.128 184.695 416.962 185.57 416.962C186.444 416.962 187.138 417.128 187.65 417.458C188.162 417.789 188.53 418.258 188.754 418.866C188.988 419.474 189.106 420.205 189.106 421.058V425.986C189.106 426.829 188.988 427.565 188.754 428.194C188.53 428.824 188.162 429.314 187.65 429.666C187.138 430.008 186.444 430.178 185.57 430.178ZM185.57 428.754C186.05 428.754 186.412 428.658 186.658 428.466C186.903 428.264 187.068 427.986 187.154 427.634C187.239 427.272 187.282 426.85 187.282 426.37V420.69C187.282 420.21 187.239 419.8 187.154 419.458C187.068 419.106 186.903 418.84 186.658 418.658C186.412 418.466 186.05 418.37 185.57 418.37C185.09 418.37 184.722 418.466 184.466 418.658C184.22 418.84 184.055 419.106 183.97 419.458C183.884 419.8 183.842 420.21 183.842 420.69V426.37C183.842 426.85 183.884 427.272 183.97 427.634C184.055 427.986 184.22 428.264 184.466 428.466C184.722 428.658 185.09 428.754 185.57 428.754ZM190.883 430.034V417.074H194.099C194.877 417.074 195.496 417.218 195.955 417.506C196.424 417.784 196.765 418.189 196.979 418.722C197.192 419.256 197.299 419.901 197.299 420.658C197.299 421.341 197.176 421.933 196.931 422.434C196.696 422.936 196.344 423.325 195.875 423.602C195.405 423.869 194.819 424.002 194.115 424.002H192.691V430.034H190.883ZM192.691 422.706H193.523C194.045 422.706 194.456 422.648 194.755 422.53C195.053 422.413 195.267 422.21 195.395 421.922C195.523 421.624 195.587 421.208 195.587 420.674C195.587 420.056 195.539 419.581 195.443 419.25C195.357 418.92 195.171 418.69 194.883 418.562C194.595 418.434 194.147 418.37 193.539 418.37H192.691V422.706Z" fill="black"/>
<rect x="293.027" y="411.034" width="226.156" height="28.9658" fill="#C6B6DB"/>
<path d="M379.216 430.034V426.562H375.456V424.77L378.832 417.074H380.848V425.042H382.304V426.562H380.848V430.034H379.216ZM377.104 425.042H379.216V419.154L377.104 425.042ZM383.335 430.034V428.13H385.047V430.034H383.335ZM390.23 430.034V417.074H393.046C394.006 417.074 394.764 417.224 395.318 417.522C395.884 417.81 396.284 418.248 396.518 418.834C396.764 419.421 396.886 420.152 396.886 421.026V425.794C396.886 426.712 396.764 427.485 396.518 428.114C396.284 428.744 395.894 429.224 395.35 429.554C394.817 429.874 394.097 430.034 393.19 430.034H390.23ZM392.038 428.738H393.062C393.724 428.738 394.193 428.61 394.47 428.354C394.748 428.098 394.913 427.725 394.966 427.234C395.03 426.744 395.062 426.152 395.062 425.458V421.25C395.062 420.578 395.02 420.034 394.934 419.618C394.849 419.202 394.662 418.898 394.374 418.706C394.086 418.514 393.633 418.418 393.014 418.418H392.038V428.738ZM398.668 430.034V417.074H403.692V418.418H400.476V422.706H403.084V423.986H400.476V428.738H403.724V430.034H398.668ZM405.184 430.034V417.074H406.992V428.738H410.304V430.034H405.184ZM411.639 430.034V417.074H413.415V430.034H411.639ZM417.768 430.034L414.872 417.074H416.568L418.616 426.626L420.568 417.074H422.216L419.352 430.034H417.768ZM423.59 430.034V417.074H428.614V418.418H425.398V422.706H428.006V423.986H425.398V428.738H428.646V430.034H423.59ZM430.105 430.034V417.074H432.713C433.577 417.074 434.292 417.192 434.857 417.426C435.423 417.65 435.839 418.018 436.105 418.53C436.383 419.032 436.521 419.693 436.521 420.514C436.521 421.016 436.468 421.474 436.361 421.89C436.255 422.296 436.084 422.642 435.849 422.93C435.615 423.208 435.305 423.41 434.921 423.538L436.761 430.034H435.017L433.321 423.954H431.913V430.034H430.105ZM431.913 422.658H432.601C433.113 422.658 433.529 422.594 433.849 422.466C434.169 422.338 434.404 422.12 434.553 421.81C434.703 421.501 434.777 421.069 434.777 420.514C434.777 419.757 434.639 419.213 434.361 418.882C434.084 418.541 433.535 418.37 432.713 418.37H431.913V422.658Z" fill="black"/>
<mask id="mask0" mask-type="alpha" maskUnits="userSpaceOnUse" x="3" y="186" width="17" height="36">
<rect x="3.35352" y="186" width="16" height="36" fill="#C4C4C4"/>
</mask>
<g mask="url(#mask0)">
<circle r="14.4829" transform="matrix(1 0 0 -1 3.0532 205.483)" fill="#FFCA3A"/>
</g>
</svg>
