<svg xmlns="http://www.w3.org/2000/svg" xmlns:xlink="http://www.w3.org/1999/xlink" width="539.5" height="307.001" viewBox="0 0 539.5 307.001">
  <defs>
    <filter id="Subtraction_2" x="386.5" y="151" width="87" height="156.001" filterUnits="userSpaceOnUse">
      <feOffset dy="3" input="SourceAlpha"/>
      <feGaussianBlur stdDeviation="3" result="blur"/>
      <feFlood flood-opacity="0.161"/>
      <feComposite operator="in" in2="blur"/>
      <feComposite in="SourceGraphic"/>
    </filter>
    <filter id="Subtraction_5" x="458.5" y="159" width="81" height="140.001" filterUnits="userSpaceOnUse">
      <feOffset dy="3" input="SourceAlpha"/>
      <feGaussianBlur stdDeviation="3" result="blur-2"/>
      <feFlood flood-opacity="0.161"/>
      <feComposite operator="in" in2="blur-2"/>
      <feComposite in="SourceGraphic"/>
    </filter>
    <filter id="Subtraction_3" x="12.105" y="47.499" width="118.896" height="145" filterUnits="userSpaceOnUse">
      <feOffset dy="3" input="SourceAlpha"/>
      <feGaussianBlur stdDeviation="3" result="blur-3"/>
      <feFlood flood-opacity="0.161"/>
      <feComposite operator="in" in2="blur-3"/>
      <feComposite in="SourceGraphic"/>
    </filter>
  </defs>
  <g id="Group_846" data-name="Group 846" transform="translate(-222.5 -4030)">
    <text id="TASK_ANALYSIS" data-name="TASK ANALYSIS" transform="translate(411 4055)" fill="#171717" font-size="24" font-family="Arboria-Medium, Arboria" font-weight="500"><tspan x="0" y="0">TASK ANALYSIS</tspan></text>
    <g id="Group_844" data-name="Group 844" transform="translate(12 -176)">
      <text id="Failed_to_locate_the_citizenship_form" data-name="Failed to locate the 
citizenship form" transform="translate(420 4427)" fill="#171717" font-size="18" font-family="GimletDisplay-Regular, Gimlet Display"><tspan x="0" y="0">Failed to locate the </tspan><tspan x="0" y="22">citizenship form</tspan></text>
      <g id="Group_841" data-name="Group 841" transform="translate(0 0.001)">
        <g transform="matrix(1, 0, 0, 1, 210.5, 4206)" filter="url(#Subtraction_2)">
          <path id="Subtraction_2-2" data-name="Subtraction 2" d="M-7520,148h-.008a68.542,68.542,0,0,1-26.849-5.421,69.012,69.012,0,0,1-11.721-6.362,69.475,69.475,0,0,1-10.211-8.425,69.472,69.472,0,0,1-8.426-10.212,69,69,0,0,1-6.362-11.721A68.562,68.562,0,0,1-7589,79a68.567,68.567,0,0,1,5.422-26.859,69,69,0,0,1,6.362-11.721,69.47,69.47,0,0,1,8.426-10.212,69.474,69.474,0,0,1,10.211-8.426,69.009,69.009,0,0,1,11.721-6.362A68.564,68.564,0,0,1-7520,10Z" transform="translate(7984.5 147)" fill="#045289"/>
        </g>
        <g transform="matrix(1, 0, 0, 1, 210.5, 4206)" filter="url(#Subtraction_5)">
          <path id="Subtraction_5-2" data-name="Subtraction 5" d="M63,0h-.008A64.36,64.36,0,0,0,38.478,4.794a63.689,63.689,0,0,0-10.7,5.624,63.04,63.04,0,0,0-9.323,7.449,61.894,61.894,0,0,0-7.693,9.028A60.418,60.418,0,0,0,4.951,37.256a59.414,59.414,0,0,0,0,47.488A60.418,60.418,0,0,0,10.76,95.106a61.891,61.891,0,0,0,7.693,9.028,63.039,63.039,0,0,0,9.323,7.449,63.686,63.686,0,0,0,10.7,5.624A64.381,64.381,0,0,0,63,122Z" transform="translate(530.5 287) rotate(180)" fill="#c1c1c1"/>
        </g>
        <text id="_50_" data-name="50%" transform="translate(621 4442)" fill="#fff" font-size="24" font-family="Arboria-Bold, Arboria" font-weight="700"><tspan x="0" y="0">50%</tspan></text>
      </g>
    </g>
    <g id="Group_843" data-name="Group 843" transform="translate(-38 -153)">
      <text id="Failed_to_locate_the_form_and_find_citizenship_requirements" data-name="Failed to locate the form and 
find citizenship requirements" transform="translate(403 4295)" fill="#171717" font-size="18" font-family="GimletDisplay-Regular, Gimlet Display"><tspan x="0" y="0">Failed to locate the form and </tspan><tspan x="0" y="22">find citizenship requirements</tspan></text>
      <g id="Group_842" data-name="Group 842" transform="translate(-450 -218)">
        <g transform="matrix(1, 0, 0, 1, 710.5, 4401)" filter="url(#Subtraction_3)">
          <path id="Subtraction_3-2" data-name="Subtraction 3" d="M-7479,192.691a63.424,63.424,0,0,1-20.007-3.216,63.22,63.22,0,0,1-17.388-8.958l37.4-51.325v-63.5a63.106,63.106,0,0,1,24.718,4.99,63.516,63.516,0,0,1,10.787,5.855,63.946,63.946,0,0,1,9.4,7.754,63.952,63.952,0,0,1,7.754,9.4,63.488,63.488,0,0,1,5.854,10.787,63.1,63.1,0,0,1,4.99,24.718,63.1,63.1,0,0,1-4.99,24.717,63.487,63.487,0,0,1-5.854,10.786,63.95,63.95,0,0,1-7.754,9.4,63.947,63.947,0,0,1-9.4,7.754,63.519,63.519,0,0,1-10.787,5.855A63.106,63.106,0,0,1-7479,192.691Z" transform="translate(7537.5 -12.19)" fill="#bf3c42"/>
        </g>
        <path id="Subtraction_4" data-name="Subtraction 4" d="M-7565.665,112.16h0a55.9,55.9,0,0,1-9.407-8.676,55.683,55.683,0,0,1-7.2-10.631,55.2,55.2,0,0,1-4.606-12.2,55.741,55.741,0,0,1-1.622-13.372,55.15,55.15,0,0,1,4.361-21.6,55.526,55.526,0,0,1,5.117-9.427,55.865,55.865,0,0,1,6.778-8.214,55.877,55.877,0,0,1,8.213-6.777,55.545,55.545,0,0,1,9.427-5.117,55.151,55.151,0,0,1,21.6-4.362V67.5l-32.664,44.66Z" transform="translate(8299 4449.715)" fill="#c1c1c1"/>
        <text id="_60_" data-name="60%" transform="translate(757 4558)" fill="#fff" font-size="24" font-family="Arboria-Bold, Arboria" font-weight="700"><tspan x="0" y="0">60%</tspan></text>
      </g>
    </g>
  </g>
</svg>
