<svg xmlns="http://www.w3.org/2000/svg" xmlns:xlink="http://www.w3.org/1999/xlink" width="50" height="50" viewBox="0 0 50 50">
  <defs>
    <clipPath id="clip-path">
      <rect id="Rectangle_1" data-name="Rectangle 1" width="50" height="50" rx="5" transform="translate(408 656)" fill="#fff"/>
    </clipPath>
  </defs>
  <g id="Mask_Group_1" data-name="Mask Group 1" transform="translate(-408 -656)" clip-path="url(#clip-path)">
    <g id="adobe-xd" transform="translate(400.055 648.556)">
      <path id="Path_1" data-name="Path 1" d="M2.083,2.083H70.617v68.1H2.083Z" transform="translate(-3.707 -3.697)" fill="#2e001e"/>
      <path id="Path_2" data-name="Path 2" d="M0,0V55.533H55.556V0ZM2.315,2.373H53.241V53.16H2.315Z" transform="translate(4.611 4.916)" fill="#ff2bc2"/>
      <path id="Path_3" data-name="Path 3" d="M39.3,21.47a3.179,3.179,0,0,0-1.343-.231c-2.917,0-4.861,2.245-4.861,5.972,0,4.259,1.991,5.972,4.583,5.972a4.367,4.367,0,0,0,1.6-.255V21.47ZM28.93,27.4c0-5.394,3.472-9.606,9.167-9.606a10.265,10.265,0,0,1,1.2.046V11.817a.232.232,0,0,1,.231-.231h3.727c.185,0,.231.069.231.185V32.928a16.488,16.488,0,0,0,.116,2.269c0,.162,0,.185-.139.255a13.789,13.789,0,0,1-5.926,1.343c-5.023,0-8.611-3.1-8.611-9.4Zm-7.894-3.75,6.481,12.569c.116.185.046.37-.139.37H23.352a.454.454,0,0,1-.486-.3q-2.222-4.583-4.537-9.514h-.046c-1.389,3.1-2.917,6.481-4.4,9.537a.445.445,0,0,1-.417.255H9.625c-.231,0-.255-.185-.139-.324l6.343-12.2L9.694,11.91a.2.2,0,0,1,.162-.347h3.981c.231,0,.347.046.417.255,1.458,3.079,2.94,6.111,4.329,9.213h.046c1.343-3.056,2.824-6.134,4.236-9.167.116-.185.185-.3.417-.3h3.727c.185,0,.255.139.139.347L21.037,23.646Z" transform="translate(5.658 6.835)" fill="#ff2bc2"/>
    </g>
  </g>
</svg>
